<svg width="43" height="43" viewBox="0 0 43 43" fill="none" xmlns="http://www.w3.org/2000/svg">
<path d="M19.9531 7.43751H13.3625C11.4198 7.43751 10.4485 7.43751 9.70647 7.81559C9.05377 8.14815 8.52313 8.6788 8.19058 9.33148C7.8125 10.0735 7.8125 11.0448 7.8125 12.9875V29.6375C7.8125 31.5802 7.8125 32.5516 8.19058 33.2936C8.52313 33.9462 9.05377 34.4769 9.70647 34.8094C10.4485 35.1875 11.4198 35.1875 13.3625 35.1875H30.0125C31.9552 35.1875 32.9266 35.1875 33.6686 34.8094C34.3212 34.4769 34.8519 33.9462 35.1844 33.2936C35.5625 32.5516 35.5625 31.5802 35.5625 29.6375V22.1797M27.7578 10.0391L32.6633 14.9446M19.5416 18.2553L31.0722 6.72472C32.4267 5.37008 34.6232 5.37008 35.9777 6.72472C37.3324 8.07935 37.3324 10.2756 35.9777 11.6303L24.0764 23.5315C22.7555 24.8525 22.0951 25.513 21.3427 26.0382C20.675 26.5045 19.9547 26.8906 19.1969 27.1889C18.3431 27.525 17.4275 27.7098 15.5963 28.0793L14.75 28.25L14.8323 27.6739C15.1235 25.6354 15.2691 24.6161 15.6003 23.6645C15.8943 22.82 16.2958 22.0172 16.7949 21.2754C17.3575 20.4394 18.0855 19.7113 19.5416 18.2553Z" stroke="#EAEAEA" stroke-width="3.75" stroke-linecap="round" stroke-linejoin="round"/>
</svg>
