<svg width="349" height="128" viewBox="0 0 349 128" fill="none" xmlns="http://www.w3.org/2000/svg">
<path d="M188.881 64.7074C190.693 64.7074 192.307 65.1385 193.722 66.0006C195.137 66.8628 196.164 68.0012 196.806 69.416C196.883 69.5707 196.922 69.7365 196.922 69.9134C196.922 70.2339 196.806 70.5102 196.573 70.7423C196.341 70.9744 196.065 71.0905 195.744 71.0905C195.534 71.0905 195.319 71.0242 195.098 70.8915C194.888 70.7478 194.739 70.5765 194.65 70.3776C194.197 69.3607 193.451 68.5594 192.412 67.9736C191.384 67.3767 190.207 67.0783 188.881 67.0783C188.173 67.0783 187.438 67.1667 186.676 67.3436C185.924 67.5093 185.222 67.7636 184.57 68.1062C183.929 68.4488 183.409 68.8854 183.012 69.416C182.614 69.9355 182.415 70.5434 182.415 71.2397C182.415 72.0466 182.68 72.7042 183.21 73.2126C183.741 73.71 184.415 74.1024 185.233 74.3898C186.062 74.6661 186.924 74.8816 187.82 75.0364C188.726 75.1801 189.549 75.3016 190.29 75.4011C191.174 75.5227 192.053 75.7106 192.926 75.9648C193.81 76.208 194.612 76.5561 195.33 77.0093C196.048 77.4514 196.623 78.0262 197.054 78.7336C197.496 79.441 197.717 80.3086 197.717 81.3365C197.717 82.4639 197.447 83.4476 196.905 84.2876C196.363 85.1166 195.651 85.8074 194.766 86.3601C193.893 86.9017 192.937 87.3106 191.898 87.5869C190.87 87.8522 189.864 87.9848 188.881 87.9848C186.836 87.9848 184.996 87.5206 183.36 86.5922C181.724 85.6637 180.558 84.3982 179.861 82.7955C179.795 82.6187 179.762 82.4584 179.762 82.3147C179.762 81.9942 179.878 81.7178 180.11 81.4857C180.342 81.2536 180.619 81.1376 180.939 81.1376C181.16 81.1376 181.376 81.2094 181.586 81.3531C181.807 81.4968 181.956 81.6681 182.033 81.8671C182.553 83.0497 183.42 83.9782 184.636 84.6524C185.863 85.3266 187.278 85.6637 188.881 85.6637C189.588 85.6637 190.317 85.5808 191.069 85.415C191.832 85.2382 192.539 84.9785 193.191 84.6358C193.843 84.2821 194.368 83.8345 194.766 83.2929C195.175 82.7402 195.38 82.0881 195.38 81.3365C195.38 80.4523 195.092 79.7725 194.518 79.2973C193.954 78.8109 193.258 78.4572 192.429 78.2362C191.6 78.0041 190.782 77.8383 189.975 77.7388C188.892 77.5841 187.77 77.3906 186.609 77.1585C185.46 76.9264 184.388 76.5893 183.393 76.1472C182.398 75.7051 181.591 75.0916 180.972 74.3069C180.353 73.5111 180.044 72.4832 180.044 71.2231C180.044 70.162 180.309 69.2281 180.84 68.4212C181.37 67.6033 182.067 66.9235 182.929 66.382C183.802 65.8293 184.758 65.4148 185.797 65.1385C186.836 64.8511 187.864 64.7074 188.881 64.7074ZM210.168 70.6097C211.351 70.6097 212.412 70.9523 213.351 71.6376C214.302 72.3229 215.131 73.0468 215.838 73.8095L215.987 71.7205C215.987 71.4 216.076 71.1292 216.252 70.9081C216.429 70.676 216.678 70.5599 216.999 70.5599C217.319 70.5599 217.59 70.676 217.811 70.9081C218.043 71.1292 218.159 71.4 218.159 71.7205V86.7082C218.159 87.0288 218.043 87.3051 217.811 87.5372C217.59 87.7583 217.319 87.8688 216.999 87.8688C216.678 87.8688 216.402 87.7583 216.17 87.5372C215.949 87.3051 215.838 87.0288 215.838 86.7082V84.8182C215.108 85.614 214.241 86.3324 213.235 86.9735C212.24 87.6146 211.19 87.9351 210.085 87.9351C208.946 87.9351 207.891 87.703 206.918 87.2388C205.946 86.7635 205.095 86.1224 204.365 85.3156C203.636 84.5087 203.066 83.5913 202.657 82.5634C202.259 81.5244 202.061 80.4357 202.061 79.2973C202.061 78.1699 202.259 77.0867 202.657 76.0477C203.066 74.9977 203.636 74.0692 204.365 73.2624C205.106 72.4445 205.968 71.7979 206.951 71.3226C207.935 70.8473 209.007 70.6097 210.168 70.6097ZM215.921 79.1978C215.921 78.1257 215.661 77.1309 215.142 76.2135C214.633 75.2851 213.942 74.5335 213.069 73.9587C212.207 73.384 211.245 73.0966 210.184 73.0966C209.112 73.0966 208.151 73.3895 207.3 73.9753C206.449 74.5611 205.774 75.3293 205.277 76.2798C204.791 77.2193 204.547 78.2251 204.547 79.2973C204.547 80.3583 204.791 81.3586 205.277 82.2981C205.763 83.2376 206.421 84.0003 207.25 84.5861C208.09 85.1608 209.035 85.4482 210.085 85.4482C211.146 85.4482 212.119 85.1553 213.003 84.5695C213.887 83.9726 214.595 83.1989 215.125 82.2484C215.656 81.2868 215.921 80.2699 215.921 79.1978ZM230.792 87.9351C229.631 87.9351 228.587 87.6256 227.658 87.0067C226.73 86.3877 225.951 85.7577 225.321 85.1166L225.238 86.7082C225.238 87.0509 225.127 87.3438 224.906 87.5869C224.696 87.8301 224.42 87.9517 224.077 87.9517C223.735 87.9517 223.442 87.8301 223.199 87.5869C222.955 87.3438 222.834 87.0509 222.834 86.7082V65.8348C222.834 65.4922 222.955 65.1993 223.199 64.9561C223.442 64.713 223.735 64.5914 224.077 64.5914C224.42 64.5914 224.713 64.713 224.956 64.9561C225.199 65.1993 225.321 65.4922 225.321 65.8348V73.3287C225.995 72.6213 226.78 71.9968 227.675 71.4552C228.57 70.9136 229.559 70.6428 230.643 70.6428C231.792 70.6428 232.842 70.886 233.793 71.3723C234.754 71.8587 235.589 72.5163 236.296 73.3453C237.004 74.1632 237.551 75.0972 237.938 76.1472C238.324 77.1972 238.518 78.2859 238.518 79.4133C238.518 80.9055 238.186 82.3037 237.523 83.6079C236.86 84.9011 235.948 85.9456 234.788 86.7414C233.627 87.5372 232.295 87.9351 230.792 87.9351ZM230.742 85.4482C231.792 85.4482 232.71 85.1719 233.494 84.6192C234.29 84.0555 234.904 83.3205 235.335 82.4142C235.777 81.4968 235.998 80.5131 235.998 79.4631C235.998 78.402 235.777 77.3906 235.335 76.429C234.893 75.4564 234.274 74.6661 233.478 74.0582C232.682 73.4392 231.748 73.1297 230.676 73.1297C229.571 73.1297 228.614 73.4226 227.808 74.0085C227.012 74.5832 226.398 75.3293 225.967 76.2467C225.547 77.1641 225.337 78.1422 225.337 79.1812C225.337 80.2202 225.553 81.2205 225.984 82.1821C226.415 83.1437 227.034 83.9284 227.841 84.5363C228.659 85.1442 229.626 85.4482 230.742 85.4482ZM244.303 68.0896C243.828 68.0896 243.408 67.9183 243.043 67.5757C242.69 67.233 242.513 66.8185 242.513 66.3322C242.513 65.8459 242.69 65.4314 243.043 65.0888C243.408 64.7461 243.828 64.5748 244.303 64.5748C244.79 64.5748 245.21 64.7461 245.563 65.0888C245.917 65.4314 246.094 65.8459 246.094 66.3322C246.094 66.8185 245.917 67.233 245.563 67.5757C245.21 67.9183 244.79 68.0896 244.303 68.0896ZM243.093 71.6873C243.093 71.4 243.226 71.1513 243.491 70.9413C243.756 70.7202 244.005 70.6097 244.237 70.6097C244.624 70.6097 244.944 70.7257 245.199 70.9579C245.453 71.19 245.58 71.4939 245.58 71.8697L245.613 86.7414C245.613 87.084 245.492 87.3769 245.248 87.6201C245.005 87.8633 244.712 87.9848 244.37 87.9848C244.027 87.9848 243.734 87.8577 243.491 87.6035C243.248 87.3604 243.126 87.0675 243.126 86.7248L243.093 71.6873ZM258.146 87.9517C256.643 87.9517 255.311 87.5538 254.151 86.758C252.99 85.9622 252.078 84.9177 251.415 83.6245C250.752 82.3202 250.421 80.922 250.421 79.4299C250.421 78.3025 250.614 77.2138 251.001 76.1638C251.388 75.1137 251.935 74.1798 252.642 73.3619C253.35 72.5329 254.184 71.8752 255.146 71.3889C256.107 70.9026 257.157 70.6594 258.296 70.6594C259.379 70.6594 260.368 70.9302 261.263 71.4718C262.159 72.0134 262.943 72.6379 263.618 73.3453V65.8514C263.618 65.5088 263.739 65.2159 263.982 64.9727C264.226 64.7295 264.518 64.608 264.861 64.608C265.215 64.608 265.508 64.7295 265.74 64.9727C265.983 65.2159 266.105 65.5088 266.105 65.8514V86.7248C266.105 87.0675 265.983 87.3604 265.74 87.6035C265.497 87.8467 265.204 87.9683 264.861 87.9683C264.518 87.9683 264.237 87.8467 264.016 87.6035C263.806 87.3604 263.701 87.0675 263.701 86.7248L263.618 85.1332C262.988 85.7743 262.208 86.4043 261.28 87.0232C260.352 87.6422 259.307 87.9517 258.146 87.9517ZM258.196 85.4648C259.324 85.4648 260.291 85.1608 261.098 84.5529C261.904 83.945 262.523 83.1603 262.954 82.1986C263.386 81.237 263.601 80.2368 263.601 79.1978C263.601 78.1588 263.386 77.1806 262.954 76.2632C262.534 75.3459 261.927 74.5998 261.131 74.025C260.335 73.4392 259.379 73.1463 258.263 73.1463C257.19 73.1463 256.256 73.4558 255.461 74.0748C254.665 74.6827 254.046 75.473 253.604 76.4456C253.162 77.4072 252.941 78.4186 252.941 79.4796C252.941 80.5297 253.156 81.5134 253.587 82.4308C254.029 83.3371 254.643 84.0721 255.427 84.6358C256.223 85.1885 257.146 85.4648 258.196 85.4648ZM278.704 70.5931C279.865 70.5931 280.948 70.8252 281.954 71.2894C282.96 71.7537 283.838 72.3947 284.59 73.2126C285.353 74.0195 285.944 74.9424 286.364 75.9814C286.795 77.0204 287.01 78.1201 287.01 79.2807C287.01 80.817 286.646 82.2429 285.916 83.5582C285.187 84.8734 284.197 85.9401 282.949 86.758C281.711 87.5648 280.318 87.9738 278.771 87.9848C277.201 87.9848 275.786 87.5814 274.526 86.7745C273.266 85.9677 272.266 84.9066 271.525 83.5913C270.796 82.265 270.431 80.8281 270.431 79.2807C270.431 78.1312 270.641 77.0369 271.061 75.998C271.492 74.9479 272.084 74.0195 272.835 73.2126C273.587 72.3947 274.46 71.7537 275.455 71.2894C276.46 70.8252 277.544 70.5931 278.704 70.5931ZM278.704 73.08C277.621 73.08 276.643 73.3674 275.77 73.9421C274.896 74.5169 274.2 75.274 273.681 76.2135C273.172 77.1419 272.918 78.1533 272.918 79.2475C272.918 80.3528 273.172 81.3807 273.681 82.3313C274.189 83.2818 274.885 84.05 275.77 84.6358C276.654 85.2106 277.649 85.4979 278.754 85.4979C279.848 85.4869 280.826 85.194 281.688 84.6192C282.562 84.0334 283.252 83.2708 283.761 82.3313C284.269 81.3918 284.524 80.3749 284.524 79.2807C284.524 78.1864 284.264 77.1696 283.744 76.2301C283.236 75.2795 282.54 74.5169 281.655 73.9421C280.782 73.3674 279.798 73.08 278.704 73.08ZM300.456 64.7074C302.268 64.7074 303.882 65.1385 305.297 66.0006C306.712 66.8628 307.74 68.0012 308.381 69.416C308.458 69.5707 308.497 69.7365 308.497 69.9134C308.497 70.2339 308.381 70.5102 308.148 70.7423C307.916 70.9744 307.64 71.0905 307.32 71.0905C307.109 71.0905 306.894 71.0242 306.673 70.8915C306.463 70.7478 306.314 70.5765 306.225 70.3776C305.772 69.3607 305.026 68.5594 303.987 67.9736C302.959 67.3767 301.782 67.0783 300.456 67.0783C299.748 67.0783 299.013 67.1667 298.251 67.3436C297.499 67.5093 296.797 67.7636 296.145 68.1062C295.504 68.4488 294.984 68.8854 294.587 69.416C294.189 69.9355 293.99 70.5434 293.99 71.2397C293.99 72.0466 294.255 72.7042 294.786 73.2126C295.316 73.71 295.99 74.1024 296.808 74.3898C297.637 74.6661 298.499 74.8816 299.395 75.0364C300.301 75.1801 301.124 75.3016 301.865 75.4011C302.749 75.5227 303.628 75.7106 304.501 75.9648C305.385 76.208 306.187 76.5561 306.905 77.0093C307.623 77.4514 308.198 78.0262 308.629 78.7336C309.071 79.441 309.292 80.3086 309.292 81.3365C309.292 82.4639 309.022 83.4476 308.48 84.2876C307.938 85.1166 307.226 85.8074 306.341 86.3601C305.468 86.9017 304.512 87.3106 303.473 87.5869C302.445 87.8522 301.439 87.9848 300.456 87.9848C298.411 87.9848 296.571 87.5206 294.935 86.5922C293.299 85.6637 292.133 84.3982 291.436 82.7955C291.37 82.6187 291.337 82.4584 291.337 82.3147C291.337 81.9942 291.453 81.7178 291.685 81.4857C291.917 81.2536 292.194 81.1376 292.514 81.1376C292.735 81.1376 292.951 81.2094 293.161 81.3531C293.382 81.4968 293.531 81.6681 293.608 81.8671C294.128 83.0497 294.996 83.9782 296.211 84.6524C297.438 85.3266 298.853 85.6637 300.456 85.6637C301.163 85.6637 301.893 85.5808 302.644 85.415C303.407 85.2382 304.114 84.9785 304.766 84.6358C305.418 84.2821 305.943 83.8345 306.341 83.2929C306.75 82.7402 306.955 82.0881 306.955 81.3365C306.955 80.4523 306.667 79.7725 306.093 79.2973C305.529 78.8109 304.833 78.4572 304.004 78.2362C303.175 78.0041 302.357 77.8383 301.55 77.7388C300.467 77.5841 299.345 77.3906 298.184 77.1585C297.035 76.9264 295.963 76.5893 294.968 76.1472C293.973 75.7051 293.166 75.0916 292.547 74.3069C291.928 73.5111 291.619 72.4832 291.619 71.2231C291.619 70.162 291.884 69.2281 292.415 68.4212C292.945 67.6033 293.642 66.9235 294.504 66.382C295.377 65.8293 296.333 65.4148 297.372 65.1385C298.411 64.8511 299.439 64.7074 300.456 64.7074Z" fill="url(#paint0_radial_1368_29735)"/>
<path d="M312.807 69.8139C312.586 69.8139 312.392 69.731 312.226 69.5652C312.061 69.3994 311.978 69.2004 311.978 68.9683C311.978 68.692 312.061 68.4046 312.226 68.1062C312.403 67.7967 312.619 67.5038 312.873 67.2275C313.127 66.9401 313.381 66.6804 313.636 66.4483C313.901 66.2051 314.122 66.0062 314.299 65.8514C314.652 65.5419 315.028 65.2601 315.426 65.0059C315.835 64.7406 316.216 64.4643 316.57 64.1769C316.935 63.8785 317.233 63.5469 317.465 63.1821C317.698 62.8063 317.814 62.3587 317.814 61.8392C317.814 61.4413 317.72 61.0821 317.532 60.7616C317.355 60.441 317.112 60.1868 316.802 59.9989C316.493 59.8 316.145 59.7005 315.758 59.7005C315.271 59.7005 314.857 59.8552 314.514 60.1647C314.172 60.4631 313.956 60.8058 313.868 61.1926C313.835 61.3695 313.735 61.5242 313.569 61.6568C313.415 61.7895 313.243 61.8558 313.055 61.8558C312.823 61.8558 312.624 61.7784 312.458 61.6237C312.304 61.4579 312.226 61.2645 312.226 61.0434C312.226 60.6344 312.326 60.2531 312.525 59.8994C312.735 59.5347 313.006 59.2141 313.337 58.9378C313.68 58.6615 314.061 58.446 314.481 58.2912C314.901 58.1254 315.332 58.0425 315.774 58.0425C316.493 58.0425 317.128 58.2139 317.681 58.5565C318.234 58.8881 318.67 59.3413 318.991 59.916C319.311 60.4797 319.471 61.1097 319.471 61.8061C319.471 62.5355 319.328 63.1656 319.04 63.6961C318.764 64.2156 318.41 64.6743 317.979 65.0722C317.548 65.459 317.101 65.8127 316.636 66.1333C316.183 66.4427 315.774 66.7522 315.41 67.0617C315.012 67.4154 314.663 67.7746 314.365 68.1394H319.206C319.438 68.1394 319.632 68.2223 319.787 68.3881C319.952 68.5538 320.035 68.7473 320.035 68.9683C320.035 69.2004 319.952 69.3994 319.787 69.5652C319.632 69.731 319.438 69.8139 319.206 69.8139H312.807Z" fill="url(#paint1_linear_1368_29735)"/>
<path d="M155.49 18.0384C155.49 16.8664 156.44 15.9163 157.612 15.9163C158.784 15.9163 159.734 16.8664 159.734 18.0384V125.207C159.734 126.379 158.784 127.329 157.612 127.329C156.44 127.329 155.49 126.379 155.49 125.207V18.0384Z" fill="url(#paint2_linear_1368_29735)"/>
<g filter="url(#filter0_d_1368_29735)">
<path d="M94.0746 68.0093H44.3801C35.7845 68.0093 28.8164 75.6617 28.8164 85.1015V95.5967C28.8164 105.036 35.7845 112.689 44.3801 112.689H94.0746C102.67 112.689 109.638 105.036 109.638 95.5967V85.1015C109.638 75.6617 102.67 68.0093 94.0746 68.0093Z" fill="url(#paint3_linear_1368_29735)"/>
<path d="M94.0748 68.1589H44.3803C35.8601 68.1589 28.9531 75.7442 28.9531 85.1012V95.5964C28.9531 104.953 35.8601 112.539 44.3803 112.539H94.0748C102.595 112.539 109.502 104.953 109.502 95.5964V85.1012C109.502 75.7442 102.595 68.1589 94.0748 68.1589Z" fill="url(#paint4_linear_1368_29735)" stroke="black" stroke-width="2.30304"/>
</g>
<path d="M124.486 66.3468C124.486 65.2704 123.691 64.3977 122.711 64.3977C121.731 64.3977 120.936 65.2704 120.936 66.3468V104.729C120.936 105.806 121.731 106.678 122.711 106.678C123.691 106.678 124.486 105.806 124.486 104.729V66.3468Z" fill="url(#paint5_linear_1368_29735)"/>
<g filter="url(#filter1_d_1368_29735)">
<path d="M68.9569 29.1969C69.1246 29.0916 69.3305 29.0916 69.4981 29.1969L124.371 63.5903C124.738 63.8206 124.738 64.4017 124.371 64.632L69.4981 99.0254C69.3305 99.1306 69.1246 99.1306 68.9569 99.0254L14.0838 64.632C13.7169 64.4017 13.7169 63.8206 14.0838 63.5903L68.9569 29.1969Z" fill="url(#paint6_linear_1368_29735)"/>
<path d="M69.092 29.4573C69.1761 29.4048 69.2788 29.4048 69.3629 29.4573L124.236 63.851C124.419 63.9659 124.419 64.2567 124.236 64.3716L69.3629 98.7653C69.2788 98.8178 69.1761 98.8178 69.092 98.7653L14.2192 64.3716C14.0357 64.2567 14.0357 63.9659 14.2192 63.8507L69.092 29.4573Z" stroke="black" stroke-width="2.68687"/>
</g>
<path d="M44.593 100.016C46.4026 100.016 47.8695 98.6738 47.8695 97.0177C47.8695 95.3616 46.4026 94.019 44.593 94.019C42.7834 94.019 41.3164 95.3616 41.3164 97.0177C41.3164 98.6738 42.7834 100.016 44.593 100.016Z" fill="#010101"/>
<path d="M94.5861 100.016C96.3957 100.016 97.8627 98.6738 97.8627 97.0177C97.8627 95.3616 96.3957 94.019 94.5861 94.019C92.7765 94.019 91.3096 95.3616 91.3096 97.0177C91.3096 98.6738 92.7765 100.016 94.5861 100.016Z" fill="#010101"/>
<ellipse cx="122.787" cy="110.681" rx="7.40639" ry="7.40531" fill="#FBCB4E"/>
<path d="M130.002 110.681C130.002 114.665 126.772 117.895 122.787 117.895C118.803 117.895 115.573 114.665 115.573 110.681C115.573 106.697 118.803 103.468 122.787 103.468C126.772 103.468 130.002 106.697 130.002 110.681Z" stroke="black" stroke-opacity="0.08" stroke-width="0.383839"/>
<path d="M129.042 110.681C129.042 114.135 126.242 116.935 122.787 116.935C119.333 116.935 116.532 114.135 116.532 110.681C116.532 107.227 119.333 104.427 122.787 104.427C126.242 104.427 129.042 107.227 129.042 110.681Z" stroke="black" stroke-opacity="0.08" stroke-width="2.30304"/>
<path d="M130.026 103.001L133.891 99.137" stroke="#FBCB4E" stroke-width="2.30304"/>
<path d="M122.893 119.647V125.295" stroke="#FBCB4E" stroke-width="2.30304"/>
<path d="M131.81 110.135H137.755" stroke="#FBCB4E" stroke-width="2.30304"/>
<path d="M113.381 110.135H107.733" stroke="#FBCB4E" stroke-width="2.30304"/>
<path d="M115.164 117.864L111.597 121.43" stroke="#FBCB4E" stroke-width="2.30304"/>
<path d="M130.026 117.864L133.891 121.43" stroke="#FBCB4E" stroke-width="2.30304"/>
<path d="M115.164 103.001L111.597 99.137" stroke="#FBCB4E" stroke-width="2.30304"/>
<defs>
<filter id="filter0_d_1368_29735" x="26.2664" y="67.0073" width="85.9223" height="49.7536" filterUnits="userSpaceOnUse" color-interpolation-filters="sRGB">
<feFlood flood-opacity="0" result="BackgroundImageFix"/>
<feColorMatrix in="SourceAlpha" type="matrix" values="0 0 0 0 0 0 0 0 0 0 0 0 0 0 0 0 0 0 127 0" result="hardAlpha"/>
<feOffset dy="1.53536"/>
<feGaussianBlur stdDeviation="0.767679"/>
<feComposite in2="hardAlpha" operator="out"/>
<feColorMatrix type="matrix" values="0 0 0 0 0 0 0 0 0 0 0 0 0 0 0 0 0 0 0.25 0"/>
<feBlend mode="normal" in2="BackgroundImageFix" result="effect1_dropShadow_1368_29735"/>
<feBlend mode="normal" in="SourceGraphic" in2="effect1_dropShadow_1368_29735" result="shape"/>
</filter>
<filter id="filter1_d_1368_29735" x="11.2029" y="28.0745" width="116.049" height="75.1444" filterUnits="userSpaceOnUse" color-interpolation-filters="sRGB">
<feFlood flood-opacity="0" result="BackgroundImageFix"/>
<feColorMatrix in="SourceAlpha" type="matrix" values="0 0 0 0 0 0 0 0 0 0 0 0 0 0 0 0 0 0 127 0" result="hardAlpha"/>
<feOffset dy="1.53536"/>
<feGaussianBlur stdDeviation="0.767679"/>
<feComposite in2="hardAlpha" operator="out"/>
<feColorMatrix type="matrix" values="0 0 0 0 0 0 0 0 0 0 0 0 0 0 0 0 0 0 0.25 0"/>
<feBlend mode="normal" in2="BackgroundImageFix" result="effect1_dropShadow_1368_29735"/>
<feBlend mode="normal" in="SourceGraphic" in2="effect1_dropShadow_1368_29735" result="shape"/>
</filter>
<radialGradient id="paint0_radial_1368_29735" cx="0" cy="0" r="1" gradientUnits="userSpaceOnUse" gradientTransform="translate(269.642 86.4284) rotate(99.4468) scale(39.3119 106.351)">
<stop stop-color="#4A90E2"/>
<stop offset="0.9999" stop-color="#9E3623"/>
<stop offset="1" stop-color="#FF3030"/>
</radialGradient>
<linearGradient id="paint1_linear_1368_29735" x1="263.189" y1="62.6035" x2="263.189" y2="125.207" gradientUnits="userSpaceOnUse">
<stop stop-color="#FFEC88"/>
<stop offset="1" stop-color="#998100"/>
</linearGradient>
<linearGradient id="paint2_linear_1368_29735" x1="157.612" y1="15.9163" x2="157.612" y2="127.329" gradientUnits="userSpaceOnUse">
<stop stop-color="#1D71A0"/>
<stop offset="1" stop-color="#A54944"/>
</linearGradient>
<linearGradient id="paint3_linear_1368_29735" x1="69.2273" y1="68.0093" x2="69.2273" y2="112.689" gradientUnits="userSpaceOnUse">
<stop stop-color="#3085AA"/>
<stop offset="1" stop-color="#1B4469"/>
</linearGradient>
<linearGradient id="paint4_linear_1368_29735" x1="69.2275" y1="68.1589" x2="69.2275" y2="112.539" gradientUnits="userSpaceOnUse">
<stop stop-color="#3085AA"/>
<stop offset="1" stop-color="#1B4469"/>
</linearGradient>
<linearGradient id="paint5_linear_1368_29735" x1="122.711" y1="64.3977" x2="122.711" y2="106.678" gradientUnits="userSpaceOnUse">
<stop stop-color="#145377"/>
<stop offset="1" stop-color="#733A37"/>
</linearGradient>
<linearGradient id="paint6_linear_1368_29735" x1="69.2275" y1="21.8304" x2="69.2275" y2="99.1951" gradientUnits="userSpaceOnUse">
<stop stop-color="#FF3030"/>
<stop offset="1" stop-color="#1B4469"/>
</linearGradient>
</defs>
</svg>
