<svg width="32" height="47" viewBox="0 0 32 47" fill="none" xmlns="http://www.w3.org/2000/svg">
<g clip-path="url(#clip0_1713_9357)">
<path d="M29.6301 45.8272C30.5835 45.8272 31.3564 44.8501 31.3564 43.6448C31.3564 42.4396 30.5835 41.4624 29.6301 41.4624V45.8272ZM2.69946 41.4624C1.74603 41.4624 0.973145 42.4396 0.973145 43.6448C0.973145 44.8501 1.74603 45.8272 2.69946 45.8272V41.4624ZM4.81973 43.6448C4.81973 44.8501 5.59262 45.8272 6.54605 45.8272C7.49946 45.8272 8.27237 44.8501 8.27237 43.6448H4.81973ZM6.54605 34.7348H8.27237C8.27237 34.7057 8.27189 34.6763 8.27097 34.6472L6.54605 34.7348ZM8.79027 29.3952L7.99402 27.4586C7.96161 27.4802 7.92973 27.5026 7.89845 27.5264L8.79027 29.3952ZM13.7141 26.1594L14.5103 28.0959L14.5234 28.0872L13.7141 26.1594ZM18.6176 26.1594L17.8083 28.0872L17.8223 28.0962L18.6176 26.1594ZM23.5348 29.3864L24.4265 27.5177C24.395 27.4938 24.3628 27.4708 24.3301 27.4496L23.5348 29.3864ZM25.779 34.7261L24.0541 34.6385C24.0532 34.6676 24.0527 34.697 24.0527 34.7261H25.779ZM24.0527 43.6448C24.0527 44.8501 24.8256 45.8272 25.779 45.8272C26.7324 45.8272 27.5053 44.8501 27.5053 43.6448H24.0527ZM27.5053 2.90653C27.5053 1.70123 26.7324 0.724121 25.779 0.724121C24.8256 0.724121 24.0527 1.70123 24.0527 2.90653H27.5053ZM25.779 13.0911H24.0527C24.0527 13.1203 24.0532 13.1494 24.0541 13.1786L25.779 13.0911ZM23.5348 18.4307L24.331 20.3673C24.3634 20.3457 24.3952 20.3233 24.4265 20.2995L23.5348 18.4307ZM18.6155 21.6636L17.8191 19.7271L17.8062 19.7358L18.6155 21.6636ZM13.7118 21.6636L14.5211 19.7358L14.5085 19.7274L13.7118 21.6636ZM8.79475 18.4307L7.90294 20.2995C7.93413 20.323 7.96589 20.3457 7.99821 20.367L8.79475 18.4307ZM6.55054 13.0911L8.27545 13.1786C8.27638 13.1494 8.27686 13.1203 8.27686 13.0911H6.55054ZM8.27686 2.90653C8.27686 1.70123 7.50395 0.724121 6.55054 0.724121C5.5971 0.724121 4.82422 1.70123 4.82422 2.90653H8.27686ZM25.7857 0.724121C24.8323 0.724121 24.0594 1.70123 24.0594 2.90653C24.0594 4.11183 24.8323 5.08894 25.7857 5.08894V0.724121ZM29.6301 5.08894C30.5835 5.08894 31.3564 4.11183 31.3564 2.90653C31.3564 1.70123 30.5835 0.724121 29.6301 0.724121V5.08894ZM25.7857 5.08894C26.7391 5.08894 27.5097 4.11183 27.5097 2.90653C27.5097 1.70123 26.7391 0.724121 25.7857 0.724121V5.08894ZM6.54605 0.724121C5.59262 0.724121 4.81973 1.70123 4.81973 2.90653C4.81973 4.11183 5.59262 5.08894 6.54605 5.08894V0.724121ZM6.54605 5.08894C7.49946 5.08894 8.27237 4.11183 8.27237 2.90653C8.27237 1.70123 7.49946 0.724121 6.54605 0.724121V5.08894ZM2.69946 0.724121C1.74603 0.724121 0.973145 1.70123 0.973145 2.90653C0.973145 4.11183 1.74603 5.08894 2.69946 5.08894V0.724121ZM13.2045 12.6733C12.3865 12.0544 11.3264 12.3911 10.8368 13.4254C10.3472 14.4597 10.6136 15.7999 11.4317 16.4188L13.2045 12.6733ZM16.1648 17.4559L15.2784 19.3287C15.8241 19.7416 16.5055 19.7416 17.0512 19.3287L16.1648 17.4559ZM20.8977 16.4188C21.716 15.7999 21.9823 14.4597 21.4927 13.4254C21.0031 12.3911 19.9431 12.0544 19.1249 12.6733L20.8977 16.4188ZM29.6301 41.4624H2.69946V45.8272H29.6301V41.4624ZM8.27237 43.6448V34.7348H4.81973V43.6448H8.27237ZM8.27097 34.6472C8.2264 33.2435 8.78301 31.9494 9.68206 31.2639L7.89845 27.5264C5.89608 29.0538 4.72725 31.8651 4.82111 34.8224L8.27097 34.6472ZM9.58649 31.3317L14.5103 28.0959L12.9177 24.2228L7.99402 27.4586L9.58649 31.3317ZM14.5234 28.0872C15.5551 27.3949 16.7768 27.3949 17.8083 28.0872L19.4271 24.2316C17.3831 22.8601 14.9486 22.8601 12.9048 24.2316L14.5234 28.0872ZM17.8223 28.0962L22.7393 31.3232L24.3301 27.4496L19.413 24.2226L17.8223 28.0962ZM22.6429 31.2551C23.5419 31.9407 24.0985 33.2347 24.0541 34.6385L27.504 34.8136C27.5979 31.8563 26.429 29.0451 24.4265 27.5177L22.6429 31.2551ZM24.0527 34.7261V43.6448H27.5053V34.7261H24.0527ZM24.0527 2.90653V13.0911H27.5053V2.90653H24.0527ZM24.0541 13.1786C24.0985 14.5825 23.5419 15.8764 22.6429 16.5621L24.4265 20.2995C26.429 18.7721 27.5976 15.9607 27.504 13.0036L24.0541 13.1786ZM22.7384 16.4943L17.8191 19.7271L19.4117 23.6001L24.331 20.3673L22.7384 16.4943ZM17.8062 19.7358C16.7745 20.4281 15.5528 20.4281 14.5211 19.7358L12.9025 23.5914C14.9463 24.9628 17.3811 24.9628 19.4248 23.5914L17.8062 19.7358ZM14.5085 19.7274L9.59128 16.4945L7.99821 20.367L12.9152 23.5998L14.5085 19.7274ZM9.68655 16.5621C8.7875 15.8764 8.23089 14.5825 8.27545 13.1786L4.8256 13.0036C4.73173 15.9607 5.90057 18.7721 7.90294 20.2995L9.68655 16.5621ZM8.27686 13.0911V2.90653H4.82422V13.0911H8.27686ZM25.7857 5.08894H29.6301V0.724121H25.7857V5.08894ZM25.7857 0.724121H6.54605V5.08894H25.7857V0.724121ZM6.54605 0.724121H2.69946V5.08894H6.54605V0.724121ZM11.4317 16.4188L15.2784 19.3287L17.0512 15.5832L13.2045 12.6733L11.4317 16.4188ZM17.0512 19.3287L20.8977 16.4188L19.1249 12.6733L15.2784 15.5832L17.0512 19.3287Z" fill="#EAEAEA"/>
</g>
<defs>
<clipPath id="clip0_1713_9357">
<rect x="0.649414" y="0.467285" width="31.1623" height="46.2713" rx="5.31175" fill="white"/>
</clipPath>
</defs>
</svg>
