<svg width="202" height="173" viewBox="0 0 202 173" fill="none" xmlns="http://www.w3.org/2000/svg">
<path d="M116.249 161.494C107.15 161.494 97.0683 163.738 88.3417 161.494C82.3329 162.611 77.8265 160.646 73.6562 157.909C71.0405 157.618 64.7226 156.003 62.7043 154.303C58.8038 151.019 53.9567 149.701 51.0874 145.09C45.8973 136.749 38.5147 126.362 38.1352 116.114C37.8494 108.399 37.0901 99.3933 38.4022 91.8122C39.2355 86.9975 41.9806 74.4403 46.5474 71.6495C50.8711 69.0072 54.2823 65.0532 58.5649 62.436C62.0751 60.291 65.7314 59.5769 69.1136 57.4955C77.9046 52.0857 92.0677 54.5579 101.962 54.5579C110.352 54.5579 120.273 52.9674 127.599 57.629C135.346 62.5588 142.443 68.7715 149.965 73.7859C156.293 78.0046 157.344 89.1724 158.377 95.8848C159.4 102.532 159.512 109.018 159.512 115.847C159.512 122.777 157.583 128.698 155.306 135.075C153.949 138.874 151.644 148.499 148.029 150.564C144.131 152.791 137.876 155.108 134.275 157.909C130.78 160.627 127.969 157.909 123.46 157.909C105.564 157.909 87.7967 158.282 70.8495 152.834C54.5057 147.581 47.7492 139.656 47.7492 122.39C47.7492 112.353 44.3852 94.1165 50.4197 86.0705C54.4059 80.7556 55.3859 77.1781 62.1702 73.7859C69.101 70.3205 76.7878 68.9789 84.4694 68.9789C91.4762 68.9789 98.0203 69.0659 104.832 70.1139C108.746 70.716 113.243 71.1009 117.184 71.3824C120.248 71.6013 122.514 73.9639 125.329 74.9877C130.733 76.9528 134.275 81.5416 134.275 87.6061C134.275 89.2287 133.493 92.642 135.477 93.0139C137.634 93.4183 136.264 98.8045 137.614 100.492C140.234 103.767 139.082 110.324 139.082 114.378C139.082 121.99 139.082 129.601 139.082 137.212C139.082 142.206 139.158 147.956 133.074 148.295C122.203 148.898 130.381 140.154 135.477 136.878C139.162 134.509 143.889 125.678 143.889 121.255C143.889 115.705 140.102 112.143 139.149 106.901C138.286 102.156 134.439 92.7467 131.271 88.8746C126.626 83.1971 122.877 80.9964 115.648 80.9964C109.015 80.9964 105.619 86.1557 99.3577 86.9384C90.4432 88.0527 80.774 87.0052 71.7842 87.0052C68.357 87.0052 64.9298 87.0052 61.5026 87.0052C59.4774 87.0052 65.5529 87.0052 67.5781 87.0052C70.5358 87.0052 86.7902 85.5945 78.7277 88.474C70.1362 91.5424 61.565 95.7979 55.4938 102.628C51.9858 106.574 60.9097 117.993 61.9031 121.856C63.081 126.436 74.9322 157.615 82.6 149.496C88.7915 142.941 85.6427 132.459 82.3329 125.595C78.568 117.786 75.7218 108.262 71.1166 101.026C70.4324 99.9504 65.0939 96.3942 67.2443 94.4827C68.8708 93.0369 80.3478 116.275 81.3982 117.85C85.3627 123.797 89.4558 129.393 93.8831 135.008C94.3939 135.656 101.458 145.321 101.761 143.955C102.801 139.275 102.729 130.636 101.227 126.129C99.0647 119.642 99.8321 111.957 97.021 105.632C94.8532 100.755 88.6721 97.3649 84.5361 94.8833C82.5353 93.6828 87.2982 98.6716 88.3417 100.759C90.1927 104.461 91.854 107.894 94.5507 111.04C97.7693 114.795 100.845 118.651 103.964 122.524C107.05 126.354 110.413 131.509 113.846 134.942C114.777 135.873 119.788 141.005 119.854 139.882C120.112 135.508 119.854 131.045 119.854 126.663C119.854 121.604 117.597 117.881 117.451 112.91C117.283 107.219 116.249 101.745 116.249 96.0183M116.249 96.0183C116.249 93.5926 116.249 88.741 116.249 88.741M116.249 96.0183C116.249 107.925 116.249 119.831 116.249 131.737C116.249 135.461 116.296 149.118 108.771 145.624C101.431 142.216 101.081 128.348 99.4245 121.722C96.8255 111.327 100.634 100.858 104.232 91.1446C104.63 90.0677 110.548 80.6334 112.51 84.0676C115.437 89.1895 113.846 98.2242 113.846 103.696C113.846 108.395 114.512 113.69 113.245 118.251C112.676 120.297 109.381 129.055 112.243 123.592C116.777 114.936 130.593 105.924 138.815 101.026C141.827 99.2313 145.286 100.03 142.02 103.296C141.422 103.894 135.525 110.677 134.542 109.571C133.154 108.009 138.626 100.983 139.683 99.6903C141.86 97.0296 143.889 95.3605 143.889 91.8122C143.889 90.9651 143.889 85.6924 143.889 88.8078C143.889 95.818 143.889 102.828 143.889 109.838" stroke="#D3969C" stroke-width="19" stroke-linecap="round"/>
<path d="M139.082 76.1895C139.082 82.1982 139.082 88.207 139.082 94.2157C139.082 102.308 138.682 115.268 134.275 122.123C130.686 127.705 127.885 131.47 121.055 131.47C114.493 131.47 115.047 129.056 115.047 123.058" stroke="#D3969C" stroke-width="19" stroke-linecap="round"/>
<path d="M105.82 158.933C110.51 158.933 114.866 161.409 119.687 161.409C123.771 161.409 126.93 159.619 130.857 158.906C135.502 158.061 140.379 154.25 143.21 150.789C146.62 146.622 149.584 141.546 151.382 136.152" stroke="#D3969C" stroke-width="19" stroke-linecap="round"/>
<path d="M46.543 101.36C52.353 101.36 57.8886 100.134 63.7152 100.134" stroke="#2D2D2D" stroke-width="5" stroke-linecap="round"/>
<path d="M52.9211 103.077C53.8055 103.188 54.7196 106.076 54.0932 106.703C53.2776 107.518 51.8127 104.661 53.1665 103.922C54.5823 103.15 56.1103 102.829 56.1103 104.795C56.1103 105.744 55.8787 105.759 55.3743 106.389C54.355 107.663 54.1524 103.95 54.175 103.718C54.33 102.129 56.2181 101.037 57.2142 102.587C57.9568 103.742 57.5608 105.288 56.4782 106.13C55.6502 106.774 54.2892 102.997 56.0012 102.219C57.7656 101.417 57.7608 103.389 56.8462 104.304" stroke="#2D2D2D" stroke-width="5" stroke-linecap="round"/>
<path d="M131.422 98.1719C135.621 98.1719 139.814 98.4172 143.988 98.4172C146.073 98.4172 147.972 99.2728 149.821 99.8891" stroke="#2D2D2D" stroke-width="5" stroke-linecap="round"/>
<path d="M83.6465 140.627C84.5315 139.054 86.5665 138.763 87.8524 137.757C88.7038 137.091 89.6831 136.655 90.5534 136.053C91.4839 135.409 92.4776 134.815 93.2942 134.03C93.7344 133.606 94.644 133.607 95.1879 133.272C96.2333 132.629 97.6359 132.196 98.8955 132.196C100.359 132.196 101.865 132.272 103.321 132.415C104.75 132.555 106.952 132.756 108.085 133.631C108.959 134.306 110.156 134.649 111.174 135.056C111.83 135.318 112.757 135.372 113.337 135.694C114.746 136.477 110.135 135.27 108.523 135.245C105.581 135.2 102.635 135.245 99.6929 135.245C97.9546 135.245 96.3387 135.324 94.6298 135.714C92.1241 136.285 89.4839 136.923 87.1548 138.026C85.6723 138.728 87.45 138.422 88.0518 138.206C90.6619 137.266 93.0808 135.71 95.3773 134.179C97.7609 132.59 100.629 131.136 103.56 131.299C104.203 131.334 104.47 132.062 105.005 132.196C105.719 132.374 106.317 132.969 107.058 133.083C108.872 133.362 110.734 133.725 112.47 134.129C113.383 134.342 114.284 134.528 115.221 134.528C115.44 134.528 115.984 134.932 115.829 134.777C115.385 134.333 115.12 133.879 114.573 133.531C112.057 131.93 108.732 132.659 105.932 131.797C105.315 131.607 104.94 131.478 104.268 131.478C103.864 131.478 101.362 131.478 102.852 131.478C105.12 131.478 107.384 131.535 109.52 132.415C111.149 133.086 112.524 134.226 114.244 134.667C115.043 134.872 115.835 135.145 116.616 135.385C116.813 135.446 118.292 135.784 117.553 135.784" stroke="#BC7379" stroke-width="4" stroke-linecap="round"/>
<path d="M140.991 103.078C139.502 103.243 138.184 103.504 137.202 101.96C135.967 100.02 138.68 99.8887 139.819 99.8887C141.284 99.8887 140.991 101.653 140.991 102.71C140.991 104.374 139.247 104.322 139.532 102.465C139.716 101.274 142.221 99.6078 141.1 101.851C140.864 102.323 140.674 103.047 140.364 103.446C140.02 103.887 138.85 104.087 138.537 103.541C137.744 102.152 137.48 100.906 139.273 100.189C140.708 99.6147 142.289 101.606 140.745 101.606" stroke="#2D2D2D" stroke-width="5" stroke-linecap="round"/>
<path d="M68.377 141.102C70.6483 141.329 72.657 143.909 74.9187 143.31C78.341 142.404 81.944 142.257 85.4129 141.579C89.9884 140.685 94.5592 139.807 99.1779 139.153C106.061 138.179 112.968 136.976 119.866 136.21C120.358 136.155 120.871 136.196 121.365 136.196C121.919 136.196 122.185 135.75 122.783 135.705C123.234 135.672 124.843 135.587 125.181 135.31C126.716 134.055 128.725 132.616 128.725 130.554" stroke="#2D2D2D" stroke-width="5" stroke-linecap="round"/>
<path d="M125.289 135.705C124.549 136.631 123.993 139.056 123.763 140.23C123.586 141.13 123.253 142.763 122.291 143.119C118.963 144.352 115.778 144.536 112.206 144.536C108.265 144.536 105.231 144.623 100.499 145C96.7309 145.3 97.9993 144.657 93.4993 144.536C87.4993 144.376 93.4994 143.801 91.9993 144.536C86.9994 144.237 77.6343 143.321 76.4991 143.119C75.383 142.921 84.7204 142.083 83.5856 142.083" stroke="#2D2D2D" stroke-width="5" stroke-linecap="round"/>
<path d="M98.3047 141.102C101.199 141.102 104.095 141.348 107 141.348C108.808 141.348 110.589 141.102 112.397 141.102C113.643 141.102 115.106 141.306 116.322 140.966C117.088 140.751 118.194 140.121 118.911 140.121C119.827 140.121 118.976 139.14 119.893 139.14" stroke="#2D2D2D" stroke-width="5" stroke-linecap="round"/>
<path d="M27.4597 96.4619C25.8452 96.0007 33.3248 92.2116 30.86 92.2116C29.5467 92.2116 25.9488 93.13 27.6959 90.7476C28.2363 90.0106 32.3712 87.3361 32.3712 86.7807C32.3712 85.8941 27.558 87.7665 31.1434 86.025C32.5867 85.324 34.1045 84.8148 35.559 84.136C36.1137 83.8771 38.2767 83.286 36.6215 83.286C34.9085 83.286 32.7558 83.6364 31.0725 83.2623C28.3321 82.6534 32.9944 79.674 33.6463 79.4607C44.5309 75.8984 29.4494 80.7722 29.5377 79.2718C29.6596 77.199 39.6253 72.3711 38.4161 75.7298C37.5337 78.1811 27.1744 79.4011 33.9297 73.3213C35.1152 72.2544 37.9591 68.8409 39.951 69.2835C41.2942 69.582 38.2068 71.2941 38.0855 71.3851" stroke="#1D1D1D" stroke-width="6" stroke-linecap="round"/>
<path d="M166.871 92.2115C166.395 92.2115 168.125 92.4249 168.477 92.5421C168.799 92.6494 166.098 92.6366 165.596 92.6366C162.562 92.6366 162.85 91.7865 165.384 91.7865C166.567 91.7865 163.783 91.0955 163.471 91.0309C161.901 90.7049 159.916 89.7866 161.204 87.7959C161.819 86.8464 163.715 85.9165 164.841 85.836C167.322 85.6588 164.725 85.411 163.684 85.411C160.492 85.411 159.265 82.9872 162.715 81.9163C162.981 81.8338 165.124 81.597 165.124 81.3732C165.124 80.8582 160.873 79.836 160.354 79.555C159.757 79.2315 156.995 78.4702 158.465 77.5715C159.6 76.8783 161.015 76.9104 162.29 76.9104C163.918 76.9104 163.303 76.4999 162.172 75.8478C160.406 74.8286 158.502 73.6547 156.576 72.9906C154.982 72.441 154.917 70.1453 156.883 69.7084C157.552 69.5599 159.622 69.6848 158.937 69.6848C157.032 69.6848 155.341 69.4975 153.53 68.8584C152.825 68.6096 151.619 68.4942 151.57 67.5597C151.483 65.9009 152.854 66.4106 154.073 66.0721C157.049 65.2454 153.356 64.8159 152.208 64.5608C150.695 64.2246 152.022 63.7344 152.845 63.7344C154.344 63.7344 155.672 64.0831 157.096 64.49C159.479 65.1709 159.073 67.8523 159.74 69.7793C160.759 72.7228 161.494 73.0851 164.652 73.0851C166.847 73.0851 163.486 73.9351 162.621 73.9351" stroke="#1D1D1D" stroke-width="6" stroke-linecap="round"/>
<path d="M146.47 62.8837C148.647 63.0118 150.706 69.6842 147.32 69.6842C146.115 69.6842 144.911 69.6842 143.707 69.6842C142.297 69.6842 141.786 68.667 140.732 68.4327C139.767 68.2184 140.178 74.6502 139.763 75.7291C139.134 77.366 135.801 80.735 133.931 80.735C130.677 80.735 127.444 83.2852 124.155 83.2852C122.928 83.2852 120.799 83.6887 119.693 83.1908C118.394 82.6062 117.065 81.8984 115.678 81.4906C112.724 80.6218 108.196 78.5718 106.729 75.7999C105.978 74.3822 104.816 71.323 104.816 69.6842C104.816 68.6975 104.555 65.7867 103.872 65.1033C102.838 64.0697 101.551 67.0871 101.416 67.559C101.038 68.8826 99.9762 70.4986 98.8659 71.0537C94.5776 73.1979 90.383 74.8572 85.6663 76.2722C83.3416 76.9696 82.1858 77.2757 79.9756 76.8153C78.1878 76.4428 77.0551 74.88 75.3947 74.2651C71.0752 72.6653 69.1901 69.1906 65.9732 66.3311C65.2035 65.647 64.5654 64.46 64.1078 63.5448C63.1711 61.6715 62.0255 63.9229 61.227 64.6074C59.3065 66.2535 58.3916 69.6842 55.5127 69.6842C53.1893 69.6842 50.0489 70.2188 48.476 68.1966C47.1825 66.5335 44.327 68.0515 42.7617 68.8341" stroke="#1D1D1D" stroke-width="6" stroke-linecap="round"/>
<path d="M29.1601 75.6349C25.9648 75.3686 23.3459 73.3771 23.2097 70.1095C23.0701 66.7588 25.1687 65.2083 28.074 63.734C30.993 62.2527 33.2091 61.3426 36.3857 61.1838C38.7655 61.0648 37.5595 55.1101 37.6844 53.486C38.1118 47.9299 42.4236 43.3104 45.9253 39.3419C48.268 36.6868 51.1585 35.6819 54.7565 35.6819C59.2854 35.6819 62.5356 35.4798 65.9254 38.8696C67.8895 40.8337 69.7755 40.1434 71.6633 38.0196C73.4627 35.9953 75.9969 34.3575 78.1333 32.7067C80.9007 30.5682 83.2317 29.673 86.6811 29.7314C90.2286 29.7916 91.0585 32.672 92.7024 34.9735C92.7969 35.1058 92.95 32.2499 93.0094 31.8566C93.2722 30.1154 93.8762 28.3897 94.4498 26.7326C96.6474 20.384 102.572 16.8346 107.508 12.8246C114.042 7.51563 122.675 0.31547 131.805 4.01701C139.686 7.21179 145.871 12.983 147.933 21.2308C148.904 25.1157 148.594 29.2337 148.594 33.2262C148.594 35.1401 147.821 36.8305 147.744 38.7516C147.687 40.1672 146.091 41.8583 146.091 43.0963C146.091 43.5693 151.767 43.3325 152.396 43.3325C155.196 43.3325 157.886 43.5498 160.637 44.0881C163.193 44.5882 166.379 44.9834 168.335 46.7327C169.157 47.4683 170.404 47.1666 170.696 48.4801C171.009 49.8905 171.386 51.4374 171.522 52.8721C171.733 55.0847 171.682 57.4924 170.908 59.5545C170.137 61.6109 169.814 65.444 167.39 66.1897C165.811 66.6756 164.132 66.7092 167.201 66.7092C170.146 66.7092 170.696 69.3072 170.696 71.7624C170.696 73.8744 170.847 76.0604 170.672 78.1615C170.472 80.5626 168.893 83.7105 166.445 83.7105" stroke="#1D1D1D" stroke-width="6" stroke-linecap="round"/>
<path d="M66.564 58.2088C66.4074 56.9563 56.9525 57.7837 56.0326 57.7837C55.1047 57.7837 53.4806 56.8162 52.8685 57.0281C51.5922 57.4699 52.1129 60.124 52.1129 61.184C52.1129 61.5348 51.9337 62.5709 52.5851 62.1521C54.4825 60.9324 55.9325 59.3714 58.0397 58.2088C59.9646 57.1467 61.8436 55.7698 63.9193 54.9974C65.291 54.487 64.8638 56.2787 64.8638 57.1226C64.8638 59.3529 63.1154 61.6093 61.0385 62.1285C58.1469 62.8514 55.3913 64.0617 52.5379 64.6787C50.2714 65.1687 49.9877 63.8305 49.9877 62.0577C49.9877 60.837 51.3398 57.8263 49.1613 59.4602C48.0148 60.3201 46.2021 62.0129 44.8637 62.4591C42.0307 63.4034 39.3332 65.9446 36.9534 67.5595C34.3583 69.3204 32.4502 69.2596 29.4209 69.2596C26.6526 69.2596 34.8623 68.1199 37.4493 67.1344C38.8383 66.6053 39.8171 65.469 41.1565 64.9148C42.2004 64.4829 43.4009 64.0932 44.2262 63.3091C45.1589 62.4231 46.6403 61.1874 46.5875 59.8144C46.5143 57.9137 43.2303 58.6338 41.9121 58.6338C39.6732 58.6338 38.0868 58.1725 38.0868 60.8534C38.0868 63.7319 38.2252 67.5332 36.5992 70.0624C35.825 71.2668 30.9609 70.5347 29.5862 70.5347C27.7783 70.5347 27.9667 68.8859 29.0667 67.6539C31.0379 65.4462 32.8604 66.7094 35.7491 66.7094C40.0593 66.7094 44.8941 69.7721 46.2569 63.6397C46.8737 60.864 47.4375 58.3716 47.4375 55.5169C47.4375 53.2357 47.2347 52.6833 44.8873 52.6833C43.8662 52.6833 42.1275 51.2752 43.872 51.0068C47.1388 50.5042 47.0651 53.3328 47.0125 55.753C46.9672 57.838 45.5014 60.0701 43.1872 59.3894C39.0929 58.1852 44.5297 50.5207 45.5249 48.8817C47.2963 45.964 48.1899 45.8828 51.4045 45.8828C54.69 45.8828 56.8546 47.0526 59.5273 48.8344C61.9793 50.4691 62.2954 52.1227 61.8178 55.0682C61.0711 59.6729 56.2758 62.0981 54.1436 56.9809C52.7452 53.6248 52.4574 50.0192 52.5615 46.4259C52.5987 45.1441 52.1413 40.0771 53.388 39.1768C55.9712 37.3111 58.9662 39.7036 61.0385 41.1839C63.645 43.0456 64.9477 46.2506 64.3916 49.4484C63.8533 52.5433 57.6398 50.6924 56.1271 49.8026C54.5971 48.9026 53.6315 48.9228 53.8602 46.9218C54.1011 44.8139 55.2858 43.7474 56.9299 42.577C59.6105 40.6688 64.1366 41.4284 66.6584 43.3326C68.5565 44.7659 71.2998 47.0193 70.7198 49.7081C70.286 51.7196 65.0969 55.7991 62.9512 54.9738C58.9977 53.4532 65.0638 46.6652 66.5403 45.505C68.5548 43.9222 73.4722 42.4119 76.0563 43.4271C77.6356 44.0475 78.276 49.7048 78.276 48.008C78.276 46.5246 75.5369 45.8352 75.5369 44.8202C75.5369 43.7012 76.9183 42.9076 77.8273 42.9076C79.157 42.9076 78.3393 40.766 78.8899 39.7199C80.5251 36.613 80.807 33.4107 84.9348 34.7375C86.5404 35.2536 88.0455 35.7881 89.2796 36.9572C90.871 38.4648 91.5276 40.3414 92.9159 41.8686C94.1298 43.2039 93.4393 44.5822 95.5134 43.5452C97.7179 42.4429 100.253 41.3699 101.511 39.0823C103.003 36.3688 98.8015 38.7245 97.733 39.3657C96.0799 40.3575 93.2793 41.6325 96.5287 41.6325C98.4784 41.6325 97.8862 35.6692 98.8664 34.0764C100.471 31.4693 100.487 28.0471 102.503 25.4813C105.54 21.6151 109.688 19.4984 113.223 16.225C115.575 14.0469 118.441 12.3952 120.779 10.1801C122.32 8.72045 127.187 8.89395 129.256 9.35369C131.806 9.92022 135.368 9.65674 137.45 11.5497C138.145 12.1815 139.948 13.0787 140.094 14.0054C140.35 15.6218 141.493 17.5361 142.432 18.8933C143.443 20.3531 142.86 22.4258 143.707 23.7812C144.262 24.6683 144.77 25.9268 144.77 26.9689C144.77 29.4483 144.77 31.9276 144.77 34.407C144.77 37.2353 144.435 39.5421 143.943 42.2464C143.757 43.2726 143.495 44.1816 143.495 45.2453C143.495 46.7267 145.488 46.7329 146.801 46.7329C149.382 46.7329 151.964 46.7329 154.546 46.7329C155.537 46.7329 156.529 46.7329 157.521 46.7329C159.023 46.7329 159.949 47.583 161.535 47.583C163.538 47.583 166.021 49.8948 166.021 51.8333C166.021 54.7257 164.762 56.2047 163.637 58.7046C162.355 61.5518 160.062 64.1312 158.182 66.6386C157.182 67.9717 156.624 68.8346 158.796 68.8346C161.132 68.8346 163.325 69.8461 164.534 72.0223C165.029 72.9143 164.98 73.6064 165.195 74.5725C165.361 75.3174 165.817 75.6538 164.652 75.21C162.434 74.3652 161.677 72.9724 160.59 70.9125C158.987 67.8712 156.563 65.6916 155.301 62.3646C154.508 60.2747 152.603 58.5502 151.594 56.5322C151.34 56.0245 148.264 52.1432 147.792 53.557C147.322 54.9677 147.969 56.4879 147.32 57.949C147.047 58.5623 141.684 62.8391 143.259 62.8841C143.907 62.9026 148.938 62.8841 147.131 62.8841C144.723 62.8841 142.314 62.8841 139.906 62.8841C139.489 62.8841 135.813 63.0762 136.104 63.3091C137.168 64.1601 136.694 66.2689 136.694 67.5595C136.694 70.0309 133.129 72.9891 132.019 75.21C130.205 78.8387 127.344 79.1333 123.518 78.5867C121.913 78.3574 120.841 76.811 119.48 76.5087C117.852 76.1469 117.196 75.6606 115.868 74.8795C113.037 73.2142 112.167 71.3267 111.594 68.1734C111.104 65.4806 109.299 62.5551 108.217 60.1214C106.754 56.8287 103.931 62.3366 102.456 63.7342C98.1555 67.8079 91.3389 68.8346 85.6904 68.8346C83.7183 68.8346 80.8385 69.1615 79.1024 68.197C77.0307 67.046 73.8634 66.3583 72.1838 64.6787C71.8944 64.3893 71.4177 63.3884 72.3019 63.7814C72.8314 64.0168 73.6861 65.0948 74.1201 65.5287C75.4643 66.8729 77.0804 68.1713 78.6774 69.236C79.8094 69.9907 79.5349 70.9597 81.2276 70.9597C82.5848 70.9597 83.8508 71.3847 85.2654 71.3847" stroke="#1D1D1D" stroke-width="10" stroke-linecap="round"/>
<path d="M89.5161 52.6829C87.1855 55.4574 84.0263 54.1286 85.3366 50.4161C86.8773 46.0507 90.9856 49.5668 92.8219 51.644C94.1843 53.185 95.8057 55.742 93.7428 57.5236C92.3162 58.7557 89.707 58.5542 87.9576 58.6098C84.4846 58.72 80.72 58.9682 77.2846 58.3736C73.09 57.6476 71.5739 54.4957 72.5148 50.5105C73.6972 45.5026 80.2422 46.6641 84.0615 46.7561C87.8847 46.8482 91.6413 47.5728 91.6413 51.9273C91.6413 55.3373 90.7317 56.8652 87.4854 58.0194C85.3558 58.7766 82.3902 58.1595 81.4405 55.9887C78.9955 50.4001 83.2966 45.4738 88.1465 43.0489C92.6004 40.8219 97.4222 39.4644 102.243 38.3027C103.385 38.0276 107.298 36.6042 108.383 37.6887C110.272 39.578 109.242 48.0136 108.17 50.0383C106.443 53.3005 103.957 54.7275 100.331 54.8081C98.05 54.8588 93.5795 55.8769 93.365 52.6593C92.9167 45.9355 99.628 43.4015 104.959 41.4904C106.936 40.7817 116.107 36.8228 116.624 40.782C117.673 48.8273 112.442 53.6972 104.723 53.533C100.813 53.4498 101.207 46.868 101.818 44.2767C103.72 36.2194 112.598 30.8832 119.41 27.2282C121.16 26.2891 123.193 25.0769 123.849 27.7005C124.513 30.3559 125.21 32.2255 124.109 35.0205C122.739 38.4979 118.402 41.0422 115.112 42.3877C110.421 44.307 109.096 40.8208 107.792 36.9095C105.238 29.2465 108.731 23.665 114.924 19.0582C117.149 17.4023 119.598 16.1148 121.771 14.3828C122.359 13.9146 123.305 13.1299 124.038 13.8633C124.825 14.6501 125.07 16.0867 125.479 17.0747C126.442 19.407 127.512 21.6407 127.981 24.1349C128.821 28.5886 130.907 33.8315 127.509 37.6415C126.209 39.0993 123.243 42.5856 120.968 42.4822C117.76 42.3363 114.785 37.536 115.112 34.6899C116.2 25.2388 125.54 19.6902 133.743 17.0747C138.281 15.6277 140.945 15.5641 140.945 20.8055C140.945 25.4807 141.268 30.1353 139.434 34.5482C137.592 38.9781 135.391 42.7298 131.878 46.0005C130.707 47.0904 128.931 47.845 127.675 46.3547C125.995 44.3626 125.264 41.3602 124.369 38.9874C123.261 36.0507 121.851 33.0753 122.527 29.8729C123.136 26.9856 124.656 25.0501 127.013 23.3557C128.552 22.2499 131.855 19.4608 133.956 20.4749C138.491 22.6643 138.852 28.9755 138.82 33.3676C138.784 38.2828 138.055 46.2955 133.082 49.0229C130.612 50.3776 126.195 52.4916 124.203 49.2118C122.736 46.7952 120.212 40.906 121.913 38.0902C123.598 35.301 128.003 35.8411 130.036 37.6651C136.056 43.0678 135.196 60.5694 124.983 60.7585C121.963 60.8145 120.676 59.8466 119.056 57.3111C118.737 56.8115 115.669 52.4991 118.182 54.3358C120.651 56.14 122.669 59.8315 122.669 62.8601C122.669 64.3803 123.347 67.8526 120.756 66.8979C117.914 65.8509 118.808 61.1074 119.882 59.1529C121.214 56.7293 124.157 55.0561 126.966 55.2567C131.716 55.596 132.025 66.6666 127.438 67.8896C123.853 68.8457 122.632 64.3983 122.739 61.7739C122.912 57.5548 125.859 54.2324 129.611 52.6829C132.271 51.584 139.357 55.4147 136.01 58.5861C135.221 59.3331 130.295 62.8605 129.658 60.9947C128.95 58.9225 131.278 55.4908 132.232 53.8872C133.615 51.563 135.471 49.1151 138.088 48.102C143.546 45.989 148.009 50.8302 151.051 54.8081C151.747 55.7183 152.555 56.8177 151.335 57.5944C149.189 58.9596 150.744 57.6653 152.444 57.1694C154.054 56.6998 155.953 56.9332 157.616 56.9332C158.863 56.9332 159.33 58.2083 157.946 58.2083" stroke="#1D1D1D" stroke-width="12" stroke-linecap="round"/>
<path d="M24.0603 74.7852H22.7852" stroke="#1D1D1D" stroke-width="12" stroke-linecap="round"/>
<path d="M174.521 75.21C177.825 78.1471 174.102 80.6049 172.16 76.7212C171.769 75.9399 171.662 73.1953 172.207 72.4945C172.751 71.7948 175.174 72.2348 176.009 72.2348C179.062 72.2348 176.459 78.3233 173.482 73.7224C171.977 71.3964 172.923 68.9369 175.371 71.3847" stroke="#1D1D1D" stroke-width="12" stroke-linecap="round"/>
<path d="M26.6109 130.039C24.7401 132.097 24.0651 134.689 26.7054 136.415C30.1413 138.662 29.2745 134.097 31.6169 133.629C31.8889 133.574 30.4362 138.066 30.4362 138.54C30.4362 140.933 30.4362 143.326 30.4362 145.718C30.4362 147.576 29.7844 150.446 32.16 150.842C33.0563 150.992 34.564 151.042 35.4422 150.772C36.5806 150.421 36.6486 149.381 37.4493 148.741C38.2184 148.126 37.2334 146.687 36.8117 146.191C35.774 144.97 36.322 144.848 34.8991 145.955C32.5754 147.762 30.1267 146.012 28.1222 145.01C25.4393 143.669 29.3608 140.692 30.8613 139.721C33.2588 138.169 28.7663 135.99 27.461 135.99C25.4841 135.99 24.0608 136.626 24.0608 134.29C24.0608 133.034 23.2977 134.101 22.762 134.502C21.6374 135.346 21.2081 135.565 19.8104 135.565C16.7719 135.565 13.5807 134.227 12.1599 131.527C11.4277 130.136 10.8848 129.192 10.8848 127.584C10.8848 127.056 11.3407 121.347 12.5141 122.129C12.6773 122.238 12.7317 123.763 12.8682 124.042C13.5373 125.406 14.3715 127.054 15.324 128.245C16.2519 129.405 19.2111 131.917 20.8258 131.669C22.7907 131.366 20.6605 125.962 20.6605 130.039" stroke="#1D1D1D" stroke-width="12" stroke-linecap="round"/>
<path d="M168.571 133.439C169.836 135.689 171.546 134.312 171.546 132.259C171.546 131.031 171.492 127.459 171.948 128.599C172.312 129.509 172.34 132.002 172.396 133.014C172.463 134.222 172.543 135.644 172.373 136.84C172.167 138.28 169.748 139.588 168.571 140.145C167.47 140.667 165.813 140.393 167.083 141.916C168.196 143.252 168.601 143.64 170.366 143.64C171.968 143.64 175.572 144.369 176.812 143.404C179.147 141.588 179.197 139.191 179.197 136.391C179.197 134.968 179.381 133.379 178.961 131.999C178.493 130.463 177.96 131.19 179.102 129.945C180.465 128.458 176.812 121.302 178.961 122.389C180.892 122.389 184.871 127.552 186.753 127.489C190.384 127.368 192.798 124.832 192.798 121.302C192.798 119.993 192.956 116.938 191.003 116.863C189.421 116.802 188.239 120.294 186.871 121.491C185.27 122.892 186.488 122.389 188.122 122.389" stroke="#1D1D1D" stroke-width="12" stroke-linecap="round"/>
<path d="M185.998 85.8359C188.455 85.9558 188.094 86.62 188.879 88.3861C189.469 89.7146 188.628 90.0863 187.509 90.0863C185.841 90.0863 185.212 86.8667 186.423 86.261" stroke="#1D1D1D" stroke-width="12" stroke-linecap="round"/>
<path d="M181.747 83.286C180.968 82.8849 179.975 82.0109 179.055 82.0109C178.366 82.0109 180.507 81.8891 181.109 82.2234C183.497 83.5501 183.308 84.5346 184.722 86.7807C186.17 89.0805 187.808 91.8705 187.225 94.7855C186.712 97.3477 184.701 97.1748 187.603 98.0677C189.453 98.637 189.06 98.7333 190.011 100.5C190.85 102.057 190.789 105.053 189.822 106.474C189.025 107.646 187.36 108.275 186.328 109.307C185.653 109.982 185.27 110.488 184.297 110.488" stroke="#1D1D1D" stroke-width="12" stroke-linecap="round"/>
<path d="M21.0847 79.8857C17.1755 79.9655 13.7677 82.8243 14.3078 86.8752C14.6134 89.1671 16.1505 88.1043 13.4341 87.9614C11.4254 87.8556 11.3089 90.1752 11.3089 91.8103C11.3089 93.5982 14.1114 96.2644 15.8898 96.462C21.0451 97.0348 17.2053 103.587 16.8344 105.813C16.1898 109.68 10.0338 105.209 10.0338 110.582C10.0338 112.097 9.41208 115.27 10.6714 116.25C11.6223 116.989 14.5565 117.111 14.2842 116.958C12.209 115.791 1.76381 113.493 8.94765 109.969C11.2227 108.852 15.1342 108.316 15.1342 111.834C15.1342 115.434 12.5304 117.401 9.27823 117.289C2.22719 117.045 8.29443 103.416 11.3089 107.938" stroke="#1D1D1D" stroke-width="12" stroke-linecap="round"/>
<path d="M106.799 120.616C104.45 120.848 101.256 121.711 98.8925 120.951C97.7855 120.596 95.445 119.071 94.9853 118.036C94.4314 116.79 94.5567 119.871 94.7258 120.463C94.8344 120.843 96.0846 120.89 96.42 120.89C97.3073 120.89 97.9519 121.394 98.8315 121.44C100.035 121.503 101.259 121.44 102.464 121.44C103.248 121.44 104.099 121.535 104.875 121.425C105.939 121.273 104.288 123.698 103.899 124.309C103.204 125.401 99.6647 124.698 98.8467 124.187C98.2227 123.797 97.4021 123.849 96.6947 123.577C95.9309 123.283 96.1044 122.305 95.8095 121.715" stroke="#B7656D" stroke-width="6" stroke-linecap="round"/>
<path d="M30.1466 123.939C27.7551 123.939 25.8288 124.516 23.5099 124.516C19.0513 124.516 19.0994 122.273 16.2961 119.322C14.3769 117.302 11.7766 113.973 11.1021 111.275C10.2525 107.876 8.40817 104.458 7.67155 101.143C6.24338 94.7167 12.9479 87.724 16.0075 82.9646C17.8608 80.0818 19.4921 80.0791 22.6443 80.0791C26.4848 80.0791 27.9989 80.7365 31.3008 82.3875" stroke="#D3969C" stroke-width="6" stroke-linecap="round"/>
<path d="M26.1055 100.855C26.1055 104.991 26.1055 109.127 26.1055 113.263C26.1055 116.312 26.6904 118.303 22.7711 117.463C19.0473 116.665 18.6831 110.233 17.1603 107.492C16.4945 106.293 15.3882 103.49 17.8016 104.959C20.4532 106.573 21.927 109.337 23.765 111.788C25.4645 114.054 24.6072 117.477 25.4001 118.745C26.3072 120.197 26.0607 120.079 24.2459 119.451C22.3726 118.802 19.9971 117.797 19.3084 115.731C18.498 113.3 18.6542 110.583 17.7374 108.037C16.897 105.702 16.1447 102.41 14.8519 100.342C14.1282 99.184 12.832 98.6478 12.832 97.1038C12.832 95.8536 14.1684 96.3851 14.8198 96.9435C16.2765 98.192 16.1457 99.8558 16.3588 101.56C16.4848 102.568 20.3443 115.292 16.8718 111.82C14.3706 109.319 13.9862 103.158 13.9862 99.7008C13.9862 98.8632 13.6652 97.2003 14.3069 96.5587C16.2822 94.5834 18.0613 98.3465 18.3145 99.7649C18.7024 101.937 18.6031 104.14 18.6031 106.337C18.6031 109.132 14.6185 105.27 14.2748 103.933C13.0848 99.3052 12.4973 88.8965 20.142 90.5953C24.1097 91.477 27.9789 101.432 22.194 101.432C19.1938 101.432 17.4489 100.482 17.4489 97.232C17.4489 94.3282 17.7838 88.5435 21.8413 88.1907C29.5085 87.524 32.1567 100.278 24.9833 100.278C21.3407 100.278 19.7063 99.3587 19.7573 95.5328C19.7989 92.4101 20.7021 89.3128 24.2459 89.3128C25.461 89.3128 28.245 89.3513 27.8047 91.3327C27.3398 93.4247 25.147 92.7755 23.4764 92.7755C20.0838 92.7755 18.6031 91.0064 18.6031 87.7098C18.6031 84.652 20.5868 85.1592 23.0917 85.2731C27.8372 85.4888 30.5766 95.0809 24.3742 93.0961C21.4503 92.1605 20.4336 90.0664 21.2963 87.1647C22.5953 82.7953 25.224 80.6562 29.6322 80.6562C33.9316 80.6562 35.6364 83.4003 35.8842 87.6136C36.031 90.1098 36.645 94.0802 35.0506 96.2061C34.4529 97.0029 31.3281 97.5022 30.2735 97.8412C27.5806 98.7068 25.9202 93.904 25.6566 91.9419C25.3042 89.3185 24.5195 86.4273 27.5803 86.4273C29.7567 86.4273 33.8186 85.8825 34.6338 88.7357C36.0298 93.6215 24.4812 94.6462 23.2841 90.7556C22.3217 87.6279 34.5632 87.7862 35.3071 91.8778C36.57 98.8238 32.0209 98.5465 26.8749 98.5465C21.7093 98.5465 27.449 98.5926 29.3116 100.278C31.0811 101.879 30.2557 107.046 29.3116 108.934C28.5806 110.397 27.3245 110.914 25.7849 110.634C23.2199 110.167 23.797 105.622 23.797 103.676C23.797 102.058 22.882 98.7666 25.3039 99.1878C29.2166 99.8682 28.991 103.753 28.991 106.818C28.991 110.969 27.5666 113.322 23.3482 110.666C21.8977 109.752 21.9755 108.159 22.0657 106.626C22.1276 105.574 24.7486 106.049 25.5284 106.049" stroke="#D3969C" stroke-width="6" stroke-linecap="round"/>
<path d="M159.729 91.137C159.729 87.4298 163.486 81.9941 168.99 81.9941C176.781 81.9941 177.195 86.8141 180.32 90.5973C182.342 93.0447 184.816 97.7504 184.816 100.566C184.816 101.851 185.846 102.878 185.625 104.28C185.349 106.033 182.298 108.793 181.219 110.534C178.78 114.471 172.515 115.693 167.012 116.248C165.287 116.422 162.882 115.902 161.527 116.978C160.462 117.824 164.668 117.994 164.989 117.994C168.054 117.994 171.726 119.306 175.15 118.248C177.347 117.569 178.95 116.097 180.949 115.137C182.478 114.403 184.007 112.183 184.007 110.851C184.007 108.363 184.816 105.768 184.816 103.137C184.816 101.549 184.082 99.0412 182.208 97.9941C180.114 96.8235 180.079 94.8505 177.937 93.4545C175.492 91.861 174.386 92.1532 172.857 89.9941C171.959 88.7257 170.14 87.4832 168.136 87.1687C166.323 86.8842 164.026 87.137 162.156 87.137C161.735 87.137 165.924 87.137 167.057 87.137C168.988 87.137 173.217 86.566 174.116 88.1529C175.46 90.5264 172.905 90.3426 170.609 90.883C169.023 91.2563 167.097 91.652 165.753 92.3751C164.917 92.8248 163.174 95.2268 162.156 95.137C159.11 94.8681 163.076 87.3476 163.775 86.3116C165.067 84.3962 165.791 83.7084 168.81 83.7084C174.023 83.7084 168.829 83.7084 166.562 83.7084C162.807 83.7084 151.676 82.8294 155.413 82.5656C158.288 82.3625 161.331 82.5656 164.225 82.5656C168.541 82.5656 166.293 82.1771 166.293 84.3751C166.293 88.9247 169.664 92.8338 171.688 96.9783C172.034 97.6864 173.672 100.951 172.497 101.677C168.676 104.037 163.601 97.795 163.775 95.7084C163.865 94.6256 167.702 95.4688 168.451 95.5814C172.284 96.1582 176.923 99.211 177.937 101.677C178.97 104.188 176.308 107.763 174.97 110.185C174.369 111.273 171.716 115.195 169.889 115.581C165.178 116.58 166.203 104.746 166.203 103.518C166.203 102.621 165.634 100.483 166.742 99.7719C168.833 98.4297 169.824 100.935 170.069 101.867C170.691 104.227 171.29 108.285 167.866 109.645C164.243 111.084 161.392 107.689 162.336 105.423C163.456 102.734 168.764 103.137 171.823 103.137C174.645 103.137 176.524 103.845 173.127 105.55C171.723 106.254 161.026 108.706 159.819 106.788C158.133 104.109 164.083 104.851 166.023 104.851C168.058 104.851 173.124 104.039 173.441 106.058C173.788 108.258 173.422 109.994 170.249 109.994C165.499 109.994 164.279 109.761 164.584 113.423C164.66 114.337 167.012 114.074 167.012 115.423C167.012 116.89 163.672 116.217 162.156 116.28C160.733 116.339 160.213 121.994 163.775 121.994C165.528 121.994 167.282 121.994 169.035 121.994C172.258 121.994 171.971 119.754 174.296 118.693C175.344 118.214 180.77 114.956 180.77 113.994C180.77 112.905 179.393 115.952 178.522 116.851C178.189 117.194 176.831 119.645 176.319 119.645C175.977 119.645 180.203 115.148 180.59 114.439C182.622 110.708 186.84 100.947 179.151 99.137" stroke="#D3969C" stroke-width="6" stroke-linecap="round"/>
<path d="M165.785 84.8848C165.785 83.2283 165.988 81.9622 167.921 81.9622C169.9 81.9622 171.416 80.6811 173.429 81.6875C175.573 82.7593 178.281 84.4491 179.274 86.6834C179.862 88.0061 180.727 89.1786 181.297 90.5552C181.867 91.9288 182.329 93.184 182.696 94.6518C183.403 97.4784 183.096 100.52 183.096 103.432C183.096 107.205 182.414 110.671 180.773 114.136C180.025 115.714 179.637 117.452 178.6 118.882C178.237 119.382 177.826 120.69 177.138 120.843C175.889 121.121 174.356 120.855 173.079 120.855C170.648 120.855 168.216 120.855 165.785 120.855" stroke="#D3969C" stroke-width="12" stroke-linecap="round"/>
<path d="M16.5084 94.7764C16.0581 95.7332 16.2374 96.3819 16.0338 97.3493C15.8946 98.0103 15.6091 98.3883 15.6091 99.0978C15.6091 101.217 14.4106 103.333 13.5858 105.23C13.2182 106.076 12.4668 107.596 13.261 108.39C13.9077 109.037 14.7317 109.237 15.3843 109.839C16.119 110.517 16.5157 111.381 17.1828 112.087C18.0572 113.013 19.1453 113.606 19.8806 114.635C20.692 115.771 22.8251 116.17 24.0522 116.696C25.2106 117.192 26.2329 117.823 27.412 118.257C28.3061 118.587 28.9165 118.693 29.3229 119.506" stroke="#D3969C" stroke-width="12" stroke-linecap="round"/>
<path d="M41.293 74.0085C43.1814 73.1753 42.9642 74.4113 42.9642 75.8655C42.9642 76.8969 41.4512 77.1123 42.951 77.1123C43.5041 77.1123 45.5464 76.0884 44.7549 77.2317C44.2748 77.9251 44.4295 78.5807 43.9193 79.2611" stroke="#1D1D1D" stroke-width="12" stroke-linecap="round"/>
<path d="M149.209 71.1436C148.786 71.6273 153.096 72.8148 154.037 72.8148C155.969 72.8148 155.719 73.4782 154.355 74.5392C151.316 76.9027 156.543 77.1946 155.735 78.8102C155.363 79.5533 153.191 80.796 154.82 81.1579C155.822 81.3807 156.133 80.831 156.133 82.113C156.133 83.0319 156.202 83.5873 157.207 83.8108C157.849 83.9534 157.326 85.2655 157.326 85.7075" stroke="#1D1D1D" stroke-width="12" stroke-linecap="round"/>
<path d="M43.2076 86.4795C42.9402 86.5119 40.71 86.4717 40.71 87.0402C40.71 87.3801 41.2831 87.0167 40.4551 87.4479C39.4111 87.9917 38.141 88.7732 39.9964 88.7732" stroke="#1D1D1D" stroke-width="7" stroke-linecap="round"/>
<path d="M157.662 89.6904C158.263 90.8916 160.669 88.967 160.402 90.8373C160.357 91.1526 159.842 91.9542 160.058 92.2135C160.439 92.6705 160.86 92.9928 161.332 93.3603C162.419 94.2058 162.661 95.4319 161.612 96.5205C160.573 97.5993 162.092 97.2596 162.938 97.2596" stroke="#1D1D1D" stroke-width="7" stroke-linecap="round"/>
<path d="M29.6562 102.461C29.6562 105.163 32.2116 107.797 32.8324 110.591C33.3642 112.984 34.9185 114.559 35.9504 116.623" stroke="#2D2D2D" stroke-width="5" stroke-linecap="round"/>
<path d="M36.4746 116.623C40.3137 116.623 44.344 117.428 48.1887 117.788C52.9877 118.238 57.7654 118.196 62.5835 118.196C66.2715 118.196 76.4889 113.4 73.1903 115.049" stroke="#2D2D2D" stroke-width="5" stroke-linecap="round"/>
<path d="M74.7637 112.951C77.5474 110.167 77.9107 103.677 77.9107 99.8384C77.9107 97.0012 78.1018 94.451 76.8617 91.9707" stroke="#2D2D2D" stroke-width="5" stroke-linecap="round"/>
<path d="M29.6562 100.363C31.71 100.106 34.8529 96.5596 36.4749 95.1178C37.508 94.1995 39.8836 93.8396 41.2246 93.2529C44.7284 91.72 48.7617 91.379 52.4433 90.3973C54.9739 89.7224 57.0209 88.2992 59.7864 88.2992C61.8942 88.2992 64.0019 88.2992 66.1097 88.2992C68.2414 88.2992 74.3292 87.3398 75.8131 88.8237" stroke="#2D2D2D" stroke-width="5" stroke-linecap="round"/>
<path d="M164.922 101.461C164.922 104.163 162.367 106.797 161.746 109.591C161.214 111.984 159.66 113.559 158.628 115.623" stroke="#2D2D2D" stroke-width="5" stroke-linecap="round"/>
<path d="M158.104 115.623C154.264 115.623 150.234 116.428 146.389 116.788C141.59 117.238 136.813 117.196 131.995 117.196C128.307 117.196 118.089 112.4 121.388 114.049" stroke="#2D2D2D" stroke-width="5" stroke-linecap="round"/>
<path d="M119.814 111.951C117.031 109.167 116.667 102.677 116.667 98.8384C116.667 96.0012 116.476 93.451 117.716 90.9707" stroke="#2D2D2D" stroke-width="5" stroke-linecap="round"/>
<path d="M164.922 99.3629C162.868 99.1062 159.725 95.5596 158.103 94.1178C157.07 93.1995 154.695 92.8396 153.354 92.2529C149.85 90.72 145.816 90.379 142.135 89.3973C139.604 88.7224 137.557 87.2992 134.792 87.2992C132.684 87.2992 130.576 87.2992 128.468 87.2992C126.337 87.2992 120.249 86.3398 118.765 87.8237" stroke="#2D2D2D" stroke-width="5" stroke-linecap="round"/>
<path d="M86.1523 102.321C87.2724 102.196 88.7606 100.553 89.6988 99.9564C91.3511 98.9049 93.4347 97.8285 95.4257 97.8285C98.3978 97.8285 102.311 97.7376 104.962 99.0632C105.754 99.4595 106.553 99.7549 107.379 100.009C107.824 100.146 108.142 100.167 108.613 100.193C109.021 100.215 108.765 100.865 109.086 101.086C109.664 101.483 110.012 101.231 110.321 101.848C110.715 102.636 111.097 103.298 111.45 104.094C112.082 105.515 112.667 100.306 112.987 100.114C113.158 100.012 113.342 105.137 113.342 105.736C113.342 107.014 112.919 103.205 112.514 101.992C112.346 101.486 111.722 98.8243 112.751 100.311C113.529 101.435 113.578 103.354 113.578 104.672C113.578 105.396 113.497 106.786 114.288 107.049" stroke="#2D2D2D" stroke-width="5" stroke-linecap="round"/>
<path d="M83.3154 103.503C81.7696 103.503 83.3574 97.9284 84.2086 100.482C84.7042 101.969 82.9761 105.158 81.4239 105.158C78.9297 105.158 81.3103 100.184 81.6078 100.482C81.984 100.858 81.5185 102.63 81.2926 103.017C81.1063 103.336 80.8253 104.67 80.4782 103.976" stroke="#2D2D2D" stroke-width="5" stroke-linecap="round"/>
<path d="M167.818 115.042C169.356 115.042 171.523 115.399 172.53 113.889C173.511 112.416 174.742 110.944 174.742 109.108C174.742 108.028 174.887 106.554 173.876 105.88C173.362 105.537 173.371 105.152 172.654 105.152C172.179 105.152 171.71 105.199 171.28 104.96C170.116 104.313 171.945 100.959 172.255 100.235C173.196 98.0403 173.945 95.7814 174.879 93.5861C175.929 91.1175 177.318 88.4164 177.956 85.8662" stroke="#B7656D" stroke-width="4" stroke-linecap="round"/>
<path d="M177.215 95.0146C178.554 95.7234 179.596 96.7594 180.429 98.0367C181.124 99.1022 180.967 100.41 181.281 101.608C181.758 103.434 182.16 105.002 182.16 106.883" stroke="#B7656D" stroke-width="4" stroke-linecap="round"/>
<path d="M22.511 113.281C18.5636 111.939 17.3147 111.123 17.7103 106.969C17.9283 104.68 22.6353 101.19 24.5767 100.543" stroke="#B7656D" stroke-width="4" stroke-linecap="round"/>
<path d="M24.2306 100.543C23.122 97.8992 22.5184 95.2998 21.8397 92.5287C21.5664 91.4124 21.5089 88.6988 20.2714 88.1487C19.4872 87.8002 19.0664 86.2092 19.0664 85.3945" stroke="#B7656D" stroke-width="4" stroke-linecap="round"/>
<path d="M20.7882 91.2471C17.3912 91.2471 11.1484 95.0489 11.1484 99.1654" stroke="#B7656D" stroke-width="4" stroke-linecap="round"/>
<path d="M93.7227 43.8439C90.8763 43.8439 78.2524 45.9881 80.136 40.756C81.3815 37.2963 86.6471 35.0828 90.2488 35.5066C92.2476 35.7417 90.1709 41.6539 88.1645 41.7595C82.8451 42.0395 85.0901 29.3224 87.5083 26.7833C91.4405 22.6545 98.9022 24.2385 101.597 29.1378C103.869 33.2694 98.1149 36.5522 94.842 33.8854C88.5055 28.7223 96.1893 14.0302 102.407 11.2667C106.048 9.6487 111.425 14.9904 113.176 17.4424" stroke="#1D1D1D" stroke-width="2" stroke-linecap="round"/>
<path d="M33.9714 63.9915C32.6233 62.2643 29.5476 59.0702 32.1186 56.9666C33.2695 56.025 39.2913 52.2303 40.07 55.4226C41.7146 62.1655 34.3805 63.951 29.8027 60.5177" stroke="#1D1D1D" stroke-width="2" stroke-linecap="round"/>
<path d="M8.26373 133.47C7.01261 135.972 9.96858 137.848 11.9692 138.333C16.034 139.319 16.6116 138.526 15.9448 142.193C15.0094 147.338 24.1019 145.976 27.7174 145.976" stroke="#1D1D1D" stroke-width="2" stroke-linecap="round"/>
<path d="M192.379 103.594C194.905 103.8 196.942 104.112 197.204 106.99C197.284 107.87 197.389 108.811 196.548 109.306C194.541 110.487 194.456 110.934 197.474 111.777C199.294 112.285 200.716 113.456 200.716 115.405C200.716 117.944 196.372 118.402 194.463 118.879" stroke="#1D1D1D" stroke-width="2" stroke-linecap="round"/>
<path d="M186.127 132.08C187.311 128.964 188.566 125.69 192.341 126.869C194.322 127.489 193.932 128.975 193.074 130.691C191.921 132.998 189.683 134.366 187.478 135.554C187.032 135.794 182.124 138.22 182.46 138.295C184.145 138.669 192.849 138.868 193.692 140.765C195.736 145.364 188.543 143.891 186.127 143.891" stroke="#1D1D1D" stroke-width="2" stroke-linecap="round"/>
<path d="M167.368 140.417C170.131 141.996 163.977 143.891 165.824 143.891C168.62 143.891 172.686 143.043 174.701 145.242C175.79 146.43 179.013 147.574 175.319 148.6C171.952 149.535 168.767 150.144 165.283 150.144" stroke="#1D1D1D" stroke-width="2" stroke-linecap="round"/>
<path d="M169.453 52.876C173.38 52.876 179.423 53.3564 180.415 58.3184C181.066 61.5703 177.079 62.024 175.05 62.9116C171.259 64.5701 181.104 69.0433 182.191 70.0909C185.879 73.6479 175.639 73.0244 174.317 73.0244" stroke="#1D1D1D" stroke-width="2" stroke-linecap="round"/>
<path d="M143.051 32.7276C145.557 32.765 151.05 32.226 153.009 34.5417C154.502 36.306 151.647 38.0528 150.693 39.1349C148.805 41.278 146.644 41.7596 150.655 41.7596C153.429 41.7596 156.114 41.0648 158.876 41.0648C161.446 41.0648 166.414 42.6918 165.129 46.1599C163.929 49.3994 155.002 52.8058 152.083 54.2656" stroke="#1D1D1D" stroke-width="2" stroke-linecap="round"/>
<path d="M152.082 41.0642C154.495 38.5506 155.154 37.7595 158.875 37.5903C159.815 37.5476 163.067 35.9743 163.198 37.7447C163.647 43.8023 161.475 46.2618 157.64 50.0963" stroke="#1D1D1D" stroke-width="2" stroke-linecap="round"/>
<path d="M56.957 35.7352C61.1825 30.2096 64.3657 29.4859 70.8418 32.724C74.7273 34.6668 75.9385 39.0552 71.6365 41.6739C68.4837 43.5929 63.046 42.3429 68.6253 44.7687C71.7905 46.1449 78.0622 46.4095 78.788 50.0382" stroke="#1D1D1D" stroke-width="2" stroke-linecap="round"/>
<path d="M94.458 27.5508C93.7098 29.1074 90.5152 33.2693 93.2003 33.9011C94.5611 34.2213 95.2988 34.6763 96.7672 34.5197C97.1165 34.4824 99.8733 33.8247 100.128 34.3341C100.739 35.5565 98.2198 37.6934 97.5919 38.5196C97.3305 38.8635 94.9007 41.2271 95.9013 41.571C97.2388 42.0308 98.9335 41.2141 100.231 40.9937C103.502 40.4383 99.4926 44.38 99.1589 45.1585C98.9872 45.5591 102.508 45.2443 101.097 45.3853C99.8796 45.5071 98.5887 46.488 97.7156 47.3028C96.7485 48.2055 96.684 48.1377 97.7981 48.4162C100.43 49.0742 103.227 50.1893 105.963 50.1893C108.943 50.1893 107.447 50.4375 107.447 52.4161" stroke="#6B5761" stroke-opacity="0.05" stroke-width="9" stroke-linecap="round"/>
<path d="M107.448 74.6836C106.007 73.6027 103.906 72.4606 103.737 70.4362C103.592 68.6916 104.673 66.7211 104.356 65.0549C104.219 64.3374 101.294 66.1377 100.933 66.5188C100.661 66.806 100.754 67.3631 100.603 67.7147C100.225 68.5968 99.3886 69.1158 98.6857 69.7146C97.0921 71.0722 95.4677 72.1047 93.7168 73.1991" stroke="#6B5761" stroke-opacity="0.05" stroke-width="9" stroke-linecap="round"/>
<path d="M65.5102 68.3752C64.5561 68.5872 64.8762 65.3255 64.9741 64.8082C65.4511 62.2866 67.0613 60.9851 68.5204 58.9733C70.1848 56.6785 68.8343 57.8469 67.8812 59.1177C66.5875 60.8427 64.9755 62.1416 63.1803 63.3031C60.3893 65.1091 61.4781 62.0835 62.9948 60.8702C64.3691 59.7707 65.6412 58.6728 66.9328 57.4889C67.5069 56.9626 64.2956 58.0549 64.0257 58.1899C63.3049 58.5502 56.2715 62.9167 58.4176 59.2208C59.3368 57.6377 60.7788 56.3799 61.7989 54.8498C62.8933 53.2082 60.4619 54.704 59.7371 55.0353C59.0862 55.3329 58.4585 55.6847 57.799 55.9631C57.5213 56.0804 56.9152 56.6299 56.9743 56.3342C57.3764 54.3235 59.47 51.7184 60.768 50.1901C62.4125 48.2538 64.0257 46.067 64.0257 49.819C64.0257 51.8901 64.0232 53.8854 63.3659 55.8807C62.4805 58.5685 60.5333 60.5509 59.201 62.9732C57.6858 65.7283 58.7157 62.9881 57.8403 62.8289C56.0429 62.5021 49.0734 68.2843 48.1498 67.0968C47.6865 66.5012 48.6752 64.4219 48.1292 64.1278C46.2003 63.0892 42.8308 64.8208 40.9954 65.3855C40.7287 65.4676 37.1788 66.6696 37.0161 66.4371C36.5598 65.7853 39.2253 63.1145 39.6964 62.6434C40.6114 61.7284 41.7235 61.3882 39.9645 61.4681C38.1704 61.5497 44.1002 56.3028 44.4386 56.025C45.2277 55.3771 48.7468 53.1216 49.0158 52.0457C49.0925 51.7389 45.0375 53.6056 44.8097 53.7364C42.7053 54.9438 42.3722 54.1784 43.0778 51.8601C43.6649 49.931 46.4856 46.9827 42.5211 49.2623C40.418 50.4715 37.8182 52.7266 39.9026 48.8705C41.3862 46.1259 45.041 44.9136 46.7478 42.2315C47.3865 41.2278 45.9983 42.2031 45.7581 42.3965C44.6692 43.273 44.0485 44.4658 43.3252 45.6541C41.5449 48.5789 40.1811 51.7596 39.9232 55.2415C39.7534 57.5335 40.0787 59.859 39.9026 62.1485C39.8265 63.1376 35.1905 65.7794 35.0986 64.9526C35.0498 64.5135 35.3925 62.3643 34.913 62.1485C33.0667 61.3177 28.5383 64.0381 27.1607 64.7464C24.5314 66.0982 21.9036 67.5376 19.5939 69.3854C18.6942 70.1052 20.0531 68.1193 20.2537 67.8185C21.7541 65.5678 22.8309 68.789 22.8309 69.9834C22.8309 71.7487 22.4598 73.4837 22.4598 75.2409C22.4598 77.5726 26.5439 74.7281 27.2638 74.1482C27.862 73.6663 33.9419 69.2497 34.913 70.8493C35.9662 72.5839 33.5678 75.9932 36.7274 75.2409C39.4385 74.5954 38.3445 76.0679 38.9542 78.1481C39.5028 80.0199 41.1446 78.522 42.2943 79.179C42.8026 79.4695 42.1293 83.3359 42.1293 84.3335" stroke="#6B5761" stroke-opacity="0.05" stroke-width="9" stroke-linecap="round"/>
<path d="M7.61625 117.734C6.642 122.687 5.20674 126.103 11.5337 124.868C14.0804 124.371 10.1165 131.602 10.276 132.559C10.4601 133.664 11.9965 131.924 12.2965 131.858C13.1966 131.658 13.383 132.744 13.5749 133.383C14.344 135.947 16.7932 136.033 19.0386 135.177C19.8566 134.866 20.4801 134.806 21.3478 134.806C22.5635 134.806 22.2314 135.439 22.9148 136.208C23.9947 137.423 25.972 137.109 27.4714 137.775C29.9293 138.867 27.7177 142.468 29.5126 143.878C30.5777 144.715 31.9074 145.24 33.2238 145.569" stroke="#6B5761" stroke-opacity="0.05" stroke-width="9" stroke-linecap="round"/>
<path d="M149.386 76.9105C149.386 76.2406 149.592 71.1956 148.438 71.4055C147.72 71.5359 145.495 73.4105 144.726 72.2096C143.819 70.7918 147.733 67.3414 148.438 66.1891C149.448 64.5363 148.032 65.0727 146.582 65.0345C141.81 64.9089 142.706 61.8723 142.706 57.9007C142.706 56.3549 141.366 56.8083 141.84 54.9111C142.418 52.598 143.636 50.6497 144.933 48.7051" stroke="#6B5761" stroke-opacity="0.05" stroke-width="9" stroke-linecap="round"/>
<path d="M102.253 45.3651C99.2381 41.9486 99.1792 35.8055 99.5105 31.5716C99.8837 26.8037 105.184 13.3112 103.531 17.7988C102.649 20.1921 100.964 22.1144 99.6136 24.2523C98.8201 25.5087 97.9857 26.6789 97.057 27.8398C96.9091 28.0247 98.4283 26.2929 98.7477 25.9429C100.892 23.5935 103.544 21.8333 106.108 19.9843C107.529 18.96 110.879 16.8977 107.799 19.5926C105.257 21.8172 102.786 24.1029 100.273 26.3553C97.9634 28.4264 101.409 25.3056 101.923 24.7059C104.571 21.6159 107.21 18.6431 110.17 15.8401C111.441 14.6369 115.318 11.1782 113.799 12.0464C111.989 13.0804 110.576 15.9025 109.51 17.5514C107.316 20.9464 105.019 24.3882 103.593 28.1903C102.425 31.3051 106.6 31.5311 108.562 32.5407C113.414 35.0383 110.248 39.4996 109.675 43.5095" stroke="#6B5761" stroke-opacity="0.05" stroke-width="9" stroke-linecap="round"/>
<path d="M104.109 40.1698C98.5592 39.5794 100.641 36.6062 102.336 33.2834C102.814 32.3458 102.548 32.9053 102.027 33.304C101.196 33.9395 100.212 34.3496 99.367 34.974C96.3028 37.2389 99.0797 33.2379 99.8619 32.17C101.607 29.787 101.336 30.6825 99.3258 30.1082C98.0168 29.7342 100.28 24.2328 100.542 23.3867C101.26 21.0725 97.4048 23.5764 96.563 23.7785C94.6795 24.2305 98.8187 19.7483 99.2227 19.2837C99.9804 18.4124 101.525 18.1774 102.625 17.9023" stroke="#6B5761" stroke-opacity="0.1" stroke-width="3" stroke-linecap="round"/>
<path d="M51.7787 57.983C49.2508 58.3378 48.1591 59.1348 49.0159 56.4572C49.6803 54.3808 45.3919 56.6075 44.6242 57.0139C43.1369 57.8014 45.4584 54.0984 45.6139 53.7357C45.9404 52.9738 45.8407 52.1124 45.8407 51.3027" stroke="#6B5761" stroke-opacity="0.1" stroke-width="3" stroke-linecap="round"/>
<path d="M32.8519 68.375C29.3202 70.8364 32.2499 66.2847 33.0168 65.0348C34.2238 63.0679 30.9775 66.8195 30.4808 67.4265C30.3137 67.6308 30.2308 68.1974 30.6251 67.8389C32.2353 66.3751 33.7731 64.8643 35.491 63.5091C36.3784 62.809 37.531 61.8873 38.7074 61.7566C39.5652 61.6613 39.1554 64.1419 39.1404 64.54C39.0681 66.4538 38.6826 68.2382 38.1301 70.0656C38.0937 70.186 37.3923 71.8196 37.5734 71.88C38.4085 72.1584 40.6115 70.1292 40.6455 71.5914C40.69 73.5041 39.9032 75.2564 39.9032 77.0964C39.9032 78.2489 42.5987 77.4109 43.2433 77.2819" stroke="#6B5761" stroke-opacity="0.1" stroke-width="3" stroke-linecap="round"/>
<path d="M25.0595 72.8288C25.2528 71.862 28.333 66.7614 26.0904 68.0866C25.0388 68.708 24.093 70.3391 22.9977 70.7257C22.701 70.8304 24.1198 67.5581 24.3172 67.2619C24.8611 66.446 25.3862 65.5595 26.1728 65.0352" stroke="#6B5761" stroke-opacity="0.1" stroke-width="3" stroke-linecap="round"/>
<path d="M7.98729 119.219C7.81854 121.244 7.20601 122.147 9.96661 122.147C10.6546 122.147 11.3102 121.812 11.9872 121.734C12.8521 121.634 11.2642 125.472 11.1625 125.734C10.6308 127.106 9.50362 128.992 9.36869 130.476C9.33267 130.872 10.7173 130.724 10.9769 130.724C12.8292 130.724 12.0696 133.79 12.0696 135.095C12.0696 139.313 16.9978 133.886 18.5437 136.002C19.257 136.978 19.4868 139.045 20.6055 139.445C21.3265 139.703 22.0762 139.631 22.8322 139.631" stroke="#6B5761" stroke-opacity="0.1" stroke-width="3" stroke-linecap="round"/>
<path d="M147.53 69.4881C146.755 69.6412 142.759 71.1722 142.128 69.6119C141.774 68.7373 142.576 66.0295 142.107 65.4676C141.365 64.5764 140.329 65.516 140.499 63.3852C140.627 61.7863 141.963 60.7102 141.963 59.0967" stroke="#6B5761" stroke-opacity="0.1" stroke-width="3" stroke-linecap="round"/>
<path d="M95.9707 168.303C96.4085 168.549 96.4734 168.684 96.717 169.049" stroke="#1D1D1D" stroke-linecap="round"/>
<path d="M109.775 167.557L110.149 170.169" stroke="#1D1D1D" stroke-linecap="round"/>
<path d="M103.434 159.721V162.706" stroke="#1D1D1D" stroke-linecap="round"/>
<path d="M88.1348 167.93V169.422" stroke="#1D1D1D" stroke-linecap="round"/>
<path d="M78.8066 167.93L79.1798 169.422" stroke="#1D1D1D" stroke-linecap="round"/>
<path d="M62.7618 157.108C62.6105 157.732 62.4936 158.344 62.3887 158.974" stroke="#1D1D1D" stroke-linecap="round"/>
<path d="M68.7305 155.616V158.974" stroke="#1D1D1D" stroke-linecap="round"/>
<path d="M67.2383 164.571C67.3896 165.195 67.5064 165.807 67.6114 166.437" stroke="#1D1D1D" stroke-linecap="round"/>
<path d="M55.6719 153.004V155.616" stroke="#1D1D1D" stroke-linecap="round"/>
<path d="M56.418 160.094C56.958 160.701 56.7685 161.575 57.5374 161.959" stroke="#1D1D1D" stroke-linecap="round"/>
<path d="M62.7617 147.78C62.913 148.404 63.0299 149.016 63.1349 149.646" stroke="#1D1D1D" stroke-linecap="round"/>
<path d="M46.3438 145.168L45.9707 146.66" stroke="#1D1D1D" stroke-linecap="round"/>
<path d="M50.4473 137.706C50.6982 138.741 50.8204 139.642 50.8204 140.691" stroke="#1D1D1D" stroke-linecap="round"/>
<path d="M48.582 152.258V154.123" stroke="#1D1D1D" stroke-linecap="round"/>
<path d="M42.9844 132.481C42.9844 133.96 43.0059 135.179 43.3575 136.586" stroke="#1D1D1D" stroke-linecap="round"/>
<path d="M102.688 170.541V171.287" stroke="#1D1D1D" stroke-linecap="round"/>
<path d="M118.73 164.198C119.128 164.795 119.027 165.378 119.104 166.064" stroke="#1D1D1D" stroke-linecap="round"/>
<path d="M125.074 155.616C125.378 156.243 125.604 156.833 125.82 157.482" stroke="#1D1D1D" stroke-linecap="round"/>
<path d="M128.059 165.317V167.183" stroke="#1D1D1D" stroke-linecap="round"/>
<path d="M123.209 168.676V170.541" stroke="#1D1D1D" stroke-linecap="round"/>
<path d="M116.119 169.795V171.661" stroke="#1D1D1D" stroke-linecap="round"/>
<path d="M138.881 160.84C138.965 162.024 138.997 163.036 138.881 164.198" stroke="#1D1D1D" stroke-linecap="round"/>
<path d="M136.641 155.616V157.855" stroke="#1D1D1D" stroke-linecap="round"/>
<path d="M134.402 164.944L134.775 166.064" stroke="#1D1D1D" stroke-linecap="round"/>
<path d="M146.344 149.272L147.09 151.138" stroke="#1D1D1D" stroke-linecap="round"/>
<path d="M145.969 159.348V160.84" stroke="#1D1D1D" stroke-linecap="round"/>
<path d="M143.357 154.87V155.616" stroke="#1D1D1D" stroke-linecap="round"/>
<path d="M153.805 142.93C154.254 143.857 154.551 144.535 154.551 145.542" stroke="#1D1D1D" stroke-linecap="round"/>
<path d="M152.686 155.616V157.109" stroke="#1D1D1D" stroke-linecap="round"/>
<path d="M157.91 148.899V151.138" stroke="#1D1D1D" stroke-linecap="round"/>
<path d="M158.283 136.213L159.403 137.332" stroke="#1D1D1D" stroke-linecap="round"/>
<path d="M160.895 128.377C161.375 128.877 161.676 129.306 162.014 129.869" stroke="#1D1D1D" stroke-linecap="round"/>
<path d="M74.7013 164.944L74.3281 166.064" stroke="#1D1D1D" stroke-linecap="round"/>
</svg>
