<svg width="188" height="159" viewBox="0 0 188 159" fill="none" xmlns="http://www.w3.org/2000/svg">
<path d="M28.904 51.6478C26.1075 51.4614 19.9212 48.8798 19.2229 53.2441C18.4368 58.1578 24.0717 55.7792 26.8442 54.4285C28.5311 53.6067 27.5723 54.3264 26.5867 55.3554C24.2739 57.7703 22.0342 60.4493 20.845 63.6204C19.5263 67.1371 22.3824 65.3363 24.2695 64.3928C24.9634 64.0458 25.5489 63.7677 25.8658 63.0282C26.5001 61.5481 23.1117 64.698 21.7462 65.5515C20.0283 66.6252 9.95495 74.3023 13.2495 76.6744C15.4827 78.2823 17.5899 77.3886 19.6092 75.7732C20.5368 75.0311 21.8235 74.6933 22.6731 73.8937C24.1282 72.5242 19.1572 75.7965 17.4464 76.8289C13.9127 78.9613 9.90234 82.4547 9.90234 87.0249C9.90234 90.1848 14.9462 86.001 15.6698 85.48C15.9299 85.2927 19.6318 82.5992 19.9954 83.2658C20.3697 83.952 11.6084 88.3635 16.3907 87.2309C18.5504 86.7194 21.156 86.3343 23.1108 85.2483C25.9713 83.6591 17.4781 88.9502 15.7213 91.7109C15.234 92.4767 15.1143 95.6761 16.4937 95.6761C18.4479 95.6761 20.0707 93.5742 21.7462 92.7923C22.748 92.3248 19.9774 94.1199 19.0685 94.7491C16.1919 96.7406 14.3539 98.6622 13.1465 102.01C12.522 103.742 9.42696 114.866 15.2063 111.228C17.5373 109.76 20.4525 108.408 21.7205 105.872C22.5934 104.126 22.8357 101.568 20.2271 103.684C18.4614 105.115 16.6221 106.748 15.2836 108.601C14.6794 109.438 14.2588 110.305 15.6698 109.374C17.9379 107.877 20.9361 103.642 23.806 103.555C27.3504 103.447 21.0669 112.029 20.1499 112.978C17.2592 115.972 19.1158 116.072 21.5145 113.674C22.8216 112.366 24.2556 110.867 25.3509 109.374C25.9428 108.567 26.3668 107.992 25.4538 109.322C23.0993 112.753 18.9018 114.902 17.1374 118.823C16.3842 120.497 16.667 122.397 18.4505 120.703C19.6145 119.597 22.6731 118.385 22.6731 118.385C22.6731 118.385 18.8449 120.534 17.8068 122.35C17.4639 122.951 15.6374 125.553 16.8542 126.161C17.7478 126.608 19.724 125 20.2528 124.436C21.5869 123.013 22.8634 123.154 24.6299 122.659C25.4503 122.43 24.4967 123.947 23.3425 123.947" stroke="#1D1D1D" stroke-width="12" stroke-linecap="round"/>
<path d="M30.2943 91.5053C32.83 91.5053 38.5068 90.5067 33.7187 93.3591C32.4357 94.1235 25.7499 98.2848 31.3242 97.4272C33.8713 97.0354 35.5076 94.8445 37.9156 94.3375C40.6888 93.7537 36.6765 100.06 36.3192 100.774C35.8945 101.624 30.2692 114.815 34.9804 112.721C36.2339 112.164 44.577 105.889 38.585 109.426C37.959 109.795 29.4365 113.163 32.8691 115.348C34.1108 116.138 36.8544 115.605 38.2246 115.605C40.6463 115.605 45.4568 114.587 47.6996 115.708C48.5752 116.146 45.9337 118.987 45.7428 119.261C43.1807 122.944 40.7661 126.758 39.6664 131.156C39.1086 133.388 43.0594 129.614 44.198 129.045C45.4316 128.428 50.2455 125.901 46.2063 125.441C43.8664 125.174 41.4531 125.338 39.1 125.338C38.1394 125.338 36.9608 126.213 38.5335 126.213C41.0163 126.213 42.4999 124.693 44.6614 123.973C46.8557 123.242 41.439 124.726 40.9538 124.874C40.3653 125.053 35.8809 126.161 38.7395 125.338C41.1345 124.647 43.4147 124.411 45.8973 124.411C47.2099 124.411 50.3411 124.014 51.4073 125.08C51.8043 125.477 51.8255 127.314 51.3043 127.655C49.8079 128.633 46.9787 128.41 46.9787 126.264C46.9787 124.745 48.8434 123.368 49.9654 125.132C51.1183 126.943 49.4894 133.031 47.0817 133.216C45.6803 133.324 43.798 133.415 45.6141 131.826C47.4711 130.201 50.9486 129.419 53.3641 129.509C55.3502 129.582 53.8877 132.372 53.9305 131.259C54.0834 127.286 64.1723 127.629 66.6498 129.045C68.7591 130.25 64.6511 132.258 63.7661 132.289C61.4391 132.372 59.6751 130.384 61.3973 128.17C62.6164 126.602 65.5169 125.987 65.5169 128.427C65.5169 130.191 63.4427 134.864 61.0883 134.864C60.9026 134.864 59.3313 134.154 58.6938 134.092C55.7456 133.804 52.8232 133.082 49.8624 132.753C46.417 132.37 46.9097 131.41 50.0169 132.186C52.5652 132.823 52.5699 134.237 49.8624 134.143C48.4675 134.095 47.1996 133.339 45.7943 133.242C43.3478 133.073 40.6226 134.071 38.688 135.559C38.0074 136.083 35.6306 137.865 36.139 138.984C36.5783 139.95 38.1216 139.808 38.894 139.447C39.8774 138.988 45.6367 137.753 43.992 140.529C43.3297 141.646 39.4361 143.076 41.8807 140.632" stroke="#1D1D1D" stroke-width="12" stroke-linecap="round"/>
<path d="M74.7869 123.946C73.5817 125.151 71.6395 127.162 72.0577 129.044C72.7577 132.194 78.431 128.702 80.2454 128.581C82.9714 128.399 80.8872 131.379 79.9107 132.649C79.6057 133.045 76.2401 135.018 77.6706 135.069C79.6391 135.14 81.8529 134.205 83.7728 134.632C84.5399 134.802 83.3127 136.077 83.1806 136.202C81.0796 138.186 78.1687 138.89 75.4564 139.601C74.9928 139.722 70.9232 141 71.4397 141.068C74.4131 141.465 77.2697 140.242 80.0909 139.73C85.1461 138.81 79.2986 144.41 78.2371 145.471C74.708 149 79.8849 144.292 79.8849 146.45C79.8849 148.343 77.3078 148.762 75.9198 149.436C73.8303 150.451 75.6235 150.794 77.0784 150.157C78.3028 149.622 79.8274 148.919 81.1723 148.973C82.5463 149.028 81.1379 149.9 80.3484 149.9" stroke="#1D1D1D" stroke-width="12" stroke-linecap="round"/>
<path d="M98.8849 121.166C97.2368 123.237 96.078 124.491 99.2969 125.234C102.237 125.913 105.26 125.572 108.103 124.668C110.314 123.964 104.229 126.177 103.725 126.316C101.998 126.79 99.8161 126.232 98.2155 126.959C95.6156 128.141 101.773 125.551 99.0652 125.852C96.9184 126.091 91.1383 126.191 89.7188 128.118C88.9291 129.19 93.0819 129.469 93.375 129.482C96.9374 129.644 100.211 128.581 103.725 128.581C104.836 128.581 100.98 131.335 100.636 131.568C99.3356 132.446 97.9385 133.235 96.8251 134.349C95.5738 135.6 97.7626 134.382 98.164 134.143C100.33 132.851 102.848 132.289 105.348 132.289C110.226 132.289 107.384 135.616 104.704 137.361C102.487 138.805 96.2837 141.751 96.1042 144.802C96.0824 145.173 98.0107 143.849 98.473 143.618C100.843 142.433 102.953 141.596 105.631 141.558C106.435 141.547 108.497 141.188 109.235 141.61C109.772 141.916 106.627 144.003 106.3 144.236C105.206 145.013 103.077 147.258 105.94 146.193C110.039 144.667 108.835 147.184 106.3 148.973C105.456 149.569 101.814 150.978 104.446 150.827C104.956 150.798 110.562 148.558 110.523 149.179C110.495 149.624 106.871 151.837 106.3 152.218" stroke="#1D1D1D" stroke-width="12" stroke-linecap="round"/>
<path d="M166.087 70.1864C166.38 68.9569 169.61 60.8128 166.19 64.6249C164.918 66.0436 161.246 69.2572 162.122 71.4737C163.223 74.2592 166.805 72.9786 168.301 74.8209C171.617 78.9011 161.869 84.491 159.187 86.5618C158.379 87.1856 156.142 88.4679 158.62 88.1581C160.086 87.9749 167.913 85.5058 168.585 87.3857C170.249 92.0464 149.372 91.5053 154.321 91.5053C155.803 91.5053 157.628 91.8379 158.929 91.0161C159.664 90.5518 161.649 89.1615 162.637 89.7545C163.063 90.0102 162.013 90.5944 161.916 90.6814C160.441 92.0016 159.354 93.9237 158.311 95.5734C157.795 96.3904 153.762 102.559 155.994 103.452C158.135 104.308 161.697 101.299 163.461 100.337C165.376 99.2921 160.709 101.121 160.371 101.186C156.287 101.98 151.277 101.762 147.394 100.053C144.374 98.7245 148.886 96.6859 150.175 96.2171C153.092 95.1564 158.83 94.1199 161.607 96.1399C165.47 98.9489 161.405 103.204 158.672 105.306C156.587 106.91 159.492 104.835 160.165 104.379C161.517 103.464 162.982 102.683 164.285 101.701C164.884 101.25 165.552 100.044 166.319 99.8732C166.989 99.7243 167.478 99.8108 167.478 100.543C167.478 102.541 162.365 103.383 160.989 103.813C159.401 104.309 154.599 105.578 156.252 105.383C158.964 105.064 160.804 103.149 163.1 101.907C167.141 99.723 161.142 106.332 159.959 107.057C154.472 110.42 162.565 106.283 164.208 105.872C164.434 105.816 166.386 104.939 165.752 105.924C164.043 108.583 159.495 110.373 156.638 111.125C155.498 111.425 150.596 112.365 150.896 112.335C152.976 112.127 154.912 110.414 156.818 109.58C160.796 107.84 163.311 109.361 158.363 112.129C152.875 115.199 146.045 114.619 140.649 117.794C139.335 118.566 142.379 118.13 142.502 118.102C144.981 117.545 147.305 116.449 149.763 115.811C152.337 115.143 155.091 115.009 157.745 115.142C159.263 115.217 153.995 118.085 153.78 118.18C152.266 118.847 150.707 119.484 149.145 120.034C148.804 120.154 147.895 120.438 148.218 120.6C149.662 121.322 153.185 120.307 154.449 119.57C155.645 118.873 156.909 119.392 155.067 120.497C153.659 121.342 148.765 122.093 150.407 122.093C152.798 122.093 155.998 120.789 158.208 122.557C160.401 124.311 156.414 123.84 155.119 122.351C153.251 120.205 151.61 117.899 149.866 115.656C149.485 115.166 148.567 114.271 149.042 115.399C149.467 116.406 150.462 117.407 150.742 118.386C151.097 119.628 150.042 123.02 150.639 123.02C152.419 123.02 160.589 121.664 157.333 125.441C156.366 126.563 154.242 128.422 152.647 128.582C151.89 128.657 151.438 129.045 152.544 129.045C155.178 129.045 159.218 127.254 159.007 131.903C158.914 133.937 157.721 136.089 155.917 137.104C155.571 137.299 154.037 137.526 155.273 137.362C157.552 137.058 162.126 136.968 163.306 134.607" stroke="#1D1D1D" stroke-width="12" stroke-linecap="round"/>
<path d="M138.742 122.557C136.647 122.728 134.318 122.654 132.254 123.123C131.849 123.215 131.011 123.676 131.945 123.844C134.177 124.246 136.655 123.947 138.922 123.947C141.873 123.947 133.353 125.898 130.554 126.831C128.414 127.544 126.281 128.3 124.118 128.942C123.275 129.192 120.664 129.508 121.543 129.508C125.147 129.508 128.59 128.727 132.151 128.582C136.423 128.407 128.67 129.846 128.083 129.946C125.978 130.304 123.83 130.709 121.697 130.873C121.289 130.905 120.183 130.696 119.843 131.002C119.234 131.551 120.447 132.64 120.925 132.727C122.285 132.974 124.524 132.363 125.765 131.826C127.974 130.871 128.497 131.362 125.276 131.362C123.122 131.362 120.968 131.362 118.814 131.362C116.859 131.362 122.719 131.039 124.632 130.641C125.55 130.451 136.888 126.713 136.888 129.277C136.888 136.743 124.453 135.997 119.303 135.997C118.213 135.997 117.123 135.997 116.033 135.997C114.801 135.997 114.142 136.924 115.878 136.924C119.876 136.924 123.497 134.918 127.439 134.452C130.126 134.134 134.993 133.226 137.712 134.246C138.909 134.695 131.444 136.393 130.451 136.435C128.588 136.512 125.832 135.849 124.375 137.387C122.028 139.865 127.845 140.631 129.01 140.631C130.885 140.631 134.729 140.792 131.43 142.949C131.107 143.16 128.908 143.807 130.039 143.618C131.993 143.293 133.966 142.99 135.858 142.382C139.166 141.319 134.91 144.732 133.747 145.163C131.198 146.107 135.034 145.422 135.034 144.339" stroke="#1D1D1D" stroke-width="12" stroke-linecap="round"/>
<path d="M158 50.3103C160.996 50.3103 164.55 49.8391 167.372 50.9798C171.837 52.7848 170.587 55.6433 167.758 58.1891C167.082 58.7981 165.057 60.0221 164.952 60.9698C164.866 61.7448 170.775 62.5894 171.492 62.8236C171.792 62.9219 175.096 63.9288 175.096 64.4715C175.096 65.7635 169.205 65.1425 168.479 65.1152C167.546 65.0799 161.441 63.0909 161.733 65.1409C162.06 67.4281 168.881 66.7619 170.256 65.6044C172.224 63.9473 172.47 67.1209 172.341 68.4108C172.226 69.5648 172.089 70.9721 171.801 72.0927C171.641 72.7137 170.647 73.6554 170.719 74.307C170.761 74.6866 173.713 74.064 174.118 74.8735C175.075 76.7866 170.503 78.3228 169.406 79.2505C167.927 80.5019 173.119 79.0219 174.118 79.0446C180.029 79.1789 175.811 84.8922 173.526 86.6916C172.257 87.6904 170.656 88.6609 169.947 90.1675C169.539 91.0344 170.359 90.0619 170.668 89.9358C172.752 89.083 181.636 89.4058 181.636 92.8452C181.636 94.8271 176.605 96.0782 175.148 97.1193C173.257 98.4697 175.874 98.0462 177.002 98.0462" stroke="#1D1D1D" stroke-width="12" stroke-linecap="round"/>
<path d="M27.753 45.2139C22.76 45.2957 17.8135 45.5796 12.8709 46.321C12.0672 46.4416 10.5458 46.4428 9.88423 47.0677C8.57849 48.3009 11.1885 49.2676 11.841 49.488C14.8009 50.4874 17.8399 50.7283 20.8012 51.5993C23.7757 52.4741 17.4088 53.6176 16.7073 53.762C16.1525 53.8763 13.4374 53.703 13.4374 54.7147C13.4374 56.3158 16.6503 55.8733 17.5312 55.8733C18.4302 55.8733 20.9537 56.0022 20.7239 57.4954C20.4424 59.3253 16.003 60.4561 14.5188 60.8684C12.7603 61.3568 13.6319 62.2216 14.9822 62.4647C16.7779 62.7879 18.5941 63.0434 20.3377 62.2587C21.2761 61.8365 20.6002 62.1516 19.9515 62.3875C17.9807 63.1041 15.906 63.3961 13.8494 63.7521C11.6863 64.1265 7.7252 64.3762 6.22809 66.3011C4.71113 68.2515 11.23 66.9295 11.9698 67.022C15.2536 67.4325 12.0477 70.9096 10.6052 71.6308" stroke="#1D1D1D" stroke-width="12" stroke-linecap="round"/>
<path d="M106.988 123.935C97.8887 123.935 90.4774 122.841 81.7507 120.597C76.9998 119.375 72.1847 118.399 67.3297 117.86C64.714 117.569 59.0664 117.223 57.0481 115.523C53.1476 112.238 48.3005 110.921 45.4311 106.31C40.241 97.9683 32.8584 87.5812 32.4789 77.334C32.1931 69.6183 31.4338 60.6131 32.746 53.0319C33.5793 48.2172 36.3244 35.66 40.8912 32.8692C45.2149 30.2269 48.626 26.2729 52.9087 23.6558C56.4188 21.5107 60.0751 20.7966 63.4574 18.7152C72.2484 13.3054 86.4114 15.7776 96.3053 15.7776C104.696 15.7776 114.617 14.1871 121.943 18.8488C129.69 23.7786 136.787 29.9912 144.309 35.0056C150.637 39.2243 151.688 50.3921 152.721 57.1045C153.744 63.7521 153.856 70.2372 153.856 77.067C153.856 83.9963 151.927 89.9182 149.65 96.295C148.293 100.094 145.988 109.718 142.372 111.784C138.475 114.011 132.821 113.257 129.22 116.057C125.725 118.776 122.312 119.128 117.803 119.128C99.9077 119.128 82.1405 119.502 65.1933 114.054C48.8495 108.801 42.0929 100.875 42.0929 83.6098C42.0929 73.5731 38.7289 55.3363 44.7635 47.2902C48.7497 41.9753 49.7296 38.3978 56.5139 35.0056C63.4448 31.5402 71.1315 30.1986 78.8131 30.1986C85.8199 30.1986 92.364 30.2856 99.1761 31.3336C103.09 31.9357 107.586 32.3206 111.527 32.6021C114.591 32.821 116.857 35.1836 119.673 36.2074C125.077 38.1725 128.619 42.7613 128.619 48.8258C128.619 50.4484 127.837 53.8617 129.821 54.2337C131.977 54.638 130.608 60.0242 131.957 61.7112C134.578 64.9872 133.426 71.5435 133.426 75.5981C133.426 83.2092 133.426 90.8203 133.426 98.4314C133.426 103.425 133.502 109.176 127.417 109.514C116.546 110.118 124.725 101.373 129.821 98.0976C133.506 95.7285 138.233 86.8972 138.233 82.4748C138.233 76.9247 134.446 73.363 133.493 68.1206C132.63 63.3761 128.783 53.9664 125.615 50.0943C120.969 44.4168 117.221 42.2161 109.992 42.2161C103.359 42.2161 99.963 47.3755 93.7015 48.1581C84.787 49.2725 75.1177 48.2249 66.128 48.2249C62.7007 48.2249 59.2735 48.2249 55.8463 48.2249C53.8211 48.2249 59.8967 48.2249 61.9218 48.2249C64.8795 48.2249 81.1339 46.8142 73.0714 49.6937C64.4799 52.7621 55.9087 57.0176 49.8375 63.8477C46.3295 67.7942 55.2534 79.2123 56.2469 83.0757C57.4247 87.6562 69.2759 118.835 76.9437 110.716C83.1353 104.16 79.9864 93.6791 76.6767 86.8145C72.9117 79.0057 70.0656 69.4821 65.4603 62.2453C64.7761 61.1702 59.4377 57.6139 61.588 55.7025C63.2146 54.2566 74.6916 77.4943 75.742 79.0699C79.7065 85.0166 83.7995 90.6131 88.2268 96.2282C88.7377 96.8761 95.8014 106.541 96.105 105.175C97.145 100.495 97.0731 91.8554 95.5709 87.3486C93.4084 80.8613 94.1758 73.1769 91.3647 66.8521C89.197 61.9746 83.0158 58.5846 78.8799 56.1031C76.8791 54.9026 81.6419 59.8913 82.6854 61.9783C84.5365 65.6804 86.1978 69.1138 88.8945 72.2599C92.113 76.0149 95.1884 79.8705 98.3082 83.7434C101.394 87.5741 104.757 92.729 108.189 96.1615C109.121 97.093 114.132 102.224 114.198 101.102C114.455 96.7274 114.198 92.2647 114.198 87.8827C114.198 82.824 111.941 79.1008 111.795 74.1293C111.627 68.4386 110.593 62.9646 110.593 57.238C110.593 54.8123 110.593 49.9608 110.593 49.9608C110.593 49.9608 110.593 54.8123 110.593 57.238C110.593 69.1443 110.593 81.0505 110.593 92.9568C110.593 96.6806 110.64 110.337 103.115 106.844C95.7751 103.436 95.4246 89.5674 93.7682 82.9422C91.1693 72.5463 94.9777 62.0777 98.5753 52.3643C98.9741 51.2874 104.892 41.8531 106.854 45.2873C109.781 50.4092 108.189 59.4439 108.189 64.9159C108.189 69.6146 108.855 74.9093 107.588 79.4705C107.02 81.5166 103.725 90.2748 106.587 84.8116C111.121 76.1559 124.937 67.1436 133.159 62.2453C136.171 60.451 139.629 61.2497 136.364 64.5153C135.765 65.1136 129.869 71.8968 128.886 70.7911C127.498 69.229 132.97 62.2024 134.027 60.9101C136.204 58.2493 138.233 56.5802 138.233 53.0319C138.233 52.1848 138.233 46.9122 138.233 50.0275C138.233 57.0378 138.233 64.048 138.233 71.0582" stroke="#934F5E" stroke-width="19" stroke-linecap="round"/>
<path d="M133.426 37.4092C133.426 43.4179 133.426 49.4267 133.426 55.4355C133.426 63.5278 133.025 76.4878 128.619 83.3428C125.03 88.9247 122.229 92.6898 115.399 92.6898C108.836 92.6898 109.39 90.2754 109.39 84.2775" stroke="#934F5E" stroke-width="19" stroke-linecap="round"/>
<path d="M100.164 120.153C104.854 120.153 109.21 122.629 114.031 122.629C118.115 122.629 121.274 120.839 125.201 120.125C129.845 119.281 134.723 115.469 137.554 112.009C140.964 107.842 143.928 102.765 145.725 97.3721" stroke="#934F5E" stroke-width="19" stroke-linecap="round"/>
<path d="M69.1358 88.7632C67.6419 93.994 59.2345 93.9449 54.8388 93.9449C45.8364 93.9449 36.375 93.5189 29.9914 86.4603C23.5903 79.3821 27.411 64.9703 31.9293 58.2491C36.2725 51.7883 40.492 46.3258 49.0684 45.8708C59.9926 45.2912 68.3243 45.5002 75.6813 53.9311C79.7987 58.6494 81.3161 66.4986 81.5379 72.6426C81.657 75.94 81.9115 78.9134 79.9446 81.731C78.7243 83.4791 73.5769 86.6093 71.4612 87.2827" stroke="#2D2D2D" stroke-width="5" stroke-linecap="round"/>
<path d="M121.07 86.5421C113.114 86.3311 108.504 80.2484 106.73 73.0946C103.787 61.2314 109.747 43.0186 124.127 40.7299C130.547 39.7081 141.068 39.6148 147.381 41.3879C152.902 42.9386 158.669 46.6704 160.903 52.1213C164.996 62.1097 161.933 84.4367 148.974 87.4469C139.352 89.682 127.126 88.7168 117.969 85.8019" stroke="#2D2D2D" stroke-width="5" stroke-linecap="round"/>
<path d="M83.0879 67.2959H101.691" stroke="#2D2D2D" stroke-width="5" stroke-linecap="round"/>
<path d="M83.082 108.772C83.1795 107.797 84.2908 106.552 84.7957 105.763C85.5624 104.566 86.5254 103.339 87.4995 102.298C87.9533 101.813 88.5347 101.195 89.0798 100.851C90.7399 99.8023 91.2032 97.0903 93.4402 97.5377C99.2058 98.6908 104.669 100.916 110.558 101.536C111.511 101.637 112.454 101.746 113.414 101.746C113.757 101.746 114.099 101.746 114.442 101.746C114.77 101.746 113.798 101.881 113.471 101.907C110.411 102.152 107.406 102.477 104.35 102.85C102.509 103.075 100.687 103.459 98.8287 103.459C97.2483 103.459 95.6679 103.459 94.0875 103.459C93.3555 103.459 86.8777 104.106 87.2043 105.249C87.3457 105.744 90.1514 104.928 90.565 104.735C91.4657 104.315 92.5035 104.388 93.4497 104.135C94.4735 103.862 95.4794 103.737 96.5152 103.545C97.171 103.424 97.8397 103.459 98.505 103.459" stroke="#713A45" stroke-width="6" stroke-linecap="round"/>
<path d="M70.123 108.508C71.525 108.788 73.5054 110.604 74.5155 111.558C75.1384 112.146 77.0849 113.037 76.7117 112.778C75.9235 112.233 82.0863 110.941 82.7512 110.826C89.2625 109.699 95.7452 108.561 102.212 107.166C107.332 106.061 112.054 104.115 117.311 104.115C119.229 104.115 119.891 103.931 121.49 103.017C123.951 101.611 125.577 99.4311 125.577 96.4287" stroke="#2D2D2D" stroke-width="5" stroke-linecap="round"/>
<path d="M48.8997 71.6939C50.6763 71.6939 52.0192 70.0277 53.9696 70.0834C55.3526 70.1229 56.2154 71.1373 55.6099 72.4693C55.1242 73.5379 54.2825 73.0619 53.4328 73.6026C49.5928 76.0462 48.8152 71.0777 52.1206 70.2027C53.4436 69.8525 56.7973 69.8946 55.759 72.2307C54.983 73.9768 52.1382 73.3044 50.54 73.3044C49.131 73.3044 48.0357 72.3829 49.1979 70.8887C50.2763 69.5021 53.1757 69.0098 54.8047 69.0098C55.5991 69.0098 59.6319 68.6167 58.98 70.0834C58.1198 72.0187 55.8379 72.4089 54.0293 72.7377C52.5221 73.0117 51.2531 73.3044 49.7049 73.3044C46.6801 73.3044 49.8384 72.2313 50.5101 71.6939C51.9197 70.5662 59.0993 69.527 59.0993 72.4991C59.0993 73.6351 50.5359 74.153 55.3415 72.2307" stroke="#2D2D2D" stroke-width="5" stroke-linecap="round"/>
<path d="M130.497 66.3262C130.497 65.2951 129.43 64.2101 129.96 64.1789C131.674 64.0781 133.749 63.9315 135.328 64.5964C136.567 65.1182 138.971 64.1412 139.086 66.3262C139.213 68.74 136.654 68.4735 134.91 68.4735C133.008 68.4735 127.812 68.4841 127.812 65.7894C127.812 63.8658 133.127 64.7157 134.791 64.7157" stroke="#2D2D2D" stroke-width="5" stroke-linecap="round"/>
<path d="M97.0323 7.61914C99.7478 7.61914 99.319 10.1919 97.1868 11.3268C95.4804 12.235 92.9389 12.5756 91.0074 12.2537C88.672 11.8645 95.7098 11.1618 98.0622 11.4298C98.6031 11.4914 102.085 11.8606 102.13 12.7171C102.246 14.916 99.4615 16.6817 97.7532 17.3002C97.5418 17.3767 92.1354 18.5458 92.9642 16.8882C93.6464 15.5238 96.5455 15.8995 97.7275 15.9871C98.7674 16.0641 103.597 17.4999 101.512 19.2055C99.6979 20.69 96.1938 21.7277 93.8653 21.9605C91.5695 22.1901 93.9058 21.8485 94.921 21.7545C95.5254 21.6986 103.026 21.2665 101.847 22.7072C100.895 23.8714 99.4487 24.5117 98.1652 25.2304C97.765 25.4545 94.7701 26.6981 96.5946 25.8999C98.4536 25.0866 100.542 24.9476 102.491 25.6939C107.906 27.7678 103.678 30.6601 99.813 30.9464C97.9256 31.0862 93.9436 31.4109 92.3977 29.865C91.2793 28.7466 94.3137 28.9381 94.715 28.9381C96.4511 28.9381 103.441 28.0728 103.521 30.7919C103.619 34.1195 99.4142 34.4995 96.8521 34.4995C96.0069 34.4995 98.5078 34.1384 99.3496 34.0618C101.249 33.8891 102.65 34.4093 104.01 35.6839C107.602 39.0519 102.004 40.2574 99.3496 40.4987C95.6022 40.8394 95.3686 39.0536 99.2981 38.6964C101.593 38.4878 102.359 38.9123 101.667 40.9879" stroke="#1D1D1D" stroke-width="8" stroke-linecap="round"/>
<path d="M107.229 5.76562C113.024 6.40955 104.551 11.8182 104.551 10.1427C104.551 8.67286 116.785 7.91318 113.871 10.4002C112.278 11.7605 110.869 12.5669 109.185 13.6444C108.149 14.3079 111.565 12.7083 112.043 12.5115C112.948 12.1391 114.864 11.9293 113.614 13.2839C112.459 14.5348 111.524 15.0347 113.588 15.0347C115.281 15.0347 120.562 14.0896 121.081 16.4251C122.006 20.5889 110.361 19.7909 108.464 18.3819C106.375 16.8298 111.67 16.0108 112.172 15.9874C116.889 15.768 121.519 16.2064 125.664 18.6394C130.054 21.2163 121.612 22.0233 119.51 20.6219C117.671 19.3957 122.471 19.7591 122.471 21.3171C122.471 22.813 120.858 23.893 119.716 24.5356C119.156 24.8506 118.542 25.1899 117.888 25.2307C117.734 25.2403 119.587 25.1545 119.999 25.0248C122.003 24.3941 123.498 23.3769 125.664 23.3769C128.013 23.3769 125.104 25.9959 124.325 26.5954C122.911 27.6826 121.191 28.2609 119.562 28.9126C117.959 29.5535 122.884 27.3462 124.582 27.651C129.917 28.6086 123.651 32.8215 120.669 32.646C119.163 32.5575 122.975 30.7917 123.192 30.6892C124.883 29.8915 127.986 29.2983 128.496 31.9766C129.078 35.0323 127.623 36.2813 124.737 36.7141C124.096 36.8103 120.72 37.0008 120.72 35.6842C120.72 35.515 124.206 34.8797 124.608 34.7573C125.923 34.357 127.691 34.4082 127.621 36.2507C127.569 37.5903 124.692 39.1344 123.527 39.1344C123.314 39.1344 125.186 38.3237 125.767 38.2075" stroke="#1D1D1D" stroke-width="8" stroke-linecap="round"/>
<path d="M118.352 8.54612C119.164 8.54612 120.889 8.16281 121.338 9.06107C122.036 10.4565 120.408 13.256 119.484 14.2878C119.366 14.4201 118.495 15.3748 118.377 14.7255C117.989 12.588 124.152 12.7193 125.046 12.7687C128.997 12.9871 131.171 16.6324 127.157 18.6391C126.19 19.1225 127.582 16.7509 128.187 16.4249C130.947 14.9388 134.358 15.3286 136.838 17.12C139.763 19.2325 135.59 23.3907 135.139 22.8102C134.274 21.698 145.336 20.5404 141.035 24.3036C137.657 27.2595 136.658 22.7232 139.876 20.9564C142.927 19.2815 147.233 22.1041 145.438 25.694C144.869 26.8321 143.953 27.5478 142.683 27.5478C141.646 27.5478 140.534 26.6505 142.014 26.1574C144.277 25.403 147.187 27.3586 145.695 29.9681C145.126 30.9646 145.109 32.6458 143.61 32.6458C142.711 32.6458 142.243 32.5421 142.477 31.4872C142.714 30.42 144.462 30.792 145.232 30.792C147.444 30.792 148.814 32.178 148.94 34.4996C149.089 37.2571 147.451 37.4407 146.185 39.3401C145.789 39.9342 147.497 38.0564 148.116 38.4132C149.034 38.9431 149.457 41.1578 148.476 41.8119C147.749 42.2969 146.803 43.0849 145.927 43.2795C144.777 43.5351 146.662 42.4647 147.086 42.4041C149.587 42.0468 150.714 46.9358 149.403 47.0129C148.095 47.0898 150.976 43.9657 151.257 42.8418" stroke="#1D1D1D" stroke-width="8" stroke-linecap="round"/>
<path d="M145.695 23.8408C145.894 25.8317 153.247 31.7246 152.39 32.8267C151.866 33.4996 152.662 30.2456 154.243 31.5393C155.672 32.7083 155.334 34.7597 155.428 36.3541C155.496 37.519 158.151 37.1776 158.209 39.1348C158.27 41.2383 156.248 40.0618 158.234 40.0618C160.216 40.0618 160.526 40.6482 160.526 42.6108C160.526 43.1391 160.41 43.5327 159.882 43.7437C159.745 43.7986 161.979 46.2868 162.277 46.5501C164.964 48.9246 164.142 51.4195 162.586 54.1199C162.396 54.4498 161.195 55.7928 161.195 56.1797C161.195 56.653 162.238 55.7861 162.611 56.0767C163.921 57.0956 163.414 57.9326 163.796 59.2694C163.924 59.7169 164.801 59.4971 165.135 59.5526C165.615 59.6327 166.231 60.6899 166.448 61.1232C167.416 63.0596 166.937 65.092 166.087 66.9422C164.928 69.4658 167.548 67.6716 166.937 68.384C166.134 69.3204 163.345 72.0917 164.44 72.0917C164.531 72.0917 165.371 74.9263 164.234 74.3574" stroke="#1D1D1D" stroke-width="8" stroke-linecap="round"/>
<path d="M92.8607 4.83897C91.4514 4.69804 78.5762 2.11018 80.4504 6.79578C81.0807 8.37145 83.8338 8.13975 85.085 7.72269C85.1492 7.70129 82.2064 8.47229 81.0684 9.44778C79.9845 10.3768 84.4702 11.8658 85.5484 11.0956C85.6085 11.0527 82.8733 10.8639 82.4587 10.8639C81.5998 10.8639 80.4388 10.6575 79.6008 10.9154C76.8227 11.7702 77.1588 13.821 80.09 13.6189C81.7752 13.5027 84.0857 12.5387 84.879 10.8639C86.4417 7.56482 74.2837 7.68459 73.0351 11.4303C72.8071 12.1144 72.5741 14.9344 73.1381 15.4984C73.7813 16.1416 76.563 15.8983 75.8931 15.9876C74.1993 16.2135 70.7464 17.6716 70.2029 19.4378C69.2425 22.5591 73.7115 21.2607 75.2494 20.8282C76.5863 20.4522 80.9176 19.178 78.7511 17.0948C75.9364 14.3884 68.321 14.3608 67.0102 18.9486C65.1897 25.3206 74.357 21.1804 74.1165 20.6994C73.0934 18.6532 63.7345 26.1579 68.9928 26.1579C70.4351 26.1579 70.991 25.7848 72.237 25.231C74.5801 24.1896 69.7672 24.8442 69.2503 24.9993C67.9179 25.399 65.7341 25.8761 65.5426 27.5998C65.3709 29.145 65.1857 31.2854 67.3707 30.6895C68.4471 30.3959 71.1596 28.7822 70.0484 28.6812C68.5775 28.5474 64.8075 29.5399 63.869 30.8955C60.8956 35.1904 65.1187 38.1827 68.9928 35.1695C70.4686 34.0217 69.246 33.1212 67.8342 34.0624C66.199 35.1525 63.7782 35.7269 62.9936 37.7443C62.672 38.5712 61.2873 40.8785 62.0667 41.6579C63.1151 42.7063 63.6631 40.7943 63.6631 40.0616" stroke="#1D1D1D" stroke-width="8" stroke-linecap="round"/>
<path d="M65.9804 8.54654C64.5238 8.54654 57.5255 10.6999 61.3458 12.0482C63.5878 12.8395 67.6097 11.2899 68.1946 8.80402C69.767 2.12154 56.0719 11.0378 62.3242 10.2974C64.1252 10.0841 68.8898 9.55069 70.2544 8.18608C71.0422 7.39835 69.7148 7.21722 69.0443 7.18193C65.4592 6.99324 62.0881 7.4846 58.7196 8.70103C57.1401 9.2714 56.1777 10.3981 56.2478 12.1512C56.3337 14.2991 62.3847 10.7027 63.0966 10.0399C63.7432 9.43796 64.4959 8.98283 65.2594 8.54654C65.9528 8.15033 61.2143 8.23287 60.8309 8.28907C57.6688 8.75247 56.0129 10.1125 56.2478 13.2841C56.6572 18.8104 68.3025 7.50619 55.6813 14.108C53.6138 15.1895 51.6132 16.0354 51.6132 18.6396C51.6132 20.3724 54.1511 20.5137 55.1149 19.309C57.102 16.8252 54.9514 17.267 52.5402 17.9186C50.827 18.3817 49.6936 20.2379 49.7594 21.8838C49.8307 23.6669 52.9533 21.3489 53.3641 21.0598C56.306 18.9896 50.877 21.1413 49.8624 22.0897C49.2888 22.626 44.2109 27.235 46.2578 28.3721C48.6362 29.6935 49.8904 26.3668 49.7594 24.6645C49.4939 21.213 41.5474 28.1995 46.6182 28.0117C47.2254 27.9892 51.2036 26.444 49.5534 28.0117C47.9144 29.5687 46.2107 30.8419 44.7129 32.6205C44.1493 33.2897 41.9838 35.6856 42.0867 36.7143C42.153 37.3781 45.5579 35.0224 45.8458 34.8605C45.8854 34.8382 42.9055 34.5909 42.8076 36.3539C42.6715 38.8039 44.795 37.0345 45.5883 36.1479C47.0947 34.4643 43.9852 35.5275 43.374 37.1778C43.1116 37.8864 42.0201 41.8612 43.374 41.9153C45.4838 41.9997 45.4698 38.9904 43.1681 40.525C42.3119 41.0957 40.045 44.2326 42.3441 44.2326C43.12 44.2326 44.7948 42.8422 44.198 42.8422" stroke="#1D1D1D" stroke-width="8" stroke-linecap="round"/>
<path d="M45.1245 17.3516C43.6016 17.3516 38.2322 17.9751 38.6618 20.3383C39.1341 22.9359 43.5493 19.3691 44.0946 18.2785C45.0406 16.3864 41.3138 16.8214 40.7216 18.7162C39.8508 21.5028 43.6397 21.0151 44.867 19.4372C45.6399 18.4434 42.6344 18.7355 42.2407 18.742C40.2489 18.7746 38.6234 19.511 37.0397 20.6988C35.238 22.0501 30.4201 25.1533 35.1602 24.7412C35.3457 24.725 37.5412 24.1481 37.0397 23.4795C36.3749 22.593 32.1883 24.3483 31.6842 25.2304C30.1954 27.8359 31.5509 29.7135 34.1045 28.0111C37.3271 25.8627 32.0428 26.7134 30.8603 27.5734C29.1356 28.8278 28.3033 33.1949 31.2208 33.1091C33.0507 33.0553 35.653 30.1187 32.122 30.3541C28.9999 30.5623 24.1943 32.983 27.7191 36.5078C29.3827 38.1714 31.649 34.2962 32.0447 33.1091C32.3999 32.0435 30.017 33.4374 29.8304 33.6241C28.2464 35.2081 27.679 36.704 27.2814 38.8508C25.6869 47.4611 31.2483 37.1864 29.058 36.4563C22.8561 34.389 22.3921 44.2856 26.6892 42.7387C27.5517 42.4282 30.1102 39.4815 27.7449 39.855C25.7551 40.1691 23.7542 41.4374 23.3678 43.5626C22.8772 46.2609 25.7061 44.8058 26.5862 43.9746C29.1657 41.5384 23.4073 44.7806 22.4409 45.4164C19.6533 47.2503 17.5987 49.33 21.9517 49.33C23.2194 49.33 24.2146 49.2863 25.1959 48.4031C26.5981 47.1411 25.6585 47.3841 24.4234 48.2486C23.9066 48.6105 18.4426 53.5011 22.1834 53.5011C22.5775 53.5011 25.4269 50.9811 23.7025 51.6473C22.1957 52.2295 20.531 52.7046 19.4284 53.9646C18.9242 54.5409 18.9877 55.8184 19.8919 55.8184C21.5117 55.8184 25.183 53.2147 24.6294 54.737C24.1928 55.9379 22.6867 56.8405 21.8487 57.7752C20.7403 59.0115 20.476 61.4383 20.2009 63.0277C19.6115 66.4331 21.8475 62.7258 22.4151 61.8176C24.0687 59.1718 20.4241 60.0579 19.7374 62.2038C19.4432 63.1233 22.263 62.7702 22.8786 62.7702" stroke="#1D1D1D" stroke-width="8" stroke-linecap="round"/>
<path d="M21.9524 64.1611C21.2355 64.878 20.3578 66.6862 21.2829 67.6113C22.2197 68.548 24.5424 66.9757 25.66 66.9419C26.7905 66.9076 23.2499 68.253 22.4673 69.2591C21.0794 71.0437 22.3273 71.991 23.8062 72.7093C24.7308 73.1584 26.5669 73.3001 25.1193 73.662C24.1382 73.9073 20.1583 73.894 20.0986 75.387C20.023 77.2753 24.7331 78.1755 24.7331 76.211" stroke="#1D1D1D" stroke-width="8" stroke-linecap="round"/>
<path d="M25.3373 87.1683C24.7072 87.1683 21.1341 87.5826 20.8057 86.9623C20.2109 85.8387 20.7027 83.3225 20.7027 82.0703" stroke="#934F5E" stroke-width="12" stroke-linecap="round"/>
<path d="M161.594 91.8023C163.704 91.8023 166.228 92.1901 166.228 89.7168C166.228 87.3222 166.228 84.9277 166.228 82.5332" stroke="#934F5E" stroke-width="12" stroke-linecap="round"/>
<path d="M19.7754 90.4121C21.8008 92.6625 22.7321 94.5832 25.8003 94.5832" stroke="#934F5E" stroke-width="12" stroke-linecap="round"/>
<path d="M85 83.1154C89.3631 81.661 94.7791 80.6034 99.3681 81.1433C100.541 81.2813 97.5913 84.6105 97.396 84.8057C96.4771 85.7247 94.8852 87.0384 93.5927 87.3256C90.8259 87.9405 87.4693 86.5536 85.3287 84.6805C85.1402 84.5156 86.9668 84.524 87.1599 84.524C88.412 84.524 89.6642 84.524 90.9163 84.524C91.9662 84.524 93.9347 84.9267 94.5788 83.9606" stroke="#783744" stroke-width="5" stroke-linecap="round"/>
<path d="M162.086 85.9987C164.131 85.9987 165.319 84.2031 165.946 82.3926C166.249 81.5148 166.46 79.956 165.636 79.4062" stroke="#763744" stroke-width="4" stroke-linecap="round"/>
<path d="M26.9413 89.0415C24.586 89.0415 22.6309 88.5412 22.6309 85.8016C22.6309 83.9519 23.079 82.113 24.6593 80.9277" stroke="#763744" stroke-width="4" stroke-linecap="round"/>
<path d="M74.6237 150.835C74.6237 149.525 76.9967 146.584 75.2387 146.364C74.559 146.279 73.2645 146.694 73.1443 145.732C72.8875 143.678 75.0577 142.688 75.222 140.962C75.2728 140.429 73.0075 139.825 72.5293 139.466" stroke="#3D2D31" stroke-opacity="0.46" stroke-width="8" stroke-linecap="round"/>
<path d="M42.3104 142.757C41.8702 142.757 37.3755 143.136 37.9555 142.092C38.0674 141.891 39.0073 140.51 38.8863 140.43C38.1731 139.954 37.2437 139.949 36.4928 139.599C36.2687 139.494 35.1847 139.177 35.1464 138.967C34.9576 137.929 35.8657 137.234 36.5094 136.59C36.8215 136.278 38.6368 134.898 38.3544 134.263C37.9989 133.463 36.848 134.862 36.4595 134.612C36.121 134.394 38.3054 131.836 38.5871 131.587C39.1251 131.11 39.0193 130.646 39.0193 129.958C39.0193 128.511 38.5447 127.55 37.6896 126.451C36.6808 125.154 38.9861 124.003 38.9861 122.877C38.9861 122.168 37.2241 122.214 37.2241 121.215" stroke="#3D2D31" stroke-opacity="0.46" stroke-width="8" stroke-linecap="round"/>
<path d="M21.0687 128.694C19.7239 127.618 17.0702 126.798 15.384 126.6C14.16 126.456 18.0767 122.739 18.0767 121.962C18.0767 119.698 15.0631 120.76 13.9545 119.652C13.0743 118.771 14.4864 116.386 14.4864 115.396C14.4864 115.065 14.6733 113.989 14.3534 113.801C13.9458 113.561 13.1334 113.555 13.0071 112.986C12.874 112.388 13.2902 108.354 13.2231 108.349C12.1786 108.262 10.9711 109.161 10.1647 108.931C8.90213 108.57 11.0899 103.402 11.1953 102.664" stroke="#3D2D31" stroke-opacity="0.46" stroke-width="8" stroke-linecap="round"/>
<path d="M9.09989 87.4052C9.09989 84.9699 8.84625 82.3577 9.11651 79.9253C9.43407 77.0673 12.6902 74.6521 12.6902 71.6808C12.6902 69.0546 8.59723 71.9564 7.60392 70.2181C6.29657 67.9302 11.7524 65.0491 13.1723 64.0514C13.4029 63.8893 15.2864 62.6121 15.1336 62.5886C14.1398 62.4357 13.1416 62.8016 12.1916 63.0208C10.8578 63.3286 8.95972 64.4425 7.60392 64.3672C6.14819 64.2863 10.0227 62.3404 10.1637 62.2728C12.4972 61.154 14.3882 60.713 15.8318 58.5163C16.1903 57.9707 18.1263 55.4753 17.4275 54.66C16.5657 53.6546 13.494 54.9155 12.391 54.793C11.8959 54.738 14.1862 52.1285 14.1862 51.6514C14.1862 51.095 12.8413 50.4561 12.391 50.0059" stroke="#3D2D31" stroke-opacity="0.46" stroke-width="8" stroke-linecap="round"/>
<path d="M45.0033 23.3779C44.9491 23.7937 43.7887 28.0995 44.1722 28.3977C44.281 28.4824 45.6128 26.8883 45.1529 27.7162C44.652 28.6178 43.8935 29.3494 43.391 30.2428C42.8036 31.2871 42.9089 32.76 42.9089 33.9162C42.9089 35.241 43.4144 36.3853 43.1915 37.7226C43.0764 38.4132 42.3105 38.557 42.3105 39.3682C42.3105 40.1217 42.3105 40.8753 42.3105 41.6288" stroke="#3D2D31" stroke-opacity="0.46" stroke-width="8" stroke-linecap="round"/>
<path d="M71.9313 7.82031C73.4644 8.3952 67.4482 12.9 68.0751 13.3388C69.041 14.015 71.4097 13.4428 72.5297 13.505C72.608 13.5094 70.413 15.1205 70.1196 15.2835C68.9859 15.9133 67.5207 16.4187 66.7287 17.5275C66.3445 18.0654 68.6454 18.9692 68.9394 19.1897" stroke="#3D2D31" stroke-opacity="0.46" stroke-width="8" stroke-linecap="round"/>
<path d="M121.598 11.4102C120.045 13.8317 117.517 15.4092 115.547 17.4605C114.718 18.3243 116.251 17.9515 116.827 18.0091C117.387 18.065 119.055 18.0751 119.503 18.3581C120.553 19.0213 119.123 21.1806 118.789 21.8487C117.927 23.5713 120.082 22.8527 120.999 23.3114C122.049 23.8363 121.598 25.6382 121.598 26.6691" stroke="#3D2D31" stroke-opacity="0.46" stroke-width="8" stroke-linecap="round"/>
<path d="M144.934 29.3623C145.475 31.0028 145.744 33.4638 147.028 34.7478" stroke="#3D2D31" stroke-opacity="0.46" stroke-width="8" stroke-linecap="round"/>
<path d="M164.682 56.289C164.682 55.9871 162.992 58.1203 163.386 58.3168C164.412 58.8302 164.6 56.8048 165.447 57.253C166.005 57.5485 165.497 60.2386 165.646 60.9099C165.886 61.9892 166.034 61.9737 167.076 61.9737" stroke="#3D2D31" stroke-opacity="0.46" stroke-width="8" stroke-linecap="round"/>
<path d="M89.2852 15.8984C91.1429 16.1867 93.4739 16.6741 93.4739 18.8239C93.4739 21.0641 94.9988 19.0662 95.5017 20.3864C96.034 21.7835 94.2407 24.3724 93.5404 25.4062C92.7571 26.5624 92.9231 26.6694 94.1388 26.6694C96.4398 26.6694 95.3048 27.2157 96.4658 28.7638" stroke="#3D2D31" stroke-opacity="0.46" stroke-width="8" stroke-linecap="round"/>
<path d="M12.9911 59.2812C11.8688 59.9182 8.60964 62.0083 9.68333 61.2925C10.3035 60.8791 11.0262 60.5004 11.7278 60.2453C13.8893 59.4593 12.5895 60.6956 11.6281 61.6748C11.0145 62.2997 7.78374 64.9659 9.93266 64.9659C11.4152 64.9659 12.5471 63.9139 13.9552 63.7027C15.5632 63.4615 12.6115 66.6649 12.2265 67.0603C11.7416 67.5583 10.7448 68.1405 11.7943 68.2571C13.1723 68.4102 10.9055 70.3882 10.7305 70.6506C9.83589 71.9926 9.10156 73.5279 9.10156 75.1385" stroke="#3D2D31" stroke-opacity="0.68" stroke-width="4" stroke-linecap="round"/>
<path d="M11.4943 107.451C11.3621 108.278 11.3197 109.176 11.0622 109.978C10.9218 110.414 10.4061 111.042 10.4305 111.507C10.4447 111.776 12.1763 111.196 12.3919 111.042C14.0889 109.829 12.4808 114.22 12.3919 114.931" stroke="#3D2D31" stroke-opacity="0.68" stroke-width="4" stroke-linecap="round"/>
<path d="M35.4303 124.506C35.4303 125.919 35.4659 127.189 35.1311 128.562C34.8939 129.534 34.5483 130.672 35.3638 131.487C36.0167 132.14 36.3925 131.427 36.3113 132.767C36.2524 133.738 35.9181 134.633 35.7295 135.576" stroke="#3D2D31" stroke-opacity="0.68" stroke-width="4" stroke-linecap="round"/>
<path d="M72.2305 142.457C72.4625 143.076 73.7857 142.655 74.3248 142.756C74.7977 142.845 72.747 145.926 72.5962 146.28C71.7017 148.379 73.4336 147.843 74.9232 147.843" stroke="#3D2D31" stroke-opacity="0.68" stroke-width="4" stroke-linecap="round"/>
<path d="M43.8079 24.874C42.9835 25.0389 42.4147 27.4785 43.2095 27.5668C43.8848 27.6418 44.6228 27.3998 44.1736 28.2981C43.7428 29.1597 43.171 29.7895 43.2095 30.7914C43.2343 31.4355 43.8079 31.5974 43.8079 32.3539" stroke="#3D2D31" stroke-opacity="0.68" stroke-width="4" stroke-linecap="round"/>
<path d="M68.6394 12.0088C68.0152 12.7221 68.5946 12.5111 69.1713 12.6072C69.7788 12.7084 67.8074 15.2781 67.6255 15.5991C67.4605 15.8903 66.1101 18.3604 66.3788 18.5246C66.9583 18.8787 68.3955 18.5911 69.0716 18.5911C71.1485 18.5911 67.4772 22.1461 67.0437 22.6468C65.8855 23.9847 65.4582 24.1766 67.1434 24.2758C68.4052 24.35 64.9838 27.6322 64.7499 27.8661C64.2273 28.3887 62.5668 30.2596 64.3011 30.2596C67.1039 30.2596 63.2539 33.9053 63.2539 35.3459" stroke="#3D2D31" stroke-opacity="0.68" stroke-width="4" stroke-linecap="round"/>
<path d="M92.8742 19.1895C92.6766 20.3996 92.4556 21.1766 93.0736 22.2479C93.5053 22.9961 94.9299 24.1259 94.5031 25.0404C93.992 26.1355 91.8148 28.1653 93.9213 28.1653C95.5894 28.1653 95.2677 29.0366 95.2677 30.4924C95.2677 31.4058 96.1653 31.2076 96.1653 32.354" stroke="#3D2D31" stroke-opacity="0.68" stroke-width="4" stroke-linecap="round"/>
<path d="M118.307 17.3945C118.307 18.8201 117.613 23.0506 120.252 22.4642C122.231 22.0243 118.346 25.9626 117.742 26.6529C116.767 27.7664 118.061 27.3452 118.606 27.6336C119.495 28.1044 118.577 30.3689 118.972 31.1575C119.436 32.0853 121.847 30.7883 121.847 30.7918C122.029 31.7916 120.795 32.5432 120.7 33.4845C120.603 34.4583 120.723 35.3027 120.385 36.2604C120.154 36.9137 119.112 38.9365 120.401 38.9365C121.299 38.9365 122.196 38.9365 123.094 38.9365" stroke="#3D2D31" stroke-opacity="0.68" stroke-width="4" stroke-linecap="round"/>
<path d="M142.841 27.2676C144.37 27.4588 142.525 29.778 142.292 30.3593C141.97 31.1641 144.016 30.8579 144.469 30.8579C145.944 30.8579 144.147 34.0685 144.054 34.5812C143.857 35.6666 146.132 34.0151 146.132 35.6616C146.132 37.0085 144.637 40.162 146.963 38.8697C148.911 37.7871 148.926 38.2373 148.226 40.2992C147.704 41.8358 147.485 42.2994 148.16 43.7233C148.485 44.4104 148.028 44.821 148.824 45.2192" stroke="#3D2D31" stroke-opacity="0.68" stroke-width="4" stroke-linecap="round"/>
<path d="M96.0754 139.444C95.1878 139.563 96.0382 140.028 96.4968 140.028C96.8255 140.028 98.4272 139.803 98.2312 140.352C98.025 140.929 93.5332 143.859 94.0979 144.048C94.7723 144.272 98.2899 143.739 98.3933 144.307C98.5991 145.439 97.3467 147.322 98.993 147.322C99.487 147.322 101.777 147.072 101.894 147.484C102.246 148.716 98.9548 153.242 99.3496 153.384C101.079 154.007 104.896 152.384 105.995 154.032" stroke="#3D2D31" stroke-opacity="0.68" stroke-width="4" stroke-linecap="round"/>
<path d="M126.71 136.234C126.519 136.643 122.865 142.414 125.251 142.653C125.87 142.715 127.655 141.66 127.812 142.394C127.91 142.848 127.377 144.968 127.65 145.214C127.986 145.517 128.867 145.258 129.336 145.571" stroke="#3D2D31" stroke-opacity="0.68" stroke-width="4" stroke-linecap="round"/>
<path d="M149.469 126.606C149.469 127.708 149.668 129.691 150.506 130.529C150.84 130.863 151.183 130.416 151.495 130.286C152.021 130.066 151.803 131.769 151.803 132.053C151.803 133.355 151.343 135.315 153.1 135.635C153.75 135.753 154.429 135.351 154.429 136.235" stroke="#3D2D31" stroke-opacity="0.68" stroke-width="4" stroke-linecap="round"/>
<path d="M159.972 102.974C159.839 103.147 157.41 105.859 158.286 105.891C158.805 105.91 159.637 105.74 159.68 106.475C159.765 107.92 157.93 108.604 157.93 109.976C157.93 111.214 158.848 111.307 159.324 112.31C159.683 113.069 159.388 114.527 159.388 115.373C159.388 116.593 158.513 117.581 158.513 118.729C158.513 119.95 158.513 121.171 158.513 122.392C158.513 123.692 158.478 124.518 159.097 125.601C159.49 126.29 159.725 127.033 159.972 127.773" stroke="#3D2D31" stroke-opacity="0.68" stroke-width="4" stroke-linecap="round"/>
</svg>
