<svg width="188" height="142" viewBox="0 0 188 142" fill="none" xmlns="http://www.w3.org/2000/svg">
<path d="M17.0996 69.1309C15.8782 70.5049 13.4043 72.948 13.4043 74.797" stroke="#713A45" stroke-width="6" stroke-linecap="round"/>
<path d="M109.999 131.662C100.9 131.662 93.4891 130.568 84.7625 128.324C80.0116 127.102 75.1964 126.126 70.3414 125.586C67.7257 125.296 62.0781 124.949 60.0598 123.25C56.1593 119.965 51.3122 118.648 48.4428 114.036C43.2527 105.695 35.8702 95.3078 35.4906 85.0606C35.2049 77.3449 34.4456 68.3396 35.7577 60.7585C36.591 55.9438 39.3361 43.3866 43.9029 40.5958C48.2266 37.9535 51.6378 33.9995 55.9204 31.3823C59.4305 29.2372 63.0869 28.5232 66.4691 26.4418C75.2601 21.032 89.4231 23.5042 99.317 23.5042C107.708 23.5042 117.629 21.9137 124.954 26.5753C132.701 31.5051 139.799 37.7178 147.32 42.7322C153.648 46.9509 154.7 58.1187 155.733 64.8311C156.755 71.4786 156.868 77.9638 156.868 84.7935C156.868 91.7229 154.939 97.6447 152.661 104.022C151.305 107.82 148.999 117.445 145.384 119.511C141.487 121.738 135.832 120.983 132.232 123.784C128.737 126.502 125.324 126.855 120.815 126.855C102.919 126.855 85.1522 127.228 68.205 121.781C51.8612 116.527 45.1046 108.602 45.1046 91.3364C45.1046 81.2997 41.7407 63.0628 47.7752 55.0168C51.7614 49.7018 52.7413 46.1244 59.5257 42.7322C66.4565 39.2668 74.1432 37.9252 81.8248 37.9252C88.8316 37.9252 95.3757 38.0122 102.188 39.0602C106.101 39.6623 110.598 40.0472 114.539 40.3287C117.603 40.5475 119.869 42.9102 122.684 43.934C128.088 45.8991 131.631 50.4879 131.631 56.5523C131.631 58.175 130.849 61.5883 132.833 61.9602C134.989 62.3646 133.619 67.7508 134.969 69.4378C137.59 72.7137 136.438 79.2701 136.438 83.3247C136.438 90.9358 136.438 98.5469 136.438 106.158C136.438 111.152 136.514 116.903 130.429 117.241C119.558 117.845 127.737 109.1 132.833 105.824C136.518 103.455 141.245 94.6238 141.245 90.2014C141.245 84.6513 137.458 81.0895 136.505 75.8471C135.642 71.1026 131.794 61.6929 128.626 57.8209C123.981 52.1434 120.233 49.9427 113.004 49.9427C106.371 49.9427 102.975 55.102 96.7132 55.8847C87.7987 56.999 78.1294 55.9515 69.1397 55.9515C65.7125 55.9515 62.2852 55.9515 58.858 55.9515C56.8328 55.9515 62.9084 55.9515 64.9335 55.9515C67.8912 55.9515 84.1456 54.5408 76.0831 57.4203C67.4917 60.4887 58.9204 64.7442 52.8493 71.5742C49.3412 75.5208 58.2652 86.9389 59.2586 90.8023C60.4364 95.3827 72.2876 126.561 79.9554 118.443C86.147 111.887 82.9981 101.406 79.6884 94.5411C75.9235 86.7323 73.0773 77.2087 68.472 69.9719C67.7878 68.8967 62.4494 65.3405 64.5997 63.429C66.2263 61.9832 77.7033 85.2209 78.7537 86.7964C82.7182 92.7432 86.8112 98.3396 91.2386 103.955C91.7494 104.603 98.8131 114.268 99.1167 112.901C100.157 108.221 100.085 99.5819 98.5826 95.0752C96.4202 88.5879 97.1875 80.9035 94.3765 74.5786C92.2087 69.7011 86.0276 66.3112 81.8916 63.8296C79.8908 62.6291 84.6536 67.6178 85.6971 69.7049C87.5482 73.4069 89.2095 76.8403 91.9062 79.9865C95.1248 83.7415 98.2001 87.5971 101.32 91.4699C104.406 95.3007 107.769 100.456 111.201 103.888C112.133 104.82 117.144 109.951 117.21 108.829C117.467 104.454 117.21 99.9912 117.21 95.6093C117.21 90.5506 114.952 86.8274 114.806 81.8559C114.639 76.1651 113.604 70.6911 113.604 64.9646C113.604 62.5389 113.604 57.6873 113.604 57.6873C113.604 57.6873 113.604 62.5389 113.604 64.9646C113.604 76.8709 113.604 88.7771 113.604 100.683C113.604 104.407 113.652 118.064 106.127 114.57C98.7868 111.162 98.4363 97.294 96.78 90.6687C94.181 80.2728 97.9894 69.8042 101.587 60.0908C101.986 59.014 107.903 49.5797 109.866 53.0139C112.793 58.1358 111.201 67.1705 111.201 72.6425C111.201 77.3411 111.867 82.6359 110.6 87.197C110.032 89.2432 106.737 98.0014 109.599 92.5381C114.133 83.8824 127.949 74.8702 136.171 69.9719C139.183 68.1776 142.641 68.9762 139.375 72.2419C138.777 72.8402 132.881 79.6233 131.898 78.5177C130.509 76.9556 135.981 69.929 137.039 68.6366C139.216 65.9759 141.245 64.3067 141.245 60.7585C141.245 59.9113 141.245 54.6387 141.245 57.7541C141.245 64.7643 141.245 71.7745 141.245 78.7848" stroke="#824754" stroke-width="19" stroke-linecap="round"/>
<path d="M136.437 45.1357C136.437 51.1445 136.437 57.1533 136.437 63.162C136.437 71.2544 136.037 84.2144 131.63 91.0694C128.042 96.6513 125.24 100.416 118.411 100.416C111.848 100.416 112.402 98.002 112.402 92.0041" stroke="#824754" stroke-width="19" stroke-linecap="round"/>
<path d="M103.176 127.879C107.865 127.879 112.222 130.355 117.042 130.355C121.126 130.355 124.286 128.566 128.213 127.852C132.857 127.007 137.735 123.196 140.566 119.735C143.975 115.568 146.939 110.492 148.737 105.099" stroke="#824754" stroke-width="19" stroke-linecap="round"/>
<path d="M59.6855 86.6719C61.3303 86.6719 62.4754 85.8757 64.044 85.5192C69.2468 84.3367 74.3739 81.8166 79.2352 79.629C82.0111 78.3799 85.0826 77.6528 87.7941 76.297C88.3993 75.9945 89.3962 75.5821 90.0997 75.9338C91.8129 76.7904 94.803 79.7798 96.9215 78.7763C98.2008 78.1703 99.5751 78.161 100.885 77.7025C102.128 77.2675 102.802 77.0076 104.17 77.0076C105.96 77.0076 108.044 78.8584 109.428 79.8501C111.133 81.0709 112.664 81.5444 114.687 81.8556C116.834 82.186 113.484 82.124 112.902 82.124C111.323 82.124 109.744 82.124 108.165 82.124C103.522 82.124 98.6529 82.1451 94.2054 83.5453C90.0399 84.8566 85.808 85.2507 81.4618 85.2507C79.9709 85.2507 78.0833 85.558 76.6297 85.2349C75.4601 84.975 78.0547 84.0772 78.1614 84.0506C79.5821 83.6954 81.0092 83.2631 82.4409 82.9768C84.2582 82.6133 86.0853 82.7255 87.9205 82.4714C89.8161 82.209 91.7323 81.7237 93.6369 81.5713C96.3109 81.3574 98.9506 80.4186 101.69 80.4186C104.08 80.4186 106.47 80.4186 108.86 80.4186C111.238 80.4186 113.136 80.9961 115.382 81.6977C118.09 82.5442 121.484 82.609 123.925 83.8295" stroke="#713A45" stroke-width="6" stroke-linecap="round"/>
<path d="M60.3666 93.3164C63.5863 93.3477 66.7857 93.6748 70.0025 93.6748C71.8315 93.6748 73.0294 92.8584 74.7011 92.6196C77.5645 92.2105 80.7933 91.883 83.6999 91.883C86.545 91.883 89.2097 91.1662 92.0617 91.1662C95.2322 91.1662 98.4084 91.1064 101.578 91.1662C103.008 91.1932 104.317 91.7818 105.739 91.863C107.582 91.9683 109.448 91.883 111.294 91.883C114.99 91.883 118.687 91.883 122.383 91.883C124.885 91.883 127.387 91.883 129.889 91.883C133.167 91.883 135.992 91.7665 139.007 93.1372C143.183 95.0354 137.807 97.562 135.623 98.6122C134.726 99.0434 132.025 99.9055 131.701 101.041C131.189 102.833 134.981 101.295 135.623 102.096C136.973 103.784 136.484 106.348 135.284 108.149C133.974 110.114 132.192 111.489 129.969 112.23C128.651 112.669 128.832 114.934 127.499 115.177C126.824 115.299 125.018 114.101 124.314 114.101C123.666 114.101 123.597 116.201 122.999 116.5C121.151 117.424 118.002 115.177 115.913 115.177C113.904 115.177 111.919 115.561 109.98 115.913C107.838 116.303 105.719 118.021 103.689 118.8C99.7153 120.324 95.7321 121.717 91.8228 123.419C90.8386 123.847 77.6322 123.49 76.499 123.419C76.1818 123.399 90.8359 123.014 91.345 122.822C94.6751 121.562 97.7974 121.269 101.339 121.269C104.6 121.269 110.89 119.724 113.683 118.382C115.141 117.681 113.738 115.224 115.395 115.177C116.892 115.134 112.413 115.642 111.931 115.734C106.327 116.807 100.829 118.151 95.2074 119.118C90.5538 119.919 85.9886 120.37 81.2312 120.194C78.8848 120.107 76.0821 118.879 73.845 118.382C73.1039 118.217 71.3889 117.448 70.7591 116.968C69.0955 115.701 66.2285 115.061 64.3086 114.101C61.5535 112.724 58.4538 109.856 57.4798 106.934C56.5322 104.091 57.2575 102.957 59.61 100.683C64.4299 96.0235 72.7196 93.6514 79.2005 92.6793C83.1952 92.0801 88.7822 93.0529 91.9025 95.6856C93.155 96.7424 94.3712 98.2163 94.3712 99.9461C94.3712 102.045 92.5005 102.477 90.7677 102.972C87.8571 103.804 84.9227 103.577 81.948 103.868C77.1242 104.341 72.392 105.517 67.6533 106.496C66.5919 106.715 65.5327 106.833 64.4678 107.014C64.458 107.015 63.3794 107.279 63.3927 107.213C63.691 105.721 69.0014 104.906 70.0025 104.505C75.0382 102.491 80.063 100.072 85.5316 99.5081C88.1376 99.2394 93.4493 98.4135 95.4463 100.683C99.6577 105.468 89.2069 105.098 86.9053 105.182C81.9485 105.364 77.1545 106.501 72.2523 107.113C69.4972 107.458 72.9432 106.551 73.8848 106.118C81.2552 102.731 88.2805 101.634 96.2824 100.504C103.454 99.4902 110.194 99.1618 117.346 100.663C118.145 100.83 122.286 101.436 121.487 103.072C120.519 105.053 116.786 105.255 114.957 105.58C104.267 107.484 93.088 110.115 82.2267 108.089C81.5318 107.959 76.4718 107.605 78.1851 106.297C85.7594 100.517 97.9081 100.738 106.715 100.026C107.465 99.9651 134.291 96.285 128.774 105.481C127.63 107.387 125.944 107.808 123.876 108.169C118.823 109.049 113.748 109.741 108.666 110.438C100.207 111.599 91.949 112.954 83.3814 112.668C82.602 112.642 82.5184 112.019 82.6249 111.354C83.004 108.984 85.8766 107.514 87.7216 106.377C92.3873 103.5 98.0783 101.867 103.43 100.842C105.9 100.369 109.326 99.1803 111.911 99.8267C113.885 100.32 114.019 104.769 113.683 106.337C113.403 107.641 111.697 108.104 110.617 108.368C107.241 109.191 103.812 109.801 100.344 110.08C98.3629 110.239 96.0045 110.428 94.0526 109.94C92.1998 109.477 90.7732 108.117 88.9161 107.671C87.6239 107.361 87.5555 103.39 88.3387 103.39C89.4012 103.39 90.6649 106.051 91.1061 106.855C92.0453 108.565 91.3424 109.964 89.7921 110.876C86.7582 112.661 82.7379 112.88 79.32 113.225C76.7876 113.482 74.2159 113.398 71.6749 113.385C70.4882 113.379 68.6296 113.642 67.5338 112.947C65.8386 111.872 65.7621 107.59 67.8922 107.014C70.1984 106.391 74.3785 108.412 75.7762 110.159" stroke="#D9BFBB" stroke-width="10" stroke-linecap="round"/>
<path d="M78.5831 86.9445C69.4691 86.9445 60.7217 90.7022 51.4736 90.7022C50.1818 90.7022 48.936 91.239 47.4475 91.239C45.2466 91.239 47.1791 92.8312 47.1791 94.4599C47.1791 98.6433 49.8743 101.329 51.4736 104.928C54.5792 111.915 61.3287 118.791 67.9958 123.15C68.9095 123.747 73.7228 126.132 72.2009 126.132C70.6891 126.132 75.1925 126.669 76.7042 126.669H87.1125C93.2175 126.669 99.1451 126.44 105.036 125.178C108.195 124.501 110.939 124.943 114.073 123.717C117.74 122.282 121.997 122.531 125.823 121.54C133.347 119.589 139.584 115.652 142.316 107.761C143.884 103.231 145.954 98.776 145.954 94.0424C145.954 91.2618 145.271 92.2478 143.001 91.239C140.903 90.3062 139.227 90.0505 137.067 89.3303C130.548 87.1576 123.862 86.6509 117.204 85.0656C111.006 83.5897 103.996 85.334 97.7595 85.334C91.3238 85.334 85.0748 86.9445 78.5831 86.9445Z" stroke="#2D2D2D" stroke-width="5" stroke-linecap="round"/>
<path d="M57.3686 92.5694C57.3686 94.9251 59.8053 97.2296 59.8053 99.6765C59.8053 101.409 63.4748 106.377 61.2268 106.377C59.8434 106.377 57.6555 105.999 56.3759 106.58C54.5964 107.389 54.5881 107.856 54.9094 105.768C55.1891 103.95 55.0669 101.446 56.3533 99.9021C58.0487 97.8676 55.8029 98.2466 57.1656 100.669C57.556 101.363 60.0474 105.26 58.8126 103.444C57.5827 101.636 56.0216 100.109 54.7514 98.3453C53.7313 96.9285 51.9786 96.096 51.1866 94.6C50.0928 92.5339 51.5881 92.5694 53.2172 92.5694C53.8512 92.5694 57.3906 92.9535 56.9625 93.3816C55.7101 94.634 52.7754 94.3314 51.7732 96.2244C51.037 97.6151 52.4287 99.3903 53.2172 100.376C53.4662 100.687 53.3074 101.951 53.3074 100.692C53.3074 100.015 53.3074 99.338 53.3074 98.6612" stroke="#2D2D2D" stroke-width="5" stroke-linecap="round"/>
<path d="M138.998 92.9756C138.998 94.5226 137.886 96.763 137.17 98.0521C136.814 98.693 136.735 99.7764 136.538 100.466C136.291 101.334 135.542 101.389 135.14 102.113C134.672 102.954 133.518 103.129 134.711 103.129C135.819 103.129 136.444 102.966 137.193 103.715C137.806 104.328 139.125 104.208 139.381 105.362C139.563 106.181 139.599 106.958 139.832 107.776C140.342 109.56 140.216 104.081 140.216 102.226C140.216 100.438 139.432 96.5192 140.712 95.0964C141.383 94.3516 141.434 93.9699 141.434 95.4123C141.434 96.3599 141.434 97.3075 141.434 98.2551C141.434 99.0462 142.087 100.306 142.743 99.0674C143.255 98.1004 143.059 96.8961 143.059 95.8184" stroke="#2D2D2D" stroke-width="5" stroke-linecap="round"/>
<path d="M61.2773 105.662C63.3241 106.117 65.9019 109.486 68.2509 108.442C71.4768 107.009 74.9444 106.483 78.5062 106.483" stroke="#2D2D2D" stroke-width="5" stroke-linecap="round"/>
<path d="M137.166 102.791C135.983 102.939 134.554 103.444 133.885 104.614C133.333 105.58 130.645 105.252 129.783 105.252C126.322 105.252 122.903 104.842 119.527 104.842" stroke="#2D2D2D" stroke-width="5" stroke-linecap="round"/>
<path d="M96.5566 104.842H100.249" stroke="#2D2D2D" stroke-width="5" stroke-linecap="round"/>
<path d="M48.8717 91.3519C47.5618 91.3519 38.7518 92.3163 38.2613 90.5998C37.6103 88.3211 39.3461 85.5498 41.619 85.5498" stroke="#2D2D2D" stroke-width="5" stroke-linecap="round"/>
<path d="M146.541 92.3189C148.639 92.3189 151.796 92.8544 153.579 91.8354C155.16 90.9319 154.761 87.1885 154.761 85.5498" stroke="#2D2D2D" stroke-width="5" stroke-linecap="round"/>
<path d="M44.0371 69.1109C46.7191 68.8427 49.6197 68.2122 52.2568 67.5529C54.2023 67.0665 56.1573 67.3272 58.0588 66.6934" stroke="#2D2D2D" stroke-width="5" stroke-linecap="round"/>
<path d="M47.421 66.6937C47.421 65.0322 46.588 60.8916 49.1401 60.8916C50.2593 60.8916 51.3786 60.8916 52.4978 60.8916C54.1952 60.8916 53.7066 62.4357 53.7066 63.7927C53.7066 66.6617 49.087 64.1262 49.3818 63.0943C49.5436 62.528 52.0192 62.8256 52.4709 62.8256C53.9523 62.8256 53.7066 63.4515 53.7066 64.7597" stroke="#2D2D2D" stroke-width="5" stroke-linecap="round"/>
<path d="M135.42 62.8252C136.951 62.8252 138.482 62.8252 140.013 62.8252C141.272 62.8252 142.173 63.7922 143.64 63.7922C145.717 63.7922 147.716 64.7592 149.925 64.7592" stroke="#2D2D2D" stroke-width="5" stroke-linecap="round"/>
<path d="M139.289 61.3744C139.289 59.2059 140.09 55.5723 142.674 55.5723C144.82 55.5723 147.025 56.1974 147.025 58.7151C147.025 59.4516 148.058 61.0941 147.401 61.7504C146.633 62.5186 145.053 61.173 144.581 60.6222C143.945 59.8799 140.892 59.5874 143.157 58.5808C144.185 58.1239 146.251 59.8274 145.091 60.4073" stroke="#2D2D2D" stroke-width="5" stroke-linecap="round"/>
<path d="M28.3697 70.2121C28.3697 67.9822 27.8124 60.7576 24.6621 60.943C22.5327 61.0682 20.9257 65.3857 19.2036 66.7104C17.9923 67.6422 17.1142 69.3912 16.0881 70.2121C15.3919 70.769 15.5994 72.0024 15.0325 72.6323C13.696 74.1173 8.80894 78.7455 9.93448 80.8715C10.6005 82.1297 12.7691 82.6225 13.5649 83.4978C15.8889 86.0542 18.557 89.0415 20.491 91.8915C21.3641 93.1783 22.0515 94.5295 23.2717 95.4446C24.4882 96.357 24.6621 90.8648 24.6621 90.6041C24.6621 88.5007 25.1255 86.482 25.1255 84.3474C25.1255 82.6589 23.6237 82.3909 22.8082 81.232C22.1895 80.3528 19.5153 77.2641 20.7484 76.031C21.5778 75.2016 23.1892 76.402 23.7351 75.3101" stroke="#814753" stroke-width="12" stroke-linecap="round"/>
<path d="M162.309 70.6756C162.309 65.9594 166.267 63.0316 167.973 59.1922C168.567 57.8564 170.015 56.7612 171.114 55.845C171.869 55.2163 175.196 63.9014 175.569 64.7022C178.033 69.9966 181.774 75.286 181.774 81.3093C181.774 82.6851 181.881 84.0761 181.439 85.4032C180.1 89.4206 177.245 91.732 175.388 95.2387C174.623 96.6835 173.403 97.673 172.608 98.9464C171.535 100.662 170.033 96.2859 169.621 95.5992C169.022 94.6004 167.009 92.6543 166.943 91.5311C166.625 86.1292 167.022 80.5772 167.432 75.2072C167.442 75.0867 168.488 65.2121 168.565 65.2429C169.136 65.471 168.809 68.8357 168.823 69.208C168.995 73.9399 170.224 78.116 171.809 82.5195C172.512 84.4697 172.496 86.0101 174.101 87.3857C175.327 88.4368 173.327 85.5456 172.968 85.0427" stroke="#814753" stroke-width="12" stroke-linecap="round"/>
<path d="M28.8333 62.3333C28.4414 60.3735 25.4046 58.5496 24.1988 56.8748C23.6247 56.0775 23.0083 54.7071 22.242 54.0941C21.1276 53.2026 20.1248 57.1571 19.9247 57.8017C19.3674 59.5973 18.5838 61.2024 17.247 62.5393C14.0323 65.7539 11.4417 69.0996 8.90477 72.8383C8.47593 73.4703 4.79155 79.5598 6.40726 79.9188C11.6162 81.0764 15.2001 87.8588 17.7104 92.2519C18.9371 94.3986 20.9172 96.3447 21.4438 98.7145C22.0297 101.351 25.636 96.9988 26.0526 96.1655" stroke="#814753" stroke-width="12" stroke-linecap="round"/>
<path d="M164.91 86.868C166.224 86.8023 169.905 86.1447 170.522 84.9109C170.787 84.3791 170.576 83.3083 170.576 82.7348C170.576 81.5969 169.009 80.8017 168.113 80.3533C167.388 79.9911 167.484 80.3871 168.113 79.7238C169.561 78.1951 170.074 75.1359 170.823 73.2365C171.213 72.2459 171.646 71.3256 172.191 70.4171C172.579 69.7712 172.596 68.7207 172.848 68.0083C173.178 67.0763 173.524 66.1859 174.162 65.4353C174.26 65.3202 174.272 64.8919 174.272 65.1889" stroke="#713A45" stroke-width="6" stroke-linecap="round"/>
<path d="M173.287 72.333C174.465 73.5113 175.836 74.4619 176.982 75.6725C177.846 76.5841 178.3 77.8388 179.2 78.7382" stroke="#713A45" stroke-width="6" stroke-linecap="round"/>
<path d="M23.2587 86.6216C22.188 86.6216 21.5635 85.7821 20.6857 85.6225C19.4593 85.3995 19.4995 84.1935 18.8243 83.5558C18.0092 82.786 18.1372 81.2508 19.0844 80.5996C20.6532 79.5211 21.6628 78.0498 23.1355 76.9043C23.7972 76.3897 24.7471 75.8318 23.9978 75.043C22.5216 73.4891 21.591 71.3473 20.5488 69.4863C19.3225 67.2965 18.1912 64.9783 16.8535 62.9717" stroke="#713A45" stroke-width="6" stroke-linecap="round"/>
<path d="M29.2992 72.0391C29.2992 66.944 28.1652 62.1807 28.1652 57.0454C28.1652 51.8487 27.9953 45.6988 31.8191 41.6737C35.2912 38.0189 37.9006 34.6996 42.0879 32.0349C47.0372 28.8854 51.2626 24.8046 56.3886 21.5772C61.1954 18.5506 66.3024 16.4743 72.0752 16.4743C75.5196 16.4743 78.5923 15.2283 81.84 14.3323C85.4101 13.3475 90.229 14.2063 93.9358 14.2063C100.31 14.2063 106.721 14.2371 112.961 15.3718C114.927 15.7292 117.322 15.6232 119.135 16.3483C120.984 17.0877 124.198 18.634 126.254 18.7422C130.281 18.9542 134.963 21.0603 138.444 22.9946C139.956 23.8343 141.178 24.8285 142.697 25.6721C144.014 26.4037 145.878 28.7886 147.233 28.948C147.999 29.0382 150.288 31.4365 150.918 32.0664C152.516 33.6646 154.217 34.8023 155.989 35.8149C159.216 37.6585 160.574 41.373 162.1 44.2567C163.008 45.9715 163.108 46.9523 163.108 49.0761C163.108 51.0141 161.974 52.416 161.974 54.1475C161.974 57.6544 161.974 61.1613 161.974 64.6682C161.974 67.1408 164.941 64.6232 165.376 63.5343C166.312 61.1956 166.51 59.1854 166.51 56.6989C166.51 54.7771 166.947 52.2484 166.069 50.4935C165.135 48.6249 164.242 46.9278 164.242 44.8237" stroke="#1D1D1D" stroke-width="8" stroke-linecap="round"/>
<path d="M31.5668 75.441C31.5668 70.103 29.2988 65.5199 29.2988 60.1638C29.2988 58.1148 29.7595 59.2958 30.8738 58.3053C30.9812 58.2099 29.2988 57.4637 29.2988 56.7304C29.2988 55.3509 30.8757 55.3666 31.4408 54.4624C32.0378 53.5072 31.9862 53.0672 32.2598 51.9425C33.0228 48.8056 33.9395 45.1548 34.9687 42.8392C35.7835 41.0059 38.5201 38.7828 40.0401 37.4528C43.9342 34.0454 48.9404 32.9541 52.7973 29.7984C53.6708 29.0838 55.9918 27.3111 57.0812 27.247C58.326 27.1738 57.7868 27.4346 57.0812 28.066C55.2671 29.6892 52.371 30.9004 50.2774 32.3499C48.5005 33.58 47.3212 35.4403 45.4895 36.5393C45.0499 36.8031 42.5617 38.2914 43.568 37.4528C44.0877 37.0198 47.3794 35.4823 47.3794 34.9013C47.3794 34.3644 44.5856 34.6285 47.4739 34.0509C49.8425 33.5771 51.631 32.3499 54.1203 32.3499C55.3416 32.3499 55.8366 32.9402 54.6873 33.7359C53.4908 34.5642 51.3859 35.4623 50.4034 36.4448C49.7921 37.0561 52.8386 35.5121 53.1123 35.3108C54.0276 34.6378 55.9493 33.5505 57.0812 33.4839C57.3116 33.4703 56.3592 33.189 56.0732 32.2239C55.513 30.3332 55.529 25.5419 57.6482 24.5381C58.7178 24.0314 60.9919 23.4799 62.1841 23.3096C64.833 22.9312 62.4793 24.0986 61.3651 24.9476C56.1397 28.9289 64.5447 24.4288 66.216 23.5931C66.9881 23.207 69.0664 22.2093 66.72 22.1441C65.7785 22.118 61.0831 21.8088 64.3261 21.5771C69.7452 21.19 74.8148 18.7422 80.3277 18.7422C81.8778 18.7422 80.6148 19.4686 79.6977 19.8762C77.6874 20.7697 74.9419 21.356 73.3349 22.9631C73.3288 22.9692 80.5788 22.9853 81.7137 23.3096C82.9067 23.6504 76.6821 27.2641 79.7922 27.7825C81.6049 28.0846 86.4492 26.8833 83.7297 29.263C82.9173 29.9737 80.0673 31.2159 81.1467 31.2159C82.5653 31.2159 84.1147 30.1047 85.6826 30.0819C87.9293 30.0494 94.6531 29.8032 92.4235 30.0819C90.4959 30.3229 88.7214 31.7477 86.8166 32.2239C82.2487 33.3659 87.4061 31.2159 89.0845 31.2159C93.5784 31.2159 86.5095 33.6813 85.4936 34.3344C83.7436 35.4594 86.6679 34.8763 87.1316 34.7438C88.9165 34.2339 90.5585 33.2301 92.2345 32.4759C92.6234 32.3009 95.4526 32.3051 94.3764 32.3499C94.0535 32.3633 91.9195 33.5756 91.9195 33.3579C91.9195 31.8742 100.909 31.2455 102.062 31.2159C104.455 31.1546 106.594 31.33 102.881 32.4759C98.0605 33.9638 94.034 32.3499 89.2735 32.3499C88.2316 32.3499 84.0993 32.4459 87.6356 32.7909C93.2592 33.3395 110.015 30.8606 104.582 32.4129C103.488 32.7256 97.8249 33.8079 101.558 33.4524C103.193 33.2967 106.129 31.802 102.251 33.5469C98.7937 35.1028 93.7495 37.2352 89.8405 36.1928C86.1477 35.2081 92.0785 34.7756 93.1795 34.4918C96.3805 33.6668 100.27 31.9568 103.574 31.7829C104.563 31.7309 105.671 31.7509 104.015 32.2239C102.743 32.5875 98.7227 32.3499 100.046 32.3499C102.063 32.3499 103.928 32.1829 105.842 31.4994C111.504 29.4773 102.439 25.8889 101.936 23.8766C101.44 21.8909 108.645 22.7312 109.78 22.6796C111.551 22.5991 116.844 22.1441 115.071 22.1441C111.643 22.1441 107.987 24.4637 104.74 25.546C103.585 25.931 108.966 25.6667 109.811 25.546C111.418 25.3164 116.794 23.2518 113.213 26.932C111.795 28.3891 108.113 30.6675 107.417 32.4759C106.635 34.5086 107.881 34.1915 109.118 33.0429C111.347 30.9736 115.439 28.4568 116.898 25.8295C117.612 24.545 115.718 24.4984 115.197 23.5616C114.16 21.695 117.016 21.2464 118.316 21.0101C123.75 20.0221 116.139 20.4432 114.473 20.4432C110.651 20.4432 106.829 20.4432 103.007 20.4432C98.3453 20.4432 93.6834 20.4432 89.0215 20.4432C86.92 20.4432 82.3835 19.5412 80.3277 20.5691C79.2904 21.0878 85.47 22.1358 86.1236 22.1441C88.7656 22.1776 91.4208 22.0463 94.0614 22.1441C95.5982 22.201 96.2034 23.1319 96.2034 24.5381C96.2034 26.8078 95.6424 26.7214 93.4944 27.121C92.1196 27.3768 89.145 26.8703 91.7935 25.546C94.9731 23.9562 98.4231 22.5838 101.873 21.8291C105.879 20.9529 109.645 21.0101 113.749 21.0101C115.663 21.0101 117.761 22.0447 119.45 22.1441C120.812 22.2242 126.571 23.0616 122.285 24.2861C121.859 24.4076 118.379 25.4935 118.379 24.6641C118.379 23.5848 121.252 22.9561 122.033 22.4591C124.365 20.9753 129.14 22.8788 131.325 23.5616C132.369 23.8878 133.406 24.1472 134.444 24.4436C135.321 24.6944 134.166 26.113 135.515 26.113C136.412 26.113 131.971 26.617 132.869 26.617C135.076 26.617 137.471 25.546 139.861 25.546C140.966 25.546 142.345 26.3904 141.436 27.688C140.848 28.5287 146.155 29.384 146.854 29.9559C147.908 30.8178 151.257 31.8149 150.067 32.4759C149.332 32.8843 147.232 34.3165 147.232 32.6019C147.232 30.567 145.391 28.7543 148.713 29.8614C151.106 30.6591 156.431 31.4693 158.194 33.2319C159.215 34.2525 155.37 36.6855 154.635 37.4213C154.194 37.8616 152.468 39.1537 152.902 39.1537C154.963 39.1537 157.578 39.3083 159.328 40.5397C161.178 41.8414 157.69 42.4254 157.69 42.9967C157.69 43.7351 160.46 43.78 160.84 44.0676C163.238 45.8847 160.511 48.0524 162.541 49.4855C164.325 50.7448 165.316 53.8954 162.541 53.8954" stroke="#1D1D1D" stroke-width="8" stroke-linecap="round"/>
<path d="M32.7011 39.1532C32.8717 38.3856 37.6937 36.5016 36.859 36.3498C35.7427 36.1468 31.1712 36.2823 31.4412 36.1923C33.5692 35.483 35.9743 35.8471 38.056 34.9008C40.6676 33.7137 36.2291 33.5492 36.2291 33.1999C36.2291 32.4898 43.7761 30.8962 44.0409 28.3805C44.2428 26.4621 36.192 29.3513 35.6621 28.8215C35.2377 28.3971 38.039 27.5624 38.1505 27.53C40.6373 26.808 43.0726 26.2742 45.3639 25.01C48.5849 23.2329 47.5865 23.2776 44.6394 23.2776C41.636 23.2776 46.353 21.2677 46.9388 21.0096C50.1055 19.6148 53.3181 18.1563 56.5461 16.9147C57.245 16.6459 59.5026 16.2802 57.3651 16.5052C55.0552 16.7484 53.2168 18.6698 50.8447 18.7417C49.1125 18.7942 54.5548 16.5144 55.6326 16.4737C57.6943 16.3959 59.774 16.4737 61.838 16.4737C63.996 16.4737 55.8803 19.3678 55.4121 17.2612C54.6231 13.7104 63.5673 11.1718 65.8384 10.2999C67.2956 9.7404 71.6265 8.82288 72.9573 10.2369C75.1112 12.5254 65.6662 12.5972 66.8464 10.2369C67.6153 8.699 74.4029 9.66988 75.8237 9.66988C76.4618 9.66988 84.0121 9.66988 81.1786 9.66988C79.4671 9.66988 74.3327 9.66988 76.0442 9.66988C80.1079 9.66988 84.2135 9.84972 88.2659 9.54388C102.363 8.47998 86.061 10.1516 86.061 6.58294C86.061 6.30768 104.293 7.40193 99.8577 7.40193C94.5514 7.40193 89.2483 8.5359 83.856 8.5359C82.7061 8.5359 81.1826 8.82054 80.0761 8.5044C78.9222 8.17472 84.0493 6.33576 84.612 6.29945C85.479 6.24352 90.3917 5.13398 88.8959 5.13398C84.066 5.13398 79.2361 5.13398 74.4062 5.13398C74.4011 5.13398 68.0184 5.04604 69.1143 6.14195C70.481 7.50864 79.2956 6.25628 80.7691 6.14195C85.3776 5.7844 89.861 4 94.4713 4C96.6151 4 97.4276 4.7671 99.3537 5.13398C102.464 5.72651 105.626 7.28843 108.803 7.40193C111.672 7.50438 108.621 8.5359 107.292 8.5359C104.73 8.5359 102.168 8.5359 99.6057 8.5359C99.1605 8.5359 98.1186 8.42052 98.5977 7.65392C99.0412 6.94443 102.279 7.35684 103.008 7.27593C106.187 6.9227 109.69 6.43867 112.898 6.86644C116.183 7.3044 111.994 8.5359 110.756 8.5359C107.654 8.5359 116.596 10.63 119.513 11.6858C120.614 12.0842 128.312 15.5715 122.852 13.9538C120.631 13.2955 118.418 13.0718 121.844 13.0718C122.377 13.0718 127.713 12.6841 126.506 13.8908C125.53 14.8665 121.969 13.6388 124.837 13.6388C128.373 13.6388 131.394 14.5959 134.633 15.9067C136.042 16.4772 137.718 16.4737 135.294 16.4737C133.266 16.4737 131.673 16.3684 134.885 16.4737C137.106 16.5466 142.149 17.627 143.831 19.3087C144.759 20.2367 140.901 19.8757 140.24 19.8757C136.801 19.8757 147.002 21.1954 150.288 22.2066C152.73 22.9579 147.317 24.3935 146.666 24.4116C143.186 24.5082 148.147 24.9559 149.123 24.9785C150.046 25 152.959 26.6795 150.918 26.6795C150.009 26.6795 155.52 28.9307 156.525 29.5145C158.265 30.5247 160.668 31.0725 158.824 32.9164C157.814 33.9265 162.119 33.9652 163.423 34.6173C166.457 36.134 165.16 36.2348 163.455 36.9168C163.289 36.983 164.563 38.2773 164.242 38.8382C163.969 39.3163 162.025 39.7739 163.801 40.4132C165.792 41.1297 165.943 40.8432 165.943 43.1222" stroke="#1D1D1D" stroke-width="8" stroke-linecap="round"/>
<path d="M103.299 67.7498C100.165 68.7143 97.0633 68.962 93.802 68.4559C92.7437 68.2917 90.6351 67.252 90.2715 66.1611" stroke="#713642" stroke-width="6" stroke-linecap="round"/>
<path d="M101.393 69.0205C99.063 69.0205 96.7329 69.0205 94.4028 69.0205C92.8295 69.0205 92.8038 69.476 94.3852 69.6736C95.451 69.8069 96.0555 70.2915 97.2625 70.2915" stroke="#713642" stroke-width="6" stroke-linecap="round"/>
</svg>
