<svg width="187" height="218" viewBox="0 0 187 218" fill="none" xmlns="http://www.w3.org/2000/svg">
<path d="M57.749 138C53.0809 138.389 47.8926 140.849 47.8926 146.009C47.8926 150.146 47.8286 153.401 52.8208 153.401C54.8714 153.401 57.8852 152.616 56.9961 155.728C55.9899 159.25 55.2849 161.56 55.2849 165.242C55.2849 174.231 60.294 183.546 69.0428 187.009C73.9407 188.947 80.3857 188.584 85.607 188.514C87.7923 188.485 92.1005 188.318 93.7522 186.666C96.6655 183.753 95.5977 186.704 96.4216 189.267C97.6089 192.961 97.6157 196.549 101.624 198.371C107.377 200.986 112.178 204.921 118.598 205.9C122.534 206.5 126.455 206.379 130.44 206.379C137.381 206.379 143.719 201.568 149.057 197.755C159.963 189.965 167.312 178.498 168.017 165.106C168.264 160.411 168.017 155.637 168.017 150.937C168.017 148.574 167.998 146.519 166.306 144.64C165.854 144.137 162.697 141.832 164.458 141.697C168.699 141.37 174.185 137.88 177.121 135.057C180.059 132.232 182.478 125.737 178.353 122.737C177.255 121.938 172.917 123.281 174.314 120.136C175.189 118.169 176.863 116.556 177.874 114.592C179.989 110.478 180.945 104.119 174.178 104.119" stroke="#1D1D1D" stroke-width="8" stroke-linecap="round"/>
<path d="M58.3668 151.553C58.3668 149.34 58.3668 147.126 58.3668 144.913C58.3668 143.769 58.8244 142.971 58.2299 144.16C57.9633 144.694 53.1015 148.473 56.2107 148.473C61.5622 148.473 63.295 150.796 63.295 156.173C63.295 160.69 63.295 165.208 63.295 169.725C63.295 175.274 66.3046 177.202 71.5429 178.008C74.8015 178.509 84.7304 178.042 81.4335 178.042C80.052 178.042 72.5427 179.278 74.9995 180.643C77.0772 181.797 78.297 182.97 80.8175 182.97C82.985 182.97 85.1525 182.97 87.32 182.97C89.472 182.97 91.2739 181.738 93.1722 181.738C95.2616 181.738 96.3664 180.506 98.4084 180.506C101.311 180.506 101.324 181.415 102.721 183.86C103.806 185.76 103.228 188.182 103.337 190.362C103.525 194.14 106.452 193.499 108.881 194.366C112.231 195.563 116.739 195.906 120.277 195.906C122.182 195.906 124.087 195.906 125.993 195.906C129.537 195.906 122.629 197.548 121.509 197.72C120.731 197.84 118.361 197.755 119.148 197.755C120.332 197.755 121.063 198.371 122.296 198.371C124.446 198.371 126.252 198.5 128.286 198.952C137.227 200.939 147.861 194.333 151.694 186.666C152.881 184.294 153.139 181.294 154.467 179.137C156.042 176.577 157.461 173.939 159.053 171.334C160.228 169.41 163.57 167.565 163.707 165.105C163.81 163.254 164.323 161.679 164.323 159.835C164.323 158.02 164.785 155.48 164.289 153.743C163.756 151.88 162.649 150.172 162.475 147.993C162.394 146.981 161.338 146.772 161.243 145.529C161.149 144.312 160.627 143.293 160.627 142.004C160.627 139.461 165.402 139.257 166.65 137.384C168.41 134.745 174.46 132.424 172.194 128.144C171.754 127.312 170.532 127.576 169.867 126.912C169.146 126.191 168.847 124.538 168.669 123.558C168.229 121.139 168.819 119.677 170.483 118.014C171.329 117.168 178.796 109.663 174.179 109.663C168.156 109.663 165.418 114.686 163.844 119.999C162.403 124.86 162.237 131.703 158.779 135.81C157.945 136.801 158.05 137.771 157.068 138.753C155.769 140.051 154.387 140.301 152.961 141.32C150.592 143.012 154.841 135.724 156.52 133.346C157.003 132.661 157.602 130.828 157.547 129.992C157.391 127.658 154.854 133.848 153.2 135.502C151.362 137.34 149.908 140.852 146.937 141.08C138.648 141.718 130.547 145.392 122.16 145.392C109.622 145.392 97.4217 146.008 84.8559 146.008C80.5338 146.008 75.247 146.785 71.1664 145.529C68.7175 144.776 66.1398 145.686 63.6373 144.776C62.4115 144.331 60.1073 142.987 59.462 141.696C58.3895 139.551 59.5494 138.616 61.755 138.616C63.2079 138.616 64.6583 138.53 66.0671 138.958C68.2647 139.627 68.6116 141.163 70.2082 142.312C73.3359 144.564 74.3983 144.776 78.3876 144.776C82.8507 144.776 88.9167 143.64 92.8642 146.008" stroke="#1D1D1D" stroke-width="11" stroke-linecap="round"/>
<path d="M69.4531 167.57C69.4531 163.337 69.4531 159.105 69.4531 154.873C69.4531 153.161 71.6824 142.257 73.4573 148.37C74.6173 152.366 75.3513 156.68 76.1952 160.759C77.0581 164.93 76.6631 169.055 78.3512 173.045C79.1147 174.85 79.6584 175.708 81.4314 176.468C81.869 176.655 81.7736 170.28 81.7736 169.76C81.7736 163.675 81.4909 157.366 82.7661 151.382C83.0263 150.161 84.0636 143.433 84.9564 142.689C86.8051 141.149 89.7201 147.436 90.1241 148.302C92.4879 153.367 92.4408 158.379 93.5123 163.737C94.2442 167.396 94.538 171.538 96.2159 174.894C97.0592 176.58 97.1742 178.195 97.1742 175.27C97.1742 168.463 96.5582 161.714 96.5582 154.941C96.5582 152.268 98.5878 154.427 99.3645 155.694C101.763 159.608 104.059 163.991 105.764 168.254C107.021 171.397 107.889 174.653 109.46 177.666C110.015 178.729 111.89 180.687 111.89 181.841C111.89 185.868 110.33 173.939 109.495 170C108.684 166.176 108.263 162.593 108.263 158.706C108.263 158.284 108.294 154.24 108.605 154.462C111.067 156.221 112.693 162.441 113.773 165.14C116.935 173.045 116.779 182.653 120.549 190.191C121.746 192.587 120.049 190.77 119.625 189.267C118.179 184.142 117.261 179.098 116.271 173.867C115.502 169.801 114.856 165.398 113.499 161.478C113.226 160.69 111.6 156.863 111.377 159.767C110.784 167.472 110.518 176.407 111.377 184.134C111.438 184.685 111.921 186.657 111.959 185.024C112.07 180.234 114.444 175.844 114.902 171.061C115.314 166.756 115.858 162.556 116.408 158.261C116.757 155.527 116.622 149.151 120.583 152.58C127.504 158.571 126.127 170.715 126.127 178.932C126.127 181.347 126.067 183.772 126.127 186.187C126.217 189.791 128.809 180.786 128.934 179.959C130.313 170.838 127.585 161.896 127.975 152.922C127.992 152.532 130.869 158.318 131.192 159.219C133.193 164.801 133.52 169.758 133.52 175.646C133.52 176.232 132.913 189.133 135.984 187.146C137.404 186.226 136.005 181.999 135.984 180.643C135.932 177.365 135.773 173.98 136.121 170.718C136.6 166.226 135.572 157.783 139.201 154.154C140.545 152.809 142.835 156.088 143.102 156.96C144.243 160.682 143.376 165.64 143.376 169.486C143.376 170.185 143.597 181.945 144.608 181.328C146.668 180.069 146.456 176.04 146.456 174.072C146.456 168.965 146.483 163.901 146.935 158.808C147.213 155.682 147.891 151.623 150.768 150.184C151.75 149.693 155.018 145.717 156.176 148.61C157.382 151.627 156.312 156.772 156.312 160.041C156.312 163.172 154.352 164.874 151.384 165.722" stroke="#1D1D1D" stroke-width="17" stroke-linecap="round"/>
<path d="M109.56 138.96C100.461 138.96 93.0496 137.865 84.323 135.621C79.5721 134.4 74.757 133.424 69.902 132.884C67.2863 132.594 61.6387 132.247 59.6203 130.547C55.7198 127.263 50.8728 125.945 48.0034 121.334C42.8133 112.993 35.4307 102.606 35.0512 92.3584C34.7654 84.6428 34.0061 75.6375 35.3182 68.0563C36.1515 63.2416 38.8966 50.6844 43.4634 47.8936C47.7871 45.2514 51.1983 41.2973 55.481 38.6802C58.9911 36.5351 62.6474 35.821 66.0297 33.7396C74.8206 28.3298 88.9837 30.802 98.8775 30.802C107.268 30.802 117.189 29.2115 124.515 33.8732C132.262 38.803 139.359 45.0156 146.881 50.0301C153.209 54.2487 154.26 65.4165 155.293 72.1289C156.316 78.7765 156.428 85.2616 156.428 92.0914C156.428 99.0208 154.499 104.943 152.222 111.319C150.865 115.118 148.56 124.743 144.945 126.809C141.048 129.036 135.393 128.281 131.792 131.082C128.297 133.8 124.885 134.153 120.376 134.153C102.48 134.153 84.7128 134.526 67.7655 129.079C51.4217 123.825 44.6652 115.9 44.6652 98.6342C44.6652 88.5975 41.3012 70.3607 47.3357 62.3146C51.3219 56.9997 52.3019 53.4222 59.0862 50.0301C66.017 46.5646 73.7038 45.223 81.3854 45.223C88.3922 45.223 94.9363 45.31 101.748 46.358C105.662 46.9601 110.159 47.345 114.1 47.6265C117.164 47.8454 119.43 50.208 122.245 51.2318C127.649 53.1969 131.191 57.7858 131.191 63.8502C131.191 65.4728 130.409 68.8862 132.393 69.2581C134.55 69.6624 133.18 75.0486 134.53 76.7356C137.15 80.0116 135.998 86.5679 135.998 90.6226C135.998 98.2337 135.998 105.845 135.998 113.456C135.998 118.45 136.074 124.201 129.99 124.539C119.119 125.143 127.297 116.398 132.393 113.122C136.078 110.753 140.805 101.922 140.805 97.4993C140.805 91.9492 137.018 88.3874 136.065 83.145C135.202 78.4005 131.355 68.9908 128.187 65.1187C123.542 59.4412 119.793 57.2406 112.564 57.2406C105.931 57.2406 102.535 62.3999 96.2738 63.1826C87.3592 64.2969 77.69 63.2493 68.7002 63.2493C65.273 63.2493 61.8458 63.2493 58.4186 63.2493C56.3934 63.2493 62.4689 63.2493 64.4941 63.2493C67.4518 63.2493 83.7062 61.8387 75.6437 64.7181C67.0522 67.7865 58.481 72.042 52.4098 78.8721C48.9018 82.8186 57.8257 94.2367 58.8192 98.1001C59.997 102.681 71.8482 133.859 79.516 125.74C85.7075 119.185 82.5587 108.704 79.2489 101.839C75.484 94.0302 72.6378 84.5066 68.0326 77.2698C67.3484 76.1946 62.0099 72.6383 64.1603 70.7269C65.7869 69.281 77.2639 92.5187 78.3142 94.0943C82.2787 100.041 86.3718 105.637 90.7991 111.253C91.3099 111.9 98.3736 121.565 98.6773 120.199C99.7172 115.519 99.6454 106.88 98.1431 102.373C95.9807 95.8857 96.7481 88.2014 93.937 81.8765C91.7692 76.999 85.5881 73.609 81.4521 71.1275C79.4513 69.927 84.2142 74.9157 85.2577 77.0027C87.1087 80.7048 88.77 84.1382 91.4667 87.2844C94.6853 91.0393 97.7607 94.8949 100.88 98.7678C103.966 102.599 107.329 107.753 110.762 111.186C111.693 112.117 116.704 117.249 116.77 116.126C117.028 111.752 116.77 107.289 116.77 102.907C116.77 97.8484 114.513 94.1252 114.367 89.1538C114.199 83.463 113.165 77.989 113.165 72.2625C113.165 69.8367 113.165 64.9852 113.165 64.9852C113.165 64.9852 113.165 69.8367 113.165 72.2625C113.165 84.1687 113.165 96.0749 113.165 107.981C113.165 111.705 113.212 125.362 105.687 121.868C98.3473 118.46 97.9968 104.592 96.3405 97.9666C93.7415 87.5707 97.55 77.1021 101.148 67.3887C101.546 66.3118 107.464 56.8775 109.426 60.3117C112.353 65.4336 110.762 74.4683 110.762 79.9403C110.762 84.639 111.428 89.9337 110.161 94.4949C109.592 96.5411 106.298 105.299 109.159 99.836C113.693 91.1803 127.509 82.168 135.731 77.2698C138.743 75.4754 142.202 76.2741 138.936 79.5397C138.338 80.138 132.441 86.9212 131.458 85.8156C130.07 84.2535 135.542 77.2268 136.599 75.9345C138.776 73.2737 140.805 71.6046 140.805 68.0563C140.805 67.2092 140.805 61.9366 140.805 65.0519C140.805 72.0622 140.805 79.0724 140.805 86.0826" stroke="#9D5D63" stroke-width="19" stroke-linecap="round"/>
<path d="M135.998 52.4336C135.998 58.4424 135.998 64.4511 135.998 70.4599C135.998 78.5522 135.598 91.5123 131.191 98.3672C127.602 103.949 124.801 107.714 117.971 107.714C111.409 107.714 111.963 105.3 111.963 99.3019" stroke="#9D5D63" stroke-width="19" stroke-linecap="round"/>
<path d="M102.736 135.177C107.426 135.177 111.782 137.653 116.603 137.653C120.687 137.653 123.846 135.864 127.773 135.15C132.418 134.305 137.295 130.494 140.126 127.033C143.536 122.866 146.5 117.79 148.298 112.396" stroke="#9D5D63" stroke-width="19" stroke-linecap="round"/>
<path d="M94.114 108.836C93.6253 108.836 88.3028 109.43 87.8824 108.757C86.9821 107.316 90.6468 105.332 91.4262 104.934C93.0438 104.108 101.341 103.538 97.7573 107.025C96.3358 108.408 94.3869 108.785 92.4814 108.836C90.1536 108.899 87.8727 109.58 85.5531 109.553C81.1265 109.503 76.7418 108.12 72.2538 108.12C69.6294 108.12 67.442 110.27 64.9074 110.27C62.9621 110.27 67.2754 106.376 67.7345 105.99C69.5842 104.432 70.8183 105.052 73.3488 105.233C76.8972 105.486 80.398 104.394 83.5024 102.784C84.8564 102.082 86.5963 102.244 88.0616 101.749C90.1369 101.048 92.1767 100.953 94.3529 100.953C97.3267 100.953 100.164 100.166 103.153 100.236C105.106 100.281 107.237 101.374 109.086 101.948C111.449 102.682 114.414 102.744 116.89 102.744C119.242 102.744 124.119 101.82 126.367 102.943C127.124 103.322 128.32 103.374 128.875 103.999C129.384 104.572 130.429 105.096 131.185 105.233C131.604 105.309 133.442 106.581 133.514 106.905C134.418 110.973 129.079 111.049 127.601 113.694C126.308 116.008 126.725 118.817 126.725 121.379C126.725 123.93 123.457 127.274 121.489 128.407C119.842 129.355 118.388 130.976 116.512 131.393C116.027 131.501 113.774 131.413 115.437 131.413C116.892 131.413 118.14 130.697 119.558 130.697C121.493 130.697 119.15 130.697 118.483 130.697C115.515 130.697 111.87 130.021 109.086 131.135C107.644 131.711 111.099 131.772 111.295 131.772C113.077 131.772 115.481 131.349 117.169 131.971C118.171 132.34 120.991 133.342 120.991 131.593C120.991 130.384 122.406 128.603 121.668 127.312C121.542 127.092 117.716 129.795 117.069 130.159C113.503 132.165 109.67 133.137 105.781 134.001C102.292 134.777 98.9658 135.792 95.627 137.127C93.7842 137.864 89.2739 137.24 87.2173 136.098C86.1508 135.505 85.1587 137.332 84.0002 136.868C82.8721 136.417 81.985 135.9 80.8545 135.634C78.1251 134.992 76.4319 133.042 75.28 130.418C73.8654 127.196 71.259 123.98 70.4819 120.483C69.9809 118.228 73.2904 118.737 74.5036 119.09C77.1198 119.849 80.0845 125.422 80.4763 127.969C80.7056 129.46 79.8576 129.842 78.5451 129.542C73.455 128.378 72.0979 120.523 72.7715 116.083C74.1221 107.181 88.4765 101.361 93.3574 110.827C96.1125 116.171 95.3963 126.893 89.6942 130.179C86.4486 132.049 82.7054 127.783 81.4518 125.162C80.2766 122.705 82.966 120.63 84.7965 119.727C88.8938 117.705 93.029 116.616 97.5781 117.477C104.221 118.734 101.545 128.256 96.065 129.403C90.0048 130.671 85.9746 123.163 89.4353 118.194C91.8316 114.753 106.471 107.467 107.294 115.486C108.205 124.374 94.0365 126.181 88.1811 126.038C84.193 125.941 78.6413 124.548 78.1071 119.707C77.5206 114.391 83.7279 111.487 87.982 110.509C94.5504 108.998 103.004 108.982 109.484 110.867C112.66 111.791 117.456 113.751 118.323 117.437C119.373 121.9 103.981 120.304 102.277 120.304C100.388 120.304 95.2988 120.76 94.7112 118.074C93.8149 113.977 101.225 111.801 103.929 110.748C109.011 108.769 115.204 108.026 120.653 108.179C123.356 108.256 125.295 109.863 124.853 112.679C124.223 116.696 120.262 118.71 116.91 120.224C112.703 122.124 108.069 122.364 103.551 122.972C102.885 123.061 100.182 123.796 100.445 122.414C101.158 118.671 104.808 116.221 107.971 114.73C110.288 113.636 130.29 107.321 127.919 114.092C126.145 119.162 121.442 120.851 116.611 121.3C115.327 121.419 110.642 121.56 112.39 119.229" stroke="#D9BFBB" stroke-width="10" stroke-linecap="round"/>
<path d="M72.7168 97.0975C73.7238 96.9856 77.373 95.2959 78.373 94.9255C79.4898 94.5119 80.5664 93.5228 81.6775 93.0043C84.5852 91.6474 87.5122 91.0575 90.7168 91.0575C92.9054 91.0575 94.5156 90.9281 96.7168 91.0575C97.9625 91.1308 99.4827 91.5217 100.717 91.7363C101.754 91.9167 104.213 92.8839 105.217 93.0043C109.252 92.8762 112.614 94.9255 116.217 94.9255" stroke="#78404C" stroke-width="7" stroke-linecap="round"/>
<path d="M47 99.6995C47.2076 100.634 50.2721 102.972 51.083 103.782C53.3412 106.041 53.3697 106.922 55.4883 104.803C57.8198 102.472 61.2171 101.426 64.4063 100.452C70.9403 98.4551 78.6006 97.0643 85.412 96.8253C96.3036 96.4432 107.725 94.5277 118.559 96.9059C123.414 97.9715 128.727 99.331 133.064 101.741C134.697 102.648 136.659 103.851 138.41 104.508C139.839 105.044 140.836 106.907 142.466 106.442C143.745 106.076 144.185 103.944 144.185 102.842C144.185 102.511 144.747 100.835 144.669 101.741C144.62 102.302 143.776 103.241 143.46 103.809C142.672 105.228 142.283 106.549 141.499 107.892C140.817 109.062 139.064 111.413 138.893 112.781C138.603 115.106 137.061 118.164 135.939 120.222C134.751 122.399 133.459 125.031 131.856 126.991C130.127 129.104 128.557 131.545 126.779 133.545C125.672 134.79 125.289 135.381 124.469 136.93C123.967 137.878 121.379 137.413 120.386 137.413C119.455 137.413 118.523 137.413 117.592 137.413C116.008 137.413 114.964 138.38 113.456 138.38C111.854 138.38 110.435 138.896 108.889 139.24C107.154 139.625 105.344 139.152 103.597 139.589C100.851 140.276 97.2149 140.314 94.3569 140.314C91.9759 140.314 89.5741 140.798 87.1312 140.798C84.5525 140.798 81.9738 140.798 79.3951 140.798C78.124 140.798 75.3565 141.326 74.4525 140.422C71.5166 137.486 69.1287 133.879 66.2329 130.751C62.9829 127.241 59.4982 123.144 56.8851 119.147C54.9075 116.123 51.8351 110.611 51.8351 106.952" stroke="#2D2D2D" stroke-width="5" stroke-linecap="round"/>
<path d="M59.0869 102.117C59.0869 106.308 62.1999 110.065 64.889 112.754C66.1037 113.969 68.2251 114.628 69.2406 115.897C69.9074 116.731 72.768 118.566 73.8339 119.04C75.3888 119.731 74.3857 119.555 73.3235 120.114C72.2785 120.664 71.2849 121.295 70.2076 121.834C68.9516 122.462 67.79 124.727 67.79 126.051C67.79 126.963 64.889 130.525 64.889 129.194C64.889 126.135 65.4887 123.635 66.447 120.867C66.9775 119.334 70.4596 115.826 69.2137 116.864C66.8543 118.83 64.2076 119.493 62.5789 122.425C60.82 125.591 61.8502 120.809 61.2627 119.282C60.2321 116.602 61.1845 113.313 58.872 111.331C58.2196 110.772 54.9746 106.475 57.6364 108.51C59.399 109.858 61.9531 113.202 62.4446 115.414C63.0225 118.014 63.3487 119.994 60.3225 117.858C59.3518 117.173 54.2442 111.791 57.1528 110.337" stroke="#2D2D2D" stroke-width="5" stroke-linecap="round"/>
<path d="M63.9219 115.655C65.5416 115.655 70.3767 116.139 68.757 116.139" stroke="#2D2D2D" stroke-width="5" stroke-linecap="round"/>
<path d="M137.899 105.502C137.899 108.803 136.24 110.018 134.3 112.513C133.789 113.17 132.944 115.072 132.097 115.172C131.339 115.261 131.298 116.101 130.646 116.139C130.098 116.171 129.093 115.905 128.712 116.381C128.071 117.182 129.954 117.423 130.888 118.046C132.503 119.123 132.097 120.655 132.097 122.425C132.097 125.554 132.869 116.144 134.031 113.238" stroke="#2D2D2D" stroke-width="5" stroke-linecap="round"/>
<path d="M131.13 116.139C129.967 116.139 128.707 115.989 127.558 116.166C126.853 116.274 126.553 117.019 125.812 117.106C125.193 117.179 125.233 117.906 124.603 118.046C123.989 118.183 123.299 117.928 122.696 118.1C120.814 118.638 119.487 115.843 119.069 113.963C118.926 113.316 118.858 111.145 118.29 110.821C117.566 110.407 116.235 111.788 115.174 111.788C112.682 111.788 110.447 112.271 107.922 112.271" stroke="#2D2D2D" stroke-width="5" stroke-linecap="round"/>
<path d="M74.0762 119.04C75.8745 119.04 77.8967 120.471 78.8038 118.556C79.2475 117.619 79.8208 114.698 79.8783 113.721C80.0235 111.252 88.4459 113.992 89.5484 111.787" stroke="#2D2D2D" stroke-width="5" stroke-linecap="round"/>
<path d="M85.3266 75.3007C88.6247 75.2457 91.8669 74.3586 95.1929 74.1795C95.3043 74.1735 102.887 73.4192 101.724 75.0484C100.794 76.3505 99.9655 76.9277 98.6965 77.8794C97.8327 78.5273 95.5028 78.9867 94.9686 79.8414C94.6524 80.3475 93.2748 80.4259 92.7403 80.2058C90.6049 79.3265 89.9281 77.5202 88.2276 76.1976C87.8635 75.9144 86.1147 75.2551 87.3447 75.6651C88.8189 76.1565 91.8531 76.2655 92.5862 77.8233C92.6374 77.9322 87.3784 78.1439 86.4618 77.4309C85.9554 77.037 85.5668 76.2969 85.0743 76.0014C84.6888 75.7701 85.9144 76.1722 86.2095 76.4219C86.6899 76.8283 87.2177 77.2651 87.5409 77.8233C88.2463 79.0418 91.0232 80.5982 92.5161 80.5982C93.9943 80.5982 94.3562 80.4118 95.2209 79.0846C96.0888 77.7525 98.0561 76.5038 99.4533 75.8052" stroke="#78404C" stroke-width="5" stroke-linecap="round"/>
<path d="M25.6934 68.3334C24.7435 66.0173 23.1175 63.3727 22.6178 60.8745C22.5188 60.3793 22.2803 59.5453 21.9136 59.1786C20.798 58.063 18.3414 60.4938 17.6596 61.1188C15.5075 63.0915 13.5193 65.2736 11.5085 67.3849C10.3988 68.55 9.62698 70.0458 8.60543 71.3227C5.54101 75.1532 2.5798 80.0728 4.73944 85.0908C6.08256 88.2116 7.66552 91.1915 9.52522 94.03C10.2557 95.145 11.4142 96.5944 11.8534 97.8241C12.2463 98.9242 13.0357 99.692 13.6643 100.67C14.2783 101.625 16.5087 101.277 17.4584 101.158C20.1622 100.82 22.9813 99.3786 25.4922 98.3415C26.0101 98.1276 29.1261 96.2868 28.7402 96.272C25.5353 96.1487 22.3645 97.2256 19.2261 97.7667C18.5686 97.88 17.2955 98.3172 16.6392 98.0828C16.3867 97.9926 20.4855 93.4967 20.807 93.1965C22.0356 92.0491 23.4196 91.2287 24.7449 90.2215C25.5739 89.5914 25.3718 89.4026 24.3999 89.8191C21.6215 91.0099 18.352 91.7233 15.7769 93.2683C14.9626 93.7569 15.0871 92.7173 15.0871 92.1617C15.0871 88.7685 16.5516 85.9334 18.3638 83.1075C18.7712 82.4723 21.4827 77.9179 22.4885 78.2355C23.8112 78.6532 24.0869 81.0773 24.2706 82.159C24.7254 84.8373 25.0737 87.3336 21.698 87.9364C19.2233 88.3783 16.6749 87.8968 15.9781 85.1483C15.3875 82.8186 16.0669 79.6521 17.1853 77.6175C18.0151 76.108 19.0342 74.6397 20.0884 73.2773C20.211 73.1189 20.8829 72.1024 20.9795 72.8749C21.4577 76.7011 18.9444 81.2885 17.0991 84.4297C15.8779 86.5086 14.3472 89.5086 12.0977 90.7245C9.9991 91.8589 9.19467 88.0761 9.19467 86.7867C9.19467 82.7818 12.2521 79.0729 14.5697 76.1085C16.6807 73.4084 18.6102 70.5725 21.1232 68.2328C23.7232 65.8121 23.8075 70.2816 22.934 72.0701C21.9927 73.9976 20.0894 75.8271 18.6081 77.3445C18.0871 77.8782 16.7998 79.9757 15.8488 79.5002C13.1197 78.1357 14.12 73.0343 14.9433 71.0065C15.5141 69.6009 16.5355 67.5624 17.6165 66.4363C18.2112 65.8168 17.0577 69.335 16.9841 69.4831C14.9547 73.5677 12.4099 77.4683 10.0282 81.3542C9.82494 81.6858 8.6383 84.2573 8.10242 84.2573C7.69991 84.2573 9.81929 80.1097 9.99948 79.802C11.1572 77.8249 12.4949 75.9005 13.7936 74.0246" stroke="#9C5D63" stroke-width="7" stroke-linecap="round"/>
<path d="M162.047 82.0996C163.992 76.4141 167.217 72.2287 171.447 67.9992C172.731 66.7148 173.931 65.4144 175.326 67.5702C176.727 69.7352 177.584 72.9694 178.478 75.3851C179.614 78.4519 180.697 81.8179 182.153 84.7294C183.921 88.2657 182.254 90.5002 180.176 93.682C177.844 97.2517 175.711 100.968 173.331 104.5C172.397 105.885 171.428 107.625 169.936 108.454C168.016 109.521 165.287 106.716 164.08 105.619C162.616 104.288 160.789 103.931 163.203 102.914C166.756 101.419 169.749 97.1644 172.025 94.2602C172.772 93.3073 174.675 90.2075 173.983 91.2014C173.311 92.168 172.744 93.2342 172.1 94.2229C170.837 96.1581 169.692 98.2399 168.276 100.061C168.058 100.342 167.584 102.105 167.978 101.46C169.817 98.4504 171.487 95.3394 173.312 92.3205C174.337 90.6242 175.688 89.2044 176.744 87.5457C178.167 85.3097 176.292 85.8584 175.625 83.7782C174.952 81.681 174.497 79.1729 174.207 76.9891C173.919 74.8179 173.032 68.3962 172.79 70.5731C172.496 73.2173 172.26 75.7566 171.783 78.4066C171.192 81.6865 169.9 84.6219 168.761 87.7323C168.116 89.492 167.399 91.207 166.635 92.9173C166.158 93.9844 166.249 95.1681 165.814 96.1999C165.09 97.919 165.74 92.4698 165.74 90.6045C165.74 87.4612 165.678 84.2924 166.075 81.167C166.168 80.4334 166.6 76.9721 168.164 78.7797C171.191 82.2773 170.291 89.7613 170.029 93.9991C169.827 97.2788 168.499 100.449 168.425 103.698C168.414 104.214 168.342 105.268 167.754 105.526C167.399 105.681 167.418 99.7549 167.418 99.2587C167.418 97.0081 167.418 94.7576 167.418 92.507" stroke="#9C5D63" stroke-width="7" stroke-linecap="round"/>
<path d="M23.0069 90.2124C20.5331 89.9141 18.3851 89.6098 16.0917 88.7498C15.613 88.5702 15.846 87.1751 15.846 86.7255C15.846 84.035 17.2294 82.358 19.1924 80.688C19.7752 80.1922 20.696 80.0736 21.205 79.5647C21.7769 78.9928 20.9667 77.4319 20.6667 76.932C18.5834 73.4598 15.6033 69.8331 14.793 65.7812" stroke="#8D464D" stroke-width="5" stroke-linecap="round"/>
<path d="M15.0043 70.625C12.4312 73.5279 9.92673 76.5533 7.63281 79.6814" stroke="#8D464D" stroke-width="5" stroke-linecap="round"/>
<path d="M165.471 97.5955C166.533 97.5955 167.615 97.8253 168.316 96.8527C169.173 95.6625 171.464 93.8929 171.525 92.2419C171.565 91.174 171.703 90.2057 170.908 89.411C170.312 88.8148 169.286 88.7402 168.554 88.2618C168.367 88.1395 167.025 87.4598 166.998 87.3648C166.85 86.8475 167.337 86.0161 167.503 85.571C168.048 84.1053 168.646 82.8145 169.507 81.5067C170.871 79.435 172.237 77.6297 173.795 75.7467C174.4 75.0164 175.377 74.0475 175.561 73.126" stroke="#8D464D" stroke-width="5" stroke-linecap="round"/>
<path d="M174.301 78.6758C175.471 81.8351 177.525 84.5097 178.337 87.7573" stroke="#8D464D" stroke-width="5" stroke-linecap="round"/>
<path d="M31.8761 82.5576C29.0905 82.9058 32.215 83.772 33.1081 83.9266C35.2747 84.3015 37.6973 84.6194 39.8159 85.0902C41.0575 85.3661 41.7369 87.771 40.8426 88.7179C39.9279 89.6864 37.1085 90.4659 35.8802 90.8397C34.9405 91.1257 23.9987 94.501 25.9896 96.7262C26.6934 97.5128 34.3154 98.5674 31.7392 100.422C30.0347 101.65 26.0232 104.734 30.3702 104.734C32.4525 104.734 34.0463 105.892 36.0513 105.967C36.52 105.984 38.4639 106.768 37.0781 107.164C33.7866 108.105 30.947 109.5 28.043 111.511C25.7248 113.116 29.4468 113.712 30.952 113.906C34.1813 114.323 36.2572 114.317 39.2684 115.823" stroke="#1D1D1D" stroke-width="5" stroke-linecap="round"/>
<path d="M161.857 71.4697C164.305 71.4697 168.654 77.0139 163.705 77.0139C163.591 77.0139 161.743 77.0139 162.541 77.0139C163.248 77.0139 165.37 77.0139 164.663 77.0139C163.437 77.0139 161.035 76.6232 160.146 77.7669C159.733 78.2975 161.828 78.2399 161.994 78.246C163.874 78.3156 163.06 79.3122 161.925 78.1775C160.382 76.6345 159.875 73.3178 162.781 73.3178C166.99 73.3178 162.611 74.1244 162.473 75.9188C162.305 78.1037 162.473 80.3668 162.473 82.5582" stroke="#1D1D1D" stroke-width="5" stroke-linecap="round"/>
<path d="M28.6556 66.9941C28.6556 68.2535 28.7699 68.7248 29.6773 69.7263C30.8108 70.9773 27.0092 70.637 29.3629 70.637C30.6073 70.637 31.8516 70.637 33.0959 70.637C34.1317 70.637 30.1987 70.3619 30.0702 71.2441C29.9143 72.3152 23.84 72.1438 30.0702 72.4584C31.7985 72.5457 29.209 73.0656 28.6556 73.0656C25.0287 73.0656 29.3542 74.1273 30.7382 74.2461C31.7502 74.333 35.1192 74.7577 35.0214 76.1013C34.942 77.1915 30.9297 76.7084 30.1488 76.7084C29.509 76.7084 27.7865 77.1453 28.3806 77.3493C33.172 78.9945 28.184 79.4856 25.1584 80.3513C23.8709 80.7197 32.2732 82.1031 30.0702 83.9941" stroke="#1D1D1D" stroke-width="5" stroke-linecap="round"/>
<path d="M166.658 72.8828C166.658 68.7134 167.335 63.9452 166.017 59.9907C165.238 57.6545 164.15 55.6345 163.415 53.2444C162.857 51.4323 161.297 49.8212 164.055 49.8212C165.148 49.8212 166.874 50.76 167.018 51.9832C167.133 52.9583 168.189 50.4647 168.279 50.1415C169.108 47.1579 169.222 43.0309 168.099 40.1121C166.74 36.5797 164.513 33.1294 163.855 29.362C163.283 26.0868 162.58 22.7193 161.253 19.733C160.516 18.0756 157.402 17.0737 155.928 16.1096C150.48 12.5476 144.226 10.4023 137.971 8.56258C135.398 7.80576 132.76 7.66174 130.103 7.66174C128.992 7.66174 124.612 7.66174 128.102 7.66174C131.885 7.66174 136.028 7.14848 139.772 7.8419C140.896 8.04988 141.942 8.74275 143.015 8.74275C144.578 8.74275 139.91 8.3466 138.391 7.98204C135.744 7.34666 133.227 6.3818 130.544 5.86005C124.561 4.69666 118.19 4.77904 112.087 4.77904C103.487 4.77904 94.9895 4.33882 86.5826 5.94012C83.3076 6.56395 80.251 7.64823 77.1338 8.82282C73.1677 10.3173 69.8591 12.6152 66.2436 14.7083C64.8229 15.5309 62.8383 16.3063 61.2389 16.6902C58.7136 17.2963 56.2642 18.7804 53.792 19.6329C52.8041 19.9736 51.046 21.0542 50.2687 21.7149C49.146 22.6691 47.5244 23.3752 46.1448 23.8769C43.1548 24.9642 40.7847 27.0099 37.857 28.1809C34.0585 29.7004 31.8101 32.2318 30.0898 35.768C28.1947 39.6635 28.2881 44.2161 28.2881 48.4599C28.2881 52.3206 30.8104 55.0182 30.8104 59.0098C30.8104 61.0309 29.8376 62.6474 29.7294 64.595C29.6738 65.5968 28.5057 68.2169 28.2881 67.2375C28.0249 66.0529 28.408 64.1455 28.6684 62.9735C28.8287 62.2525 29.3691 60.133 29.3691 60.8715C29.3691 62.2772 29.0088 63.6721 29.0088 65.1155C29.0088 65.8429 29.0088 66.5702 29.0088 67.2976C29.0088 68.8521 29.0088 64.4993 29.0088 63.8743C29.0088 62.4789 29.1933 60.9345 29.0088 59.5503C28.8546 58.3944 28.2881 61.8074 28.2881 62.9735C28.2881 63.892 27.8396 67.0733 28.6484 67.4777" stroke="#D3A4A4" stroke-width="8" stroke-linecap="round"/>
<path d="M27.5664 68.9194C27.5664 65.7151 29.0554 60.992 33.0515 60.992C35.3463 60.992 36.5291 60.1277 38.5167 59.2104C39.316 58.8414 37.1982 60.1053 36.775 60.4515C36.0207 61.0687 35.5829 61.9573 34.7732 62.5935C32.1923 64.6213 37.2877 61.1857 38.0162 60.8319C40.2301 59.7566 42.3539 57.8884 44.8626 57.749C45.5616 57.7101 46.7786 56.8977 47.5251 56.668C48.7218 56.2998 50.0276 55.5741 51.1885 55.0465C53.3206 54.0773 55.5627 54.1456 57.8347 54.1456C58.7223 54.1456 59.4862 53.7853 60.3571 53.7853C61.7323 53.7853 61.8352 53.5321 60.3171 54.0255C58.0471 54.7632 55.8368 55.6623 53.5107 56.2276C52.1699 56.5533 50.438 56.3012 49.1866 56.8281C48.0231 57.3181 47.3477 58.2006 46.3039 58.7499C43.2839 60.3394 40.1735 60.91 36.9752 62.073C35.8265 62.4907 34.7315 63.1956 33.8723 64.0549C32.6463 65.2809 32.7462 64.4291 33.9123 63.6745C37.7032 61.2216 42.5548 59.4104 46.9445 58.3896C48.6876 57.9842 49.7943 56.4084 51.709 56.3076C52.9022 56.2448 54.1173 56.3076 55.3124 56.3076C57.5622 56.3076 59.8712 55.5526 61.9986 54.8663C64.4099 54.0885 67.6998 52.3439 70.2664 52.3439C74.0676 52.3439 78.3133 52.227 81.9773 53.2448C84.1171 53.8391 86.8822 53.4249 89.104 53.4249C90.2784 53.4249 91.4529 53.4249 92.6273 53.4249C94.0496 53.4249 95.1532 52.7984 96.4709 52.7043C98.497 52.5595 100.373 53.0646 102.376 53.0646C103.602 53.0646 104.27 53.7853 105.239 53.7853C106.341 53.7853 107.561 53.6338 108.622 53.9654C110.426 54.5292 112.971 55.1596 114.848 55.2266C117.507 55.3216 120.071 55.8948 122.695 55.9473C133.731 56.168 144.852 58.1043 155.206 61.4324C157.345 62.1202 159.526 62.4026 161.392 63.6945C162.226 64.2722 163.109 64.9837 163.594 65.8566C164.211 66.968 161.026 66.1492 160.571 65.8566C159.655 65.2681 159.928 63.5398 158.729 62.8738C158.14 62.5466 157.196 61.7866 156.567 61.7127C156.157 61.6644 154.458 60.676 155.566 60.6317C156.497 60.5945 157.438 60.6317 158.369 60.6317" stroke="#D3A4A4" stroke-width="8" stroke-linecap="round"/>
<path d="M47.3844 46.2176C44.0744 47.0702 42.5888 48.5059 40.2777 50.9821C39.7956 51.4986 37.5138 51.5287 37.2148 50.8219C36.12 48.2342 34.8756 43.7522 36.294 41.0928C38.0311 37.8358 39.4689 36.2536 42.2596 33.9662C45.5991 31.2289 49.7934 28.8881 54.0306 28.0406C57.7327 27.3002 61.1272 26.2362 64.6405 24.8777C67.41 23.8068 69.8009 22.3406 72.3077 20.7738C74.0054 19.7128 76.0774 18.8762 77.6527 17.751C78.7655 16.9562 80.5664 17.5787 81.8566 17.2305C85.6852 16.1974 89.4695 14.8401 93.2673 13.8273C95.7224 13.1726 98.9689 13.847 101.475 13.7873C108.015 13.6316 114.46 12.3459 121.033 12.3459C122.408 12.3459 123.816 12.2015 125.137 12.6262C127.698 13.4492 130.199 13.4891 132.784 14.2277C136.168 15.1946 139.048 17.5597 142.153 19.1123C143.435 19.7533 145.003 19.5144 146.277 20.0932C147.654 20.7191 148.833 21.1903 150.161 22.075C151.453 22.9366 153.394 23.8927 154.184 25.2981C155.096 26.9187 155.404 28.4284 156.006 30.0825C157.006 32.8338 158.94 36.3923 159.089 39.3712C159.26 42.7902 158.795 45.739 157.708 49.0002C156.887 51.4609 155.938 54.3556 155.846 56.9477C155.827 57.4715 155.623 58.5402 154.905 58.389C153.798 58.156 152.975 56.3243 152.483 55.5264C150.825 52.8403 149.236 50.1011 147.638 47.3787C145.619 43.9385 144.513 40.0734 142.393 36.6887C141.149 34.7016 139.859 32.6695 138.55 30.7231C137.241 28.778 136.748 28.5792 136.748 26.1989C136.748 24.1183 138.389 25.7097 139.23 26.5192C143.11 30.2543 147.331 33.7219 150.721 37.9299C152.557 40.2087 153.941 42.8074 155.245 45.4169C155.386 45.6992 156.166 46.5071 156.166 46.7381C156.166 47.6869 151.56 43.5119 151.462 43.415C146.422 38.4473 142.052 32.3029 137.969 26.5392C136.625 24.6421 133.741 19.0708 130.702 19.1923C129.186 19.253 132.115 24.6332 132.284 24.9577C134.391 29.0138 137.233 33.0874 138.83 37.3694C139.877 40.1786 140.585 43.6067 140.992 46.578C141.08 47.2183 142.42 51.1611 142.073 51.5426C139.495 54.3784 126.209 36.5527 125.277 35.2274C122.56 31.36 120.342 27.1735 117.73 23.2361C117.416 22.7629 114.218 19.5309 116.329 21.1141C118.729 22.9144 120.308 25.1311 121.954 27.6002C124.093 30.8078 126.544 33.8654 128.981 36.8489C130.256 38.4101 131.439 41.0365 133.145 42.1739C133.815 42.6206 133.865 42.7576 133.865 43.6152C133.865 45.7491 128.633 44.8786 127.219 44.6962C120.87 43.877 115.515 38.5039 111.965 33.5658C110.326 31.286 106.958 27.3136 107.2 24.157C107.327 22.5055 110.624 25.5492 110.924 25.7785C115.356 29.1676 119.414 32.6365 122.595 37.2693C124.535 40.0959 125.713 42.4948 126.298 45.8973C126.565 47.4482 127.455 48.9563 127.379 50.5417C127.173 54.8807 119.267 48.2703 118.271 47.4988C114.91 44.8958 111.881 41.3665 109.242 38.05C106.97 35.1936 104.399 31.2819 104.318 27.4801C104.245 24.0897 104.542 20.994 108.301 20.994C114.289 20.994 121.049 25.5478 121.534 31.8442C121.717 34.2236 121.703 36.4114 119.712 37.9499C116.033 40.7931 111.424 42.2565 107.32 44.3559C103.328 46.3987 100.603 46.8688 96.19 46.2176C90.3346 45.3537 84.5673 42.6143 78.6136 42.6143C69.2322 42.6143 60.6193 46.3703 51.8886 49.2805C50.5717 49.7195 44.7924 52.4015 49.106 50.5817C63.4045 44.5495 78.3888 41.0314 93.968 41.5733C98.9018 41.7449 105.073 41.9084 109.803 43.6953C112.472 44.7037 114.606 46.5205 117.29 47.4788C117.702 47.626 118.28 47.8073 117.93 48.3797C116.941 49.9993 111.755 48.9659 110.604 48.8601C102.634 48.1282 94.7529 46.6257 86.8413 45.4569C78.7244 44.2578 70.8149 42.2539 62.5786 42.2539C57.6938 42.2539 53.0269 42.5449 48.2251 43.415C47.7311 43.5045 43.2058 44.9441 42.78 44.3359C42.0663 43.3163 49.6706 39.8558 49.7666 39.8116C62.2049 34.0885 75.0936 33.1415 88.4027 30.9233C93.5544 30.0647 98.0828 28.8485 102.796 26.8395C103.263 26.6407 106.027 25.3787 105.539 25.3381C100.905 24.9519 96.2128 25.5195 91.5657 25.1179C88.056 24.8146 84.5806 23.966 81.0559 23.8767C80.4672 23.8618 78.1894 24.2533 77.7328 23.7967C77.5301 23.594 80.2788 23.5192 80.4553 23.5164C82.3453 23.4864 84.119 22.8401 85.9404 22.4354" stroke="#D3A4A4" stroke-width="13" stroke-linecap="round"/>
<path d="M24.6016 66.2373C24.668 68.2092 24.631 71.5829 25.9721 73.3071C26.4542 73.9269 26.7628 74.5262 27.0083 75.2626" stroke="#C07E7E" stroke-width="4" stroke-linecap="round"/>
<path d="M27.3088 77.6692C26.1772 76.3491 29.7924 71.8763 30.7685 70.9003C32.1604 69.5084 33.6252 68.6805 35.2978 67.7247C37.5583 66.433 40.0987 65.5839 42.5515 64.733C44.6018 64.0216 46.7574 63.6253 48.8358 62.9948C50.8085 62.3963 52.6392 61.4365 54.6521 60.9891C60.5991 59.6676 66.6711 58.248 72.7026 57.3957C82.3685 56.0299 92.0811 57.8136 101.767 57.8136C105.016 57.8136 108.22 57.968 111.461 58.0977C113.442 58.177 115.434 57.9411 117.378 58.4153C120.689 59.2229 124.061 60.0171 127.456 60.3707C130.044 60.6404 132.596 61.0152 135.178 61.3568C137.436 61.6557 140.432 61.4649 142.532 62.3262C145.231 63.4336 148.139 63.7921 150.738 65.3012C152.11 66.0979 153.744 66.4866 155.033 67.3069C156.542 68.2668 157.954 69.4748 159.546 70.3153C161.495 71.3441 161.218 72.9847 162.454 74.4268C163.333 75.4519 163.539 76.7978 164.126 77.9701C164.633 78.986 165.095 79.5289 165.095 80.6777" stroke="#C07E7E" stroke-width="4" stroke-linecap="round"/>
<path d="M24 65.635C24.033 62.9972 23.9389 59.9925 25.3872 57.6627C27.8444 53.7098 31.6664 50.0055 35.2983 47.1165C38.8352 44.3031 42.2442 41.0195 46.2958 38.9937C50.8001 36.7416 55.1437 35.5697 60.1012 34.8153C62.3693 34.4702 64.5144 34.0999 66.7531 33.5785C68.8807 33.0831 71.3987 33.4448 73.5723 33.4448C83.0935 33.4448 92.5265 34.3474 102.052 34.3474C110.374 34.3474 118.761 34.089 127.055 34.7151C132.063 35.093 136.96 36.1868 141.964 36.6872C145.146 37.0055 148.455 38.1814 151.374 39.4784C153.925 40.6123 156.555 41.6385 158.878 43.2055C162.348 45.546 164.04 48.9087 165.563 52.5818C166.798 55.5601 168.254 58.5882 169.24 61.6572C170.373 65.181 170.5 69.5377 169.926 73.2731C169.631 75.1892 167.634 77.7815 165.998 78.8721" stroke="#C07E7E" stroke-width="4" stroke-linecap="round"/>
<path d="M25.8894 54.2212C25.8894 53.3155 25.7284 52.4674 25.5841 51.5746C25.093 48.5359 25.2505 45.3841 25.4653 42.3286C25.8336 37.0905 28.2776 32.6683 31.9121 28.8923C41.3061 19.1322 55.9066 15.2024 68.2004 10.5191C74.4462 8.13971 80.533 4.94378 87.0486 3.29193C92.6109 1.88177 99.0349 2.00259 104.726 2.00259C111.936 2.00259 119.147 2.00259 126.357 2.00259C133.267 2.00259 141.176 1.9864 147.444 5.36167C150.671 7.09921 154.411 8.59772 157.081 11.1807C158.924 12.9646 160.669 14.433 162.153 16.5586C164.602 20.0657 165.591 24.6151 167.277 28.5021C169.168 32.8622 171.021 37.8774 171.246 42.6849C171.403 46.0351 172.472 49.6536 171.789 53.0675C171.252 55.7524 168.799 56.2159 167.887 58.4964" stroke="#C07E7E" stroke-width="4" stroke-linecap="round"/>
<path d="M44.5017 63.8742C41.0476 63.3808 40.1725 62.4893 39.1167 59.1898C38.3752 56.8727 38.0156 54.5604 38.0156 52.1432C38.0156 49.9019 40.951 45.9072 42.3397 44.0557" stroke="#C07E7E" stroke-width="4" stroke-linecap="round"/>
<path d="M74.7686 55.2268C72.1291 54.027 72.8187 49.2196 73.007 46.8189C73.1793 44.6214 74.3877 42.4802 75.3091 40.533C75.9879 39.0986 76.6667 37.1377 78.0117 36.1289" stroke="#C07E7E" stroke-width="4" stroke-linecap="round"/>
<path d="M109.362 36.4883C110.245 43.4383 108.455 49.8462 106.84 56.3068" stroke="#C07E7E" stroke-width="4" stroke-linecap="round"/>
<path d="M136.027 35.7686C140.249 40.8693 144.49 48.323 141.953 54.9465C141.496 56.1398 140.982 59.1005 139.631 59.5508" stroke="#C07E7E" stroke-width="4" stroke-linecap="round"/>
<path d="M161.972 46.5781C165.547 53.4728 167.202 63.9618 159.449 67.838" stroke="#C07E7E" stroke-width="4" stroke-linecap="round"/>
<path d="M42.3387 39.0109C42.3387 34.2805 41.3046 29.5502 43.4197 25.0178C43.9037 23.9807 44.1959 23.0341 44.5808 21.995C44.9974 20.8702 46.2177 20.3581 47.0231 19.5527" stroke="#C07E7E" stroke-width="4" stroke-linecap="round"/>
<path d="M62.158 33.9668C61.9256 29.463 61.3398 25.2728 63.159 21.0748C63.8767 19.4185 64.7459 17.8444 65.4811 16.1902C66.3871 14.1518 67.9638 11.3936 70.0854 10.5449" stroke="#C07E7E" stroke-width="4" stroke-linecap="round"/>
<path d="M100.354 2.61719C99.8644 4.03183 99.138 5.02164 98.2721 6.22056C96.7743 8.29444 96.1365 11.4722 95.1892 13.7876C94.2672 16.0415 93.4037 18.4352 92.3466 20.6341C91.8044 21.7617 91.6948 23.2442 90.9853 24.2374C90.3018 25.1943 90.625 26.8985 90.625 28.021C90.625 29.4987 89.9043 30.5898 89.9043 32.1648" stroke="#C07E7E" stroke-width="4" stroke-linecap="round"/>
<path d="M133.145 33.966C133.229 28.7995 133.559 23.9313 136.307 19.4525C137.294 17.8452 138.391 15.9453 139.711 14.5879C140.331 13.9501 141.468 13.7814 142.233 13.3467C143.782 12.4665 145.998 12.3922 147.738 12.0055C150.4 11.414 153.818 11.9855 156.566 11.9855" stroke="#C07E7E" stroke-width="4" stroke-linecap="round"/>
<path d="M159.809 40.8131C162.68 38.8086 166.841 35.0229 167.736 31.4443" stroke="#C07E7E" stroke-width="4" stroke-linecap="round"/>
<path d="M79.7547 52.226C78.1431 51.2963 78.2717 45.2891 78.7551 43.2174C79.0856 41.8009 79.7919 40.6945 80.6293 39.5315C80.7335 39.3868 81.9041 37.4406 81.9537 37.5824C82.2724 38.4927 80.9943 40.5806 80.6543 41.4807C80.3095 42.3934 80.4294 43.381 80.4294 44.3419C80.4294 44.7724 80.5422 47.6877 80.7043 46.8034C81.0071 45.1518 81.6719 43.5864 82.4535 42.1054C82.8498 41.3545 83.6996 41.5536 83.8029 42.3803C83.9839 43.8283 84.0278 45.2472 84.0278 46.7034C84.0278 46.8021 84.0213 47.665 84.0278 47.4281C84.0622 46.1897 84.3432 45.0103 84.6026 43.8047C84.7853 42.9558 85.0038 42.5154 85.3773 43.6797C85.7689 44.9007 85.9827 46.0161 86.6017 47.1657C86.929 47.7735 87.1864 48.2277 87.8512 48.5776C88.6421 48.9939 88.4692 49.1438 88.0886 48.4776C87.3572 47.1977 87.6263 45.1878 87.6263 43.7797C87.6263 42.3853 87.6979 41.4908 88.1261 40.2062C88.5111 39.0511 89.819 38.3604 90.3251 37.2075C90.7607 36.2154 90.3676 39.0597 90.3376 39.4191C90.1269 41.9476 89.6504 44.3773 89.6504 46.9533C89.6504 48.6099 89.1322 51.0332 90.4376 52.3385C90.6186 52.5196 91.3812 52.7731 90.8874 52.6633C89.5226 52.3601 90.1002 48.8715 90.1002 47.9779C90.1002 46.662 89.8848 44.5458 90.6 43.3299C91.1623 42.374 91.6745 45.3695 91.6745 46.4785C91.6745 46.6186 91.8441 50.476 92.4617 49.927C92.9773 49.4687 93.164 48.0264 93.3988 47.4281C94.0848 45.6798 94.7893 43.6238 96.0726 42.2054C97.1803 40.9811 96.2552 48.927 97.522 48.8525C98.2103 48.812 98.4379 46.4975 98.5466 46.0287C98.7264 45.2531 99.1707 43.7274 99.3087 45.5914C99.4091 46.9468 98.4623 50.7662 100.671 50.8766C101.881 50.9371 101.688 49.7382 101.92 48.7275C102.293 47.1061 102.63 45.4618 103.157 43.8796C103.49 42.88 104.269 41.5935 104.269 40.5436C104.269 40.4512 104.282 39.2692 104.319 39.2816C105.256 39.594 105.514 43.4138 105.569 44.1045C105.739 46.2592 105.803 48.6617 105.506 50.8016C105.322 52.1239 104.664 53.124 104.169 54.3376C103.981 54.7986 103.788 55.321 103.419 55.6745C103.12 55.9614 103.548 54.3358 103.594 54.1752C104.523 50.9234 105.585 47.3487 105.156 43.9171C105.139 43.782 104.951 43.2022 105.219 43.7047C105.822 44.8351 106.081 46.2712 106.518 47.4781C106.522 47.4888 107.692 51.6553 108.417 50.8266C108.789 50.4015 108.579 48.9384 108.642 48.4277C108.795 47.1929 108.979 45.8618 109.554 44.7418C110.291 43.3065 111.389 43.9482 111.966 45.254C111.998 45.3273 113.53 48.7806 113.665 48.5776C113.919 48.1972 113.763 47.1901 113.84 46.7409C114.009 45.7528 114.263 44.8016 114.402 43.8047C114.544 42.7891 114.87 41.7499 115.177 40.7685C115.662 39.2177 115.968 41.0554 116.289 41.8805C117.092 43.9448 117.089 45.8695 117.089 48.0528C117.089 49.1314 117.496 51.258 116.851 52.226C116.666 52.503 116.04 53.4785 116.089 53.388C116.46 52.6987 116.395 51.7542 116.514 51.0016C116.748 49.515 116.864 48.1093 116.864 46.6035C116.864 44.7049 116.978 42.8754 116.364 41.0559C115.954 39.8422 115.174 38.5341 115.052 37.2575C115.037 37.1043 114.837 36.4325 114.84 36.5078C114.872 37.3741 115.267 38.1743 115.502 38.9942C116.158 41.2909 116.408 43.7865 116.689 46.1537C116.901 47.9446 117.496 51.5023 116.414 53.1256" stroke="#1D1D1D" stroke-width="3" stroke-linecap="round"/>
<path d="M94.9453 179.168C95.1028 180.822 95.2248 182.457 95.2567 184.116C95.2744 185.033 95.343 185.665 96.2603 184.947C96.6266 184.66 98.5007 182.606 98.9248 182.801C99.2401 182.947 98.9858 185.479 98.9594 185.743C98.8946 186.39 97.461 190.657 98.5614 190.657C99.5975 190.657 103.943 186.97 103.977 188.407C104.029 190.594 102.646 192.9 101.416 194.671C99.8151 196.975 101.539 196.013 103.319 195.518C106.61 194.604 104.988 198.025 106.78 199.723C107.767 200.657 112.609 199.94 112.68 200.363C112.913 201.759 111.891 203.771 113.787 203.771C115.539 203.771 117.209 203.797 118.926 203.391C120.27 203.072 121.461 202.467 119.341 202.145C116.772 201.755 113.068 200.392 111.919 197.837C111.498 196.903 111.147 195.519 110.015 195.345C108.284 195.079 107.319 194.629 105.846 193.805C104.142 192.854 102.485 190.654 102.178 188.719C101.537 184.686 102.641 181.307 103.908 177.576C104.216 176.668 105.06 173.857 103.492 175.275C103.059 175.668 102.233 176.56 101.676 176.746C101.242 176.89 101.732 174.563 101.797 174.358C102.083 173.45 103.701 170.412 101.97 172.143C101.298 172.815 100.658 173.577 99.9283 174.185C99.8902 174.217 101.025 171.145 101.364 170.586C102.249 169.131 103.529 167.818 104.254 166.278C104.568 165.61 104.831 165.11 105.569 164.842C108.173 163.895 110.449 161.884 113.147 161.174C115.446 160.569 114.392 163.142 113.631 164.219C113.115 164.951 112.397 166.21 113.562 164.842C114.764 163.431 116.051 161.975 117.023 160.395C117.494 159.629 118.58 160.34 118.58 161.087C118.58 161.672 117.127 161.403 116.763 161.433C115.346 161.552 113.997 162.392 112.697 162.904C107.991 164.76 107.243 170.105 104.911 174.133C103.15 177.175 101.17 179.56 98.3711 181.659" stroke="#3D2D31" stroke-opacity="0.21" stroke-width="9" stroke-linecap="round"/>
<path d="M90.8964 185.397C90.8266 187.073 88.6761 186.917 87.4706 186.487C86.8569 186.268 86.4997 183.982 85.6712 185.777C85.201 186.796 83.9763 187.587 83.0413 188.2C82.1569 188.779 82.4876 187.007 82.4876 186.504C82.4876 184.643 76.9156 186.331 75.5149 186.331C74.5279 186.331 74.7017 185.972 74.7017 185.085C74.7017 183.834 73.9274 184.151 72.8677 184.151C70.3599 184.151 68.3565 183.999 65.9469 183.597C64.9102 183.424 63.9157 183.272 62.8672 183.217C62.2929 183.186 62.5557 181.726 62.5557 181.331C62.5557 180.904 62.8374 178.861 62.4173 178.614C61.8704 178.293 60.3316 177.982 59.7009 177.94C59.0242 177.894 56.7077 178.095 56.7077 176.919C56.7077 175.524 57.7222 173.9 57.9534 172.455C58.3173 170.181 55.3816 172.614 55.9118 169.963C56.4276 167.384 58.7208 165.059 58.8185 162.42C58.8516 161.526 59.4414 160.818 59.4414 159.876C59.4414 158.191 60.2163 157.508 61.4138 156.329C63.2843 154.489 65.2701 152.384 67.8502 152.384C68.54 152.384 69.7167 152.158 70.3416 152.454C70.9904 152.761 70.3117 153.516 69.8745 153.613C69.3529 153.729 68.9418 152.951 68.5595 152.696C67.3353 151.88 65.5946 152.073 64.1821 152.073C62.003 152.073 59.9478 153.326 57.9534 154.115C57.1021 154.451 52.924 153.341 52.5206 152.696C51.6105 151.24 51.9669 149.22 51.9669 147.419C51.9669 145.943 51.0525 146.779 49.9426 146.779C48.1168 146.779 50.9177 144.317 51.7247 144.287C53.2662 144.23 54.5292 144.529 55.981 145.031C57.3347 145.5 58.8292 145.264 60.2373 145.706C61.7638 146.185 63.6303 146.79 65.1857 147.073C65.5074 147.131 66.6656 147.09 66.5006 147.09C64.0183 147.09 61.5031 146.764 59.0434 146.45C57.803 146.292 52.3508 145.862 52.2784 143.907C52.2292 142.579 52.5151 140.418 51.0153 142.574C49.9939 144.043 49.4754 144.571 49.4754 146.363C49.4754 148.017 49.6417 150.059 50.7904 151.208C52.2289 152.646 54.84 152.726 56.8807 153.007C59.6363 153.387 62.1966 153.513 64.9607 153.648C66.3903 153.717 68.3279 153.716 69.4938 154.703C70.5323 155.582 69.4449 159.091 69.0267 160.067C68.1552 162.1 67.5387 163.351 67.5387 165.465" stroke="#3D2D31" stroke-opacity="0.21" stroke-width="9" stroke-linecap="round"/>
<path d="M164.708 132.14C164.06 132.366 163.546 133.937 162.147 135.082C161.951 135.242 160.829 136.608 161.42 136.016C161.847 135.59 162.009 134.278 162.147 133.698C162.611 131.74 161.005 131.787 159.794 132.971C159.577 133.183 157.891 135.075 157.891 135.047C157.891 134.218 159.188 132.813 159.552 132.054C160.334 130.418 160.346 134.925 160.815 135.238C161.67 135.808 162.017 137.073 163.012 137.435C164.161 137.853 165.218 137.651 166.403 137.764C167.921 137.908 167.549 139.926 169.068 139.926" stroke="#3D2D31" stroke-opacity="0.21" stroke-width="9" stroke-linecap="round"/>
<path d="M49.4766 144.909C51.1887 144.312 52.8613 143.627 54.5633 143.006C54.7349 142.944 56.8122 142.135 56.0859 143.248C55.5089 144.133 54.2078 145.02 54.1481 146.155C54.0581 147.866 58.9404 142.615 57.5566 145.844C56.9545 147.249 56.0529 148.483 55.2208 149.754C53.9761 151.656 55.6476 150.249 56.5704 149.719C57.256 149.326 58.0188 148.958 58.8196 148.958C59.9965 148.958 59.4335 151.835 59.2349 152.54C58.7608 154.22 57.7967 155.79 57.1933 157.436C56.9114 158.205 57.426 157.385 57.7123 157.073C59.5615 155.055 58.6304 159.448 58.439 160.066C57.9994 161.486 57.465 163.031 57.2798 164.513C57.1788 165.321 57.7192 165.021 58.1795 165.482C59.3876 166.69 58.7951 169.32 59.7539 170.759" stroke="#3D2D31" stroke-opacity="0.34" stroke-width="2" stroke-linecap="round"/>
<path d="M105.224 167.645C104.987 167.886 98.7753 175.568 99.2029 175.69C100.11 175.949 102.527 172.522 103.148 171.901C104.268 170.78 101.507 174.342 101.262 174.756C99.2577 178.128 97.0941 181.407 95.0504 184.756C94.2275 186.105 93.5825 187.224 94.3756 184.895C95.2658 182.28 97.3644 179.961 98.6665 177.507C100.079 174.844 99.1141 176.855 98.1475 178.199C97.6866 178.84 92.4261 187.717 92.9742 187.819C94.2714 188.059 98.3183 181.849 98.3724 184.393C98.3928 185.35 97.757 193.494 98.1302 193.494C99.0162 193.494 99.0488 192.807 99.6874 192.629C100.822 192.311 101.091 195.045 101.245 195.605C101.856 197.83 102.147 198.477 104.428 198.477C104.928 198.477 105.55 198.449 105.83 198.961C105.98 199.237 106.428 201.223 105.795 200.709C104.952 200.023 104.515 198.812 103.978 197.906C103.348 196.843 102.52 195.991 101.798 194.999C100.64 193.406 99.5199 191.755 98.7011 189.964C98.1181 188.689 97.7495 187.787 97.7495 186.348C97.7495 185.874 98.0079 184.482 97.5938 184.151C96.0734 182.934 95.5908 183.541 94.0123 184.704C93.8016 184.86 92.6235 186.082 92.4551 185.95C91.9794 185.576 92.8851 184.092 93.0088 183.597C93.1732 182.939 90.4891 184.905 90.3443 185.016C89.5023 185.658 87.7641 187.334 86.6763 187.438C86.4262 187.462 85.4207 186.954 84.9114 186.954C84.0002 186.954 83.089 186.954 82.1777 186.954" stroke="#3D2D31" stroke-opacity="0.34" stroke-width="2" stroke-linecap="round"/>
<path d="M59.4422 158.924C57.2043 161.812 60.6089 159.214 61.7434 158.474C62.0344 158.284 62.8941 157.288 62.6777 158.197C62.2732 159.896 61.2368 161.448 60.3246 162.904C58.8832 165.203 57.5987 167.585 56.2932 169.963C55.7928 170.874 55.2238 171.58 56.0164 170.205C57.0429 168.424 58.2521 166.571 59.7536 165.153C60.2706 164.665 60.0651 165.884 60.0651 166.122C60.0651 167.755 59.5024 169.038 58.9923 170.568C58.3885 172.38 57.5892 174.03 59.5806 171.849C59.9702 171.422 61.6922 168.921 62.1759 170.759C62.5752 172.276 62.2451 174.161 62.2451 175.742" stroke="#3D2D31" stroke-opacity="0.34" stroke-width="2" stroke-linecap="round"/>
<path d="M128.893 158.301C132.987 157.116 136.845 156.739 141.073 156.502C141.625 156.471 142.533 156.22 142.077 157.021C140.961 158.982 139.029 160.604 137.474 162.177C137.079 162.577 129.323 169.478 129.896 170.378C130.16 170.792 134.312 170.826 134.862 170.897C138.05 171.31 141.357 171.07 144.568 171.07C146.344 171.07 146.546 171.581 145.658 173.267C143.999 176.419 142.504 178.396 143.219 181.97" stroke="#3D2D31" stroke-opacity="0.34" stroke-width="2" stroke-linecap="round"/>
<path d="M162.217 151.761C168.581 151.761 166.355 154.919 164.535 158.612C163.822 160.06 163.884 160.481 165.331 160.481C167.774 160.481 166.177 163.807 165.504 165.152C163.842 168.478 161.794 172.262 159.414 175.118" stroke="#3D2D31" stroke-opacity="0.34" stroke-width="2" stroke-linecap="round"/>
<path d="M130.138 186.953C128.775 189.224 128.07 191.467 131.28 192.075C132.74 192.351 134.265 192.248 135.744 192.248" stroke="#3D2D31" stroke-opacity="0.34" stroke-width="2" stroke-linecap="round"/>
<path d="M86.2249 154.564C83.6816 155.787 80.0103 156.937 77.7297 158.717C77.1557 159.165 79.0963 159.299 79.8232 159.34C81.5378 159.436 83.2234 158.925 84.9446 158.925C88.6782 158.925 81.7572 167.261 81.1727 168.008C79.8482 169.702 77.7476 171.543 77.8162 173.873C77.8737 175.831 81.7565 176.026 83.1106 176.365" stroke="#3D2D31" stroke-opacity="0.34" stroke-width="2" stroke-linecap="round"/>
<path d="M174.052 121.864C175.69 121.739 178.285 120.806 179.329 122.504C180.715 124.755 179.699 128.031 178.118 129.892C176.482 131.816 174.4 133.533 172.391 135.048C171.785 135.505 171.051 136.139 172.253 136.432C175.428 137.206 173.159 139.429 171.595 141.294C169.453 143.848 170.843 143.736 173.429 144.598" stroke="#3D2D31" stroke-opacity="0.34" stroke-width="2" stroke-linecap="round"/>
<path d="M127.024 201.902C126.785 202.098 120.198 206.814 121.764 207.162C123.212 207.484 124.991 207.197 126.47 207.197C127.569 207.197 130.674 206.736 129.134 208.754C127.648 210.701 123.912 212.797 124.221 215.675C124.455 217.863 132.446 215.319 133.875 214.983" stroke="#3D2D31" stroke-opacity="0.34" stroke-width="2" stroke-linecap="round"/>
<path d="M158.479 176.365C162.27 175.947 166.091 175.36 169.898 175.085C171.031 175.003 171.952 175.269 172.078 176.555C172.311 178.95 169.704 181.096 168.168 182.542C167.879 182.814 165.421 184.819 166.161 184.705C167.017 184.573 167.749 184.462 168.617 184.462C176.366 184.462 164.14 197.777 163.773 200.346" stroke="#1D1D1D" stroke-width="2" stroke-linecap="round"/>
<path d="M125.467 186.331C121.124 186.967 116.751 187.237 112.941 189.618C110.511 191.137 106.277 193.543 105.12 196.384C103.611 200.088 110.583 201.418 112.768 201.713C116.391 202.201 120.021 202.214 123.668 202.214C124.307 202.214 126.501 201.837 127.094 202.232C127.607 202.574 125.9 202.545 125.294 202.664C123.103 203.094 120.962 203.804 118.737 204.048C115.832 204.367 112.417 204.193 109.722 205.502C107.833 206.419 111.906 209.212 112.56 209.516C117.413 211.768 123.089 212.667 128.409 212.249C129.907 212.132 130.93 211.179 132.319 210.623" stroke="#1D1D1D" stroke-width="2" stroke-linecap="round"/>
<path d="M100.241 174.496C98.0424 172.874 95.6698 170.575 92.7666 170.447C90.4883 170.347 87.9796 170.856 85.8804 171.727C83.3031 172.798 88.0399 174.035 88.9083 174.184C91.6334 174.651 94.3887 175.013 97.1267 175.395C98.77 175.625 100.9 175.54 102.49 176.07C102.682 176.134 99.7652 176.636 99.6528 176.641C97.1471 176.754 94.6174 176.698 92.1092 176.676C90.7174 176.663 87.8875 175.612 86.8667 177.143C85.577 179.077 84.4218 182.482 86.1227 184.462C88.0206 186.671 91.0476 186.33 93.6663 186.33C95.8024 186.33 94.8342 186.513 93.3895 186.624C91.2835 186.786 89.088 187.157 86.9878 187.507C83.4622 188.094 83.4457 190.75 83.7696 193.909C83.9384 195.555 85.0868 197.024 86.7109 197.369C89.9792 198.062 93.8025 197.542 97.1267 197.542" stroke="#1D1D1D" stroke-width="2" stroke-linecap="round"/>
<path d="M69.4084 161.728C66.7449 162.133 63.9874 162.416 61.3629 163.06C60.3454 163.309 61.7067 163.285 61.9166 163.285C62.2424 163.285 63.6824 163.24 62.5914 163.596C60.6571 164.228 59.0873 163.611 59.5116 166.157C59.719 167.401 59.9286 168.721 59.5808 169.963C59.1536 171.489 58.1145 170.564 57.1586 170.032C53.9548 168.253 56.4107 172.776 57.5565 173.787C58.8504 174.929 59.481 174.874 56.9855 174.427C53.9594 173.885 50.9466 173.253 47.902 172.818C46.2268 172.579 45.1623 172.661 45.497 174.669C46.0238 177.83 48.7716 181.172 50.7914 183.528C53.8283 187.071 57.9912 189.834 62.2107 191.764C64.4698 192.797 67.165 194.117 69.7198 194.117C70.7204 194.117 70.3427 192.711 70.3427 191.937" stroke="#1D1D1D" stroke-width="2" stroke-linecap="round"/>
<path d="M169.069 132.141C173.267 132.141 177.467 132.105 181.665 132.141C182.315 132.146 183.881 131.935 183.983 132.937C184.278 135.807 180.085 138.236 178.066 139.442C176.43 140.419 174.66 141.257 173.118 142.383C172.383 142.92 173.73 142.729 173.983 142.729C176.312 142.729 179.266 142.239 181.18 143.854C183.214 145.57 183.923 150.372 181.578 152.055C178.163 154.508 172.695 155.364 168.636 155.931C164.844 156.461 161.051 156.433 157.234 156.433" stroke="#1D1D1D" stroke-width="2" stroke-linecap="round"/>
<path d="M59.7535 142.418C57.4862 142.418 45.8812 140.994 45.635 143.11C45.4131 145.019 51.2716 146.426 52.5904 147.159C52.997 147.385 48.8893 148.549 48.4034 148.785C47.9744 148.994 46.8099 149.2 46.6905 149.737C46.4057 151.018 49.1991 152.192 49.9605 152.557C54.5314 154.75 69.7368 156.433 64.6672 156.433C62.3292 156.433 57.833 156.766 57.8849 159.928C57.9389 163.224 62.6949 163.799 65.1517 164.15C66.26 164.308 67.4475 164.842 68.4737 164.842" stroke="#1D1D1D" stroke-width="2" stroke-linecap="round"/>
<path d="M91.832 157.99C94.9762 158.506 98.3305 158.479 101.487 158.596C105.795 158.756 110.18 159.056 114.498 158.907C116.742 158.83 117.727 158.661 115.19 160.447C114.554 160.895 106.7 164.919 109.272 165.776" stroke="#1D1D1D" stroke-width="2" stroke-linecap="round"/>
<path d="M161.282 83.8679C162.332 83.8679 164.916 83.5579 165.261 85.1137C165.532 86.3313 163.401 87.4534 162.597 87.9166C160.188 89.3045 162.826 89.1081 164.362 89.4738C165.83 89.8234 166.888 90.196 166.888 91.8096C166.888 95.0066 162.495 96.1023 160.071 96.4811C159.727 96.5349 157.605 96.5206 158.86 96.879C160.085 97.2292 161.269 97.0991 162.528 97.5711" stroke="#1D1D1D" stroke-width="2" stroke-linecap="round"/>
<path d="M20.5801 71.4453C20.8789 73.9855 23.9768 72.7446 23.9768 74.6104C23.9768 76.8522 22.5762 77.6395 24.7487 79.0878" stroke="#1D1D1D" stroke-width="2" stroke-linecap="round"/>
<path d="M172.039 70.0561C172.177 67.7143 172.734 65.5697 172.734 63.1084" stroke="#1D1D1D" stroke-width="2" stroke-linecap="round"/>
<path d="M171.345 65.1924C171.571 68.3519 173.802 72.8349 169.299 72.8349C167.635 72.8349 167.904 73.425 169.299 74.1858C171.369 75.3147 172.184 76.541 173.429 78.5475C176.155 82.9383 170.564 81.867 167.871 81.867" stroke="#1D1D1D" stroke-width="2" stroke-linecap="round"/>
<path d="M50.9426 78.1494C49.9502 78.1494 48.506 78.4108 47.5173 78.0669C46.5833 77.742 49.279 77.778 49.622 77.778C50.2484 77.778 54.2337 78.0394 54.2027 78.0669C53.4166 78.7657 49.8481 78.1494 48.7141 78.1494C47.0304 78.1494 45.3714 78.3854 45.3714 76.2099C45.3714 73.4215 47.1987 74.0639 49.4776 74.0639C51.1495 74.0639 54.3353 73.6845 55.317 75.5496C56.8096 78.3855 46.65 77.4066 45 77.4066" stroke="#2D2D2D" stroke-width="5" stroke-linecap="round"/>
<path d="M141.971 76.3447C140.246 76.2939 137.913 74.4876 140.671 74.4876C142.191 74.4876 143.711 74.4876 145.231 74.4876C146.24 74.4876 147.759 74.1557 148.45 75.0447C149.207 76.017 148.766 77.4589 147.625 77.4589C145.459 77.4589 139 78.6052 139 75.2304C139 72.8497 139.379 73.002 141.621 73.002C143.099 73.002 144.578 73.002 146.057 73.002" stroke="#2D2D2D" stroke-width="5" stroke-linecap="round"/>
</svg>
