<svg width="46" height="46" viewBox="0 0 46 46" fill="none" xmlns="http://www.w3.org/2000/svg">
<g clip-path="url(#clip0_1713_9345)">
<path fill-rule="evenodd" clip-rule="evenodd" d="M11.7396 4.19922C9.6659 4.19922 7.98482 5.8803 7.98482 7.95402V9.83142C6.94797 9.83142 6.10742 10.672 6.10742 11.7088C6.10742 12.7457 6.94797 13.5862 7.98482 13.5862V17.341C6.94797 17.341 6.10742 18.1816 6.10742 19.2184C6.10742 20.2553 6.94797 21.0958 7.98482 21.0958V24.8506C6.94797 24.8506 6.10742 25.6911 6.10742 26.728C6.10742 27.7649 6.94797 28.6054 7.98482 28.6054V32.3602C6.94797 32.3602 6.10742 33.2007 6.10742 34.2376C6.10742 35.2745 6.94797 36.115 7.98482 36.115V37.9924C7.98482 40.0662 9.6659 41.7472 11.7396 41.7472H34.2684C36.3422 41.7472 38.0232 40.0662 38.0232 37.9924V7.95402C38.0232 5.8803 36.3422 4.19922 34.2684 4.19922H11.7396ZM16.4331 11.7088C14.8778 11.7088 13.617 12.9696 13.617 14.5249V16.4023C13.617 17.9576 14.8778 19.2184 16.4331 19.2184H29.5749C31.1302 19.2184 32.391 17.9576 32.391 16.4023V14.5249C32.391 12.9696 31.1302 11.7088 29.5749 11.7088H16.4331Z" fill="#EAEAEA"/>
</g>
<defs>
<clipPath id="clip0_1713_9345">
<rect x="0.475098" y="0.444824" width="45.0576" height="45.0576" rx="6.08886" fill="white"/>
</clipPath>
</defs>
</svg>
