<svg width="48" height="39" viewBox="0 0 48 39" fill="none" xmlns="http://www.w3.org/2000/svg">
<g clip-path="url(#clip0_1713_9333)">
<path d="M24.0487 17.0863C27.9809 17.0863 31.1686 13.8986 31.1686 9.96639C31.1686 6.03415 27.9809 2.84644 24.0487 2.84644C20.1164 2.84644 16.9287 6.03415 16.9287 9.96639C16.9287 13.8986 20.1164 17.0863 24.0487 17.0863Z" stroke="#EAEAEA" stroke-width="4.74663" stroke-linecap="round"/>
<path d="M31.8043 9.96586C32.4339 8.87563 33.4706 8.08009 34.6867 7.75429C35.9025 7.42845 37.1981 7.59902 38.2884 8.22847C39.3787 8.85793 40.1743 9.89466 40.5001 11.1107C40.8257 12.3266 40.6553 13.6223 40.0259 14.7125C39.3963 15.8028 38.3596 16.5983 37.1435 16.9242C35.9277 17.2498 34.6321 17.0794 33.5418 16.45C32.4515 15.8204 31.656 14.7837 31.3301 13.5677C31.0045 12.3517 31.1749 11.0561 31.8043 9.96586Z" stroke="#EAEAEA" stroke-width="4.74663"/>
<path d="M8.07149 9.96586C8.70094 8.87563 9.73768 8.08009 10.9537 7.75429C12.1697 7.42845 13.4653 7.59902 14.5555 8.22847C15.6457 8.85793 16.4413 9.89466 16.7671 11.1107C17.0929 12.3266 16.9223 13.6223 16.2929 14.7125C15.6634 15.8028 14.6267 16.5983 13.4107 16.9242C12.1947 17.2498 10.8991 17.0794 9.80888 16.45C8.71865 15.8204 7.92311 14.7837 7.5973 13.5677C7.27147 12.3517 7.44204 11.0561 8.07149 9.96586Z" stroke="#EAEAEA" stroke-width="4.74663"/>
<path d="M35.634 33.6991L33.3074 34.1676L33.691 36.0724H35.634V33.6991ZM30.6481 25.8921L29.2128 24.0022L26.4678 26.0872L29.3948 27.9075L30.6481 25.8921ZM42.7198 31.3258H35.634V36.0724H42.7198V31.3258ZM42.5074 31.8916C42.4907 31.8446 42.4753 31.7554 42.495 31.6471C42.5138 31.5444 42.556 31.4665 42.5961 31.4167C42.6728 31.3215 42.7359 31.3258 42.7198 31.3258V36.0724C45.4396 36.0724 48.1172 33.5078 46.9811 30.305L42.5074 31.8916ZM35.915 26.5792C39.811 26.5792 41.6174 29.3823 42.5074 31.8916L46.9811 30.305C45.8772 27.1934 42.9127 21.8325 35.915 21.8325V26.5792ZM32.0838 27.7822C32.9963 27.0889 34.211 26.5792 35.915 26.5792V21.8325C33.1574 21.8325 30.9377 22.6921 29.2128 24.0022L32.0838 27.7822ZM29.3948 27.9075C31.8609 29.4414 32.894 32.1147 33.3074 34.1676L37.9606 33.2306C37.4434 30.6622 36.0038 26.4282 31.9017 23.8769L29.3948 27.9075Z" fill="#EAEAEA"/>
<path d="M17.4489 25.8921L18.7023 27.9075L21.6293 26.0872L18.8844 24.0022L17.4489 25.8921ZM12.4629 33.6991V36.0724H14.4059L14.7896 34.1676L12.4629 33.6991ZM12.1821 26.5792C13.8862 26.5792 15.1009 27.0889 16.0134 27.7822L18.8844 24.0022C17.1595 22.6919 14.9396 21.8325 12.1821 21.8325V26.5792ZM5.58963 31.8916C6.47974 29.3823 8.28607 26.5792 12.1821 26.5792V21.8325C5.18434 21.8325 2.21978 27.1931 1.11607 30.305L5.58963 31.8916ZM5.37724 31.3258C5.36115 31.3258 5.42438 31.3215 5.50084 31.4167C5.54095 31.4665 5.58332 31.5444 5.60199 31.6471C5.62174 31.7554 5.60634 31.8446 5.58963 31.8916L1.11607 30.305C-0.0200132 33.5078 2.6574 36.0724 5.37724 36.0724V31.3258ZM12.4629 31.3258H5.37724V36.0724H12.4629V31.3258ZM14.7896 34.1676C15.203 32.1147 16.236 29.4414 18.7023 27.9075L16.1955 23.8769C12.0932 26.428 10.6536 30.662 10.1364 33.2306L14.7896 34.1676Z" fill="#EAEAEA"/>
<path d="M24.049 24.2063C32.5253 24.2063 34.947 30.2611 35.6388 33.7207C35.8959 35.0058 34.853 36.0729 33.5422 36.0729H14.5557C13.245 36.0729 12.2021 35.0058 12.4591 33.7207C13.1509 30.2611 15.5726 24.2063 24.049 24.2063Z" stroke="#EAEAEA" stroke-width="4.74663" stroke-linecap="round"/>
</g>
<defs>
<clipPath id="clip0_1713_9333">
<rect width="47.9184" height="38.8772" fill="white" transform="translate(0.0898438 0.020752)"/>
</clipPath>
</defs>
</svg>
