<svg width="42" height="44" viewBox="0 0 42 44" fill="none" xmlns="http://www.w3.org/2000/svg">
<g clip-path="url(#clip0_1713_9353)">
<path d="M17.9636 5.48559H9.67909C7.23711 5.48559 6.0161 5.48559 5.08339 5.96084C4.26294 6.37888 3.59591 7.04592 3.17789 7.86635C2.70264 8.79908 2.70264 10.0201 2.70264 12.462V33.3914C2.70264 35.8334 2.70264 37.0545 3.17789 37.9871C3.59591 38.8075 4.26294 39.4746 5.08339 39.8926C6.0161 40.3678 7.23711 40.3678 9.67909 40.3678H30.6084C33.0504 40.3678 34.2715 40.3678 35.2042 39.8926C36.0246 39.4746 36.6917 38.8075 37.1096 37.9871C37.5849 37.0545 37.5849 35.8334 37.5849 33.3914V24.0168M27.7743 8.75581L33.9406 14.9222M17.4463 19.0838L31.9405 4.5896C33.6432 2.8868 36.4041 2.8868 38.1068 4.5896C39.8097 6.2924 39.8097 9.05318 38.1068 10.756L23.1467 25.716C21.4863 27.3766 20.6561 28.2068 19.7104 28.867C18.871 29.4532 17.9656 29.9385 17.0131 30.3135C15.9398 30.736 14.7889 30.9682 12.487 31.4328L11.4232 31.6473L11.5266 30.923C11.8927 28.3607 12.0758 27.0795 12.4921 25.8832C12.8615 24.8217 13.3663 23.8125 13.9937 22.8801C14.7008 21.8292 15.616 20.914 17.4463 19.0838Z" stroke="#EAEAEA" stroke-width="4.71382" stroke-linecap="round" stroke-linejoin="round"/>
</g>
<defs>
<clipPath id="clip0_1713_9353">
<rect x="0.26709" y="0.535889" width="41.4816" height="42.7386" rx="7.07073" fill="white"/>
</clipPath>
</defs>
</svg>
