<svg width="257" height="226" viewBox="0 0 257 226" fill="none" xmlns="http://www.w3.org/2000/svg">
<path d="M153.51 87.4488L71.2127 113.746C56.9778 118.295 49.4883 134.657 54.4844 150.292L60.0391 167.675C65.0351 183.311 80.6249 192.298 94.8597 187.749L177.157 161.452C191.392 156.903 198.881 140.541 193.885 124.906L188.331 107.523C183.335 91.8876 167.745 82.9002 153.51 87.4488Z" fill="url(#paint0_linear_1713_9328)"/>
<path d="M153.589 87.6974L71.2918 113.995C57.1818 118.504 49.758 134.722 54.7102 150.22L60.2649 167.603C65.2171 183.101 80.6701 192.01 94.7801 187.501L177.077 161.204C191.187 156.695 198.611 140.477 193.659 124.979L188.104 107.595C183.152 92.0973 167.699 83.1887 153.589 87.6974Z" fill="url(#paint1_linear_1713_9328)" stroke="black" stroke-width="3.21911"/>
<path d="M202.992 68.6031C202.422 66.8202 200.644 65.7953 199.021 66.314C197.398 66.8327 196.544 68.6985 197.114 70.4815L217.428 134.055C217.998 135.838 219.775 136.862 221.399 136.344C223.022 135.825 223.876 133.959 223.306 132.176L202.992 68.6031Z" fill="url(#paint2_linear_1713_9328)"/>
<path d="M91.371 36.4555C91.593 36.1924 91.9339 36.0835 92.2673 36.1691L201.344 64.0973C202.073 64.2846 202.381 65.2471 201.895 65.8227L129.225 151.827C129.003 152.09 128.662 152.199 128.328 152.113L19.2519 124.185C18.5223 123.997 18.2147 123.035 18.7006 122.459L91.371 36.4555Z" fill="url(#paint3_linear_1713_9328)"/>
<path d="M91.7326 36.8148C91.8441 36.6834 92.0141 36.6291 92.1811 36.6715L201.257 64.6003C201.622 64.6935 201.776 65.1752 201.533 65.4626L128.863 151.467C128.751 151.598 128.581 151.652 128.414 151.61L19.3382 123.681C18.9736 123.588 18.8196 123.106 19.0625 122.818L91.7326 36.8148Z" stroke="black" stroke-width="6.43822"/>
<circle cx="223.644" cy="142.933" r="12.8764" transform="rotate(-17.7208 223.644 142.933)" fill="#FBCB4E"/>
<circle cx="223.644" cy="142.933" r="11.2669" transform="rotate(-17.7208 223.644 142.933)" stroke="black" stroke-opacity="0.08" stroke-width="3.21911"/>
<circle cx="223.644" cy="142.933" r="11.2669" transform="rotate(-17.7208 223.644 142.933)" stroke="black" stroke-opacity="0.08" stroke-width="3.21911"/>
<path d="M228.543 158.264L231.483 167.463" stroke="#FBCB4E" stroke-width="3.21911"/>
<path d="M238.977 138.033L248.176 135.094" stroke="#FBCB4E" stroke-width="3.21911"/>
<path d="M208.312 147.832L199.113 150.771" stroke="#FBCB4E" stroke-width="3.21911"/>
<path d="M215.298 159.117L211.125 167.21" stroke="#FBCB4E" stroke-width="3.21911"/>
<path d="M239.829 151.279L247.921 155.452" stroke="#FBCB4E" stroke-width="3.21911"/>
<path d="M231.99 126.748L236.163 118.655" stroke="#FBCB4E" stroke-width="3.21911"/>
<path d="M207.46 134.586L199.367 130.413" stroke="#FBCB4E" stroke-width="3.21911"/>
<path d="M83.252 163.523C83.0855 163.002 83.1579 162.434 83.4498 161.972L84.9273 159.63C86.9471 156.429 90.9752 155.141 94.4772 156.578L97.0388 157.629C97.5449 157.837 97.9332 158.258 98.0997 158.779C98.4729 159.947 97.6284 161.148 96.4031 161.193L92.5712 161.332C91.3831 161.375 90.2296 161.744 89.2366 162.398L86.0341 164.506C85.01 165.181 83.6252 164.691 83.252 163.523Z" fill="#080707" stroke="black" stroke-width="1.73192"/>
<path d="M157.49 139.801C157.324 139.28 157.396 138.712 157.688 138.249L159.166 135.908C161.185 132.706 165.214 131.419 168.715 132.856L171.277 133.907C171.783 134.115 172.171 134.536 172.338 135.057C172.711 136.225 171.867 137.426 170.641 137.471L166.81 137.61C165.621 137.653 164.468 138.021 163.475 138.675L160.272 140.784C159.248 141.458 157.864 140.969 157.49 139.801Z" fill="#080707" stroke="black" stroke-width="1.73192"/>
<defs>
<linearGradient id="paint0_linear_1713_9328" x1="112.361" y1="100.597" x2="136.008" y2="174.601" gradientUnits="userSpaceOnUse">
<stop stop-color="#3085AA"/>
<stop offset="1" stop-color="#1B4469"/>
</linearGradient>
<linearGradient id="paint1_linear_1713_9328" x1="112.44" y1="100.846" x2="135.929" y2="174.353" gradientUnits="userSpaceOnUse">
<stop stop-color="#3085AA"/>
<stop offset="1" stop-color="#1B4469"/>
</linearGradient>
<linearGradient id="paint2_linear_1713_9328" x1="199.021" y1="66.314" x2="221.399" y2="136.344" gradientUnits="userSpaceOnUse">
<stop stop-color="#145377"/>
<stop offset="1" stop-color="#733A37"/>
</linearGradient>
<linearGradient id="paint3_linear_1713_9328" x1="87.9204" y1="24.1112" x2="128.866" y2="152.251" gradientUnits="userSpaceOnUse">
<stop stop-color="#FF3030"/>
<stop offset="1" stop-color="#1B4469"/>
</linearGradient>
</defs>
</svg>
