<svg width="179" height="140" viewBox="0 0 179 140" fill="none" xmlns="http://www.w3.org/2000/svg">
<path fill-rule="evenodd" clip-rule="evenodd" d="M25.4429 66.641C22.4941 71.2155 20.7869 76.7604 20.7869 82.642V97.4999C20.7869 112.563 31.9854 125.418 46.5572 125.418H116.899C131.47 125.418 142.669 112.563 142.669 97.4999V82.642C142.669 76.6115 140.874 70.9349 137.787 66.2954L131.129 70.4688C133.416 73.7992 134.802 77.9878 134.802 82.642V97.4999C134.802 108.929 126.447 117.551 116.899 117.551H46.5572C37.0088 117.551 28.6541 108.929 28.6541 97.4999V82.642C28.6541 78.1462 29.9467 74.0849 32.0962 70.8118L25.4429 66.641Z" fill="#F9F9F9"/>
<path d="M81.534 3.86748C81.653 3.7932 81.7984 3.7932 81.9174 3.86748L159.589 52.5581C159.848 52.7206 159.848 53.1324 159.589 53.295L81.9174 101.986C81.7984 102.06 81.653 102.06 81.534 101.986L3.86276 53.295C3.60304 53.1324 3.60304 52.7206 3.86276 52.5576L81.534 3.86748Z" stroke="#F9F9F9" stroke-width="7.152"/>
<path d="M46.8566 103.757C49.4181 103.757 51.4945 101.856 51.4945 99.512C51.4945 97.1674 49.4181 95.2668 46.8566 95.2668C44.2952 95.2668 42.2188 97.1674 42.2188 99.512C42.2188 101.856 44.2952 103.757 46.8566 103.757Z" fill="#F9F9F9"/>
<path d="M117.62 103.757C120.182 103.757 122.258 101.856 122.258 99.512C122.258 97.1674 120.182 95.2668 117.62 95.2668C115.059 95.2668 112.982 97.1674 112.982 99.512C112.982 101.856 115.059 103.757 117.62 103.757Z" fill="#F9F9F9"/>
<circle cx="157.537" cy="118.855" r="7.98038" stroke="#F9F9F9" stroke-width="5.0064"/>
<circle cx="157.537" cy="118.855" r="7.98038" stroke="#F9F9F9" stroke-width="5.0064"/>
<path d="M157.538 131.959V139.822" stroke="#F9F9F9" stroke-width="5.0064"/>
<path d="M170.643 118.855H178.505" stroke="#F9F9F9" stroke-width="5.0064"/>
<path d="M144.433 118.855H136.571" stroke="#F9F9F9" stroke-width="5.0064"/>
<path d="M147.054 129.338L141.812 134.58" stroke="#F9F9F9" stroke-width="5.0064"/>
<path d="M168.021 129.338L173.263 134.58" stroke="#F9F9F9" stroke-width="5.0064"/>
<path d="M168.021 108.371L173.263 103.13" stroke="#F9F9F9" stroke-width="5.0064"/>
<path d="M147.054 108.371L141.812 103.13" stroke="#F9F9F9" stroke-width="5.0064"/>
<line x1="158.481" y1="54.4946" x2="158.481" y2="109.533" stroke="#F9F9F9" stroke-width="5.7216"/>
</svg>
