<svg width="196" height="222" viewBox="0 0 196 222" fill="none" xmlns="http://www.w3.org/2000/svg">
<path d="M74.5604 0C12.9512 0 -37 49.6812 -37 110.957C-37 172.234 12.9512 221.915 74.5604 221.915C136.17 221.915 186.121 172.234 186.121 110.957C186.121 90.8059 180.636 71.9664 171.195 55.6774L66.6255 159.664C64.8871 161.393 62.5254 162.373 60.0525 162.373C57.5889 162.373 55.2179 161.402 53.4794 159.664L12.0801 118.488C8.44504 114.873 8.44504 109.029 12.0801 105.413C15.7151 101.798 21.5912 101.798 25.2262 105.413L60.0525 140.051L160.464 40.1823C140.002 15.633 109.126 0 74.5604 0ZM160.464 40.1823C164.477 44.9958 168.027 50.2087 171.195 55.6593L192.694 34.2769C196.329 30.6523 196.329 24.8172 192.694 21.2018C189.059 17.5865 183.183 17.5865 179.548 21.2018L160.464 40.1823Z" fill="#263061" fill-opacity="0.3"/>
</svg>
