<svg width="574" height="210" viewBox="0 0 574 210" fill="none" xmlns="http://www.w3.org/2000/svg">
<path d="M310.32 106.488C313.31 106.488 315.971 107.199 318.305 108.621C320.638 110.043 322.333 111.921 323.391 114.254C323.518 114.509 323.582 114.783 323.582 115.074C323.582 115.603 323.391 116.059 323.008 116.441C322.625 116.824 322.169 117.016 321.641 117.016C321.294 117.016 320.939 116.906 320.574 116.687C320.228 116.451 319.982 116.168 319.836 115.84C319.089 114.163 317.858 112.841 316.145 111.875C314.449 110.891 312.508 110.398 310.32 110.398C309.154 110.398 307.941 110.544 306.684 110.836C305.444 111.109 304.286 111.529 303.211 112.094C302.154 112.659 301.297 113.379 300.641 114.254C299.984 115.111 299.656 116.113 299.656 117.262C299.656 118.592 300.094 119.677 300.969 120.516C301.844 121.336 302.956 121.983 304.305 122.457C305.672 122.913 307.094 123.268 308.57 123.523C310.065 123.76 311.423 123.961 312.645 124.125C314.103 124.326 315.552 124.635 316.992 125.055C318.451 125.456 319.772 126.03 320.957 126.777C322.142 127.507 323.09 128.454 323.801 129.621C324.53 130.788 324.895 132.219 324.895 133.914C324.895 135.773 324.448 137.396 323.555 138.781C322.661 140.148 321.486 141.288 320.027 142.199C318.587 143.092 317.01 143.767 315.297 144.223C313.602 144.66 311.943 144.879 310.32 144.879C306.948 144.879 303.913 144.113 301.215 142.582C298.517 141.051 296.594 138.964 295.445 136.32C295.336 136.029 295.281 135.764 295.281 135.527C295.281 134.999 295.473 134.543 295.855 134.16C296.238 133.777 296.694 133.586 297.223 133.586C297.587 133.586 297.943 133.704 298.289 133.941C298.654 134.178 298.9 134.461 299.027 134.789C299.884 136.74 301.315 138.271 303.32 139.383C305.344 140.495 307.677 141.051 310.32 141.051C311.487 141.051 312.69 140.914 313.93 140.641C315.188 140.349 316.354 139.921 317.43 139.355C318.505 138.772 319.371 138.034 320.027 137.141C320.702 136.229 321.039 135.154 321.039 133.914C321.039 132.456 320.565 131.335 319.617 130.551C318.688 129.749 317.539 129.165 316.172 128.801C314.805 128.418 313.456 128.145 312.125 127.98C310.339 127.725 308.488 127.406 306.574 127.023C304.678 126.641 302.91 126.085 301.27 125.355C299.629 124.626 298.298 123.615 297.277 122.32C296.257 121.008 295.746 119.312 295.746 117.234C295.746 115.484 296.184 113.944 297.059 112.613C297.934 111.264 299.082 110.143 300.504 109.25C301.944 108.339 303.521 107.655 305.234 107.199C306.948 106.725 308.643 106.488 310.32 106.488ZM345.429 116.223C347.379 116.223 349.129 116.788 350.679 117.918C352.246 119.048 353.614 120.242 354.78 121.5L355.026 118.055C355.026 117.526 355.172 117.079 355.464 116.715C355.755 116.332 356.166 116.141 356.694 116.141C357.223 116.141 357.669 116.332 358.034 116.715C358.417 117.079 358.608 117.526 358.608 118.055V142.773C358.608 143.302 358.417 143.758 358.034 144.141C357.669 144.505 357.223 144.688 356.694 144.688C356.166 144.688 355.71 144.505 355.327 144.141C354.962 143.758 354.78 143.302 354.78 142.773V139.656C353.577 140.969 352.146 142.154 350.487 143.211C348.847 144.268 347.115 144.797 345.292 144.797C343.414 144.797 341.673 144.414 340.069 143.648C338.465 142.865 337.061 141.807 335.858 140.477C334.655 139.146 333.716 137.633 333.042 135.937C332.386 134.224 332.058 132.428 332.058 130.551C332.058 128.691 332.386 126.905 333.042 125.191C333.716 123.46 334.655 121.928 335.858 120.598C337.08 119.249 338.502 118.182 340.124 117.398C341.746 116.615 343.515 116.223 345.429 116.223ZM354.917 130.387C354.917 128.618 354.489 126.978 353.632 125.465C352.793 123.934 351.654 122.694 350.214 121.746C348.792 120.798 347.206 120.324 345.456 120.324C343.688 120.324 342.102 120.807 340.698 121.773C339.294 122.74 338.183 124.007 337.362 125.574C336.56 127.124 336.159 128.783 336.159 130.551C336.159 132.301 336.56 133.951 337.362 135.5C338.164 137.049 339.249 138.307 340.616 139.273C342.002 140.221 343.56 140.695 345.292 140.695C347.042 140.695 348.646 140.212 350.104 139.246C351.563 138.262 352.729 136.986 353.604 135.418C354.479 133.832 354.917 132.155 354.917 130.387ZM379.443 144.797C377.529 144.797 375.806 144.286 374.275 143.266C372.744 142.245 371.459 141.206 370.42 140.148L370.283 142.773C370.283 143.339 370.101 143.822 369.736 144.223C369.39 144.624 368.934 144.824 368.369 144.824C367.804 144.824 367.321 144.624 366.92 144.223C366.519 143.822 366.318 143.339 366.318 142.773V108.348C366.318 107.783 366.519 107.299 366.92 106.898C367.321 106.497 367.804 106.297 368.369 106.297C368.934 106.297 369.417 106.497 369.818 106.898C370.219 107.299 370.42 107.783 370.42 108.348V120.707C371.532 119.54 372.826 118.51 374.303 117.617C375.779 116.724 377.411 116.277 379.197 116.277C381.093 116.277 382.825 116.678 384.392 117.48C385.978 118.283 387.355 119.367 388.521 120.734C389.688 122.083 390.59 123.624 391.228 125.355C391.866 127.087 392.185 128.883 392.185 130.742C392.185 133.203 391.638 135.509 390.545 137.66C389.451 139.793 387.947 141.516 386.033 142.828C384.119 144.141 381.922 144.797 379.443 144.797ZM379.361 140.695C381.093 140.695 382.606 140.24 383.9 139.328C385.213 138.398 386.224 137.186 386.935 135.691C387.664 134.178 388.029 132.556 388.029 130.824C388.029 129.074 387.664 127.406 386.935 125.82C386.206 124.216 385.185 122.913 383.873 121.91C382.56 120.889 381.02 120.379 379.252 120.379C377.429 120.379 375.852 120.862 374.521 121.828C373.209 122.776 372.197 124.007 371.486 125.52C370.793 127.033 370.447 128.646 370.447 130.359C370.447 132.073 370.803 133.723 371.513 135.309C372.224 136.895 373.245 138.189 374.576 139.191C375.925 140.194 377.52 140.695 379.361 140.695ZM401.727 112.066C400.943 112.066 400.251 111.784 399.649 111.219C399.066 110.654 398.774 109.97 398.774 109.168C398.774 108.366 399.066 107.682 399.649 107.117C400.251 106.552 400.943 106.27 401.727 106.27C402.529 106.27 403.222 106.552 403.805 107.117C404.389 107.682 404.68 108.366 404.68 109.168C404.68 109.97 404.389 110.654 403.805 111.219C403.222 111.784 402.529 112.066 401.727 112.066ZM399.731 118C399.731 117.526 399.95 117.116 400.387 116.77C400.825 116.405 401.235 116.223 401.618 116.223C402.256 116.223 402.785 116.414 403.204 116.797C403.623 117.18 403.833 117.681 403.833 118.301L403.887 142.828C403.887 143.393 403.687 143.876 403.286 144.277C402.885 144.678 402.402 144.879 401.837 144.879C401.271 144.879 400.788 144.669 400.387 144.25C399.986 143.849 399.786 143.366 399.786 142.801L399.731 118ZM424.558 144.824C422.079 144.824 419.882 144.168 417.968 142.855C416.054 141.543 414.55 139.82 413.457 137.687C412.363 135.536 411.816 133.23 411.816 130.77C411.816 128.91 412.135 127.115 412.773 125.383C413.411 123.651 414.313 122.111 415.48 120.762C416.647 119.395 418.023 118.31 419.609 117.508C421.195 116.706 422.927 116.305 424.804 116.305C426.591 116.305 428.222 116.751 429.699 117.645C431.175 118.538 432.47 119.568 433.582 120.734V108.375C433.582 107.81 433.782 107.327 434.183 106.926C434.584 106.525 435.067 106.324 435.632 106.324C436.216 106.324 436.699 106.525 437.082 106.926C437.483 107.327 437.683 107.81 437.683 108.375V142.801C437.683 143.366 437.483 143.849 437.082 144.25C436.681 144.651 436.197 144.852 435.632 144.852C435.067 144.852 434.602 144.651 434.238 144.25C433.891 143.849 433.718 143.366 433.718 142.801L433.582 140.176C432.543 141.233 431.257 142.272 429.726 143.293C428.195 144.314 426.472 144.824 424.558 144.824ZM424.64 140.723C426.5 140.723 428.095 140.221 429.425 139.219C430.756 138.216 431.777 136.922 432.488 135.336C433.199 133.75 433.554 132.1 433.554 130.387C433.554 128.673 433.199 127.06 432.488 125.547C431.795 124.034 430.793 122.803 429.48 121.855C428.168 120.889 426.591 120.406 424.75 120.406C422.981 120.406 421.441 120.917 420.128 121.937C418.816 122.94 417.795 124.243 417.066 125.848C416.337 127.434 415.972 129.102 415.972 130.852C415.972 132.583 416.328 134.206 417.039 135.719C417.768 137.214 418.78 138.426 420.074 139.355C421.386 140.267 422.908 140.723 424.64 140.723ZM458.463 116.195C460.377 116.195 462.164 116.578 463.823 117.344C465.482 118.109 466.931 119.167 468.17 120.516C469.428 121.846 470.403 123.368 471.096 125.082C471.807 126.796 472.163 128.609 472.163 130.523C472.163 133.057 471.561 135.409 470.358 137.578C469.155 139.747 467.523 141.507 465.463 142.855C463.422 144.186 461.125 144.861 458.573 144.879C455.984 144.879 453.651 144.214 451.573 142.883C449.495 141.552 447.845 139.802 446.623 137.633C445.42 135.445 444.819 133.076 444.819 130.523C444.819 128.628 445.165 126.823 445.858 125.109C446.569 123.378 447.544 121.846 448.784 120.516C450.023 119.167 451.463 118.109 453.104 117.344C454.763 116.578 456.549 116.195 458.463 116.195ZM458.463 120.297C456.677 120.297 455.064 120.771 453.623 121.719C452.183 122.667 451.035 123.915 450.178 125.465C449.34 126.996 448.92 128.664 448.92 130.469C448.92 132.292 449.34 133.987 450.178 135.555C451.017 137.122 452.165 138.389 453.623 139.355C455.082 140.303 456.722 140.777 458.545 140.777C460.35 140.759 461.963 140.276 463.385 139.328C464.825 138.362 465.965 137.104 466.803 135.555C467.642 134.005 468.061 132.328 468.061 130.523C468.061 128.719 467.633 127.042 466.776 125.492C465.937 123.924 464.789 122.667 463.331 121.719C461.89 120.771 460.268 120.297 458.463 120.297ZM494.337 106.488C497.327 106.488 499.988 107.199 502.322 108.621C504.655 110.043 506.35 111.921 507.408 114.254C507.535 114.509 507.599 114.783 507.599 115.074C507.599 115.603 507.408 116.059 507.025 116.441C506.642 116.824 506.186 117.016 505.658 117.016C505.311 117.016 504.956 116.906 504.591 116.687C504.245 116.451 503.999 116.168 503.853 115.84C503.105 114.163 501.875 112.841 500.161 111.875C498.466 110.891 496.525 110.398 494.337 110.398C493.171 110.398 491.958 110.544 490.701 110.836C489.461 111.109 488.303 111.529 487.228 112.094C486.171 112.659 485.314 113.379 484.658 114.254C484.001 115.111 483.673 116.113 483.673 117.262C483.673 118.592 484.111 119.677 484.986 120.516C485.861 121.336 486.973 121.983 488.322 122.457C489.689 122.913 491.111 123.268 492.587 123.523C494.082 123.76 495.44 123.961 496.661 124.125C498.12 124.326 499.569 124.635 501.009 125.055C502.467 125.456 503.789 126.03 504.974 126.777C506.159 127.507 507.107 128.454 507.818 129.621C508.547 130.788 508.911 132.219 508.911 133.914C508.911 135.773 508.465 137.396 507.572 138.781C506.678 140.148 505.503 141.288 504.044 142.199C502.604 143.092 501.027 143.767 499.314 144.223C497.618 144.66 495.96 144.879 494.337 144.879C490.965 144.879 487.93 144.113 485.232 142.582C482.534 141.051 480.611 138.964 479.462 136.32C479.353 136.029 479.298 135.764 479.298 135.527C479.298 134.999 479.49 134.543 479.872 134.16C480.255 133.777 480.711 133.586 481.24 133.586C481.604 133.586 481.96 133.704 482.306 133.941C482.671 134.178 482.917 134.461 483.044 134.789C483.901 136.74 485.332 138.271 487.337 139.383C489.361 140.495 491.694 141.051 494.337 141.051C495.504 141.051 496.707 140.914 497.947 140.641C499.204 140.349 500.371 139.921 501.447 139.355C502.522 138.772 503.388 138.034 504.044 137.141C504.719 136.229 505.056 135.154 505.056 133.914C505.056 132.456 504.582 131.335 503.634 130.551C502.704 129.749 501.556 129.165 500.189 128.801C498.822 128.418 497.473 128.145 496.142 127.98C494.355 127.725 492.505 127.406 490.591 127.023C488.695 126.641 486.927 126.085 485.286 125.355C483.646 124.626 482.315 123.615 481.294 122.32C480.273 121.008 479.763 119.312 479.763 117.234C479.763 115.484 480.201 113.944 481.076 112.613C481.951 111.264 483.099 110.143 484.521 109.25C485.961 108.339 487.538 107.655 489.251 107.199C490.965 106.725 492.66 106.488 494.337 106.488Z" fill="url(#paint0_radial_610_1852)"/>
<path d="M515.582 116.633C515.345 116.633 515.136 116.578 514.953 116.469C514.789 116.341 514.707 116.186 514.707 116.004C514.707 115.895 514.744 115.794 514.817 115.703C515.6 114.682 516.621 113.771 517.879 112.969C518.335 112.677 518.845 112.395 519.41 112.121C519.994 111.848 520.55 111.556 521.078 111.246C521.625 110.936 522.063 110.581 522.391 110.18C522.737 109.76 522.91 109.268 522.91 108.703C522.91 108.266 522.765 107.865 522.473 107.5C522.199 107.135 521.826 106.853 521.352 106.652C520.878 106.434 520.331 106.324 519.711 106.324C518.964 106.324 518.317 106.497 517.77 106.844C517.241 107.172 516.913 107.564 516.785 108.02C516.749 108.147 516.64 108.266 516.457 108.375C516.293 108.466 516.111 108.512 515.91 108.512C515.655 108.512 515.436 108.439 515.254 108.293C515.072 108.129 515.008 107.947 515.063 107.746C515.209 107.272 515.491 106.835 515.91 106.434C516.33 106.033 516.867 105.714 517.524 105.477C518.18 105.221 518.918 105.094 519.738 105.094C520.686 105.094 521.534 105.258 522.281 105.586C523.029 105.896 523.612 106.324 524.031 106.871C524.451 107.418 524.66 108.029 524.66 108.703C524.66 109.414 524.469 110.025 524.086 110.535C523.722 111.046 523.238 111.492 522.637 111.875C522.054 112.258 521.443 112.613 520.805 112.941C520.167 113.251 519.584 113.57 519.055 113.898C518.362 114.336 517.733 114.828 517.168 115.375H524.606C524.843 115.375 525.043 115.439 525.207 115.566C525.39 115.694 525.481 115.84 525.481 116.004C525.481 116.186 525.39 116.341 525.207 116.469C525.043 116.578 524.843 116.633 524.606 116.633H515.582Z" fill="url(#paint1_linear_610_1852)"/>
<path d="M255.25 29.75C255.25 27.817 256.817 26.25 258.75 26.25C260.683 26.25 262.25 27.817 262.25 29.75V206.5C262.25 208.433 260.683 210 258.75 210C256.817 210 255.25 208.433 255.25 206.5V29.75Z" fill="url(#paint2_linear_610_1852)"/>
<g filter="url(#filter0_d_610_1852)">
<path d="M153.96 112.166H72.0003C57.8239 112.166 46.3317 124.786 46.3317 140.355V157.664C46.3317 173.233 57.8239 185.854 72.0003 185.854H153.96C168.136 185.854 179.628 173.233 179.628 157.664V140.355C179.628 124.786 168.136 112.166 153.96 112.166Z" fill="url(#paint3_linear_610_1852)"/>
<path d="M153.96 112.413H72.0006C57.9486 112.413 46.5572 124.923 46.5572 140.355V157.664C46.5572 173.096 57.9486 185.607 72.0006 185.607H153.96C168.012 185.607 179.404 173.096 179.404 157.664V140.355C179.404 124.923 168.012 112.413 153.96 112.413Z" fill="url(#paint4_linear_610_1852)" stroke="black" stroke-width="3.79832"/>
</g>
<path d="M204.115 109.424C204.115 107.648 202.805 106.209 201.188 106.209C199.572 106.209 198.261 107.648 198.261 109.424V172.727C198.261 174.502 199.572 175.941 201.188 175.941C202.805 175.941 204.115 174.502 204.115 172.727V109.424Z" fill="url(#paint5_linear_610_1852)"/>
<g filter="url(#filter1_d_610_1852)">
<path d="M112.534 48.1533C112.811 47.9797 113.15 47.9797 113.427 48.1533L203.927 104.877C204.532 105.257 204.532 106.215 203.927 106.595L113.427 163.319C113.15 163.493 112.811 163.493 112.534 163.319L22.0338 106.595C21.4285 106.215 21.4285 105.257 22.0338 104.877L112.534 48.1533Z" fill="url(#paint6_linear_610_1852)"/>
<path d="M112.757 48.5827C112.895 48.4962 113.065 48.4962 113.203 48.5827L203.703 105.307C204.006 105.497 204.006 105.976 203.703 106.166L113.203 162.89C113.065 162.977 112.895 162.977 112.757 162.89L22.2568 106.166C21.9542 105.976 21.9542 105.497 22.2568 105.307L112.757 48.5827Z" stroke="black" stroke-width="4.43137"/>
</g>
<path d="M72.3517 164.953C75.3362 164.953 77.7556 162.739 77.7556 160.008C77.7556 157.276 75.3362 155.062 72.3517 155.062C69.3672 155.062 66.9478 157.276 66.9478 160.008C66.9478 162.739 69.3672 164.953 72.3517 164.953Z" fill="#010101"/>
<path d="M154.804 164.953C157.788 164.953 160.208 162.739 160.208 160.008C160.208 157.276 157.788 155.062 154.804 155.062C151.819 155.062 149.4 157.276 149.4 160.008C149.4 162.739 151.819 164.953 154.804 164.953Z" fill="#010101"/>
<ellipse cx="201.315" cy="182.543" rx="12.2151" ry="12.2133" fill="#FBCB4E"/>
<path d="M213.213 182.543C213.213 189.113 207.886 194.439 201.315 194.439C194.743 194.439 189.416 189.113 189.416 182.543C189.416 175.972 194.743 170.646 201.315 170.646C207.886 170.646 213.213 175.972 213.213 182.543Z" stroke="black" stroke-opacity="0.08" stroke-width="0.633053"/>
<path d="M211.631 182.543C211.631 188.239 207.012 192.857 201.315 192.857C195.617 192.857 190.999 188.239 190.999 182.543C190.999 176.847 195.617 172.229 201.315 172.229C207.012 172.229 211.631 176.847 211.631 182.543Z" stroke="black" stroke-opacity="0.08" stroke-width="3.79832"/>
<path d="M213.254 169.877L219.627 163.503" stroke="#FBCB4E" stroke-width="3.79832"/>
<path d="M201.488 197.33V206.644" stroke="#FBCB4E" stroke-width="3.79832"/>
<path d="M216.196 181.642H226" stroke="#FBCB4E" stroke-width="3.79832"/>
<path d="M185.801 181.642H176.486" stroke="#FBCB4E" stroke-width="3.79832"/>
<path d="M188.741 194.388L182.859 200.271" stroke="#FBCB4E" stroke-width="3.79832"/>
<path d="M213.254 194.388L219.627 200.271" stroke="#FBCB4E" stroke-width="3.79832"/>
<path d="M188.741 169.877L182.859 163.503" stroke="#FBCB4E" stroke-width="3.79832"/>
<defs>
<filter id="filter0_d_610_1852" x="42.1258" y="110.513" width="141.709" height="82.0567" filterUnits="userSpaceOnUse" color-interpolation-filters="sRGB">
<feFlood flood-opacity="0" result="BackgroundImageFix"/>
<feColorMatrix in="SourceAlpha" type="matrix" values="0 0 0 0 0 0 0 0 0 0 0 0 0 0 0 0 0 0 127 0" result="hardAlpha"/>
<feOffset dy="2.53221"/>
<feGaussianBlur stdDeviation="1.26611"/>
<feComposite in2="hardAlpha" operator="out"/>
<feColorMatrix type="matrix" values="0 0 0 0 0 0 0 0 0 0 0 0 0 0 0 0 0 0 0.25 0"/>
<feBlend mode="normal" in2="BackgroundImageFix" result="effect1_dropShadow_610_1852"/>
<feBlend mode="normal" in="SourceGraphic" in2="effect1_dropShadow_610_1852" result="shape"/>
</filter>
<filter id="filter1_d_610_1852" x="17.2819" y="46.3021" width="191.396" height="123.933" filterUnits="userSpaceOnUse" color-interpolation-filters="sRGB">
<feFlood flood-opacity="0" result="BackgroundImageFix"/>
<feColorMatrix in="SourceAlpha" type="matrix" values="0 0 0 0 0 0 0 0 0 0 0 0 0 0 0 0 0 0 127 0" result="hardAlpha"/>
<feOffset dy="2.53221"/>
<feGaussianBlur stdDeviation="1.26611"/>
<feComposite in2="hardAlpha" operator="out"/>
<feColorMatrix type="matrix" values="0 0 0 0 0 0 0 0 0 0 0 0 0 0 0 0 0 0 0.25 0"/>
<feBlend mode="normal" in2="BackgroundImageFix" result="effect1_dropShadow_610_1852"/>
<feBlend mode="normal" in="SourceGraphic" in2="effect1_dropShadow_610_1852" result="shape"/>
</filter>
<radialGradient id="paint0_radial_610_1852" cx="0" cy="0" r="1" gradientUnits="userSpaceOnUse" gradientTransform="translate(443.517 142.544) rotate(99.4468) scale(64.8358 175.402)">
<stop stop-color="#3085AA"/>
<stop offset="0.9999" stop-color="#9C2C2C"/>
<stop offset="1" stop-color="#FF3030"/>
</radialGradient>
<linearGradient id="paint1_linear_610_1852" x1="432.875" y1="103.25" x2="432.875" y2="206.5" gradientUnits="userSpaceOnUse">
<stop stop-color="#FFEC88"/>
<stop offset="1" stop-color="#998100"/>
</linearGradient>
<linearGradient id="paint2_linear_610_1852" x1="258.75" y1="26.25" x2="258.75" y2="210" gradientUnits="userSpaceOnUse">
<stop stop-color="#145377"/>
<stop offset="1" stop-color="#733A37"/>
</linearGradient>
<linearGradient id="paint3_linear_610_1852" x1="112.98" y1="112.166" x2="112.98" y2="185.854" gradientUnits="userSpaceOnUse">
<stop stop-color="#3085AA"/>
<stop offset="1" stop-color="#1B4469"/>
</linearGradient>
<linearGradient id="paint4_linear_610_1852" x1="112.98" y1="112.413" x2="112.98" y2="185.607" gradientUnits="userSpaceOnUse">
<stop stop-color="#3085AA"/>
<stop offset="1" stop-color="#1B4469"/>
</linearGradient>
<linearGradient id="paint5_linear_610_1852" x1="201.188" y1="106.209" x2="201.188" y2="175.941" gradientUnits="userSpaceOnUse">
<stop stop-color="#145377"/>
<stop offset="1" stop-color="#733A37"/>
</linearGradient>
<linearGradient id="paint6_linear_610_1852" x1="112.98" y1="36.004" x2="112.98" y2="163.599" gradientUnits="userSpaceOnUse">
<stop stop-color="#FF3030"/>
<stop offset="1" stop-color="#1B4469"/>
</linearGradient>
</defs>
</svg>
