<svg width="150" height="163" viewBox="0 0 150 163" fill="none" xmlns="http://www.w3.org/2000/svg">
<path id="Vector" d="M99.603 0.000349578C86.8524 0.000349578 74.0954 5.32105 64.3833 15.9695C45.6683 36.4894 44.9891 69.3863 62.3398 90.8098L57.3052 96.3179L61.532 100.952L66.5564 95.433C86.0948 114.457 116.098 113.712 134.813 93.192C154.236 71.8959 154.237 37.2659 134.813 15.9698C125.102 5.32105 112.355 0.000349578 99.603 0.000349578ZM99.603 6.49278C110.816 6.49278 122.024 11.1937 130.597 20.5931C147.742 39.3915 147.741 69.7707 130.597 88.5684C114.16 106.591 88.0225 107.331 70.7835 90.7982L70.853 90.7223C70.1034 90.0053 69.3639 89.2638 68.65 88.4813C67.946 87.7098 67.2821 86.9088 66.6361 86.0987L66.5666 86.1757C51.4872 67.2741 52.1629 38.6153 68.5999 20.5931C77.1729 11.1937 88.39 6.49278 99.603 6.49278ZM99.603 13.073C89.934 13.073 80.2618 17.1303 72.8672 25.238C58.0775 41.4541 58.0775 67.642 72.8672 83.8574C76.102 87.4048 79.768 90.1802 83.6831 92.1756C75.7367 85.4995 70.6135 74.9904 70.6135 63.1657C70.6135 57.8062 71.6636 52.7118 73.5547 48.1256C72.226 55.2906 73.6951 62.4242 78.1707 67.3304C86.0128 75.9295 100.1 74.437 109.632 63.9859C119.164 53.5348 120.525 38.0889 112.682 29.4898C111.924 28.6588 111.105 27.9253 110.24 27.2817C124.637 30.3065 135.746 43.4918 137.116 59.767C138.532 47.5005 134.94 34.6794 126.33 25.2377C118.935 17.13 109.272 13.0727 99.6033 13.0727L99.603 13.073ZM49.5598 97.0615L6.55381 144.215L17.5793 156.304L60.5856 109.15L49.5595 97.0612L49.5598 97.0615ZM5.88581 152.719L0.781738 158.303L4.99898 162.927L10.0928 157.331L5.88581 152.719Z" fill="#263061"/>
</svg>
