<svg width="100" height="18" viewBox="0 0 100 18" fill="none" xmlns="http://www.w3.org/2000/svg">
<path d="M6.85156 0.816406C8.13281 0.816406 9.27344 1.12109 10.2734 1.73047C11.2734 2.33984 12 3.14453 12.4531 4.14453C12.5078 4.25391 12.5352 4.37109 12.5352 4.49609C12.5352 4.72266 12.4531 4.91797 12.2891 5.08203C12.125 5.24609 11.9297 5.32812 11.7031 5.32812C11.5547 5.32812 11.4023 5.28125 11.2461 5.1875C11.0977 5.08594 10.9922 4.96484 10.9297 4.82422C10.6094 4.10547 10.082 3.53906 9.34766 3.125C8.62109 2.70312 7.78906 2.49219 6.85156 2.49219C6.35156 2.49219 5.83203 2.55469 5.29297 2.67969C4.76172 2.79688 4.26562 2.97656 3.80469 3.21875C3.35156 3.46094 2.98438 3.76953 2.70312 4.14453C2.42188 4.51172 2.28125 4.94141 2.28125 5.43359C2.28125 6.00391 2.46875 6.46875 2.84375 6.82812C3.21875 7.17969 3.69531 7.45703 4.27344 7.66016C4.85938 7.85547 5.46875 8.00781 6.10156 8.11719C6.74219 8.21875 7.32422 8.30469 7.84766 8.375C8.47266 8.46094 9.09375 8.59375 9.71094 8.77344C10.3359 8.94531 10.9023 9.19141 11.4102 9.51172C11.918 9.82422 12.3242 10.2305 12.6289 10.7305C12.9414 11.2305 13.0977 11.8438 13.0977 12.5703C13.0977 13.3672 12.9062 14.0625 12.5234 14.6562C12.1406 15.2422 11.6367 15.7305 11.0117 16.1211C10.3945 16.5039 9.71875 16.793 8.98438 16.9883C8.25781 17.1758 7.54688 17.2695 6.85156 17.2695C5.40625 17.2695 4.10547 16.9414 2.94922 16.2852C1.79297 15.6289 0.96875 14.7344 0.476562 13.6016C0.429688 13.4766 0.40625 13.3633 0.40625 13.2617C0.40625 13.0352 0.488281 12.8398 0.652344 12.6758C0.816406 12.5117 1.01172 12.4297 1.23828 12.4297C1.39453 12.4297 1.54688 12.4805 1.69531 12.582C1.85156 12.6836 1.95703 12.8047 2.01172 12.9453C2.37891 13.7812 2.99219 14.4375 3.85156 14.9141C4.71875 15.3906 5.71875 15.6289 6.85156 15.6289C7.35156 15.6289 7.86719 15.5703 8.39844 15.4531C8.9375 15.3281 9.4375 15.1445 9.89844 14.9023C10.3594 14.6523 10.7305 14.3359 11.0117 13.9531C11.3008 13.5625 11.4453 13.1016 11.4453 12.5703C11.4453 11.9453 11.2422 11.4648 10.8359 11.1289C10.4375 10.7852 9.94531 10.5352 9.35938 10.3789C8.77344 10.2148 8.19531 10.0977 7.625 10.0273C6.85938 9.91797 6.06641 9.78125 5.24609 9.61719C4.43359 9.45312 3.67578 9.21484 2.97266 8.90234C2.26953 8.58984 1.69922 8.15625 1.26172 7.60156C0.824219 7.03906 0.605469 6.3125 0.605469 5.42188C0.605469 4.67188 0.792969 4.01172 1.16797 3.44141C1.54297 2.86328 2.03516 2.38281 2.64453 2C3.26172 1.60938 3.9375 1.31641 4.67188 1.12109C5.40625 0.917969 6.13281 0.816406 6.85156 0.816406ZM21.898 4.98828C22.7339 4.98828 23.4839 5.23047 24.148 5.71484C24.8198 6.19922 25.4058 6.71094 25.9058 7.25L26.0112 5.77344C26.0112 5.54688 26.0737 5.35547 26.1987 5.19922C26.3237 5.03516 26.4995 4.95312 26.7261 4.95312C26.9527 4.95312 27.1441 5.03516 27.3003 5.19922C27.4644 5.35547 27.5464 5.54688 27.5464 5.77344V16.3672C27.5464 16.5938 27.4644 16.7891 27.3003 16.9531C27.1441 17.1094 26.9527 17.1875 26.7261 17.1875C26.4995 17.1875 26.3042 17.1094 26.1402 16.9531C25.9839 16.7891 25.9058 16.5938 25.9058 16.3672V15.0312C25.3902 15.5938 24.7769 16.1016 24.0659 16.5547C23.3628 17.0078 22.6206 17.2344 21.8394 17.2344C21.0347 17.2344 20.2886 17.0703 19.6011 16.7422C18.9136 16.4062 18.312 15.9531 17.7964 15.3828C17.2808 14.8125 16.8784 14.1641 16.5894 13.4375C16.3081 12.7031 16.1675 11.9336 16.1675 11.1289C16.1675 10.332 16.3081 9.56641 16.5894 8.83203C16.8784 8.08984 17.2808 7.43359 17.7964 6.86328C18.3198 6.28516 18.9292 5.82812 19.6245 5.49219C20.3198 5.15625 21.0777 4.98828 21.898 4.98828ZM25.9644 11.0586C25.9644 10.3008 25.7808 9.59766 25.4136 8.94922C25.0542 8.29297 24.5659 7.76172 23.9487 7.35547C23.3394 6.94922 22.6597 6.74609 21.9097 6.74609C21.1519 6.74609 20.4722 6.95312 19.8706 7.36719C19.2691 7.78125 18.7925 8.32422 18.4409 8.99609C18.0972 9.66016 17.9253 10.3711 17.9253 11.1289C17.9253 11.8789 18.0972 12.5859 18.4409 13.25C18.7847 13.9141 19.2495 14.4531 19.8355 14.8672C20.4292 15.2734 21.0972 15.4766 21.8394 15.4766C22.5894 15.4766 23.2769 15.2695 23.9019 14.8555C24.5269 14.4336 25.0269 13.8867 25.4019 13.2148C25.7769 12.5352 25.9644 11.8164 25.9644 11.0586ZM36.4756 17.2344C35.6553 17.2344 34.917 17.0156 34.2608 16.5781C33.6045 16.1406 33.0537 15.6953 32.6084 15.2422L32.5498 16.3672C32.5498 16.6094 32.4717 16.8164 32.3155 16.9883C32.167 17.1602 31.9717 17.2461 31.7295 17.2461C31.4873 17.2461 31.2803 17.1602 31.1084 16.9883C30.9366 16.8164 30.8506 16.6094 30.8506 16.3672V1.61328C30.8506 1.37109 30.9366 1.16406 31.1084 0.992188C31.2803 0.820312 31.4873 0.734375 31.7295 0.734375C31.9717 0.734375 32.1787 0.820312 32.3506 0.992188C32.5225 1.16406 32.6084 1.37109 32.6084 1.61328V6.91016C33.085 6.41016 33.6397 5.96875 34.2725 5.58594C34.9053 5.20312 35.6045 5.01172 36.3702 5.01172C37.1827 5.01172 37.9248 5.18359 38.5967 5.52734C39.2764 5.87109 39.8662 6.33594 40.3662 6.92188C40.8662 7.5 41.253 8.16016 41.5264 8.90234C41.7998 9.64453 41.9366 10.4141 41.9366 11.2109C41.9366 12.2656 41.7022 13.2539 41.2334 14.1758C40.7647 15.0898 40.1202 15.8281 39.2998 16.3906C38.4795 16.9531 37.5381 17.2344 36.4756 17.2344ZM36.4405 15.4766C37.1827 15.4766 37.8311 15.2812 38.3858 14.8906C38.9483 14.4922 39.3819 13.9727 39.6866 13.332C39.9991 12.6836 40.1553 11.9883 40.1553 11.2461C40.1553 10.4961 39.9991 9.78125 39.6866 9.10156C39.3741 8.41406 38.9366 7.85547 38.3741 7.42578C37.8116 6.98828 37.1514 6.76953 36.3936 6.76953C35.6123 6.76953 34.9366 6.97656 34.3662 7.39062C33.8037 7.79688 33.3702 8.32422 33.0655 8.97266C32.7686 9.62109 32.6202 10.3125 32.6202 11.0469C32.6202 11.7812 32.7725 12.4883 33.0772 13.168C33.3819 13.8477 33.8194 14.4023 34.3897 14.832C34.9678 15.2617 35.6514 15.4766 36.4405 15.4766ZM46.0259 3.20703C45.69 3.20703 45.3931 3.08594 45.1353 2.84375C44.8853 2.60156 44.7603 2.30859 44.7603 1.96484C44.7603 1.62109 44.8853 1.32813 45.1353 1.08594C45.3931 0.84375 45.69 0.722656 46.0259 0.722656C46.3697 0.722656 46.6666 0.84375 46.9166 1.08594C47.1666 1.32813 47.2916 1.62109 47.2916 1.96484C47.2916 2.30859 47.1666 2.60156 46.9166 2.84375C46.6666 3.08594 46.3697 3.20703 46.0259 3.20703ZM45.1705 5.75C45.1705 5.54688 45.2642 5.37109 45.4517 5.22266C45.6392 5.06641 45.815 4.98828 45.9791 4.98828C46.2525 4.98828 46.4791 5.07031 46.6587 5.23438C46.8384 5.39844 46.9283 5.61328 46.9283 5.87891L46.9517 16.3906C46.9517 16.6328 46.8658 16.8398 46.6939 17.0117C46.522 17.1836 46.315 17.2695 46.0728 17.2695C45.8306 17.2695 45.6236 17.1797 45.4517 17C45.2798 16.8281 45.1939 16.6211 45.1939 16.3789L45.1705 5.75ZM55.8106 17.2461C54.7481 17.2461 53.8067 16.9648 52.9864 16.4023C52.1661 15.8398 51.5216 15.1016 51.0528 14.1875C50.5841 13.2656 50.3497 12.2773 50.3497 11.2227C50.3497 10.4258 50.4864 9.65625 50.7598 8.91406C51.0333 8.17188 51.42 7.51172 51.92 6.93359C52.42 6.34766 53.0098 5.88281 53.6895 5.53906C54.3692 5.19531 55.1114 5.02344 55.9161 5.02344C56.6817 5.02344 57.3809 5.21484 58.0137 5.59766C58.6466 5.98047 59.2012 6.42188 59.6778 6.92188V1.625C59.6778 1.38281 59.7637 1.17578 59.9356 1.00391C60.1075 0.832031 60.3145 0.746094 60.5567 0.746094C60.8067 0.746094 61.0137 0.832031 61.1778 1.00391C61.3497 1.17578 61.4356 1.38281 61.4356 1.625V16.3789C61.4356 16.6211 61.3497 16.8281 61.1778 17C61.0059 17.1719 60.7989 17.2578 60.5567 17.2578C60.3145 17.2578 60.1153 17.1719 59.9591 17C59.8106 16.8281 59.7364 16.6211 59.7364 16.3789L59.6778 15.2539C59.2325 15.707 58.6817 16.1523 58.0255 16.5898C57.3692 17.0273 56.6309 17.2461 55.8106 17.2461ZM55.8458 15.4883C56.6427 15.4883 57.3262 15.2734 57.8966 14.8438C58.4669 14.4141 58.9044 13.8594 59.2091 13.1797C59.5137 12.5 59.6661 11.793 59.6661 11.0586C59.6661 10.3242 59.5137 9.63281 59.2091 8.98438C58.9122 8.33594 58.4825 7.80859 57.92 7.40234C57.3575 6.98828 56.6817 6.78125 55.8927 6.78125C55.1348 6.78125 54.4747 7 53.9122 7.4375C53.3497 7.86719 52.9122 8.42578 52.5997 9.11328C52.2872 9.79297 52.1309 10.5078 52.1309 11.2578C52.1309 12 52.2833 12.6953 52.588 13.3438C52.9005 13.9844 53.3341 14.5039 53.8887 14.9023C54.4512 15.293 55.1036 15.4883 55.8458 15.4883ZM70.3414 4.97656C71.1617 4.97656 71.9273 5.14062 72.6383 5.46875C73.3492 5.79688 73.9703 6.25 74.5016 6.82812C75.0406 7.39844 75.4586 8.05078 75.7555 8.78516C76.0602 9.51953 76.2125 10.2969 76.2125 11.1172C76.2125 12.2031 75.9547 13.2109 75.4391 14.1406C74.9234 15.0703 74.2242 15.8242 73.3414 16.4023C72.4664 16.9727 71.482 17.2617 70.3883 17.2695C69.2789 17.2695 68.2789 16.9844 67.3883 16.4141C66.4977 15.8438 65.7906 15.0938 65.2672 14.1641C64.7516 13.2266 64.4938 12.2109 64.4938 11.1172C64.4938 10.3047 64.6422 9.53125 64.9391 8.79688C65.2438 8.05469 65.6617 7.39844 66.193 6.82812C66.7242 6.25 67.3414 5.79688 68.0445 5.46875C68.7555 5.14062 69.5211 4.97656 70.3414 4.97656ZM70.3414 6.73438C69.5758 6.73438 68.8844 6.9375 68.2672 7.34375C67.65 7.75 67.1578 8.28516 66.7906 8.94922C66.4313 9.60547 66.2516 10.3203 66.2516 11.0938C66.2516 11.875 66.4313 12.6016 66.7906 13.2734C67.15 13.9453 67.6422 14.4883 68.2672 14.9023C68.8922 15.3086 69.5953 15.5117 70.3766 15.5117C71.15 15.5039 71.8414 15.2969 72.4508 14.8906C73.068 14.4766 73.5563 13.9375 73.9156 13.2734C74.275 12.6094 74.4547 11.8906 74.4547 11.1172C74.4547 10.3438 74.2711 9.625 73.9039 8.96094C73.5445 8.28906 73.0523 7.75 72.4273 7.34375C71.8102 6.9375 71.1148 6.73438 70.3414 6.73438ZM85.7159 0.816406C86.9972 0.816406 88.1378 1.12109 89.1378 1.73047C90.1378 2.33984 90.8644 3.14453 91.3175 4.14453C91.3722 4.25391 91.3995 4.37109 91.3995 4.49609C91.3995 4.72266 91.3175 4.91797 91.1534 5.08203C90.9894 5.24609 90.7941 5.32812 90.5675 5.32812C90.4191 5.32812 90.2667 5.28125 90.1105 5.1875C89.962 5.08594 89.8566 4.96484 89.7941 4.82422C89.4737 4.10547 88.9464 3.53906 88.212 3.125C87.4855 2.70312 86.6534 2.49219 85.7159 2.49219C85.2159 2.49219 84.6964 2.55469 84.1573 2.67969C83.6261 2.79688 83.13 2.97656 82.6691 3.21875C82.2159 3.46094 81.8487 3.76953 81.5675 4.14453C81.2862 4.51172 81.1456 4.94141 81.1456 5.43359C81.1456 6.00391 81.3331 6.46875 81.7081 6.82812C82.0831 7.17969 82.5597 7.45703 83.1378 7.66016C83.7237 7.85547 84.3331 8.00781 84.9659 8.11719C85.6066 8.21875 86.1886 8.30469 86.712 8.375C87.337 8.46094 87.9581 8.59375 88.5753 8.77344C89.2003 8.94531 89.7667 9.19141 90.2745 9.51172C90.7823 9.82422 91.1886 10.2305 91.4933 10.7305C91.8058 11.2305 91.962 11.8438 91.962 12.5703C91.962 13.3672 91.7706 14.0625 91.3878 14.6562C91.005 15.2422 90.5011 15.7305 89.8761 16.1211C89.2589 16.5039 88.5831 16.793 87.8487 16.9883C87.1222 17.1758 86.4112 17.2695 85.7159 17.2695C84.2706 17.2695 82.9698 16.9414 81.8136 16.2852C80.6573 15.6289 79.8331 14.7344 79.3409 13.6016C79.2941 13.4766 79.2706 13.3633 79.2706 13.2617C79.2706 13.0352 79.3527 12.8398 79.5167 12.6758C79.6808 12.5117 79.8761 12.4297 80.1027 12.4297C80.2589 12.4297 80.4112 12.4805 80.5597 12.582C80.7159 12.6836 80.8214 12.8047 80.8761 12.9453C81.2433 13.7812 81.8566 14.4375 82.7159 14.9141C83.5831 15.3906 84.5831 15.6289 85.7159 15.6289C86.2159 15.6289 86.7316 15.5703 87.2628 15.4531C87.8019 15.3281 88.3019 15.1445 88.7628 14.9023C89.2237 14.6523 89.5948 14.3359 89.8761 13.9531C90.1652 13.5625 90.3097 13.1016 90.3097 12.5703C90.3097 11.9453 90.1066 11.4648 89.7003 11.1289C89.3019 10.7852 88.8097 10.5352 88.2237 10.3789C87.6378 10.2148 87.0597 10.0977 86.4894 10.0273C85.7237 9.91797 84.9308 9.78125 84.1105 9.61719C83.298 9.45312 82.5402 9.21484 81.837 8.90234C81.1339 8.58984 80.5636 8.15625 80.1261 7.60156C79.6886 7.03906 79.4698 6.3125 79.4698 5.42188C79.4698 4.67188 79.6573 4.01172 80.0323 3.44141C80.4073 2.86328 80.8995 2.38281 81.5089 2C82.1261 1.60938 82.8019 1.31641 83.5362 1.12109C84.2706 0.917969 84.9972 0.816406 85.7159 0.816406Z" fill="url(#paint0_radial_71_445)"/>
<path d="M94.8209 5.16406C94.7194 5.16406 94.6295 5.14062 94.5514 5.09375C94.4811 5.03906 94.4459 4.97266 94.4459 4.89453C94.4459 4.84766 94.4616 4.80469 94.4928 4.76562C94.8288 4.32813 95.2663 3.9375 95.8053 3.59375C96.0006 3.46875 96.2194 3.34766 96.4616 3.23047C96.7116 3.11328 96.9498 2.98828 97.1764 2.85547C97.4108 2.72266 97.5983 2.57031 97.7389 2.39844C97.8873 2.21875 97.9616 2.00781 97.9616 1.76562C97.9616 1.57812 97.8991 1.40625 97.7741 1.25C97.6569 1.09375 97.4967 0.972656 97.2936 0.886719C97.0905 0.792969 96.8561 0.746094 96.5905 0.746094C96.2702 0.746094 95.9928 0.820312 95.7584 0.96875C95.5319 1.10938 95.3913 1.27734 95.3366 1.47266C95.3209 1.52734 95.2741 1.57812 95.1959 1.625C95.1256 1.66406 95.0475 1.68359 94.9616 1.68359C94.8522 1.68359 94.7584 1.65234 94.6803 1.58984C94.6022 1.51953 94.5748 1.44141 94.5983 1.35547C94.6608 1.15234 94.7819 0.964844 94.9616 0.792969C95.1413 0.621094 95.3717 0.484375 95.653 0.382812C95.9342 0.273438 96.2506 0.21875 96.6022 0.21875C97.0084 0.21875 97.3717 0.289062 97.692 0.429688C98.0123 0.5625 98.2623 0.746094 98.442 0.980469C98.6217 1.21484 98.7116 1.47656 98.7116 1.76562C98.7116 2.07031 98.6295 2.33203 98.4655 2.55078C98.3092 2.76953 98.1022 2.96094 97.8444 3.125C97.5944 3.28906 97.3327 3.44141 97.0592 3.58203C96.7858 3.71484 96.5358 3.85156 96.3092 3.99219C96.0123 4.17969 95.7428 4.39062 95.5006 4.625H98.6881C98.7897 4.625 98.8756 4.65234 98.9459 4.70703C99.0241 4.76172 99.0631 4.82422 99.0631 4.89453C99.0631 4.97266 99.0241 5.03906 98.9459 5.09375C98.8756 5.14062 98.7897 5.16406 98.6881 5.16406H94.8209Z" fill="url(#paint1_linear_71_445)"/>
<defs>
<radialGradient id="paint0_radial_71_445" cx="0" cy="0" r="1" gradientUnits="userSpaceOnUse" gradientTransform="translate(65.1457 19.3362) rotate(98.3968) scale(31.8138 76.7935)">
<stop stop-color="#3085AA"/>
<stop offset="0.9999" stop-color="#9C2C2C"/>
<stop offset="1" stop-color="#FF3030"/>
</radialGradient>
<linearGradient id="paint1_linear_71_445" x1="60.5" y1="0" x2="60.5" y2="50.8089" gradientUnits="userSpaceOnUse">
<stop stop-color="#FFEC88"/>
<stop offset="1" stop-color="#998100"/>
</linearGradient>
</defs>
</svg>
