<svg width="46" height="45" viewBox="0 0 46 45" fill="none" xmlns="http://www.w3.org/2000/svg">
<path d="M7.5342 0C3.37317 0 0 3.2909 0 7.35044V36.7522C0 40.8117 3.37317 44.1026 7.5342 44.1026H37.671C41.832 44.1026 45.2052 40.8117 45.2052 36.7522V7.35044C45.2052 3.2909 41.832 0 37.671 0H7.5342ZM9.77932 9.45056H18.3226L24.3894 17.8613L31.7513 9.45056H34.4421L25.6045 19.5451L36.5022 34.6521H27.961L20.9209 24.8939L12.3776 34.6521H9.68683L19.7058 23.2101L9.77932 9.45056ZM13.8996 11.5507L29.0836 32.5519H32.3819L17.1979 11.5507H13.8996Z" fill="url(#paint0_linear_321_1405)"/>
<defs>
<linearGradient id="paint0_linear_321_1405" x1="22.6026" y1="0" x2="22.6026" y2="44.1026" gradientUnits="userSpaceOnUse">
<stop stop-color="#E44B4B"/>
<stop offset="1" stop-color="#2C67BF"/>
</linearGradient>
</defs>
</svg>
