<svg width="33" height="49" viewBox="0 0 33 49" fill="none" xmlns="http://www.w3.org/2000/svg">
<path d="M30.6887 48.0352C31.6983 48.0352 32.5168 47.0004 32.5168 45.7241C32.5168 44.4477 31.6983 43.4129 30.6887 43.4129V48.0352ZM2.16992 43.4129C1.16026 43.4129 0.341797 44.4477 0.341797 45.7241C0.341797 47.0004 1.16026 48.0352 2.16992 48.0352V43.4129ZM4.41523 45.7241C4.41523 47.0004 5.23369 48.0352 6.24335 48.0352C7.25299 48.0352 8.07147 47.0004 8.07147 45.7241H4.41523ZM6.24335 36.2886H8.07147C8.07147 36.2578 8.07096 36.2266 8.06999 36.1958L6.24335 36.2886ZM8.61991 30.634L7.77671 28.5833C7.74239 28.6061 7.70863 28.6299 7.6755 28.6551L8.61991 30.634ZM13.8341 27.2074L14.6773 29.2582L14.6912 29.2489L13.8341 27.2074ZM19.0267 27.2074L18.1697 29.2489L18.1846 29.2585L19.0267 27.2074ZM24.234 30.6248L25.1783 28.6459C25.1449 28.6206 25.1107 28.5963 25.0761 28.5738L24.234 30.6248ZM26.6105 36.2793L24.7839 36.1866C24.7829 36.2174 24.7824 36.2485 24.7824 36.2793H26.6105ZM24.7824 45.7241C24.7824 47.0004 25.6009 48.0352 26.6105 48.0352C27.6201 48.0352 28.4387 47.0004 28.4387 45.7241H24.7824ZM28.4387 2.58333C28.4387 1.30695 27.6201 0.272217 26.6105 0.272217C25.6009 0.272217 24.7824 1.30695 24.7824 2.58333H28.4387ZM26.6105 13.3685H24.7824C24.7824 13.3994 24.7829 13.4303 24.7839 13.4612L26.6105 13.3685ZM24.234 19.023L25.0771 21.0738C25.1115 21.051 25.1451 21.0272 25.1783 21.002L24.234 19.023ZM19.0245 22.4466L18.1812 20.3958L18.1675 20.4051L19.0245 22.4466ZM13.8317 22.4466L14.6887 20.4051L14.6753 20.3961L13.8317 22.4466ZM8.62467 19.023L7.68026 21.002C7.71328 21.0269 7.74692 21.0509 7.78115 21.0734L8.62467 19.023ZM6.2481 13.3685L8.07474 13.4612C8.07572 13.4303 8.07623 13.3994 8.07623 13.3685H6.2481ZM8.07623 2.58333C8.07623 1.30695 7.25774 0.272217 6.2481 0.272217C5.23844 0.272217 4.41998 1.30695 4.41998 2.58333H8.07623ZM26.6176 0.272217C25.608 0.272217 24.7895 1.30695 24.7895 2.58333C24.7895 3.85971 25.608 4.89444 26.6176 4.89444V0.272217ZM30.6887 4.89444C31.6983 4.89444 32.5168 3.85971 32.5168 2.58333C32.5168 1.30695 31.6983 0.272217 30.6887 0.272217V4.89444ZM26.6176 4.89444C27.6272 4.89444 28.4433 3.85971 28.4433 2.58333C28.4433 1.30695 27.6272 0.272217 26.6176 0.272217V4.89444ZM6.24335 0.272217C5.23369 0.272217 4.41523 1.30695 4.41523 2.58333C4.41523 3.85971 5.23369 4.89444 6.24335 4.89444V0.272217ZM6.24335 4.89444C7.25299 4.89444 8.07147 3.85971 8.07147 2.58333C8.07147 1.30695 7.25299 0.272217 6.24335 0.272217V4.89444ZM2.16992 0.272217C1.16026 0.272217 0.341797 1.30695 0.341797 2.58333C0.341797 3.85971 1.16026 4.89444 2.16992 4.89444V0.272217ZM13.2945 12.9261C12.4282 12.2707 11.3056 12.6273 10.7871 13.7225C10.2687 14.8178 10.5508 16.237 11.4172 16.8924L13.2945 12.9261ZM16.4293 17.9907L15.4907 19.974C16.0686 20.4112 16.7901 20.4112 17.368 19.974L16.4293 17.9907ZM21.4413 16.8924C22.3079 16.237 22.5899 14.8178 22.0714 13.7225C21.553 12.6273 20.4305 12.2707 19.564 12.9261L21.4413 16.8924ZM30.6887 43.4129H2.16992V48.0352H30.6887V43.4129ZM8.07147 45.7241V36.2886H4.41523V45.7241H8.07147ZM8.06999 36.1958C8.0228 34.7093 8.61223 33.339 9.5643 32.613L7.6755 28.6551C5.55505 30.2726 4.31729 33.2496 4.41669 36.3813L8.06999 36.1958ZM9.46309 32.6848L14.6773 29.2582L12.9908 25.1567L7.77671 28.5833L9.46309 32.6848ZM14.6912 29.2489C15.7837 28.5158 17.0775 28.5158 18.1697 29.2489L19.884 25.166C17.7195 23.7137 15.1414 23.7137 12.9771 25.166L14.6912 29.2489ZM18.1846 29.2585L23.3916 32.6758L25.0761 28.5738L19.8691 25.1564L18.1846 29.2585ZM23.2894 32.6037C24.2415 33.3297 24.8309 34.7001 24.7839 36.1866L28.4372 36.3721C28.5367 33.2404 27.2989 30.2633 25.1783 28.6459L23.2894 32.6037ZM24.7824 36.2793V45.7241H28.4387V36.2793H24.7824ZM24.7824 2.58333V13.3685H28.4387V2.58333H24.7824ZM24.7839 13.4612C24.8309 14.9478 24.2415 16.318 23.2894 17.0442L25.1783 21.002C27.2989 19.3845 28.5364 16.4073 28.4372 13.2759L24.7839 13.4612ZM23.3906 16.9724L18.1812 20.3958L19.8677 24.4973L25.0771 21.0738L23.3906 16.9724ZM18.1675 20.4051C17.075 21.1382 15.7812 21.1382 14.6887 20.4051L12.9747 24.488C15.1389 25.9403 17.7173 25.9403 19.8816 24.488L18.1675 20.4051ZM14.6753 20.3961L9.46816 16.9726L7.78115 21.0734L12.9881 24.497L14.6753 20.3961ZM9.56905 17.0442C8.61699 16.318 8.02755 14.9478 8.07474 13.4612L4.42144 13.2759C4.32204 16.4073 5.5598 19.3845 7.68026 21.002L9.56905 17.0442ZM8.07623 13.3685V2.58333H4.41998V13.3685H8.07623ZM26.6176 4.89444H30.6887V0.272217H26.6176V4.89444ZM26.6176 0.272217H6.24335V4.89444H26.6176V0.272217ZM6.24335 0.272217H2.16992V4.89444H6.24335V0.272217ZM11.4172 16.8924L15.4907 19.974L17.368 16.0076L13.2945 12.9261L11.4172 16.8924ZM17.368 19.974L21.4413 16.8924L19.564 12.9261L15.4907 16.0076L17.368 19.974Z" fill="#EAEAEA"/>
</svg>
