<svg width="43" height="42" viewBox="0 0 43 42" fill="none" xmlns="http://www.w3.org/2000/svg">
<g clip-path="url(#clip0_1174_930)">
<path fill-rule="evenodd" clip-rule="evenodd" d="M11.2812 3.59351C9.36551 3.59351 7.8125 5.14652 7.8125 7.06226V8.79663C6.85464 8.79663 6.07812 9.57315 6.07812 10.531C6.07812 11.4889 6.85464 12.2654 7.8125 12.2654V15.7341C6.85464 15.7341 6.07812 16.5106 6.07812 17.4685C6.07812 18.4264 6.85464 19.2029 7.8125 19.2029V22.6716C6.85464 22.6716 6.07812 23.4481 6.07812 24.406C6.07812 25.3639 6.85464 26.1404 7.8125 26.1404V29.6091C6.85464 29.6091 6.07812 30.3856 6.07812 31.3435C6.07812 32.3014 6.85464 33.0779 7.8125 33.0779V34.8123C7.8125 36.728 9.36551 38.281 11.2812 38.281H32.0937C34.0095 38.281 35.5625 36.728 35.5625 34.8123V7.06226C35.5625 5.14652 34.0095 3.59351 32.0937 3.59351H11.2812ZM15.6172 10.531C14.1804 10.531 13.0156 11.6958 13.0156 13.1326V14.8669C13.0156 16.3038 14.1804 17.4685 15.6172 17.4685H27.7578C29.1946 17.4685 30.3594 16.3038 30.3594 14.8669V13.1326C30.3594 11.6958 29.1946 10.531 27.7578 10.531H15.6172Z" fill="#EAEAEA"/>
</g>
<defs>
<clipPath id="clip0_1174_930">
<rect x="0.875" y="0.125" width="41.625" height="41.625" rx="5.625" fill="white"/>
</clipPath>
</defs>
</svg>
