<svg width="129" height="124" viewBox="0 0 129 124" fill="none" xmlns="http://www.w3.org/2000/svg">
<path id="Vector" d="M61.8272 0.946045C27.7543 0.946045 0.128906 28.4034 0.128906 62.2691C0.128906 96.1347 27.7543 123.592 61.8272 123.592C95.9001 123.592 123.526 96.1347 123.526 62.2691C123.526 51.1319 120.492 40.7198 115.271 31.7173L57.4388 89.1877C56.4774 90.1433 55.1713 90.6848 53.8036 90.6848C52.4411 90.6848 51.1299 90.1484 50.1684 89.1877L27.2725 66.4311C25.2622 64.433 25.2622 61.203 27.2725 59.2049C29.2829 57.2068 32.5327 57.2068 34.543 59.2049L53.8036 78.3484L109.336 23.1537C98.0196 9.58596 80.9434 0.946045 61.8272 0.946045ZM109.336 23.1537C111.555 25.814 113.519 28.695 115.271 31.7074L127.161 19.8899C129.171 17.8867 129.171 14.6618 127.161 12.6637C125.15 10.6656 121.901 10.6656 119.89 12.6637L109.336 23.1537Z" fill="#263061"/>
</svg>
