<svg width="541" height="308" viewBox="0 0 541 308" fill="none" xmlns="http://www.w3.org/2000/svg">
<g filter="url(#filter0_d_369_140)">
<rect x="7" width="325.525" height="118.771" rx="22.45" fill="#1F2444"/>
</g>
<path d="M34.5983 21.7026L38.8265 34.9935H38.9887L43.2254 21.7026H47.3255L41.295 39.1961H36.5287L30.4897 21.7026H34.5983ZM53.8108 39.4523C52.484 39.4523 51.3365 39.1705 50.3685 38.6067C49.4061 38.0372 48.663 37.2457 48.1391 36.2321C47.6152 35.2128 47.3532 34.0312 47.3532 32.6873C47.3532 31.332 47.6152 30.1475 48.1391 29.1339C48.663 28.1146 49.4061 27.3231 50.3685 26.7593C51.3365 26.1899 52.484 25.9051 53.8108 25.9051C55.1376 25.9051 56.2822 26.1899 57.2446 26.7593C58.2126 27.3231 58.9586 28.1146 59.4825 29.1339C60.0064 30.1475 60.2684 31.332 60.2684 32.6873C60.2684 34.0312 60.0064 35.2128 59.4825 36.2321C58.9586 37.2457 58.2126 38.0372 57.2446 38.6067C56.2822 39.1705 55.1376 39.4523 53.8108 39.4523ZM53.8279 36.6336C54.4315 36.6336 54.9355 36.4627 55.3398 36.121C55.7441 35.7737 56.0487 35.301 56.2537 34.7031C56.4644 34.1052 56.5698 33.4247 56.5698 32.6616C56.5698 31.8986 56.4644 31.2181 56.2537 30.6202C56.0487 30.0222 55.7441 29.5496 55.3398 29.2022C54.9355 28.8549 54.4315 28.6812 53.8279 28.6812C53.2186 28.6812 52.7061 28.8549 52.2904 29.2022C51.8804 29.5496 51.57 30.0222 51.3593 30.6202C51.1543 31.2181 51.0518 31.8986 51.0518 32.6616C51.0518 33.4247 51.1543 34.1052 51.3593 34.7031C51.57 35.301 51.8804 35.7737 52.2904 36.121C52.7061 36.4627 53.2186 36.6336 53.8279 36.6336ZM68.5624 39.4523C67.2185 39.4523 66.0625 39.1676 65.0944 38.5982C64.1321 38.023 63.3918 37.2258 62.8736 36.2065C62.3611 35.1872 62.1048 34.0141 62.1048 32.6873C62.1048 31.3434 62.3639 30.1646 62.8821 29.151C63.406 28.1317 64.1492 27.3373 65.1115 26.7678C66.0739 26.1927 67.2185 25.9051 68.5453 25.9051C69.6899 25.9051 70.6921 26.113 71.552 26.5287C72.4119 26.9444 73.0924 27.5281 73.5935 28.2797C74.0946 29.0314 74.3708 29.9141 74.422 30.9277H70.9882C70.8914 30.2728 70.6352 29.7461 70.2195 29.3475C69.8095 28.9431 69.2713 28.741 68.6051 28.741C68.0413 28.741 67.5488 28.8947 67.1274 29.2022C66.7117 29.504 66.3871 29.9454 66.1536 30.5262C65.9201 31.107 65.8034 31.8103 65.8034 32.636C65.8034 33.4731 65.9173 34.1849 66.1451 34.7715C66.3785 35.358 66.706 35.805 67.1274 36.1125C67.5488 36.42 68.0413 36.5738 68.6051 36.5738C69.0208 36.5738 69.3938 36.4883 69.7241 36.3175C70.06 36.1467 70.3362 35.899 70.5526 35.5744C70.7747 35.2441 70.9199 34.8483 70.9882 34.3871H74.422C74.3651 35.3893 74.0917 36.272 73.602 37.035C73.118 37.7924 72.4489 38.3846 71.5947 38.8117C70.7405 39.2388 69.7298 39.4523 68.5624 39.4523ZM82.731 39.4523C81.3814 39.4523 80.2197 39.179 79.246 38.6323C78.2779 38.08 77.5319 37.2998 77.008 36.2919C76.4841 35.2783 76.2222 34.0796 76.2222 32.6958C76.2222 31.3462 76.4841 30.1618 77.008 29.1424C77.5319 28.1231 78.2694 27.3288 79.2203 26.7593C80.177 26.1899 81.2988 25.9051 82.5858 25.9051C83.4513 25.9051 84.2571 26.0446 85.0031 26.3237C85.7548 26.597 86.4096 27.0099 86.9677 27.5622C87.5314 28.1146 87.9699 28.8093 88.2831 29.6464C88.5963 30.4778 88.7529 31.4516 88.7529 32.5677V33.5671H77.6743V31.312H85.3277C85.3277 30.7882 85.2138 30.3241 84.986 29.9197C84.7582 29.5154 84.4422 29.1994 84.0379 28.9716C83.6393 28.7381 83.1752 28.6214 82.6456 28.6214C82.0932 28.6214 81.6035 28.7495 81.1764 29.0058C80.755 29.2563 80.4247 29.5952 80.1856 30.0222C79.9464 30.4436 79.824 30.9134 79.8183 31.4316V33.5756C79.8183 34.2248 79.9378 34.7857 80.177 35.2583C80.4219 35.731 80.7664 36.0954 81.2106 36.3517C81.6547 36.6079 82.1815 36.7361 82.7908 36.7361C83.1951 36.7361 83.5652 36.6791 83.9012 36.5652C84.2372 36.4513 84.5248 36.2805 84.7639 36.0527C85.0031 35.8249 85.1853 35.5459 85.3106 35.2156L88.676 35.4377C88.5052 36.2463 88.155 36.9524 87.6254 37.5561C87.1015 38.154 86.4239 38.6209 85.5925 38.9569C84.7668 39.2872 83.8129 39.4523 82.731 39.4523ZM84.2173 24.5043L82.5004 22.4201L80.7835 24.5043H77.6828V24.3847L81.1422 20.6263H83.85L87.3179 24.3847V24.5043H84.2173ZM100.436 39.4438C99.5988 39.4438 98.8528 39.2986 98.1979 39.0082C97.5431 38.712 97.0249 38.2764 96.6434 37.7013C96.2675 37.1204 96.0796 36.3972 96.0796 35.5317C96.0796 34.8028 96.2134 34.1906 96.4811 33.6952C96.7487 33.1998 97.1131 32.8012 97.5744 32.4994C98.0357 32.1975 98.5596 31.9698 99.1461 31.816C99.7383 31.6623 100.359 31.5541 101.008 31.4914C101.771 31.4117 102.386 31.3377 102.853 31.2693C103.32 31.1953 103.659 31.0871 103.87 30.9448C104.08 30.8024 104.186 30.5917 104.186 30.3127V30.2614C104.186 29.7204 104.015 29.3019 103.673 29.0058C103.337 28.7097 102.859 28.5616 102.238 28.5616C101.583 28.5616 101.062 28.7068 100.675 28.9972C100.288 29.282 100.032 29.6407 99.9063 30.0735L96.5409 29.8002C96.7117 29.0029 97.0477 28.3139 97.5488 27.7331C98.0499 27.1465 98.6962 26.6967 99.4878 26.3835C100.285 26.0646 101.207 25.9051 102.255 25.9051C102.984 25.9051 103.682 25.9905 104.348 26.1614C105.02 26.3322 105.615 26.597 106.133 26.9558C106.657 27.3145 107.07 27.7758 107.372 28.3395C107.674 28.8976 107.824 29.5667 107.824 30.3468V39.1961H104.374V37.3767H104.271C104.06 37.7867 103.779 38.1483 103.425 38.4615C103.072 38.769 102.648 39.011 102.153 39.1875C101.657 39.3584 101.085 39.4438 100.436 39.4438ZM101.478 36.9325C102.013 36.9325 102.486 36.8272 102.896 36.6165C103.306 36.4001 103.628 36.1097 103.861 35.7452C104.095 35.3808 104.211 34.9679 104.211 34.5067V33.1144C104.097 33.1884 103.941 33.2567 103.742 33.3194C103.548 33.3763 103.329 33.4304 103.084 33.4817C102.839 33.5272 102.594 33.5699 102.349 33.6098C102.104 33.6439 101.882 33.6753 101.683 33.7037C101.256 33.7664 100.883 33.866 100.564 34.0027C100.245 34.1394 99.9974 34.3244 99.8209 34.5579C99.6444 34.7857 99.5561 35.0704 99.5561 35.4121C99.5561 35.9075 99.7355 36.2862 100.094 36.5481C100.459 36.8044 100.92 36.9325 101.478 36.9325ZM116.558 44.3895C115.38 44.3895 114.369 44.2272 113.526 43.9026C112.689 43.5837 112.023 43.1481 111.527 42.5957C111.032 42.0433 110.71 41.4226 110.562 40.7336L113.928 40.2809C114.03 40.5428 114.192 40.7877 114.414 41.0155C114.637 41.2432 114.93 41.4255 115.294 41.5621C115.664 41.7045 116.114 41.7757 116.644 41.7757C117.435 41.7757 118.087 41.5821 118.6 41.1948C119.118 40.8133 119.377 40.1727 119.377 39.273V36.8727H119.223C119.064 37.2372 118.825 37.5817 118.506 37.9063C118.187 38.2309 117.777 38.4957 117.276 38.7007C116.775 38.9057 116.177 39.0082 115.482 39.0082C114.497 39.0082 113.6 38.7804 112.792 38.3248C111.989 37.8636 111.348 37.1603 110.87 36.215C110.397 35.264 110.161 34.0625 110.161 32.6104C110.161 31.1241 110.403 29.8827 110.887 28.8862C111.371 27.8897 112.014 27.1437 112.817 26.6483C113.626 26.1528 114.511 25.9051 115.474 25.9051C116.208 25.9051 116.823 26.0304 117.319 26.281C117.814 26.5258 118.213 26.8333 118.514 27.2035C118.822 27.5679 119.058 27.9267 119.223 28.2797H119.36V26.076H122.973V39.3242C122.973 40.4403 122.7 41.3742 122.153 42.1259C121.607 42.8776 120.849 43.4413 119.881 43.8172C118.919 44.1987 117.811 44.3895 116.558 44.3895ZM116.635 36.2748C117.222 36.2748 117.717 36.1296 118.122 35.8392C118.532 35.5431 118.845 35.1217 119.061 34.575C119.283 34.0226 119.394 33.3621 119.394 32.5933C119.394 31.8246 119.286 31.1583 119.07 30.5945C118.853 30.0251 118.54 29.5838 118.13 29.2706C117.72 28.9574 117.222 28.8008 116.635 28.8008C116.037 28.8008 115.533 28.9631 115.123 29.2877C114.713 29.6065 114.403 30.0507 114.192 30.6202C113.982 31.1896 113.876 31.8473 113.876 32.5933C113.876 33.3507 113.982 34.0055 114.192 34.5579C114.409 35.1046 114.719 35.5288 115.123 35.8306C115.533 36.1267 116.037 36.2748 116.635 36.2748ZM131.797 39.4523C130.47 39.4523 129.323 39.1705 128.355 38.6067C127.392 38.0372 126.649 37.2457 126.125 36.2321C125.601 35.2128 125.339 34.0312 125.339 32.6873C125.339 31.332 125.601 30.1475 126.125 29.1339C126.649 28.1146 127.392 27.3231 128.355 26.7593C129.323 26.1899 130.47 25.9051 131.797 25.9051C133.124 25.9051 134.268 26.1899 135.231 26.7593C136.199 27.3231 136.945 28.1146 137.469 29.1339C137.992 30.1475 138.254 31.332 138.254 32.6873C138.254 34.0312 137.992 35.2128 137.469 36.2321C136.945 37.2457 136.199 38.0372 135.231 38.6067C134.268 39.1705 133.124 39.4523 131.797 39.4523ZM131.814 36.6336C132.418 36.6336 132.922 36.4627 133.326 36.121C133.73 35.7737 134.035 35.301 134.24 34.7031C134.451 34.1052 134.556 33.4247 134.556 32.6616C134.556 31.8986 134.451 31.2181 134.24 30.6202C134.035 30.0222 133.73 29.5496 133.326 29.2022C132.922 28.8549 132.418 28.6812 131.814 28.6812C131.205 28.6812 130.692 28.8549 130.276 29.2022C129.866 29.5496 129.556 30.0222 129.345 30.6202C129.14 31.2181 129.038 31.8986 129.038 32.6616C129.038 33.4247 129.14 34.1052 129.345 34.7031C129.556 35.301 129.866 35.7737 130.276 36.121C130.692 36.4627 131.205 36.6336 131.814 36.6336ZM140.62 39.1961V26.076H144.148V28.3652H144.285C144.524 27.5508 144.926 26.9358 145.489 26.5201C146.053 26.0987 146.702 25.888 147.437 25.888C147.619 25.888 147.815 25.8994 148.026 25.9222C148.237 25.945 148.422 25.9763 148.581 26.0162V29.2449C148.411 29.1937 148.174 29.1481 147.872 29.1083C147.571 29.0684 147.294 29.0485 147.044 29.0485C146.509 29.0485 146.03 29.1652 145.609 29.3987C145.193 29.6265 144.863 29.9454 144.618 30.3554C144.379 30.7654 144.259 31.238 144.259 31.7733V39.1961H140.62ZM153.828 39.4438C152.991 39.4438 152.245 39.2986 151.59 39.0082C150.935 38.712 150.417 38.2764 150.036 37.7013C149.66 37.1204 149.472 36.3972 149.472 35.5317C149.472 34.8028 149.606 34.1906 149.873 33.6952C150.141 33.1998 150.505 32.8012 150.967 32.4994C151.428 32.1975 151.952 31.9698 152.538 31.816C153.131 31.6623 153.751 31.5541 154.4 31.4914C155.164 31.4117 155.779 31.3377 156.245 31.2693C156.712 31.1953 157.051 31.0871 157.262 30.9448C157.473 30.8024 157.578 30.5917 157.578 30.3127V30.2614C157.578 29.7204 157.407 29.3019 157.065 29.0058C156.73 28.7097 156.251 28.5616 155.63 28.5616C154.976 28.5616 154.455 28.7068 154.067 28.9972C153.68 29.282 153.424 29.6407 153.299 30.0735L149.933 29.8002C150.104 29.0029 150.44 28.3139 150.941 27.7331C151.442 27.1465 152.088 26.6967 152.88 26.3835C153.677 26.0646 154.6 25.9051 155.648 25.9051C156.376 25.9051 157.074 25.9905 157.74 26.1614C158.412 26.3322 159.007 26.597 159.525 26.9558C160.049 27.3145 160.462 27.7758 160.764 28.3395C161.066 28.8976 161.217 29.5667 161.217 30.3468V39.1961H157.766V37.3767H157.663C157.453 37.7867 157.171 38.1483 156.818 38.4615C156.465 38.769 156.04 39.011 155.545 39.1875C155.05 39.3584 154.477 39.4438 153.828 39.4438ZM154.87 36.9325C155.406 36.9325 155.878 36.8272 156.288 36.6165C156.698 36.4001 157.02 36.1097 157.253 35.7452C157.487 35.3808 157.604 34.9679 157.604 34.5067V33.1144C157.49 33.1884 157.333 33.2567 157.134 33.3194C156.94 33.3763 156.721 33.4304 156.476 33.4817C156.231 33.5272 155.986 33.5699 155.742 33.6098C155.497 33.6439 155.275 33.6753 155.075 33.7037C154.648 33.7664 154.275 33.866 153.956 34.0027C153.637 34.1394 153.39 34.3244 153.213 34.5579C153.037 34.7857 152.948 35.0704 152.948 35.4121C152.948 35.9075 153.128 36.2862 153.486 36.5481C153.851 36.8044 154.312 36.9325 154.87 36.9325ZM176.662 26.076V28.8093H168.565V26.076H176.662ZM170.418 39.1961V25.1278C170.418 24.1768 170.603 23.3882 170.974 22.7618C171.349 22.1354 171.862 21.6656 172.511 21.3524C173.16 21.0392 173.898 20.8826 174.723 20.8826C175.281 20.8826 175.791 20.9253 176.252 21.0107C176.719 21.0961 177.067 21.173 177.294 21.2413L176.645 23.9747C176.503 23.9291 176.326 23.8864 176.116 23.8466C175.911 23.8067 175.7 23.7868 175.484 23.7868C174.948 23.7868 174.575 23.9121 174.365 24.1626C174.154 24.4075 174.049 24.752 174.049 25.1962V39.1961H170.418ZM182.157 39.4438C181.32 39.4438 180.574 39.2986 179.919 39.0082C179.264 38.712 178.746 38.2764 178.364 37.7013C177.988 37.1204 177.801 36.3972 177.801 35.5317C177.801 34.8028 177.934 34.1906 178.202 33.6952C178.47 33.1998 178.834 32.8012 179.295 32.4994C179.757 32.1975 180.28 31.9698 180.867 31.816C181.459 31.6623 182.08 31.5541 182.729 31.4914C183.492 31.4117 184.107 31.3377 184.574 31.2693C185.041 31.1953 185.38 31.0871 185.591 30.9448C185.801 30.8024 185.907 30.5917 185.907 30.3127V30.2614C185.907 29.7204 185.736 29.3019 185.394 29.0058C185.058 28.7097 184.58 28.5616 183.959 28.5616C183.304 28.5616 182.783 28.7068 182.396 28.9972C182.009 29.282 181.753 29.6407 181.627 30.0735L178.262 29.8002C178.433 29.0029 178.769 28.3139 179.27 27.7331C179.771 27.1465 180.417 26.6967 181.209 26.3835C182.006 26.0646 182.928 25.9051 183.976 25.9051C184.705 25.9051 185.403 25.9905 186.069 26.1614C186.741 26.3322 187.336 26.597 187.854 26.9558C188.378 27.3145 188.791 27.7758 189.093 28.3395C189.395 28.8976 189.545 29.5667 189.545 30.3468V39.1961H186.095V37.3767H185.992C185.781 37.7867 185.499 38.1483 185.146 38.4615C184.793 38.769 184.369 39.011 183.874 39.1875C183.378 39.3584 182.806 39.4438 182.157 39.4438ZM183.199 36.9325C183.734 36.9325 184.207 36.8272 184.617 36.6165C185.027 36.4001 185.349 36.1097 185.582 35.7452C185.816 35.3808 185.932 34.9679 185.932 34.5067V33.1144C185.818 33.1884 185.662 33.2567 185.462 33.3194C185.269 33.3763 185.05 33.4304 184.805 33.4817C184.56 33.5272 184.315 33.5699 184.07 33.6098C183.825 33.6439 183.603 33.6753 183.404 33.7037C182.977 33.7664 182.604 33.866 182.285 34.0027C181.966 34.1394 181.718 34.3244 181.542 34.5579C181.365 34.7857 181.277 35.0704 181.277 35.4121C181.277 35.9075 181.456 36.2862 181.815 36.5481C182.18 36.8044 182.641 36.9325 183.199 36.9325ZM192.3 39.1961V37.0265L198.724 29.0741V28.9802H192.522V26.076H203.105V28.442L197.075 36.1979V36.2919H203.328V39.1961H192.3ZM211.677 44.1161V26.076H215.265V28.2797H215.427C215.586 27.9267 215.817 27.5679 216.119 27.2035C216.426 26.8333 216.825 26.5258 217.315 26.281C217.81 26.0304 218.425 25.9051 219.16 25.9051C220.116 25.9051 220.999 26.1557 221.808 26.6568C222.616 27.1522 223.263 27.901 223.747 28.9033C224.231 29.8998 224.473 31.1498 224.473 32.6531C224.473 34.1166 224.236 35.3523 223.764 36.3602C223.297 37.3624 222.659 38.1227 221.85 38.6409C221.047 39.1534 220.148 39.4096 219.151 39.4096C218.445 39.4096 217.844 39.2929 217.349 39.0594C216.859 38.8259 216.458 38.5327 216.144 38.1796C215.831 37.8209 215.592 37.4593 215.427 37.0948H215.316V44.1161H211.677ZM215.239 32.636C215.239 33.4162 215.347 34.0967 215.564 34.6775C215.78 35.2583 216.093 35.711 216.503 36.0356C216.913 36.3545 217.411 36.514 217.998 36.514C218.59 36.514 219.091 36.3517 219.501 36.0271C219.911 35.6968 220.222 35.2413 220.432 34.6604C220.649 34.0739 220.757 33.3991 220.757 32.636C220.757 31.8787 220.652 31.2124 220.441 30.6373C220.23 30.0621 219.92 29.6122 219.51 29.2877C219.1 28.9631 218.596 28.8008 217.998 28.8008C217.406 28.8008 216.905 28.9574 216.495 29.2706C216.09 29.5838 215.78 30.0279 215.564 30.6031C215.347 31.1782 215.239 31.8559 215.239 32.636ZM230.64 39.4438C229.803 39.4438 229.057 39.2986 228.402 39.0082C227.747 38.712 227.229 38.2764 226.847 37.7013C226.471 37.1204 226.283 36.3972 226.283 35.5317C226.283 34.8028 226.417 34.1906 226.685 33.6952C226.953 33.1998 227.317 32.8012 227.778 32.4994C228.24 32.1975 228.763 31.9698 229.35 31.816C229.942 31.6623 230.563 31.5541 231.212 31.4914C231.975 31.4117 232.59 31.3377 233.057 31.2693C233.524 31.1953 233.863 31.0871 234.074 30.9448C234.284 30.8024 234.39 30.5917 234.39 30.3127V30.2614C234.39 29.7204 234.219 29.3019 233.877 29.0058C233.541 28.7097 233.063 28.5616 232.442 28.5616C231.787 28.5616 231.266 28.7068 230.879 28.9972C230.492 29.282 230.235 29.6407 230.11 30.0735L226.745 29.8002C226.916 29.0029 227.252 28.3139 227.753 27.7331C228.254 27.1465 228.9 26.6967 229.692 26.3835C230.489 26.0646 231.411 25.9051 232.459 25.9051C233.188 25.9051 233.886 25.9905 234.552 26.1614C235.224 26.3322 235.819 26.597 236.337 26.9558C236.861 27.3145 237.274 27.7758 237.576 28.3395C237.877 28.8976 238.028 29.5667 238.028 30.3468V39.1961H234.577V37.3767H234.475C234.264 37.7867 233.982 38.1483 233.629 38.4615C233.276 38.769 232.852 39.011 232.357 39.1875C231.861 39.3584 231.289 39.4438 230.64 39.4438ZM231.682 36.9325C232.217 36.9325 232.69 36.8272 233.1 36.6165C233.51 36.4001 233.832 36.1097 234.065 35.7452C234.298 35.3808 234.415 34.9679 234.415 34.5067V33.1144C234.301 33.1884 234.145 33.2567 233.945 33.3194C233.752 33.3763 233.533 33.4304 233.288 33.4817C233.043 33.5272 232.798 33.5699 232.553 33.6098C232.308 33.6439 232.086 33.6753 231.887 33.7037C231.46 33.7664 231.087 33.866 230.768 34.0027C230.449 34.1394 230.201 34.3244 230.025 34.5579C229.848 34.7857 229.76 35.0704 229.76 35.4121C229.76 35.9075 229.939 36.2862 230.298 36.5481C230.663 36.8044 231.124 36.9325 231.682 36.9325ZM240.851 39.1961V26.076H244.379V28.3652H244.516C244.755 27.5508 245.156 26.9358 245.72 26.5201C246.284 26.0987 246.933 25.888 247.668 25.888C247.85 25.888 248.046 25.8994 248.257 25.9222C248.468 25.945 248.653 25.9763 248.812 26.0162V29.2449C248.641 29.1937 248.405 29.1481 248.103 29.1083C247.802 29.0684 247.525 29.0485 247.275 29.0485C246.739 29.0485 246.261 29.1652 245.84 29.3987C245.424 29.6265 245.094 29.9454 244.849 30.3554C244.61 30.7654 244.49 31.238 244.49 31.7733V39.1961H240.851ZM258.33 26.076V28.8093H250.429V26.076H258.33ZM252.223 22.9326H255.861V35.1644C255.861 35.5003 255.913 35.7623 256.015 35.9502C256.118 36.1324 256.26 36.2606 256.442 36.3346C256.63 36.4086 256.847 36.4456 257.091 36.4456C257.262 36.4456 257.433 36.4314 257.604 36.4029C257.775 36.3688 257.906 36.3431 257.997 36.3261L258.569 39.0338C258.387 39.0907 258.131 39.1562 257.8 39.2302C257.47 39.31 257.069 39.3584 256.596 39.3755C255.719 39.4096 254.95 39.2929 254.29 39.0252C253.635 38.7576 253.125 38.3419 252.761 37.7781C252.396 37.2144 252.217 36.5026 252.223 35.6427V22.9326ZM266.539 39.4523C265.189 39.4523 264.027 39.179 263.054 38.6323C262.085 38.08 261.339 37.2998 260.816 36.2919C260.292 35.2783 260.03 34.0796 260.03 32.6958C260.03 31.3462 260.292 30.1618 260.816 29.1424C261.339 28.1231 262.077 27.3288 263.028 26.7593C263.985 26.1899 265.106 25.9051 266.393 25.9051C267.259 25.9051 268.065 26.0446 268.811 26.3237C269.562 26.597 270.217 27.0099 270.775 27.5622C271.339 28.1146 271.777 28.8093 272.091 29.6464C272.404 30.4778 272.56 31.4516 272.56 32.5677V33.5671H261.482V31.312H269.135C269.135 30.7882 269.021 30.3241 268.794 29.9197C268.566 29.5154 268.25 29.1994 267.845 28.9716C267.447 28.7381 266.983 28.6214 266.453 28.6214C265.901 28.6214 265.411 28.7495 264.984 29.0058C264.563 29.2563 264.232 29.5952 263.993 30.0222C263.754 30.4436 263.631 30.9134 263.626 31.4316V33.5756C263.626 34.2248 263.745 34.7857 263.985 35.2583C264.229 35.731 264.574 36.0954 265.018 36.3517C265.462 36.6079 265.989 36.7361 266.598 36.7361C267.003 36.7361 267.373 36.6791 267.709 36.5652C268.045 36.4513 268.332 36.2805 268.571 36.0527C268.811 35.8249 268.993 35.5459 269.118 35.2156L272.484 35.4377C272.313 36.2463 271.963 36.9524 271.433 37.5561C270.909 38.154 270.231 38.6209 269.4 38.9569C268.574 39.2872 267.62 39.4523 266.539 39.4523ZM285.337 39.4096C284.34 39.4096 283.438 39.1534 282.629 38.6409C281.826 38.1227 281.188 37.3624 280.716 36.3602C280.249 35.3523 280.015 34.1166 280.015 32.6531C280.015 31.1498 280.257 29.8998 280.741 28.9033C281.225 27.901 281.869 27.1522 282.672 26.6568C283.48 26.1557 284.366 25.9051 285.328 25.9051C286.063 25.9051 286.675 26.0304 287.165 26.281C287.66 26.5258 288.059 26.8333 288.361 27.2035C288.668 27.5679 288.902 27.9267 289.061 28.2797H289.172V21.7026H292.802V39.1961H289.215V37.0948H289.061C288.89 37.4593 288.648 37.8209 288.335 38.1796C288.027 38.5327 287.626 38.8259 287.131 39.0594C286.641 39.2929 286.043 39.4096 285.337 39.4096ZM286.49 36.514C287.076 36.514 287.572 36.3545 287.976 36.0356C288.386 35.711 288.699 35.2583 288.916 34.6775C289.138 34.0967 289.249 33.4162 289.249 32.636C289.249 31.8559 289.141 31.1782 288.924 30.6031C288.708 30.0279 288.395 29.5838 287.985 29.2706C287.575 28.9574 287.076 28.8008 286.49 28.8008C285.892 28.8008 285.388 28.9631 284.978 29.2877C284.568 29.6122 284.258 30.0621 284.047 30.6373C283.836 31.2124 283.731 31.8787 283.731 32.636C283.731 33.3991 283.836 34.0739 284.047 34.6604C284.263 35.2413 284.574 35.6968 284.978 36.0271C285.388 36.3517 285.892 36.514 286.49 36.514ZM299.535 39.4438C298.698 39.4438 297.952 39.2986 297.297 39.0082C296.642 38.712 296.124 38.2764 295.743 37.7013C295.367 37.1204 295.179 36.3972 295.179 35.5317C295.179 34.8028 295.313 34.1906 295.58 33.6952C295.848 33.1998 296.213 32.8012 296.674 32.4994C297.135 32.1975 297.659 31.9698 298.245 31.816C298.838 31.6623 299.458 31.5541 300.108 31.4914C300.871 31.4117 301.486 31.3377 301.953 31.2693C302.42 31.1953 302.758 31.0871 302.969 30.9448C303.18 30.8024 303.285 30.5917 303.285 30.3127V30.2614C303.285 29.7204 303.114 29.3019 302.773 29.0058C302.437 28.7097 301.958 28.5616 301.338 28.5616C300.683 28.5616 300.162 28.7068 299.774 28.9972C299.387 29.282 299.131 29.6407 299.006 30.0735L295.64 29.8002C295.811 29.0029 296.147 28.3139 296.648 27.7331C297.149 27.1465 297.796 26.6967 298.587 26.3835C299.384 26.0646 300.307 25.9051 301.355 25.9051C302.084 25.9051 302.781 25.9905 303.447 26.1614C304.119 26.3322 304.714 26.597 305.233 26.9558C305.756 27.3145 306.169 27.7758 306.471 28.3395C306.773 28.8976 306.924 29.5667 306.924 30.3468V39.1961H303.473V37.3767H303.37C303.16 37.7867 302.878 38.1483 302.525 38.4615C302.172 38.769 301.748 39.011 301.252 39.1875C300.757 39.3584 300.184 39.4438 299.535 39.4438ZM300.577 36.9325C301.113 36.9325 301.585 36.8272 301.995 36.6165C302.405 36.4001 302.727 36.1097 302.96 35.7452C303.194 35.3808 303.311 34.9679 303.311 34.5067V33.1144C303.197 33.1884 303.04 33.2567 302.841 33.3194C302.647 33.3763 302.428 33.4304 302.183 33.4817C301.938 33.5272 301.693 33.5699 301.449 33.6098C301.204 33.6439 300.982 33.6753 300.782 33.7037C300.355 33.7664 299.982 33.866 299.663 34.0027C299.344 34.1394 299.097 34.3244 298.92 34.5579C298.744 34.7857 298.655 35.0704 298.655 35.4121C298.655 35.9075 298.835 36.2862 299.194 36.5481C299.558 36.8044 300.019 36.9325 300.577 36.9325ZM24.8724 60.611V68.1961H21.2337V55.076H24.7016V57.3908H24.8554C25.1458 56.6277 25.6327 56.0241 26.316 55.5799C26.9993 55.1301 27.8279 54.9051 28.8016 54.9051C29.7128 54.9051 30.5071 55.1044 31.1848 55.5031C31.8624 55.9017 32.3892 56.4711 32.765 57.2114C33.1409 57.946 33.3288 58.8229 33.3288 59.8423V68.1961H29.69V60.4914C29.6957 59.6885 29.4907 59.0621 29.075 58.6122C28.6593 58.1567 28.087 57.9289 27.3581 57.9289C26.8684 57.9289 26.4356 58.0343 26.0597 58.2449C25.6896 58.4556 25.3992 58.7631 25.1885 59.1675C24.9835 59.5661 24.8781 60.0473 24.8724 60.611ZM42.1246 68.4523C40.7978 68.4523 39.6504 68.1705 38.6823 67.6067C37.7199 67.0372 36.9768 66.2457 36.4529 65.2321C35.929 64.2128 35.6671 63.0312 35.6671 61.6873C35.6671 60.332 35.929 59.1475 36.4529 58.1339C36.9768 57.1146 37.7199 56.3231 38.6823 55.7593C39.6504 55.1899 40.7978 54.9051 42.1246 54.9051C43.4514 54.9051 44.596 55.1899 45.5584 55.7593C46.5265 56.3231 47.2724 57.1146 47.7963 58.1339C48.3202 59.1475 48.5822 60.332 48.5822 61.6873C48.5822 63.0312 48.3202 64.2128 47.7963 65.2321C47.2724 66.2457 46.5265 67.0372 45.5584 67.6067C44.596 68.1705 43.4514 68.4523 42.1246 68.4523ZM42.1417 65.6336C42.7453 65.6336 43.2493 65.4627 43.6536 65.121C44.0579 64.7737 44.3626 64.301 44.5676 63.7031C44.7783 63.1052 44.8836 62.4247 44.8836 61.6616C44.8836 60.8986 44.7783 60.2181 44.5676 59.6202C44.3626 59.0222 44.0579 58.5496 43.6536 58.2022C43.2493 57.8549 42.7453 57.6812 42.1417 57.6812C41.5324 57.6812 41.0199 57.8549 40.6042 58.2022C40.1942 58.5496 39.8838 59.0222 39.6731 59.6202C39.4681 60.2181 39.3656 60.8986 39.3656 61.6616C39.3656 62.4247 39.4681 63.1052 39.6731 63.7031C39.8838 64.301 40.1942 64.7737 40.6042 65.121C41.0199 65.4627 41.5324 65.6336 42.1417 65.6336ZM61.8646 58.8172L58.5333 59.0222C58.4764 58.7375 58.3539 58.4813 58.166 58.2535C57.9781 58.02 57.7304 57.8349 57.4229 57.6983C57.1211 57.5559 56.7595 57.4847 56.3381 57.4847C55.7743 57.4847 55.2988 57.6043 54.9116 57.8435C54.5244 58.077 54.3308 58.3902 54.3308 58.7831C54.3308 59.0963 54.4561 59.3611 54.7066 59.5775C54.9572 59.7939 55.3871 59.9675 55.9964 60.0985L58.371 60.5768C59.6466 60.8388 60.5976 61.2602 61.224 61.841C61.8503 62.4219 62.1635 63.1849 62.1635 64.1302C62.1635 64.9901 61.9101 65.7446 61.4033 66.3938C60.9022 67.0429 60.2132 67.5498 59.3362 67.9142C58.465 68.273 57.4599 68.4523 56.321 68.4523C54.5842 68.4523 53.2004 68.0907 52.1697 67.3675C51.1447 66.6386 50.5439 65.6478 50.3674 64.395L53.9464 64.2071C54.0546 64.7367 54.3165 65.141 54.7322 65.42C55.1479 65.6933 55.6804 65.83 56.3295 65.83C56.9673 65.83 57.4798 65.7076 57.8671 65.4627C58.26 65.2122 58.4593 64.8904 58.465 64.4975C58.4593 64.1672 58.3198 63.8967 58.0464 63.686C57.7731 63.4696 57.3517 63.3045 56.7823 63.1906L54.5101 62.7379C53.2289 62.4817 52.2751 62.0375 51.6487 61.4054C51.028 60.7733 50.7176 59.9675 50.7176 58.9881C50.7176 58.1453 50.9454 57.4192 51.401 56.8099C51.8622 56.2006 52.5085 55.7308 53.3399 55.4005C54.177 55.0703 55.1565 54.9051 56.2783 54.9051C57.9354 54.9051 59.2394 55.2553 60.1904 55.9558C61.1471 56.6562 61.7051 57.61 61.8646 58.8172ZM75.3712 58.8172L72.0399 59.0222C71.983 58.7375 71.8606 58.4813 71.6726 58.2535C71.4847 58.02 71.237 57.8349 70.9295 57.6983C70.6277 57.5559 70.2661 57.4847 69.8447 57.4847C69.2809 57.4847 68.8055 57.6043 68.4182 57.8435C68.031 58.077 67.8374 58.3902 67.8374 58.7831C67.8374 59.0963 67.9627 59.3611 68.2132 59.5775C68.4638 59.7939 68.8937 59.9675 69.503 60.0985L71.8776 60.5768C73.1532 60.8388 74.1042 61.2602 74.7306 61.841C75.357 62.4219 75.6702 63.1849 75.6702 64.1302C75.6702 64.9901 75.4168 65.7446 74.91 66.3938C74.4088 67.0429 73.7198 67.5498 72.8429 67.9142C71.9716 68.273 70.9665 68.4523 69.8276 68.4523C68.0908 68.4523 66.707 68.0907 65.6763 67.3675C64.6513 66.6386 64.0506 65.6478 63.874 64.395L67.453 64.2071C67.5612 64.7367 67.8232 65.141 68.2389 65.42C68.6546 65.6933 69.187 65.83 69.8362 65.83C70.4739 65.83 70.9864 65.7076 71.3737 65.4627C71.7666 65.2122 71.9659 64.8904 71.9716 64.4975C71.9659 64.1672 71.8264 63.8967 71.5531 63.686C71.2797 63.4696 70.8583 63.3045 70.2889 63.1906L68.0168 62.7379C66.7355 62.4817 65.7817 62.0375 65.1553 61.4054C64.5346 60.7733 64.2242 59.9675 64.2242 58.9881C64.2242 58.1453 64.452 57.4192 64.9076 56.8099C65.3688 56.2006 66.0152 55.7308 66.8466 55.4005C67.6836 55.0703 68.6631 54.9051 69.7849 54.9051C71.442 54.9051 72.746 55.2553 73.697 55.9558C74.6537 56.6562 75.2118 57.61 75.3712 58.8172ZM81.7028 68.4438C80.8657 68.4438 80.1197 68.2986 79.4648 68.0082C78.81 67.712 78.2918 67.2764 77.9102 66.7013C77.5344 66.1204 77.3465 65.3972 77.3465 64.5317C77.3465 63.8028 77.4803 63.1906 77.7479 62.6952C78.0156 62.1998 78.38 61.8012 78.8413 61.4994C79.3025 61.1975 79.8264 60.9698 80.413 60.816C81.0052 60.6623 81.6259 60.5541 82.2751 60.4914C83.0381 60.4117 83.6531 60.3377 84.1201 60.2693C84.587 60.1953 84.9259 60.0871 85.1366 59.9448C85.3472 59.8024 85.4526 59.5917 85.4526 59.3127V59.2614C85.4526 58.7204 85.2818 58.3019 84.9401 58.0058C84.6041 57.7097 84.1258 57.5616 83.5051 57.5616C82.8502 57.5616 82.3292 57.7068 81.9419 57.9972C81.5547 58.282 81.2985 58.6407 81.1732 59.0735L77.8077 58.8002C77.9786 58.0029 78.3145 57.3139 78.8157 56.7331C79.3168 56.1465 79.9631 55.6967 80.7546 55.3835C81.5519 55.0646 82.4744 54.9051 83.5222 54.9051C84.2511 54.9051 84.9486 54.9905 85.6149 55.1614C86.2868 55.3322 86.8819 55.597 87.4001 55.9558C87.924 56.3145 88.3369 56.7758 88.6387 57.3395C88.9405 57.8976 89.0914 58.5667 89.0914 59.3468V68.1961H85.6405V66.3767H85.538C85.3273 66.7867 85.0454 67.1483 84.6924 67.4615C84.3393 67.769 83.9151 68.011 83.4197 68.1875C82.9242 68.3584 82.3519 68.4438 81.7028 68.4438ZM82.7449 65.9325C83.2801 65.9325 83.7528 65.8272 84.1628 65.6165C84.5728 65.4001 84.8945 65.1097 85.128 64.7452C85.3615 64.3808 85.4782 63.9679 85.4782 63.5067V62.1144C85.3643 62.1884 85.2077 62.2567 85.0084 62.3194C84.8148 62.3763 84.5956 62.4304 84.3507 62.4817C84.1058 62.5272 83.861 62.5699 83.6161 62.6098C83.3713 62.6439 83.1492 62.6753 82.9499 62.7037C82.5228 62.7664 82.1498 62.866 81.8309 63.0027C81.512 63.1394 81.2643 63.3244 81.0878 63.5579C80.9112 63.7857 80.823 64.0704 80.823 64.4121C80.823 64.9075 81.0024 65.2862 81.3611 65.5481C81.7256 65.8044 82.1868 65.9325 82.7449 65.9325ZM103.409 68.4523C102.066 68.4523 100.91 68.1676 99.9415 67.5982C98.9792 67.023 98.2389 66.2258 97.7207 65.2065C97.2082 64.1872 96.9519 63.0141 96.9519 61.6873C96.9519 60.3434 97.211 59.1646 97.7292 58.151C98.2531 57.1317 98.9962 56.3373 99.9586 55.7678C100.921 55.1927 102.066 54.9051 103.392 54.9051C104.537 54.9051 105.539 55.113 106.399 55.5287C107.259 55.9444 107.939 56.5281 108.441 57.2797C108.942 58.0314 109.218 58.9141 109.269 59.9277H105.835C105.739 59.2728 105.482 58.7461 105.067 58.3475C104.657 57.9431 104.118 57.741 103.452 57.741C102.888 57.741 102.396 57.8947 101.974 58.2022C101.559 58.504 101.234 58.9454 101.001 59.5262C100.767 60.107 100.65 60.8103 100.65 61.636C100.65 62.4731 100.764 63.1849 100.992 63.7715C101.226 64.358 101.553 64.805 101.974 65.1125C102.396 65.42 102.888 65.5738 103.452 65.5738C103.868 65.5738 104.241 65.4883 104.571 65.3175C104.907 65.1467 105.183 64.899 105.4 64.5744C105.622 64.2441 105.767 63.8483 105.835 63.3871H109.269C109.212 64.3893 108.939 65.272 108.449 66.035C107.965 66.7924 107.296 67.3846 106.442 67.8117C105.588 68.2388 104.577 68.4523 103.409 68.4523ZM117.527 68.4523C116.2 68.4523 115.053 68.1705 114.085 67.6067C113.122 67.0372 112.379 66.2457 111.855 65.2321C111.331 64.2128 111.069 63.0312 111.069 61.6873C111.069 60.332 111.331 59.1475 111.855 58.1339C112.379 57.1146 113.122 56.3231 114.085 55.7593C115.053 55.1899 116.2 54.9051 117.527 54.9051C118.854 54.9051 119.998 55.1899 120.961 55.7593C121.929 56.3231 122.675 57.1146 123.199 58.1339C123.722 59.1475 123.984 60.332 123.984 61.6873C123.984 63.0312 123.722 64.2128 123.199 65.2321C122.675 66.2457 121.929 67.0372 120.961 67.6067C119.998 68.1705 118.854 68.4523 117.527 68.4523ZM117.544 65.6336C118.148 65.6336 118.651 65.4627 119.056 65.121C119.46 64.7737 119.765 64.301 119.97 63.7031C120.18 63.1052 120.286 62.4247 120.286 61.6616C120.286 60.8986 120.18 60.2181 119.97 59.6202C119.765 59.0222 119.46 58.5496 119.056 58.2022C118.651 57.8549 118.148 57.6812 117.544 57.6812C116.935 57.6812 116.422 57.8549 116.006 58.2022C115.596 58.5496 115.286 59.0222 115.075 59.6202C114.87 60.2181 114.768 60.8986 114.768 61.6616C114.768 62.4247 114.87 63.1052 115.075 63.7031C115.286 64.301 115.596 64.7737 116.006 65.121C116.422 65.4627 116.935 65.6336 117.544 65.6336ZM126.35 68.1961V55.076H129.818V57.3908H129.972C130.245 56.622 130.701 56.0156 131.339 55.5714C131.977 55.1272 132.74 54.9051 133.628 54.9051C134.528 54.9051 135.294 55.1301 135.926 55.5799C136.558 56.0241 136.979 56.6277 137.19 57.3908H137.327C137.594 56.6391 138.078 56.0383 138.779 55.5885C139.485 55.1329 140.319 54.9051 141.281 54.9051C142.506 54.9051 143.499 55.2952 144.262 56.0753C145.031 56.8498 145.416 57.9488 145.416 59.3725V68.1961H141.785V60.09C141.785 59.3611 141.592 58.8144 141.205 58.45C140.817 58.0855 140.333 57.9033 139.752 57.9033C139.092 57.9033 138.577 58.114 138.206 58.5354C137.836 58.9511 137.651 59.5006 137.651 60.1839V68.1961H134.123V60.0131C134.123 59.3696 133.938 58.8571 133.568 58.4756C133.204 58.094 132.723 57.9033 132.125 57.9033C131.72 57.9033 131.356 58.0058 131.031 58.2108C130.712 58.4101 130.459 58.692 130.271 59.0564C130.083 59.4152 129.989 59.8366 129.989 60.3206V68.1961H126.35ZM156.704 62.6098V55.076H160.342V68.1961H156.849V65.8129H156.712C156.416 66.5817 155.923 67.1995 155.234 67.6665C154.551 68.1334 153.717 68.3669 152.732 68.3669C151.855 68.3669 151.083 68.1676 150.417 67.769C149.751 67.3704 149.23 66.8038 148.854 66.0692C148.484 65.3346 148.296 64.4548 148.29 63.4298V55.076H151.929V62.7806C151.934 63.5551 152.142 64.1672 152.552 64.6171C152.962 65.067 153.512 65.2919 154.201 65.2919C154.639 65.2919 155.049 65.1922 155.431 64.9929C155.812 64.7879 156.12 64.4861 156.353 64.0875C156.592 63.6889 156.709 63.1963 156.704 62.6098ZM166.892 60.611V68.1961H163.253V55.076H166.721V57.3908H166.875C167.165 56.6277 167.652 56.0241 168.335 55.5799C169.019 55.1301 169.847 54.9051 170.821 54.9051C171.732 54.9051 172.526 55.1044 173.204 55.5031C173.882 55.9017 174.408 56.4711 174.784 57.2114C175.16 57.946 175.348 58.8229 175.348 59.8423V68.1961H171.709V60.4914C171.715 59.6885 171.51 59.0621 171.094 58.6122C170.679 58.1567 170.106 57.9289 169.377 57.9289C168.888 57.9289 168.455 58.0343 168.079 58.2449C167.709 58.4556 167.418 58.7631 167.208 59.1675C167.003 59.5661 166.897 60.0473 166.892 60.611ZM178.216 68.1961V55.076H181.855V68.1961H178.216ZM180.044 53.3847C179.503 53.3847 179.039 53.2053 178.652 52.8466C178.27 52.4821 178.079 52.0465 178.079 51.5397C178.079 51.0386 178.27 50.6086 178.652 50.2499C179.039 49.8854 179.503 49.7032 180.044 49.7032C180.585 49.7032 181.046 49.8854 181.428 50.2499C181.815 50.6086 182.008 51.0386 182.008 51.5397C182.008 52.0465 181.815 52.4821 181.428 52.8466C181.046 53.2053 180.585 53.3847 180.044 53.3847ZM189.604 68.4096C188.608 68.4096 187.705 68.1534 186.896 67.6409C186.094 67.1227 185.456 66.3624 184.983 65.3602C184.516 64.3523 184.283 63.1166 184.283 61.6531C184.283 60.1498 184.525 58.8998 185.009 57.9033C185.493 56.901 186.136 56.1522 186.939 55.6568C187.748 55.1557 188.633 54.9051 189.596 54.9051C190.33 54.9051 190.942 55.0304 191.432 55.281C191.928 55.5258 192.326 55.8333 192.628 56.2035C192.935 56.5679 193.169 56.9267 193.328 57.2797H193.439V50.7026H197.07V68.1961H193.482V66.0948H193.328C193.158 66.4593 192.916 66.8209 192.602 67.1796C192.295 67.5327 191.893 67.8259 191.398 68.0594C190.908 68.2929 190.31 68.4096 189.604 68.4096ZM190.757 65.514C191.344 65.514 191.839 65.3545 192.244 65.0356C192.654 64.711 192.967 64.2583 193.183 63.6775C193.405 63.0967 193.516 62.4162 193.516 61.636C193.516 60.8559 193.408 60.1782 193.192 59.6031C192.975 59.0279 192.662 58.5838 192.252 58.2706C191.842 57.9574 191.344 57.8008 190.757 57.8008C190.159 57.8008 189.655 57.9631 189.245 58.2877C188.835 58.6122 188.525 59.0621 188.314 59.6373C188.104 60.2124 187.998 60.8787 187.998 61.636C187.998 62.3991 188.104 63.0739 188.314 63.6604C188.531 64.2413 188.841 64.6968 189.245 65.0271C189.655 65.3517 190.159 65.514 190.757 65.514ZM203.803 68.4438C202.966 68.4438 202.22 68.2986 201.565 68.0082C200.91 67.712 200.392 67.2764 200.01 66.7013C199.634 66.1204 199.446 65.3972 199.446 64.5317C199.446 63.8028 199.58 63.1906 199.848 62.6952C200.115 62.1998 200.48 61.8012 200.941 61.4994C201.402 61.1975 201.926 60.9698 202.513 60.816C203.105 60.6623 203.726 60.5541 204.375 60.4914C205.138 60.4117 205.753 60.3377 206.22 60.2693C206.687 60.1953 207.026 60.0871 207.236 59.9448C207.447 59.8024 207.552 59.5917 207.552 59.3127V59.2614C207.552 58.7204 207.382 58.3019 207.04 58.0058C206.704 57.7097 206.226 57.5616 205.605 57.5616C204.95 57.5616 204.429 57.7068 204.042 57.9972C203.655 58.282 203.398 58.6407 203.273 59.0735L199.908 58.8002C200.078 58.0029 200.414 57.3139 200.916 56.7331C201.417 56.1465 202.063 55.6967 202.855 55.3835C203.652 55.0646 204.574 54.9051 205.622 54.9051C206.351 54.9051 207.049 54.9905 207.715 55.1614C208.387 55.3322 208.982 55.597 209.5 55.9558C210.024 56.3145 210.437 56.7758 210.739 57.3395C211.04 57.8976 211.191 58.5667 211.191 59.3468V68.1961H207.74V66.3767H207.638C207.427 66.7867 207.145 67.1483 206.792 67.4615C206.439 67.769 206.015 68.011 205.52 68.1875C205.024 68.3584 204.452 68.4438 203.803 68.4438ZM204.845 65.9325C205.38 65.9325 205.853 65.8272 206.263 65.6165C206.673 65.4001 206.994 65.1097 207.228 64.7452C207.461 64.3808 207.578 63.9679 207.578 63.5067V62.1144C207.464 62.1884 207.308 62.2567 207.108 62.3194C206.915 62.3763 206.695 62.4304 206.451 62.4817C206.206 62.5272 205.961 62.5699 205.716 62.6098C205.471 62.6439 205.249 62.6753 205.05 62.7037C204.623 62.7664 204.25 62.866 203.931 63.0027C203.612 63.1394 203.364 63.3244 203.188 63.5579C203.011 63.7857 202.923 64.0704 202.923 64.4121C202.923 64.9075 203.102 65.2862 203.461 65.5481C203.825 65.8044 204.287 65.9325 204.845 65.9325ZM218.849 68.4096C217.852 68.4096 216.95 68.1534 216.141 67.6409C215.338 67.1227 214.7 66.3624 214.228 65.3602C213.761 64.3523 213.527 63.1166 213.527 61.6531C213.527 60.1498 213.769 58.8998 214.253 57.9033C214.738 56.901 215.381 56.1522 216.184 55.6568C216.993 55.1557 217.878 54.9051 218.84 54.9051C219.575 54.9051 220.187 55.0304 220.677 55.281C221.172 55.5258 221.571 55.8333 221.873 56.2035C222.18 56.5679 222.414 56.9267 222.573 57.2797H222.684V50.7026H226.314V68.1961H222.727V66.0948H222.573C222.402 66.4593 222.16 66.8209 221.847 67.1796C221.54 67.5327 221.138 67.8259 220.643 68.0594C220.153 68.2929 219.555 68.4096 218.849 68.4096ZM220.002 65.514C220.589 65.514 221.084 65.3545 221.488 65.0356C221.898 64.711 222.212 64.2583 222.428 63.6775C222.65 63.0967 222.761 62.4162 222.761 61.636C222.761 60.8559 222.653 60.1782 222.436 59.6031C222.22 59.0279 221.907 58.5838 221.497 58.2706C221.087 57.9574 220.589 57.8008 220.002 57.8008C219.404 57.8008 218.9 57.9631 218.49 58.2877C218.08 58.6122 217.77 59.0621 217.559 59.6373C217.348 60.2124 217.243 60.8787 217.243 61.636C217.243 62.3991 217.348 63.0739 217.559 63.6604C217.776 64.2413 218.086 64.6968 218.49 65.0271C218.9 65.3517 219.404 65.514 220.002 65.514ZM235.285 68.4523C233.936 68.4523 232.774 68.179 231.8 67.6323C230.832 67.08 230.086 66.2998 229.562 65.2919C229.039 64.2783 228.777 63.0796 228.777 61.6958C228.777 60.3462 229.039 59.1618 229.562 58.1424C230.086 57.1231 230.824 56.3288 231.775 55.7593C232.731 55.1899 233.853 54.9051 235.14 54.9051C236.006 54.9051 236.812 55.0446 237.557 55.3237C238.309 55.597 238.964 56.0099 239.522 56.5622C240.086 57.1146 240.524 57.8093 240.838 58.6464C241.151 59.4778 241.307 60.4516 241.307 61.5677V62.5671H230.229V60.312H237.882C237.882 59.7882 237.768 59.3241 237.54 58.9197C237.313 58.5154 236.997 58.1994 236.592 57.9716C236.194 57.7381 235.73 57.6214 235.2 57.6214C234.648 57.6214 234.158 57.7495 233.731 58.0058C233.309 58.2563 232.979 58.5952 232.74 59.0222C232.501 59.4436 232.378 59.9134 232.373 60.4316V62.5756C232.373 63.2248 232.492 63.7857 232.731 64.2583C232.976 64.731 233.321 65.0954 233.765 65.3517C234.209 65.6079 234.736 65.7361 235.345 65.7361C235.749 65.7361 236.12 65.6791 236.456 65.5652C236.792 65.4513 237.079 65.2805 237.318 65.0527C237.557 64.8249 237.74 64.5459 237.865 64.2156L241.23 64.4377C241.06 65.2463 240.709 65.9524 240.18 66.5561C239.656 67.154 238.978 67.6209 238.147 67.9569C237.321 68.2872 236.367 68.4523 235.285 68.4523ZM255.228 68.4523C253.879 68.4523 252.717 68.179 251.743 67.6323C250.775 67.08 250.029 66.2998 249.505 65.2919C248.981 64.2783 248.719 63.0796 248.719 61.6958C248.719 60.3462 248.981 59.1618 249.505 58.1424C250.029 57.1231 250.767 56.3288 251.718 55.7593C252.674 55.1899 253.796 54.9051 255.083 54.9051C255.949 54.9051 256.754 55.0446 257.5 55.3237C258.252 55.597 258.907 56.0099 259.465 56.5622C260.029 57.1146 260.467 57.8093 260.78 58.6464C261.094 59.4778 261.25 60.4516 261.25 61.5677V62.5671H250.171V60.312H257.825C257.825 59.7882 257.711 59.3241 257.483 58.9197C257.255 58.5154 256.939 58.1994 256.535 57.9716C256.136 57.7381 255.672 57.6214 255.143 57.6214C254.59 57.6214 254.101 57.7495 253.674 58.0058C253.252 58.2563 252.922 58.5952 252.683 59.0222C252.444 59.4436 252.321 59.9134 252.315 60.4316V62.5756C252.315 63.2248 252.435 63.7857 252.674 64.2583C252.919 64.731 253.264 65.0954 253.708 65.3517C254.152 65.6079 254.679 65.7361 255.288 65.7361C255.692 65.7361 256.062 65.6791 256.398 65.5652C256.734 65.4513 257.022 65.2805 257.261 65.0527C257.5 64.8249 257.683 64.5459 257.808 64.2156L261.173 64.4377C261.002 65.2463 260.652 65.9524 260.123 66.5561C259.599 67.154 258.921 67.6209 258.09 67.9569C257.264 68.2872 256.31 68.4523 255.228 68.4523ZM272.933 68.4438C272.096 68.4438 271.35 68.2986 270.695 68.0082C270.04 67.712 269.522 67.2764 269.141 66.7013C268.765 66.1204 268.577 65.3972 268.577 64.5317C268.577 63.8028 268.711 63.1906 268.978 62.6952C269.246 62.1998 269.61 61.8012 270.072 61.4994C270.533 61.1975 271.057 60.9698 271.643 60.816C272.236 60.6623 272.856 60.5541 273.505 60.4914C274.268 60.4117 274.883 60.3377 275.35 60.2693C275.817 60.1953 276.156 60.0871 276.367 59.9448C276.578 59.8024 276.683 59.5917 276.683 59.3127V59.2614C276.683 58.7204 276.512 58.3019 276.17 58.0058C275.834 57.7097 275.356 57.5616 274.735 57.5616C274.081 57.5616 273.559 57.7068 273.172 57.9972C272.785 58.282 272.529 58.6407 272.404 59.0735L269.038 58.8002C269.209 58.0029 269.545 57.3139 270.046 56.7331C270.547 56.1465 271.193 55.6967 271.985 55.3835C272.782 55.0646 273.705 54.9051 274.752 54.9051C275.481 54.9051 276.179 54.9905 276.845 55.1614C277.517 55.3322 278.112 55.597 278.63 55.9558C279.154 56.3145 279.567 56.7758 279.869 57.3395C280.171 57.8976 280.322 58.5667 280.322 59.3468V68.1961H276.871V66.3767H276.768C276.558 66.7867 276.276 67.1483 275.923 67.4615C275.57 67.769 275.145 68.011 274.65 68.1875C274.155 68.3584 273.582 68.4438 272.933 68.4438ZM273.975 65.9325C274.51 65.9325 274.983 65.8272 275.393 65.6165C275.803 65.4001 276.125 65.1097 276.358 64.7452C276.592 64.3808 276.709 63.9679 276.709 63.5067V62.1144C276.595 62.1884 276.438 62.2567 276.239 62.3194C276.045 62.3763 275.826 62.4304 275.581 62.4817C275.336 62.5272 275.091 62.5699 274.846 62.6098C274.602 62.6439 274.379 62.6753 274.18 62.7037C273.753 62.7664 273.38 62.866 273.061 63.0027C272.742 63.1394 272.495 63.3244 272.318 63.5579C272.142 63.7857 272.053 64.0704 272.053 64.4121C272.053 64.9075 272.233 65.2862 272.591 65.5481C272.956 65.8044 273.417 65.9325 273.975 65.9325ZM291.815 73.1161V66.0948H291.704C291.533 66.4593 291.291 66.8209 290.978 67.1796C290.67 67.5327 290.269 67.8259 289.773 68.0594C289.283 68.2929 288.685 68.4096 287.979 68.4096C286.983 68.4096 286.08 68.1534 285.272 67.6409C284.469 67.1227 283.831 66.3624 283.358 65.3602C282.891 64.3523 282.658 63.1166 282.658 61.6531C282.658 60.1498 282.9 58.8998 283.384 57.9033C283.868 56.901 284.511 56.1522 285.314 55.6568C286.123 55.1557 287.008 54.9051 287.971 54.9051C288.705 54.9051 289.318 55.0304 289.807 55.281C290.303 55.5258 290.701 55.8333 291.003 56.2035C291.311 56.5679 291.544 56.9267 291.704 57.2797H291.857V55.076H295.445V73.1161H291.815ZM289.132 65.514C289.719 65.514 290.214 65.3545 290.619 65.0356C291.029 64.711 291.342 64.2583 291.558 63.6775C291.78 63.0967 291.891 62.4162 291.891 61.636C291.891 60.8559 291.783 60.1782 291.567 59.6031C291.351 59.0279 291.037 58.5838 290.627 58.2706C290.217 57.9574 289.719 57.8008 289.132 57.8008C288.535 57.8008 288.031 57.9631 287.621 58.2877C287.211 58.6122 286.9 59.0621 286.69 59.6373C286.479 60.2124 286.374 60.8787 286.374 61.636C286.374 62.3991 286.479 63.0739 286.69 63.6604C286.906 64.2413 287.216 64.6968 287.621 65.0271C288.031 65.3517 288.535 65.514 289.132 65.514ZM306.78 62.6098V55.076H310.419V68.1961H306.925V65.8129H306.788C306.492 66.5817 306 67.1995 305.311 67.6665C304.627 68.1334 303.793 68.3669 302.808 68.3669C301.931 68.3669 301.159 68.1676 300.493 67.769C299.827 67.3704 299.306 66.8038 298.93 66.0692C298.56 65.3346 298.372 64.4548 298.366 63.4298V55.076H302.005V62.7806C302.011 63.5551 302.218 64.1672 302.628 64.6171C303.038 65.067 303.588 65.2919 304.277 65.2919C304.715 65.2919 305.125 65.1922 305.507 64.9929C305.889 64.7879 306.196 64.4861 306.43 64.0875C306.669 63.6889 306.785 63.1963 306.78 62.6098ZM313.329 68.1961V55.076H316.968V68.1961H313.329ZM315.157 53.3847C314.616 53.3847 314.152 53.2053 313.765 52.8466C313.383 52.4821 313.192 52.0465 313.192 51.5397C313.192 51.0386 313.383 50.6086 313.765 50.2499C314.152 49.8854 314.616 49.7032 315.157 49.7032C315.698 49.7032 316.159 49.8854 316.541 50.2499C316.928 50.6086 317.122 51.0386 317.122 51.5397C317.122 52.0465 316.928 52.4821 316.541 52.8466C316.159 53.2053 315.698 53.3847 315.157 53.3847ZM117.3 84.076L112.714 97.1961H108.614L104.027 84.076H107.87L110.595 93.4633H110.732L113.448 84.076H117.3ZM124.668 97.4523C123.341 97.4523 122.193 97.1705 121.225 96.6067C120.263 96.0372 119.52 95.2457 118.996 94.2321C118.472 93.2128 118.21 92.0312 118.21 90.6873C118.21 89.332 118.472 88.1475 118.996 87.1339C119.52 86.1146 120.263 85.3231 121.225 84.7593C122.193 84.1899 123.341 83.9051 124.668 83.9051C125.995 83.9051 127.139 84.1899 128.102 84.7593C129.07 85.3231 129.816 86.1146 130.339 87.1339C130.863 88.1475 131.125 89.332 131.125 90.6873C131.125 92.0312 130.863 93.2128 130.339 94.2321C129.816 95.2457 129.07 96.0372 128.102 96.6067C127.139 97.1705 125.995 97.4523 124.668 97.4523ZM124.685 94.6336C125.288 94.6336 125.792 94.4627 126.197 94.121C126.601 93.7737 126.906 93.301 127.111 92.7031C127.321 92.1052 127.427 91.4247 127.427 90.6616C127.427 89.8986 127.321 89.2181 127.111 88.6202C126.906 88.0222 126.601 87.5496 126.197 87.2022C125.792 86.8549 125.288 86.6812 124.685 86.6812C124.075 86.6812 123.563 86.8549 123.147 87.2022C122.737 87.5496 122.427 88.0222 122.216 88.6202C122.011 89.2181 121.909 89.8986 121.909 90.6616C121.909 91.4247 122.011 92.1052 122.216 92.7031C122.427 93.301 122.737 93.7737 123.147 94.121C123.563 94.4627 124.075 94.6336 124.685 94.6336ZM139.419 97.4523C138.075 97.4523 136.919 97.1676 135.951 96.5982C134.989 96.023 134.249 95.2258 133.731 94.2065C133.218 93.1872 132.962 92.0141 132.962 90.6873C132.962 89.3434 133.221 88.1646 133.739 87.151C134.263 86.1317 135.006 85.3373 135.968 84.7678C136.931 84.1927 138.075 83.9051 139.402 83.9051C140.547 83.9051 141.549 84.113 142.409 84.5287C143.269 84.9444 143.949 85.5281 144.45 86.2797C144.952 87.0314 145.228 87.9141 145.279 88.9277H141.845C141.748 88.2728 141.492 87.7461 141.076 87.3475C140.666 86.9431 140.128 86.741 139.462 86.741C138.898 86.741 138.406 86.8947 137.984 87.2022C137.569 87.504 137.244 87.9454 137.011 88.5262C136.777 89.107 136.66 89.8103 136.66 90.636C136.66 91.4731 136.774 92.1849 137.002 92.7715C137.235 93.358 137.563 93.805 137.984 94.1125C138.406 94.42 138.898 94.5738 139.462 94.5738C139.878 94.5738 140.251 94.4883 140.581 94.3175C140.917 94.1467 141.193 93.899 141.41 93.5744C141.632 93.2441 141.777 92.8483 141.845 92.3871H145.279C145.222 93.3893 144.949 94.272 144.459 95.035C143.975 95.7924 143.306 96.3846 142.452 96.8117C141.597 97.2388 140.587 97.4523 139.419 97.4523ZM153.588 97.4523C152.238 97.4523 151.077 97.179 150.103 96.6323C149.135 96.08 148.389 95.2998 147.865 94.2919C147.341 93.2783 147.079 92.0796 147.079 90.6958C147.079 89.3462 147.341 88.1618 147.865 87.1424C148.389 86.1231 149.126 85.3288 150.077 84.7593C151.034 84.1899 152.156 83.9051 153.443 83.9051C154.308 83.9051 155.114 84.0446 155.86 84.3237C156.612 84.597 157.267 85.0099 157.825 85.5622C158.388 86.1146 158.827 86.8093 159.14 87.6464C159.453 88.4778 159.61 89.4516 159.61 90.5677V91.5671H148.531V89.312H156.185C156.185 88.7882 156.071 88.3241 155.843 87.9197C155.615 87.5154 155.299 87.1994 154.895 86.9716C154.496 86.7381 154.032 86.6214 153.502 86.6214C152.95 86.6214 152.46 86.7495 152.033 87.0058C151.612 87.2563 151.282 87.5952 151.042 88.0222C150.803 88.4436 150.681 88.9134 150.675 89.4316V91.5756C150.675 92.2248 150.795 92.7857 151.034 93.2583C151.279 93.731 151.623 94.0954 152.067 94.3517C152.512 94.6079 153.038 94.7361 153.648 94.7361C154.052 94.7361 154.422 94.6791 154.758 94.5652C155.094 94.4513 155.382 94.2805 155.621 94.0527C155.86 93.8249 156.042 93.5459 156.168 93.2156L159.533 93.4377C159.362 94.2463 159.012 94.9524 158.482 95.5561C157.958 96.154 157.281 96.6209 156.449 96.9569C155.624 97.2872 154.67 97.4523 153.588 97.4523ZM155.074 82.5043L153.357 80.4201L151.64 82.5043H148.54V82.3847L151.999 78.6263H154.707L158.175 82.3847V82.5043H155.074ZM174.53 84.076V86.8093H166.629V84.076H174.53ZM168.423 80.9326H172.062V93.1644C172.062 93.5003 172.113 93.7623 172.215 93.9502C172.318 94.1324 172.46 94.2606 172.642 94.3346C172.83 94.4086 173.047 94.4456 173.292 94.4456C173.462 94.4456 173.633 94.4314 173.804 94.4029C173.975 94.3688 174.106 94.3431 174.197 94.3261L174.769 97.0338C174.587 97.0907 174.331 97.1562 174.001 97.2302C173.67 97.31 173.269 97.3584 172.796 97.3755C171.919 97.4096 171.15 97.2929 170.49 97.0252C169.835 96.7576 169.325 96.3419 168.961 95.7781C168.596 95.2144 168.417 94.5026 168.423 93.6427V80.9326ZM182.739 97.4523C181.389 97.4523 180.227 97.179 179.254 96.6323C178.286 96.08 177.54 95.2998 177.016 94.2919C176.492 93.2783 176.23 92.0796 176.23 90.6958C176.23 89.3462 176.492 88.1618 177.016 87.1424C177.54 86.1231 178.277 85.3288 179.228 84.7593C180.185 84.1899 181.307 83.9051 182.594 83.9051C183.459 83.9051 184.265 84.0446 185.011 84.3237C185.763 84.597 186.417 85.0099 186.975 85.5622C187.539 86.1146 187.978 86.8093 188.291 87.6464C188.604 88.4778 188.761 89.4516 188.761 90.5677V91.5671H177.682V89.312H185.335C185.335 88.7882 185.222 88.3241 184.994 87.9197C184.766 87.5154 184.45 87.1994 184.046 86.9716C183.647 86.7381 183.183 86.6214 182.653 86.6214C182.101 86.6214 181.611 86.7495 181.184 87.0058C180.763 87.2563 180.432 87.5952 180.193 88.0222C179.954 88.4436 179.832 88.9134 179.826 89.4316V91.5756C179.826 92.2248 179.946 92.7857 180.185 93.2583C180.43 93.731 180.774 94.0954 181.218 94.3517C181.662 94.6079 182.189 94.7361 182.799 94.7361C183.203 94.7361 183.573 94.6791 183.909 94.5652C184.245 94.4513 184.532 94.2805 184.772 94.0527C185.011 93.8249 185.193 93.5459 185.318 93.2156L188.684 93.4377C188.513 94.2463 188.163 94.9524 187.633 95.5561C187.109 96.154 186.432 96.6209 185.6 96.9569C184.775 97.2872 183.821 97.4523 182.739 97.4523ZM191.135 97.1961V84.076H194.663V86.3652H194.8C195.039 85.5508 195.44 84.9358 196.004 84.5201C196.568 84.0987 197.217 83.888 197.952 83.888C198.134 83.888 198.33 83.8994 198.541 83.9222C198.752 83.945 198.937 83.9763 199.096 84.0162V87.2449C198.925 87.1937 198.689 87.1481 198.387 87.1083C198.085 87.0684 197.809 87.0485 197.559 87.0485C197.023 87.0485 196.545 87.1652 196.124 87.3987C195.708 87.6265 195.378 87.9454 195.133 88.3554C194.894 88.7654 194.774 89.238 194.774 89.7733V97.1961H191.135ZM204.343 97.4438C203.506 97.4438 202.76 97.2986 202.105 97.0082C201.45 96.712 200.932 96.2764 200.55 95.7013C200.175 95.1204 199.987 94.3972 199.987 93.5317C199.987 92.8028 200.12 92.1906 200.388 91.6952C200.656 91.1998 201.02 90.8012 201.481 90.4994C201.943 90.1975 202.467 89.9698 203.053 89.816C203.645 89.6623 204.266 89.5541 204.915 89.4914C205.678 89.4117 206.293 89.3377 206.76 89.2693C207.227 89.1953 207.566 89.0871 207.777 88.9448C207.987 88.8024 208.093 88.5917 208.093 88.3127V88.2614C208.093 87.7204 207.922 87.3019 207.58 87.0058C207.244 86.7097 206.766 86.5616 206.145 86.5616C205.49 86.5616 204.969 86.7068 204.582 86.9972C204.195 87.282 203.939 87.6407 203.813 88.0735L200.448 87.8002C200.619 87.0029 200.955 86.3139 201.456 85.7331C201.957 85.1465 202.603 84.6967 203.395 84.3835C204.192 84.0646 205.115 83.9051 206.162 83.9051C206.891 83.9051 207.589 83.9905 208.255 84.1614C208.927 84.3322 209.522 84.597 210.04 84.9558C210.564 85.3145 210.977 85.7758 211.279 86.3395C211.581 86.8976 211.732 87.5667 211.732 88.3468V97.1961H208.281V95.3767H208.178C207.967 95.7867 207.686 96.1483 207.333 96.4615C206.979 96.769 206.555 97.011 206.06 97.1875C205.564 97.3584 204.992 97.4438 204.343 97.4438ZM205.385 94.9325C205.92 94.9325 206.393 94.8272 206.803 94.6165C207.213 94.4001 207.535 94.1097 207.768 93.7452C208.002 93.3808 208.118 92.9679 208.118 92.5067V91.1144C208.004 91.1884 207.848 91.2567 207.649 91.3194C207.455 91.3763 207.236 91.4304 206.991 91.4817C206.746 91.5272 206.501 91.5699 206.256 91.6098C206.011 91.6439 205.789 91.6753 205.59 91.7037C205.163 91.7664 204.79 91.866 204.471 92.0027C204.152 92.1394 203.904 92.3244 203.728 92.5579C203.551 92.7857 203.463 93.0704 203.463 93.4121C203.463 93.9075 203.643 94.2862 204.001 94.5481C204.366 94.8044 204.827 94.9325 205.385 94.9325ZM204.992 82.3847L206.803 78.4982H210.168L207.563 82.3847H204.992ZM216.681 97.4182C216.118 97.4182 215.634 97.2189 215.229 96.8202C214.831 96.4159 214.631 95.9319 214.631 95.3681C214.631 94.8101 214.831 94.3317 215.229 93.9331C215.634 93.5345 216.118 93.3352 216.681 93.3352C217.228 93.3352 217.706 93.5345 218.116 93.9331C218.526 94.3317 218.731 94.8101 218.731 95.3681C218.731 95.744 218.635 96.0885 218.441 96.4017C218.253 96.7092 218.005 96.9569 217.698 97.1448C217.39 97.327 217.052 97.4182 216.681 97.4182ZM223.846 97.4182C223.282 97.4182 222.798 97.2189 222.394 96.8202C221.995 96.4159 221.796 95.9319 221.796 95.3681C221.796 94.8101 221.995 94.3317 222.394 93.9331C222.798 93.5345 223.282 93.3352 223.846 93.3352C224.393 93.3352 224.871 93.5345 225.281 93.9331C225.691 94.3317 225.896 94.8101 225.896 95.3681C225.896 95.744 225.799 96.0885 225.605 96.4017C225.418 96.7092 225.17 96.9569 224.862 97.1448C224.555 97.327 224.216 97.4182 223.846 97.4182ZM231.01 97.4182C230.446 97.4182 229.962 97.2189 229.558 96.8202C229.16 96.4159 228.96 95.9319 228.96 95.3681C228.96 94.8101 229.16 94.3317 229.558 93.9331C229.962 93.5345 230.446 93.3352 231.01 93.3352C231.557 93.3352 232.035 93.5345 232.445 93.9331C232.855 94.3317 233.06 94.8101 233.06 95.3681C233.06 95.744 232.963 96.0885 232.77 96.4017C232.582 96.7092 232.334 96.9569 232.027 97.1448C231.719 97.327 231.38 97.4182 231.01 97.4182Z" fill="white"/>
<g filter="url(#filter1_d_369_140)">
<path d="M437.233 158.711H357.239C343.402 158.711 332.186 171.031 332.186 186.229V203.125C332.186 218.323 343.402 230.643 357.239 230.643H437.233C451.069 230.643 462.286 218.323 462.286 203.125V186.229C462.286 171.031 451.069 158.711 437.233 158.711Z" fill="url(#paint0_linear_369_140)"/>
<path d="M437.233 158.952H357.239C343.524 158.952 332.405 171.164 332.405 186.229V203.125C332.405 218.19 343.524 230.402 357.239 230.402H437.233C450.948 230.402 462.066 218.19 462.066 203.125V186.229C462.066 171.164 450.948 158.952 437.233 158.952Z" fill="url(#paint1_linear_369_140)" stroke="black" stroke-width="2.98055"/>
</g>
<path d="M486.185 156.035C486.185 154.302 484.906 152.897 483.328 152.897C481.75 152.897 480.471 154.302 480.471 156.035V217.829C480.471 219.562 481.75 220.967 483.328 220.967C484.906 220.967 486.185 219.562 486.185 217.829V156.035Z" fill="url(#paint2_linear_369_140)"/>
<g filter="url(#filter2_d_369_140)">
<path d="M396.8 96.2248C397.07 96.0554 397.401 96.0554 397.671 96.2248L486.001 151.596C486.592 151.967 486.592 152.903 486.001 153.274L397.671 208.645C397.401 208.815 397.07 208.815 396.8 208.645L308.47 153.274C307.879 152.903 307.879 151.967 308.47 151.596L396.8 96.2248Z" fill="url(#paint3_linear_369_140)"/>
<path d="M397.018 96.6438C397.153 96.5593 397.318 96.5593 397.454 96.6438L485.783 152.016C486.079 152.201 486.079 152.669 485.783 152.854L397.454 208.226C397.318 208.311 397.153 208.311 397.018 208.226L308.688 152.854C308.393 152.669 308.393 152.201 308.688 152.015L397.018 96.6438Z" stroke="black" stroke-width="5.96109"/>
</g>
<circle cx="483.452" cy="227.411" r="11.9222" fill="#FBCB4E"/>
<circle cx="483.452" cy="227.411" r="10.4319" stroke="black" stroke-opacity="0.08" stroke-width="2.98055"/>
<circle cx="483.452" cy="227.411" r="10.4319" stroke="black" stroke-opacity="0.08" stroke-width="2.98055"/>
<path d="M483.452 242.313V251.255" stroke="#FBCB4E" stroke-width="2.98055"/>
<path d="M498.355 227.411H507.296" stroke="#FBCB4E" stroke-width="2.98055"/>
<path d="M468.549 227.411H459.607" stroke="#FBCB4E" stroke-width="2.98055"/>
<path d="M471.53 239.333L465.569 245.294" stroke="#FBCB4E" stroke-width="2.98055"/>
<path d="M495.374 239.333L501.335 245.294" stroke="#FBCB4E" stroke-width="2.98055"/>
<path d="M495.374 215.488L501.335 209.527" stroke="#FBCB4E" stroke-width="2.98055"/>
<path d="M471.53 215.488L465.569 209.527" stroke="#FBCB4E" stroke-width="2.98055"/>
<g filter="url(#filter3_d_369_140)">
<path d="M272.327 116.211C275.027 118.911 277.779 121.193 280.307 124.131C283.809 128.201 288.057 131.132 292.659 133.816C294.168 134.696 295.883 137.675 296.329 134.799C297.206 129.145 296.87 123.316 296.87 117.614C296.87 115.212 296.741 115.023 294.183 114.607C291.087 114.103 287.991 114.128 284.879 113.524C281.719 112.91 276.866 111.33 273.61 112.26C273.22 112.372 272.399 115.848 272.327 116.211Z" fill="#1F2444"/>
<path d="M272.327 116.211C275.027 118.911 277.779 121.193 280.307 124.131C283.809 128.201 288.057 131.132 292.659 133.816C294.168 134.696 295.883 137.675 296.329 134.799C297.206 129.145 296.87 123.316 296.87 117.614C296.87 115.212 296.741 115.023 294.183 114.607C291.087 114.103 287.991 114.128 284.879 113.524C281.719 112.91 276.866 111.33 273.61 112.26C273.22 112.372 272.399 115.848 272.327 116.211Z" stroke="#1F2444" stroke-width="4.81071" stroke-linecap="round"/>
</g>
<path d="M354.173 214.768C354.173 214.261 354.397 213.781 354.784 213.455L356.748 211.806C359.431 209.552 363.347 209.552 366.03 211.806L367.993 213.455C368.381 213.781 368.605 214.261 368.605 214.768C368.605 215.903 367.521 216.725 366.428 216.419L363.009 215.462C361.949 215.165 360.828 215.165 359.768 215.462L356.349 216.419C355.256 216.725 354.173 215.903 354.173 214.768Z" fill="#080707" stroke="black" stroke-width="1.60357"/>
<path d="M426.333 214.768C426.333 214.261 426.557 213.781 426.945 213.455L428.908 211.806C431.592 209.552 435.507 209.552 438.191 211.806L440.154 213.455C440.542 213.781 440.765 214.261 440.765 214.768C440.765 215.903 439.682 216.725 438.589 216.419L435.17 215.462C434.11 215.165 432.989 215.165 431.929 215.462L428.51 216.419C427.417 216.725 426.333 215.903 426.333 214.768Z" fill="#080707" stroke="black" stroke-width="1.60357"/>
<defs>
<filter id="filter0_d_369_140" x="0.585723" y="0" width="338.353" height="131.6" filterUnits="userSpaceOnUse" color-interpolation-filters="sRGB">
<feFlood flood-opacity="0" result="BackgroundImageFix"/>
<feColorMatrix in="SourceAlpha" type="matrix" values="0 0 0 0 0 0 0 0 0 0 0 0 0 0 0 0 0 0 127 0" result="hardAlpha"/>
<feOffset dy="6.41428"/>
<feGaussianBlur stdDeviation="3.20714"/>
<feComposite in2="hardAlpha" operator="out"/>
<feColorMatrix type="matrix" values="0 0 0 0 0 0 0 0 0 0 0 0 0 0 0 0 0 0 0.25 0"/>
<feBlend mode="normal" in2="BackgroundImageFix" result="effect1_dropShadow_369_140"/>
<feBlend mode="normal" in="SourceGraphic" in2="effect1_dropShadow_369_140" result="shape"/>
</filter>
<filter id="filter1_d_369_140" x="318.993" y="157.462" width="156.486" height="98.2741" filterUnits="userSpaceOnUse" color-interpolation-filters="sRGB">
<feFlood flood-opacity="0" result="BackgroundImageFix"/>
<feColorMatrix in="SourceAlpha" type="matrix" values="0 0 0 0 0 0 0 0 0 0 0 0 0 0 0 0 0 0 127 0" result="hardAlpha"/>
<feOffset dy="11.9222"/>
<feGaussianBlur stdDeviation="5.96109"/>
<feComposite in2="hardAlpha" operator="out"/>
<feColorMatrix type="matrix" values="0 0 0 0 0 0 0 0 0 0 0 0 0 0 0 0 0 0 0.25 0"/>
<feBlend mode="normal" in2="BackgroundImageFix" result="effect1_dropShadow_369_140"/>
<feBlend mode="normal" in="SourceGraphic" in2="effect1_dropShadow_369_140" result="shape"/>
</filter>
<filter id="filter2_d_369_140" x="293.564" y="93.5999" width="207.344" height="141.515" filterUnits="userSpaceOnUse" color-interpolation-filters="sRGB">
<feFlood flood-opacity="0" result="BackgroundImageFix"/>
<feColorMatrix in="SourceAlpha" type="matrix" values="0 0 0 0 0 0 0 0 0 0 0 0 0 0 0 0 0 0 127 0" result="hardAlpha"/>
<feOffset dy="11.9222"/>
<feGaussianBlur stdDeviation="5.96109"/>
<feComposite in2="hardAlpha" operator="out"/>
<feColorMatrix type="matrix" values="0 0 0 0 0 0 0 0 0 0 0 0 0 0 0 0 0 0 0.25 0"/>
<feBlend mode="normal" in2="BackgroundImageFix" result="effect1_dropShadow_369_140"/>
<feBlend mode="normal" in="SourceGraphic" in2="effect1_dropShadow_369_140" result="shape"/>
</filter>
<filter id="filter3_d_369_140" x="263.301" y="109.569" width="42.4525" height="41.6878" filterUnits="userSpaceOnUse" color-interpolation-filters="sRGB">
<feFlood flood-opacity="0" result="BackgroundImageFix"/>
<feColorMatrix in="SourceAlpha" type="matrix" values="0 0 0 0 0 0 0 0 0 0 0 0 0 0 0 0 0 0 127 0" result="hardAlpha"/>
<feOffset dy="6.41428"/>
<feGaussianBlur stdDeviation="3.20714"/>
<feComposite in2="hardAlpha" operator="out"/>
<feColorMatrix type="matrix" values="0 0 0 0 0 0 0 0 0 0 0 0 0 0 0 0 0 0 0.25 0"/>
<feBlend mode="normal" in2="BackgroundImageFix" result="effect1_dropShadow_369_140"/>
<feBlend mode="normal" in="SourceGraphic" in2="effect1_dropShadow_369_140" result="shape"/>
</filter>
<linearGradient id="paint0_linear_369_140" x1="397.236" y1="158.711" x2="397.236" y2="230.643" gradientUnits="userSpaceOnUse">
<stop stop-color="#3085AA"/>
<stop offset="1" stop-color="#1B4469"/>
</linearGradient>
<linearGradient id="paint1_linear_369_140" x1="397.236" y1="158.952" x2="397.236" y2="230.402" gradientUnits="userSpaceOnUse">
<stop stop-color="#3085AA"/>
<stop offset="1" stop-color="#1B4469"/>
</linearGradient>
<linearGradient id="paint2_linear_369_140" x1="483.328" y1="152.897" x2="483.328" y2="220.967" gradientUnits="userSpaceOnUse">
<stop stop-color="#145377"/>
<stop offset="1" stop-color="#733A37"/>
</linearGradient>
<linearGradient id="paint3_linear_369_140" x1="397.236" y1="84.3652" x2="397.236" y2="208.919" gradientUnits="userSpaceOnUse">
<stop stop-color="#FF3030"/>
<stop offset="1" stop-color="#1B4469"/>
</linearGradient>
</defs>
</svg>
