<svg width="300" height="117" viewBox="0 0 300 117" fill="none" xmlns="http://www.w3.org/2000/svg">
<rect width="300" height="117" fill="#171621"/>
<path d="M162.226 53.7587C163.722 53.7587 165.053 54.1143 166.22 54.8256C167.388 55.5368 168.236 56.476 168.765 57.6432C168.828 57.7709 168.86 57.9077 168.86 58.0536C168.86 58.318 168.765 58.546 168.573 58.7375C168.382 58.929 168.154 59.0247 167.889 59.0247C167.716 59.0247 167.538 58.97 167.356 58.8606C167.182 58.742 167.059 58.6007 166.986 58.4365C166.613 57.5976 165.997 56.9365 165.14 56.4532C164.292 55.9608 163.321 55.7146 162.226 55.7146C161.643 55.7146 161.037 55.7876 160.407 55.9335C159.787 56.0703 159.208 56.28 158.67 56.5627C158.141 56.8453 157.713 57.2055 157.384 57.6432C157.056 58.0718 156.892 58.5733 156.892 59.1478C156.892 59.8135 157.111 60.356 157.549 60.7755C157.986 61.1858 158.543 61.5095 159.217 61.7466C159.901 61.9746 160.612 62.1524 161.351 62.2801C162.099 62.3986 162.778 62.4989 163.389 62.581C164.119 62.6813 164.844 62.8363 165.564 63.046C166.293 63.2466 166.955 63.5339 167.547 63.9077C168.14 64.2725 168.614 64.7466 168.97 65.3302C169.334 65.9138 169.517 66.6296 169.517 67.4777C169.517 68.4078 169.293 69.2193 168.847 69.9124C168.4 70.5963 167.812 71.1662 167.082 71.6221C166.362 72.0689 165.573 72.4063 164.716 72.6343C163.868 72.8531 163.038 72.9625 162.226 72.9625C160.54 72.9625 159.021 72.5796 157.672 71.8136C156.322 71.0476 155.36 70.0035 154.786 68.6813C154.731 68.5354 154.704 68.4032 154.704 68.2847C154.704 68.0202 154.799 67.7923 154.991 67.6008C155.182 67.4093 155.41 67.3135 155.675 67.3135C155.857 67.3135 156.035 67.3728 156.208 67.4914C156.391 67.6099 156.514 67.7512 156.577 67.9154C157.006 68.8911 157.722 69.657 158.725 70.2133C159.737 70.7695 160.904 71.0476 162.226 71.0476C162.81 71.0476 163.412 70.9792 164.032 70.8425C164.661 70.6966 165.245 70.4823 165.783 70.1996C166.321 69.9078 166.754 69.5385 167.082 69.0917C167.42 68.6357 167.588 68.0977 167.588 67.4777C167.588 66.7482 167.351 66.1874 166.877 65.7953C166.412 65.3941 165.837 65.1023 165.154 64.9199C164.47 64.7284 163.795 64.5916 163.129 64.5096C162.236 64.3819 161.31 64.2223 160.353 64.0308C159.404 63.8393 158.52 63.5612 157.699 63.1965C156.878 62.8317 156.213 62.3256 155.702 61.6782C155.191 61.0217 154.936 60.1736 154.936 59.1341C154.936 58.2587 155.155 57.4882 155.593 56.8225C156.03 56.1478 156.605 55.587 157.316 55.1402C158.036 54.6842 158.825 54.3423 159.682 54.1143C160.54 53.8772 161.388 53.7587 162.226 53.7587ZM179.788 58.628C180.764 58.628 181.64 58.9107 182.415 59.4761C183.199 60.0414 183.883 60.6387 184.466 61.2679L184.589 59.5445C184.589 59.28 184.662 59.0566 184.808 58.8742C184.954 58.6828 185.159 58.587 185.424 58.587C185.688 58.587 185.912 58.6828 186.094 58.8742C186.285 59.0566 186.381 59.28 186.381 59.5445V71.9093C186.381 72.1738 186.285 72.4017 186.094 72.5932C185.912 72.7756 185.688 72.8668 185.424 72.8668C185.159 72.8668 184.931 72.7756 184.74 72.5932C184.557 72.4017 184.466 72.1738 184.466 71.9093V70.3501C183.864 71.0066 183.149 71.5993 182.319 72.1282C181.498 72.6571 180.632 72.9215 179.72 72.9215C178.781 72.9215 177.91 72.73 177.108 72.347C176.305 71.9549 175.603 71.4261 175.001 70.7604C174.399 70.0947 173.93 69.3379 173.592 68.4898C173.264 67.6327 173.1 66.7345 173.1 65.7953C173.1 64.8652 173.264 63.9716 173.592 63.1144C173.93 62.2481 174.399 61.4822 175.001 60.8165C175.612 60.1417 176.323 59.6083 177.135 59.2162C177.946 58.8241 178.831 58.628 179.788 58.628ZM184.535 65.7132C184.535 64.8287 184.32 64.008 183.892 63.2512C183.472 62.4852 182.902 61.8652 182.182 61.391C181.471 60.9168 180.678 60.6797 179.802 60.6797C178.918 60.6797 178.124 60.9214 177.422 61.4047C176.72 61.888 176.164 62.5217 175.753 63.3059C175.352 64.081 175.152 64.9108 175.152 65.7953C175.152 66.6707 175.352 67.4959 175.753 68.271C176.155 69.0461 176.697 69.6753 177.381 70.1586C178.074 70.6327 178.854 70.8698 179.72 70.8698C180.595 70.8698 181.398 70.6282 182.127 70.1449C182.857 69.6525 183.44 69.0142 183.878 68.23C184.316 67.4366 184.535 66.5977 184.535 65.7132ZM196.803 72.9215C195.846 72.9215 194.984 72.6662 194.218 72.1555C193.452 71.6449 192.809 71.1251 192.29 70.5963L192.221 71.9093C192.221 72.192 192.13 72.4337 191.948 72.6343C191.774 72.8349 191.546 72.9352 191.264 72.9352C190.981 72.9352 190.739 72.8349 190.539 72.6343C190.338 72.4337 190.238 72.192 190.238 71.9093V54.6888C190.238 54.4061 190.338 54.1645 190.539 53.9639C190.739 53.7632 190.981 53.6629 191.264 53.6629C191.546 53.6629 191.788 53.7632 191.989 53.9639C192.189 54.1645 192.29 54.4061 192.29 54.6888V60.8712C192.846 60.2876 193.493 59.7724 194.232 59.3256C194.97 58.8788 195.787 58.6554 196.68 58.6554C197.629 58.6554 198.495 58.856 199.279 59.2572C200.072 59.6584 200.761 60.201 201.344 60.8849C201.928 61.5597 202.379 62.3302 202.698 63.1965C203.018 64.0627 203.177 64.9609 203.177 65.891C203.177 67.1221 202.904 68.2756 202.357 69.3516C201.809 70.4184 201.057 71.2802 200.1 71.9367C199.142 72.5932 198.043 72.9215 196.803 72.9215ZM196.762 70.8698C197.629 70.8698 198.385 70.6418 199.033 70.1859C199.689 69.7209 200.195 69.1145 200.551 68.3667C200.916 67.6099 201.098 66.7983 201.098 65.9321C201.098 65.0567 200.916 64.2223 200.551 63.429C200.186 62.6266 199.676 61.9746 199.019 61.4731C198.363 60.9624 197.592 60.7071 196.708 60.7071C195.796 60.7071 195.007 60.9487 194.341 61.432C193.685 61.9062 193.179 62.5217 192.823 63.2785C192.476 64.0354 192.303 64.8424 192.303 65.6995C192.303 66.5567 192.481 67.3819 192.837 68.1753C193.192 68.9686 193.703 69.616 194.369 70.1175C195.043 70.6191 195.841 70.8698 196.762 70.8698ZM207.95 56.549C207.558 56.549 207.212 56.4077 206.911 56.125C206.619 55.8423 206.473 55.5003 206.473 55.0991C206.473 54.6979 206.619 54.356 206.911 54.0733C207.212 53.7906 207.558 53.6493 207.95 53.6493C208.351 53.6493 208.698 53.7906 208.99 54.0733C209.282 54.356 209.427 54.6979 209.427 55.0991C209.427 55.5003 209.282 55.8423 208.99 56.125C208.698 56.4077 208.351 56.549 207.95 56.549ZM206.952 59.5171C206.952 59.28 207.061 59.0749 207.28 58.9016C207.499 58.7192 207.704 58.628 207.896 58.628C208.215 58.628 208.479 58.7238 208.689 58.9153C208.899 59.1068 209.003 59.3575 209.003 59.6676L209.031 71.9367C209.031 72.2194 208.931 72.461 208.73 72.6616C208.529 72.8622 208.288 72.9625 208.005 72.9625C207.722 72.9625 207.481 72.8577 207.28 72.6479C207.079 72.4473 206.979 72.2057 206.979 71.923L206.952 59.5171ZM219.371 72.9352C218.131 72.9352 217.032 72.6069 216.074 71.9504C215.117 71.2938 214.365 70.4321 213.818 69.3652C213.27 68.2892 212.997 67.1357 212.997 65.9047C212.997 64.9746 213.156 64.0764 213.476 63.2102C213.795 62.3439 214.246 61.5734 214.83 60.8986C215.413 60.2147 216.102 59.6721 216.895 59.2709C217.688 58.8697 218.555 58.6691 219.494 58.6691C220.388 58.6691 221.204 58.8925 221.942 59.3393C222.681 59.7861 223.328 60.3013 223.885 60.8849V54.7025C223.885 54.4198 223.985 54.1781 224.185 53.9775C224.386 53.7769 224.628 53.6766 224.91 53.6766C225.202 53.6766 225.444 53.7769 225.635 53.9775C225.836 54.1781 225.936 54.4198 225.936 54.7025V71.923C225.936 72.2057 225.836 72.4473 225.635 72.6479C225.435 72.8486 225.193 72.9489 224.91 72.9489C224.628 72.9489 224.395 72.8486 224.213 72.6479C224.04 72.4473 223.953 72.2057 223.953 71.923L223.885 70.6099C223.365 71.1388 222.722 71.6586 221.956 72.1692C221.19 72.6799 220.328 72.9352 219.371 72.9352ZM219.412 70.8835C220.342 70.8835 221.14 70.6327 221.805 70.1312C222.471 69.6297 222.982 68.9823 223.337 68.1889C223.693 67.3956 223.871 66.5704 223.871 65.7132C223.871 64.8561 223.693 64.0491 223.337 63.2922C222.991 62.5354 222.489 61.9199 221.833 61.4457C221.176 60.9624 220.388 60.7208 219.467 60.7208C218.582 60.7208 217.812 60.9761 217.155 61.4867C216.498 61.9883 215.988 62.6402 215.623 63.4427C215.258 64.236 215.076 65.0704 215.076 65.9457C215.076 66.812 215.254 67.6236 215.609 68.3804C215.974 69.1282 216.48 69.7345 217.128 70.1996C217.784 70.6555 218.546 70.8835 219.412 70.8835ZM236.331 58.6144C237.288 58.6144 238.182 58.8059 239.012 59.1888C239.842 59.5718 240.567 60.1007 241.187 60.7755C241.816 61.4411 242.304 62.2025 242.65 63.0597C243.006 63.9169 243.184 64.8242 243.184 65.7816C243.184 67.0491 242.883 68.2254 242.281 69.3105C241.679 70.3956 240.863 71.2756 239.832 71.9504C238.811 72.616 237.662 72.9534 236.386 72.9625C235.091 72.9625 233.924 72.6297 232.884 71.9641C231.845 71.2984 231.019 70.423 230.408 69.3379C229.807 68.2436 229.506 67.0582 229.506 65.7816C229.506 64.8333 229.679 63.9305 230.025 63.0734C230.381 62.2071 230.869 61.4411 231.489 60.7755C232.109 60.1007 232.829 59.5718 233.65 59.1888C234.48 58.8059 235.373 58.6144 236.331 58.6144ZM236.331 60.6661C235.437 60.6661 234.63 60.9031 233.91 61.3773C233.19 61.8515 232.615 62.4761 232.187 63.2512C231.767 64.0172 231.557 64.8515 231.557 65.7543C231.557 66.6661 231.767 67.5142 232.187 68.2984C232.606 69.0826 233.18 69.7163 233.91 70.1996C234.639 70.6738 235.46 70.9108 236.372 70.9108C237.275 70.9017 238.082 70.6601 238.793 70.1859C239.513 69.7026 240.083 69.0734 240.503 68.2984C240.922 67.5233 241.132 66.6844 241.132 65.7816C241.132 64.8789 240.918 64.04 240.489 63.2649C240.07 62.4807 239.495 61.8515 238.766 61.3773C238.045 60.9031 237.234 60.6661 236.331 60.6661ZM254.276 53.7587C255.771 53.7587 257.103 54.1143 258.27 54.8256C259.437 55.5368 260.285 56.476 260.814 57.6432C260.878 57.7709 260.91 57.9077 260.91 58.0536C260.91 58.318 260.814 58.546 260.622 58.7375C260.431 58.929 260.203 59.0247 259.939 59.0247C259.765 59.0247 259.587 58.97 259.405 58.8606C259.232 58.742 259.109 58.6007 259.036 58.4365C258.662 57.5976 258.046 56.9365 257.189 56.4532C256.341 55.9608 255.37 55.7146 254.276 55.7146C253.692 55.7146 253.086 55.7876 252.457 55.9335C251.837 56.0703 251.258 56.28 250.72 56.5627C250.191 56.8453 249.762 57.2055 249.434 57.6432C249.106 58.0718 248.941 58.5733 248.941 59.1478C248.941 59.8135 249.16 60.356 249.598 60.7755C250.036 61.1858 250.592 61.5095 251.267 61.7466C251.951 61.9746 252.662 62.1524 253.4 62.2801C254.148 62.3986 254.828 62.4989 255.439 62.581C256.168 62.6813 256.893 62.8363 257.613 63.046C258.343 63.2466 259.004 63.5339 259.597 63.9077C260.189 64.2725 260.663 64.7466 261.019 65.3302C261.384 65.9138 261.566 66.6296 261.566 67.4777C261.566 68.4078 261.343 69.2193 260.896 69.9124C260.449 70.5963 259.861 71.1662 259.132 71.6221C258.411 72.0689 257.622 72.4063 256.765 72.6343C255.917 72.8531 255.087 72.9625 254.276 72.9625C252.589 72.9625 251.071 72.5796 249.721 71.8136C248.372 71.0476 247.41 70.0035 246.835 68.6813C246.78 68.5354 246.753 68.4032 246.753 68.2847C246.753 68.0202 246.849 67.7923 247.04 67.6008C247.232 67.4093 247.46 67.3135 247.724 67.3135C247.907 67.3135 248.084 67.3728 248.258 67.4914C248.44 67.6099 248.563 67.7512 248.627 67.9154C249.055 68.8911 249.771 69.657 250.774 70.2133C251.786 70.7695 252.954 71.0476 254.276 71.0476C254.859 71.0476 255.461 70.9792 256.081 70.8425C256.711 70.6966 257.294 70.4823 257.832 70.1996C258.37 69.9078 258.803 69.5385 259.132 69.0917C259.469 68.6357 259.638 68.0977 259.638 67.4777C259.638 66.7482 259.401 66.1874 258.926 65.7953C258.461 65.3941 257.887 65.1023 257.203 64.9199C256.519 64.7284 255.844 64.5916 255.179 64.5096C254.285 64.3819 253.359 64.2223 252.402 64.0308C251.454 63.8393 250.569 63.5612 249.748 63.1965C248.928 62.8317 248.262 62.3256 247.751 61.6782C247.241 61.0217 246.986 60.1736 246.986 59.1341C246.986 58.2587 247.204 57.4882 247.642 56.8225C248.08 56.1478 248.654 55.587 249.365 55.1402C250.086 54.6842 250.875 54.3423 251.732 54.1143C252.589 53.8772 253.437 53.7587 254.276 53.7587Z" fill="url(#paint0_radial_966_2091)"/>
<path d="M264.465 57.9715C264.283 57.9715 264.123 57.9031 263.987 57.7663C263.85 57.6295 263.782 57.4654 263.782 57.2739C263.782 57.046 263.85 56.8089 263.987 56.5627C264.133 56.3073 264.31 56.0657 264.52 55.8377C264.73 55.6007 264.94 55.3864 265.149 55.1949C265.368 54.9943 265.551 54.8301 265.696 54.7025C265.988 54.4471 266.298 54.2146 266.627 54.0049C266.964 53.786 267.279 53.5581 267.57 53.321C267.871 53.0748 268.117 52.8012 268.309 52.5003C268.5 52.1903 268.596 51.821 268.596 51.3924C268.596 51.0641 268.519 50.7678 268.364 50.5033C268.218 50.2389 268.017 50.0292 267.762 49.8741C267.506 49.71 267.219 49.6279 266.9 49.6279C266.499 49.6279 266.157 49.7556 265.874 50.0109C265.592 50.2571 265.414 50.5398 265.341 50.859C265.313 51.0049 265.231 51.1325 265.095 51.2419C264.967 51.3514 264.826 51.4061 264.671 51.4061C264.479 51.4061 264.315 51.3422 264.178 51.2146C264.051 51.0778 263.987 50.9182 263.987 50.7359C263.987 50.3985 264.069 50.0839 264.233 49.7921C264.406 49.4912 264.63 49.2267 264.903 48.9988C265.186 48.7708 265.5 48.593 265.847 48.4653C266.193 48.3285 266.549 48.2601 266.914 48.2601C267.506 48.2601 268.031 48.4015 268.487 48.6842C268.943 48.9577 269.303 49.3316 269.567 49.8058C269.832 50.2708 269.964 50.7906 269.964 51.365C269.964 51.9669 269.845 52.4866 269.608 52.9243C269.38 53.3529 269.089 53.7313 268.733 54.0596C268.377 54.3788 268.008 54.6706 267.625 54.935C267.251 55.1903 266.914 55.4456 266.613 55.701C266.285 55.9928 265.997 56.2891 265.751 56.59H269.745C269.937 56.59 270.096 56.6584 270.224 56.7952C270.361 56.932 270.429 57.0915 270.429 57.2739C270.429 57.4654 270.361 57.6295 270.224 57.7663C270.096 57.9031 269.937 57.9715 269.745 57.9715H264.465Z" fill="url(#paint1_linear_966_2091)"/>
<path d="M134.679 14.8816C134.679 13.9147 135.463 13.1309 136.43 13.1309V13.1309C137.397 13.1309 138.181 13.9147 138.181 14.8816V103.296C138.181 104.263 137.397 105.047 136.43 105.047V105.047C135.463 105.047 134.679 104.263 134.679 103.296V14.8816Z" fill="url(#paint2_linear_966_2091)"/>
<g filter="url(#filter0_d_966_2091)">
<path d="M84.0114 56.1077H43.0135C35.9221 56.1077 30.1735 62.4209 30.1735 70.2087V78.8673C30.1735 86.6551 35.9221 92.9683 43.0135 92.9683H84.0114C91.1028 92.9683 96.8515 86.6551 96.8515 78.8673V70.2087C96.8515 62.4209 91.1028 56.1077 84.0114 56.1077Z" fill="url(#paint3_linear_966_2091)"/>
<path d="M84.0116 56.2313H43.0136C35.9845 56.2313 30.2863 62.4892 30.2863 70.2087V78.8672C30.2863 86.5867 35.9845 92.8446 43.0136 92.8446H84.0116C91.0407 92.8446 96.739 86.5867 96.739 78.8672V70.2087C96.739 62.4892 91.0407 56.2313 84.0116 56.2313Z" fill="url(#paint4_linear_966_2091)" stroke="black" stroke-width="1.9"/>
</g>
<path d="M109.1 54.7362C109.1 53.8481 108.445 53.1282 107.636 53.1282C106.828 53.1282 106.172 53.8481 106.172 54.7362V86.4017C106.172 87.2898 106.828 88.0097 107.636 88.0097C108.445 88.0097 109.1 87.2898 109.1 86.4017V54.7362Z" fill="url(#paint5_linear_966_2091)"/>
<g filter="url(#filter1_d_966_2091)">
<path d="M63.2894 24.0873C63.4277 24.0005 63.5976 24.0005 63.7359 24.0873L109.006 52.4619C109.309 52.6519 109.309 53.1313 109.006 53.3213L63.7359 81.6959C63.5976 81.7827 63.4277 81.7827 63.2894 81.6959L18.0191 53.3213C17.7164 53.1313 17.7164 52.6519 18.0191 52.4619L63.2894 24.0873Z" fill="url(#paint6_linear_966_2091)"/>
<path d="M63.4008 24.3021C63.4701 24.2588 63.5548 24.2588 63.6242 24.3021L108.894 52.6769C109.046 52.7717 109.046 53.0116 108.894 53.1064L63.6242 81.4812C63.5548 81.5245 63.4701 81.5245 63.4008 81.4812L18.1307 53.1064C17.9793 53.0116 17.9793 52.7717 18.1307 52.6767L63.4008 24.3021Z" stroke="black" stroke-width="2.21667"/>
</g>
<path d="M43.1893 82.5133C44.6822 82.5133 45.8925 81.4057 45.8925 80.0394C45.8925 78.6731 44.6822 77.5656 43.1893 77.5656C41.6964 77.5656 40.4861 78.6731 40.4861 80.0394C40.4861 81.4057 41.6964 82.5133 43.1893 82.5133Z" fill="#010101"/>
<path d="M84.4337 82.5133C85.9266 82.5133 87.1369 81.4057 87.1369 80.0394C87.1369 78.6731 85.9266 77.5656 84.4337 77.5656C82.9408 77.5656 81.7305 78.6731 81.7305 80.0394C81.7305 81.4057 82.9408 82.5133 84.4337 82.5133Z" fill="#010101"/>
<ellipse cx="107.699" cy="91.3119" rx="6.11027" ry="6.10938" fill="#FBCB4E"/>
<path d="M113.651 91.3119C113.651 94.5986 110.987 97.2629 107.699 97.2629C104.412 97.2629 101.748 94.5986 101.748 91.3119C101.748 88.0252 104.412 85.3608 107.699 85.3608C110.987 85.3608 113.651 88.0252 113.651 91.3119Z" stroke="black" stroke-opacity="0.08" stroke-width="0.316667"/>
<path d="M112.86 91.3119C112.86 94.1612 110.55 96.4713 107.699 96.4713C104.849 96.4713 102.539 94.1612 102.539 91.3119C102.539 88.4626 104.849 86.1525 107.699 86.1525C110.55 86.1525 112.86 88.4626 112.86 91.3119Z" stroke="black" stroke-opacity="0.08" stroke-width="1.9"/>
<path d="M113.672 84.9761L116.86 81.7881" stroke="#FBCB4E" stroke-width="1.9"/>
<path d="M107.786 98.7089V103.368" stroke="#FBCB4E" stroke-width="1.9"/>
<path d="M115.143 90.8615H120.048" stroke="#FBCB4E" stroke-width="1.9"/>
<path d="M99.9391 90.8615H95.2798" stroke="#FBCB4E" stroke-width="1.9"/>
<path d="M101.41 97.2374L98.4673 100.18" stroke="#FBCB4E" stroke-width="1.9"/>
<path d="M113.672 97.2374L116.86 100.18" stroke="#FBCB4E" stroke-width="1.9"/>
<path d="M101.41 84.9761L98.4673 81.7881" stroke="#FBCB4E" stroke-width="1.9"/>
<defs>
<filter id="filter0_d_966_2091" x="28.0696" y="55.2814" width="70.8861" height="41.0466" filterUnits="userSpaceOnUse" color-interpolation-filters="sRGB">
<feFlood flood-opacity="0" result="BackgroundImageFix"/>
<feColorMatrix in="SourceAlpha" type="matrix" values="0 0 0 0 0 0 0 0 0 0 0 0 0 0 0 0 0 0 127 0" result="hardAlpha"/>
<feOffset dy="1.26667"/>
<feGaussianBlur stdDeviation="0.633335"/>
<feComposite in2="hardAlpha" operator="out"/>
<feColorMatrix type="matrix" values="0 0 0 0 0 0 0 0 0 0 0 0 0 0 0 0 0 0 0.25 0"/>
<feBlend mode="normal" in2="BackgroundImageFix" result="effect1_dropShadow_966_2091"/>
<feBlend mode="normal" in="SourceGraphic" in2="effect1_dropShadow_966_2091" result="shape"/>
</filter>
<filter id="filter1_d_966_2091" x="15.6421" y="23.1614" width="95.7407" height="61.9939" filterUnits="userSpaceOnUse" color-interpolation-filters="sRGB">
<feFlood flood-opacity="0" result="BackgroundImageFix"/>
<feColorMatrix in="SourceAlpha" type="matrix" values="0 0 0 0 0 0 0 0 0 0 0 0 0 0 0 0 0 0 127 0" result="hardAlpha"/>
<feOffset dy="1.26667"/>
<feGaussianBlur stdDeviation="0.633335"/>
<feComposite in2="hardAlpha" operator="out"/>
<feColorMatrix type="matrix" values="0 0 0 0 0 0 0 0 0 0 0 0 0 0 0 0 0 0 0.25 0"/>
<feBlend mode="normal" in2="BackgroundImageFix" result="effect1_dropShadow_966_2091"/>
<feBlend mode="normal" in="SourceGraphic" in2="effect1_dropShadow_966_2091" result="shape"/>
</filter>
<radialGradient id="paint0_radial_966_2091" cx="0" cy="0" r="1" gradientUnits="userSpaceOnUse" gradientTransform="translate(228.854 71.3035) rotate(99.4468) scale(32.4323 87.7399)">
<stop stop-color="#4A90E2"/>
<stop offset="0.9999" stop-color="#9E3623"/>
<stop offset="1" stop-color="#FF3030"/>
</radialGradient>
<linearGradient id="paint1_linear_966_2091" x1="223.531" y1="51.6479" x2="223.531" y2="103.296" gradientUnits="userSpaceOnUse">
<stop stop-color="#FFEC88"/>
<stop offset="1" stop-color="#998100"/>
</linearGradient>
<linearGradient id="paint2_linear_966_2091" x1="136.43" y1="13.1309" x2="136.43" y2="105.047" gradientUnits="userSpaceOnUse">
<stop stop-color="#1D71A0"/>
<stop offset="1" stop-color="#A54944"/>
</linearGradient>
<linearGradient id="paint3_linear_966_2091" x1="63.5125" y1="56.1077" x2="63.5125" y2="92.9683" gradientUnits="userSpaceOnUse">
<stop stop-color="#3085AA"/>
<stop offset="1" stop-color="#1B4469"/>
</linearGradient>
<linearGradient id="paint4_linear_966_2091" x1="63.5126" y1="56.2313" x2="63.5126" y2="92.8446" gradientUnits="userSpaceOnUse">
<stop stop-color="#3085AA"/>
<stop offset="1" stop-color="#1B4469"/>
</linearGradient>
<linearGradient id="paint5_linear_966_2091" x1="107.636" y1="53.1282" x2="107.636" y2="88.0097" gradientUnits="userSpaceOnUse">
<stop stop-color="#145377"/>
<stop offset="1" stop-color="#733A37"/>
</linearGradient>
<linearGradient id="paint6_linear_966_2091" x1="63.5127" y1="18.01" x2="63.5127" y2="81.8359" gradientUnits="userSpaceOnUse">
<stop stop-color="#FF3030"/>
<stop offset="1" stop-color="#1B4469"/>
</linearGradient>
</defs>
</svg>
