<svg width="177" height="220" viewBox="0 0 177 220" fill="none" xmlns="http://www.w3.org/2000/svg">
<path d="M133.004 0C115.843 0 98.6732 7.16605 85.6016 21.5076C60.413 49.1444 59.4989 93.4508 82.8512 122.304L76.0752 129.723L81.7641 135.965L88.5264 128.531C114.823 154.153 155.204 153.15 180.393 125.513C206.535 96.8307 206.536 50.1902 180.393 21.5081C167.323 7.16605 150.166 0 133.004 0ZM133.004 8.74417C148.096 8.74417 163.181 15.0755 174.719 27.7348C197.794 53.0529 197.794 93.9685 174.719 119.286C152.596 143.559 117.418 144.556 94.2157 122.289L94.3093 122.187C93.3003 121.221 92.3051 120.222 91.3442 119.168C90.3966 118.129 89.5031 117.05 88.6337 115.959L88.5401 116.063C68.2447 90.6059 69.1541 52.0076 91.2768 27.7348C102.815 15.0755 117.912 8.74417 133.004 8.74417ZM133.004 17.6066C119.99 17.6066 106.973 23.0711 97.0202 33.9907C77.1147 55.8309 77.1147 91.1015 97.0202 112.941C101.374 117.718 106.308 121.456 111.577 124.144C100.882 115.152 93.9868 100.998 93.9868 85.0726C93.9868 77.8543 95.4002 70.993 97.9454 64.8162C96.1572 74.4663 98.1343 84.0739 104.158 90.6818C114.713 102.263 133.673 100.253 146.502 86.1773C159.331 72.1015 161.163 51.2986 150.607 39.7171C149.587 38.5979 148.485 37.61 147.32 36.7432C166.697 40.8171 181.648 58.5754 183.493 80.4952C185.399 63.9744 180.565 46.7065 168.975 33.9902C159.023 23.0706 146.018 17.6066 133.004 17.6066ZM65.6506 130.724L7.76866 194.232L22.6078 210.513L80.4902 147.006L65.6506 130.724ZM6.8696 205.685L0 213.207L5.676 219.434L12.5319 211.897L6.8696 205.685Z" fill="#263061" fill-opacity="0.3"/>
</svg>
