<svg width="41" height="50" viewBox="0 0 41 50" fill="none" xmlns="http://www.w3.org/2000/svg">
<g id="Group 58">
<ellipse id="Ellipse 23" cx="20.0446" cy="20.2311" rx="20.0446" ry="20.2311" fill="#A8A8A8"/>
<path id="Ellipse 21" d="M27.0316 33.5258C32.3453 33.5258 36.8564 28.866 33.8965 24.4529C33.3299 23.608 32.6814 22.8132 31.9562 22.0814C28.949 19.0461 24.8702 17.3409 20.6173 17.3409C16.3644 17.3409 12.2856 19.0461 9.27835 22.0814C8.55323 22.8132 7.90472 23.608 7.33804 24.4529C4.37823 28.866 8.88926 33.5258 14.203 33.5258L20.6173 33.5258H27.0316Z" fill="#171621"/>
<path id="Ellipse 22" d="M28.9788 11.5606C28.9788 16.2326 25.2283 20.0073 20.6174 20.0073C16.0064 20.0073 12.2559 16.2326 12.2559 11.5606C12.2559 6.88862 16.0064 3.11392 20.6174 3.11392C25.2283 3.11392 28.9788 6.88862 28.9788 11.5606Z" fill="#171621" stroke="#A8A8A8" stroke-width="1.60357"/>
</g>
</svg>
