<svg width="45" height="45" viewBox="0 0 45 45" fill="none" xmlns="http://www.w3.org/2000/svg">
<path id="Vector" d="M44.6165 10.8098C45.7384 9.68535 44.3155 6.43844 41.4324 3.55775C38.5834 0.710425 35.3869 -0.705063 34.2248 0.347411L34.2022 0.325727L18.2323 14.6607C15.2797 12.0887 10.8149 12.1765 8.00229 14.9854C7.52893 15.4592 7.26215 16.1014 7.26215 16.7712C7.26215 17.4412 7.52884 18.0835 8.00229 18.5565L15.2473 25.7967L0.358714 42.5927C-0.11455 43.1255 -0.125031 43.9392 0.360093 44.4855C0.883093 45.0738 1.78476 45.1279 2.37487 44.6044L19.1593 29.7074L19.8801 30.4268L23.6126 34.1573L26.4014 36.9439C26.8749 37.4168 27.5174 37.6825 28.1871 37.6825C28.8562 37.6825 29.4992 37.4163 29.9723 36.9424C32.7819 34.1333 32.8704 29.6694 30.2977 26.719L44.5659 10.8396C44.5802 10.8269 44.6032 10.8241 44.6165 10.8098Z" fill="#263061"/>
</svg>
