<svg width="144" height="202" viewBox="0 0 144 202" fill="none" xmlns="http://www.w3.org/2000/svg">
<path d="M200.402 48.5537C205.441 43.5032 199.05 28.9192 186.1 15.9802C173.303 3.19098 158.946 -3.16689 153.726 1.56045L153.624 1.46305L81.893 65.8507C68.6311 54.2983 48.5765 54.6924 35.9435 67.3091C33.8173 69.4373 32.619 72.3216 32.619 75.3305C32.619 78.3398 33.8169 81.2249 35.9435 83.3495L68.4853 115.87L1.61122 191.312C-0.51452 193.705 -0.561594 197.36 1.61741 199.813C3.96655 202.456 8.01652 202.699 10.6671 200.347L86.0569 133.435L89.2943 136.666L106.059 153.423L118.586 165.939C120.712 168.063 123.598 169.257 126.607 169.257C129.612 169.257 132.5 168.061 134.625 165.932C147.245 153.315 147.642 133.265 136.087 120.012L200.174 48.6878C200.239 48.6308 200.342 48.618 200.402 48.5537Z" fill="#263061" fill-opacity="0.3"/>
</svg>
