<svg width="50" height="52" viewBox="0 0 50 52" fill="none" xmlns="http://www.w3.org/2000/svg">
<path d="M13.8889 0C6.23056 0 0 6.47978 0 14.4444V37.5556C0 45.5202 6.23056 52 13.8889 52H36.1111C43.7694 52 50 45.5202 50 37.5556V14.4444C50 6.47978 43.7694 0 36.1111 0H13.8889ZM13.8889 5.77778H36.1111C40.7056 5.77778 44.4444 9.66622 44.4444 14.4444V37.5556C44.4444 42.3338 40.7056 46.2222 36.1111 46.2222H13.8889C9.29444 46.2222 5.55556 42.3338 5.55556 37.5556V14.4444C5.55556 9.66622 9.29444 5.77778 13.8889 5.77778ZM38.8889 8.66667C38.1522 8.66667 37.4456 8.97103 36.9247 9.5128C36.4038 10.0546 36.1111 10.7894 36.1111 11.5556C36.1111 12.3217 36.4038 13.0565 36.9247 13.5983C37.4456 14.1401 38.1522 14.4444 38.8889 14.4444C39.6256 14.4444 40.3321 14.1401 40.8531 13.5983C41.374 13.0565 41.6667 12.3217 41.6667 11.5556C41.6667 10.7894 41.374 10.0546 40.8531 9.5128C40.3321 8.97103 39.6256 8.66667 38.8889 8.66667ZM25 11.5556C17.3417 11.5556 11.1111 18.0353 11.1111 26C11.1111 33.9647 17.3417 40.4444 25 40.4444C32.6583 40.4444 38.8889 33.9647 38.8889 26C38.8889 18.0353 32.6583 11.5556 25 11.5556ZM25 17.3333C29.5944 17.3333 33.3333 21.2218 33.3333 26C33.3333 30.7782 29.5944 34.6667 25 34.6667C20.4056 34.6667 16.6667 30.7782 16.6667 26C16.6667 21.2218 20.4056 17.3333 25 17.3333Z" fill="url(#paint0_linear_321_1404)"/>
<defs>
<linearGradient id="paint0_linear_321_1404" x1="25" y1="0" x2="25" y2="52" gradientUnits="userSpaceOnUse">
<stop stop-color="#E44B4B"/>
<stop offset="1" stop-color="#2C67BF"/>
</linearGradient>
</defs>
</svg>
