<svg width="51" height="49" viewBox="0 0 51 49" fill="none" xmlns="http://www.w3.org/2000/svg">
<path d="M17.4106 48.5129C18.1945 48.1818 18.7436 47.4168 18.7436 46.5263V40.6835C18.7436 40.4703 18.7613 40.2485 18.7888 40.0235C18.7734 40.0278 18.7591 40.031 18.7436 40.0343C18.7436 40.0343 15.4359 40.0343 14.7744 40.0343C13.1205 40.0343 11.6872 39.3851 11.0257 38.0867C10.2539 36.6801 9.92309 34.2996 7.93847 33.0012C7.6077 32.7848 7.82822 32.4602 8.48976 32.4602C9.15129 32.5684 10.5846 33.434 11.4667 34.6242C12.459 35.8144 13.4513 36.7883 15.2154 36.7883C17.9575 36.7883 19.4272 36.653 20.3115 36.1877C21.3413 34.6848 22.7669 33.5422 24.2564 33.5422V33.5152C18.0071 33.3183 14.0147 31.2798 12.1558 28.1322C8.11488 28.1776 4.5966 28.5704 2.58882 28.8972C2.52488 28.5434 2.46975 28.1874 2.42234 27.8292C4.40365 27.509 7.76206 27.1292 11.6232 27.0567C11.4998 26.758 11.3928 26.4518 11.3024 26.1381C7.43129 25.9455 4.09052 26.0959 2.2757 26.243C2.25364 25.8838 2.22387 25.5256 2.21946 25.1621C4.0376 25.016 7.28796 24.8699 11.0598 25.042C10.9727 24.501 10.9165 23.9481 10.9165 23.3724C10.9165 21.533 11.578 19.5854 12.7909 17.9624C12.2396 16.123 11.4678 12.2278 13.0114 10.8212C15.9883 10.8212 18.0832 12.2278 19.0755 13.0934C20.9487 12.3349 23.0436 11.9021 25.359 11.9021C27.6744 11.9021 29.7693 12.3349 31.5334 13.0923C32.5257 12.2267 34.6206 10.8201 37.5975 10.8201C39.2513 12.3349 38.3693 16.2301 37.818 17.9613C39.0308 19.5843 39.6924 21.4237 39.5821 23.3714C39.5821 23.8951 39.5325 24.4004 39.4608 24.8959C43.3187 24.7098 46.6573 24.8591 48.5063 25.0063C48.5041 25.3709 48.4699 25.7269 48.45 26.0872C46.6077 25.9379 43.1853 25.7842 39.2337 25.9909C39.1356 26.3545 39.0165 26.7083 38.8754 27.0513C42.7851 27.101 46.224 27.4722 48.3001 27.7968C48.2527 28.156 48.1976 28.512 48.1336 28.8647C46.0255 28.5336 42.4322 28.1463 38.3439 28.1268C36.5082 31.2408 32.5885 33.2717 26.4616 33.5087V33.5422C29.3282 33.5422 31.9744 37.7621 31.9744 40.6835V46.5263C31.9744 47.4168 32.5235 48.1818 33.3074 48.5129C43.408 45.2322 50.718 35.8837 50.718 24.8862C50.718 11.1642 39.3428 0 25.359 0C11.3752 0 0 11.1642 0 24.8862C0 35.8837 7.31001 45.2322 17.4106 48.5129Z" fill="url(#paint0_linear_321_1406)"/>
<defs>
<linearGradient id="paint0_linear_321_1406" x1="25.359" y1="0" x2="25.359" y2="48.5129" gradientUnits="userSpaceOnUse">
<stop stop-color="#E44B4B"/>
<stop offset="1" stop-color="#2C67BF"/>
</linearGradient>
</defs>
</svg>
